<?xml version="1.0" encoding="UTF-8"?>
<svg id="Layer_1" data-name="Layer 1" xmlns="http://www.w3.org/2000/svg" xmlns:xlink="http://www.w3.org/1999/xlink" version="1.1" viewBox="0 0 327 369">
  <defs>
    <style>
      .cls-1 {
        clip-path: url(#clippath);
      }

      .cls-2 {
        fill: none;
      }

      .cls-2, .cls-3 {
        stroke-width: 0px;
      }

      .cls-3 {
        fill: #2a2a2a;
      }
    </style>
    <clipPath id="clippath">
      <rect class="cls-2" width="327" height="369"/>
    </clipPath>
  </defs>
  <g class="cls-1">
    <g>
      <path class="cls-3" d="M245.9,34.6l3,10.1-1.5,4.4v3.8l-2.3,1.1-3.9-4v-2.6l-1.8-1.6-.7-2.2-1.2-.5-.6,1.1,1.3,1.6v1.9c0,0,1.8,2.2,1.8,2.2l2.9,3.9.5,3,1.5,1.8-.5,1,1.4,2.1,1,2.7,1.2,1.1,1.4,3.5,2.8,5.2v2.7l.7,2.3,2.8,1.8,2.3,2.8,1,2.5,1.5,2.4-.7.6.7,2.3-.5,1.2.5,3.4.5,3.6,5.7,4.6,2,3.1,1,3.9.5,3,1.2,2.6.7,1.6.9-1.2,1,.6.6,1.9h2.2l1.3,1.1,1.2.4,1.3,1.8,1.2,1.6,1.9,1.4,2.2,2.1,1,1.7h1.2l1.6,2.1v2l-1.8,1.2-1.4,1.1.4.5,1.2-.6,1.2.6,1.3,1,.8,1.6,1.1,1.2,1.1.4,1.2,1.1h1.1l1.6-.4,1.9-.7,1.4-.7h2.1s2.4.2,2.4.2l1.3-.7,1.3-1.2h5c0-.1,1.7-.9,1.7-.9l4.8-.3,3.2-1,3.6-1.4,1.1.7v.9l-.7,1v2.1c.1,0,.4,1.6.4,1.6l.3.8-1.5.3-.4,4.5-1.6,2.1-1.3,2.9-1.8,2.4-2.2,4.2-1.4,3.5-1.6,3-3.2,4.5-2.7,3.8-2.2,2.1-2.9,3.1-3.2,2.4-2.3,1.4-2.9,1.9-4.1,3.4-3.3,3.1-2.7,2.9-2.2,2.4-1.8,2.7-1.1,1.8-2.5,1.2-.2,1.1-1.6,1.2-1.7,1-.5,2.5-1.3,2.9-2.1,3.4-1.4,2.4-1,2.6-.2,3.7,1.2,1.1,1.6,1.4v2.4c0,0-.7.5-.7.5v2.2c0,0,.7.5.7.5l-.5,1.1.2,1.6.7,1.1.5,1.8.6,2,.9,2,2.1,1.4.8,2.4-.9,2.2v1.8c.1,0,.6,2.3.6,2.3l.4,2.4v3.2s-.3,1.3-.3,1.3l.5,1.2-.2,1.6.4,3.1-.2,3.7-1.6,2-2.1,2-2.8,2.8-2,1.2-3,.4-2.6,1.8-2.4,1.3-2.8,3.9-1.2,1.6-2.3.6-2.5,2.7-1.2,1.1h-1.2l-.5,1.8v2.4l1.8,1.7.4,2.3.7,2.3.2,2.2h1v2.1s-.2,3-.2,3l-.8,2.5.3,1.6-.2,1.4-1.2,1.7-2.1,1-3.3,1.2-3.7,1.6-2.2,1.8-.7,1.6.5,1.5h.9v2s-.5,3.2-.5,3.2l-.8,3.9-.8,2.5-2.1,2.3-1.7,1.1-1.4,1.6-2.1,3.3-1.2,3.1-1.6,2.5-2.2,3.1-2.5,1.3-1.6,2.3-3.2,3-2.7,2.5-2.6,2.2-2.5,1.1h-1.9l-1.8.3-1.2.6-.4.9-1.1-.3-.8-.2-.8.5-.5,1.1-1.4-.3-1.8-.5-2-.4-3.7.6-2-.5-1.8.3-1.1,1.4-3.1.5-3.5.2-2.2,1.8-1.7-.2-1.5-1-.6-.8-2-.3-.3-1.5-1.4-.7-.4-1.9-1.4-2-.4-1.4-.4-1.6,1.1-.2.5-1.6v-2.3c-.1,0-.7-2.2-.7-2.2l-1-1.8-1.8-2.6-1.2-2.4-.9-2.7-.9-2.4-.9-2.8-1.2-1.7-1.8-1.4-2.4-2.4-.9-2.1-1-1.8-.6-2.2-.7-3.3-1-4.3.5-1.9-.8-2-1.1-3.1v-5.5l.5-1.7-.9-1.7-2-3.2-1.5-2.8-1.7-3.3-1.4-3.2-1.8-3.7-1.9-2.8-1.4-2.2-.9-2.8.2-2.7v-3.8c0,0-.2-2.1-.2-2.1l1-1.2,1.4-4.1.9-4.3.5-2.6,2.9-3.8,1.7-.6,1.1-2.5.5-3.4v-2.8c0,0-1.4-2.3-1.4-2.3l-1.5-3.6-.2-1.6-.7-.9,1.6-1.8.2-1.5-1-1.9-1.8-3.5v-2l-2.2-3-.6-2.3-.4-2.5-1.2-2.3-1.1-1.6-2.9-2.8-1.7-2-1.1-1.4-2.1-1.4-1.5-2-1.5-2-.7-2.3-.8-2.7,1.2-2.5v-3c-.1,0,1.1.5,1.1.5v-1.2l-1-.9,1.4-.2-.7-2,.8-2.8.7-3.4.6-3-1.1-3.4-.4-1.3-1.2-.3-.7.3-1.3-1.3-.7-1.8-1.2.6-.5-1-.8.5-1.7.2-2.6.2-2.4.4-2.3.7-1.7.2-1.5-1.2-1.4-2.3-1.5-3-2.3-2.6-2.1-1.9-1.9.3-4.2.7-3.8.4-3.6.6-2.2.3-1.2,1.7-2.8-.2-3.2,1.6-3,1.6h-1.9c0,.1-2.2,1.9-2.2,1.9l-1.9-1.1-2-.4-1.8-1.2h-.9l-1.4.7-2.1-.2-3.2.4h-3s-2.5.9-2.5.9l-3.2,1-2.2.9-2.3,1.1-2.1-1-2.6-1.4-3.8-2.3-3.3-3-3.4-2.4-2.8-1.8-1.6-1.7-3-1-3.3-3.8-.2-2.2-1.5-3.6-1.1-2.3-3-1.6-1.9-1.5-.5-2.3-.8-.2-.8.7-1.5-2.2v-1.5l.4-1.7-1.6.5-2.9-.2-.8-1.8-1.7-.8v-4.6l1.2.7,2.3-.5v-1.3s-2.3,0-2.3,0l-1.2-1.1-.7-2.8-2-1.7,1.6-1.4,1.8-2.7.6-2.1.9-4.7,1.1-3,.3-3.3-.7-3.1-1.4-2.2v-1.4c0,0,1.1-2.4,1.1-2.4v-2.1c-.1,0-2.5-2.3-2.5-2.3l-1.1-2.1.2-3.2.9-1.6,1.6-.4.4-2.7,1.1-1.8,1.4-2.5v-1.5c.1,0,2.1-2.1,2.1-2.1l2.3-2.5,1-5.5,1-1.9,3-1.8,1.7-1.6.9-3.3,1.4-2.6,3.8-.5,3.2-1.2,1.4-2,2-1.5,2.6-1.9,1.7-2.5,1.2-3.2-.8-3.6v-3c.1,0,1.4-1.8,1.4-1.8l1.6-2.9.3-1.8,1.7-2,1.8-1.9,3-1.2,3.4-1.8,1.8-2.3,1.4-2.9,1.4-3.3.8-2.4.9-.4,1.2.2,1.1,1.5,1.7,1.2,1.6.8h2.3s4.4-.3,4.4-.3l1.2.2.9.7h1.6s3-.4,3-.4l2.3-1.1,1.5-2.1,1.7-.8h2.8l1-1.2,2-1.6,2.3-1,3.2-.6,3.4-.4h1.6l1-1.1h3.3l1.1-.6,1.9.4h2.4s1.9.8,1.9.8l.5.5,1.3-.8,3-.9,1.4-.4,1.6.3,1.7-.3,1.2-.2,1.2.6h2.3s1.2.7,1.2.7l2.2-1.2,2.2-1.2,1.5-.6,1.5.6.7,1.6.8,1.6,1.1-.9,1.9-1,.3.7-.5,1-1.1,1.2-.9,1v2.5s1.1.7,1.1.7l1,1.2v1.8s0,1.4,0,1.4l-1.4,1.8-1.2,1.5-1.9,1.2-.6.9v1c0,0,.9,1.6.9,1.6l1.7.3,1.4-.6v.9s.2.5.2.5l.8-.2.8-.5v1.1c0,0,.2.9.2.9l1.5.2,1.3.6,1.5.9,1.8.8h5.3s2.4.7,2.4.7l1.8,1.2,3,.6,1.2,1.2.4,2.4,1.2,1.6,2.3,1,3.6.5,3.4,1.1,2.9,1.4,2,1.7,2.1,1.2,1.8-.7,2.5-2.4,1.1-1.8-.9-3v-2.5s1.7-1.8,1.7-1.8l2.1-1.3,3-.9,2-.6,3,.5,2.5.9.2,1.8,1,.7,2.6.3,1.2.9h4.3c0,.1.5.8.5.8l.4,1.4h2.1s1-.3,1-.3l1.6.3,3.5.4,2.6,1.4h2s.4.8.4.8l3,.2,3.2,1.3,2.1-1.2,2.5-1.8,1.1-.7,1.8.4,1.3-1.1,2.2.7,2.1-.2.3,1.5,1.7.2,1.1.7,2.3-.2,3.1-.5,1.4-.2.8-.4Z"/>
      <path class="cls-3" d="M295.6,270.7l4.8-1.2,3-1.4,2.9-2.6.7,1.1,2.2-3.6.5,1,.9-1.4v-1.7l.9-.5v-1.8l-.5-1,1.3.5,1.1-.2,1.8-1.1.4-1.5.5-1.4-.4-1.8,1-.8v-.7h.9l.5.7.7.3.6,1.3,1,1.4.7,2.9.7,2.7.4,2.6.6,2.4.4.9-.6,2.2-.5.6-1.5-2-.7-.4-.4.8-.2,1.8v1.5c0,0,.8.8.8.8v.9c.1,0-.2,1.5-.2,1.5l-.9,1.1-.9,1.4.3.9.2,1-.2,1.5-.9,2.7-1.2,3.6-1.7,4.9-.9,2.5-1.5,5.5-.9,2.7-.6,2.7-.7,3.2-.9,3-.9,2.5-1.6,2.7-1.7.3-1.8.8-2.7,1.4-.9.2-2.1-.6-2-1-2.4-1.5-.6-1.8-1-1v-5.5l-1.5-2.6-.4-1.2-.3-2.9,1.4-3.6,1.8-2.4,1.6-2.7,1.4-2.7v-2.1s-1-1.6-1-1.6l-1.2-3.7-.6-4.6,3-5.8Z"/>
    </g>
  </g>
</svg>