<svg width="327" height="369" viewBox="0 0 327 369" fill="none" xmlns="http://www.w3.org/2000/svg">
<g clip-path="url(#clip0_316_59)">
<path d="M245.948 34.604L248.986 44.69L247.467 49.077V52.849L245.127 53.915L241.267 49.897V47.314L239.502 45.756L238.763 43.583L237.572 43.132L236.956 44.28L238.229 45.879L238.311 47.806L240.076 49.979L242.951 53.915L243.443 56.949L244.922 58.794L244.47 59.778L245.866 61.91L246.851 64.575L248.042 65.641L249.438 69.126L252.189 74.374V77.039L252.928 79.294L255.679 81.057L257.979 83.886L258.964 86.387L260.442 88.765L259.785 89.38L260.442 91.676L259.908 92.865L260.442 96.268L260.894 99.917L266.601 104.509L268.613 107.625L269.598 111.561L270.091 114.513L271.282 117.137L272.021 118.695L272.883 117.465L273.869 118.08L274.485 119.966H276.661L277.975 121.073L279.165 121.442L280.438 123.205L281.588 124.804L283.518 126.157L285.735 128.289L286.761 129.97H287.911L289.471 132.061V134.111L287.665 135.3L286.269 136.407L286.679 136.94L287.87 136.366L289.102 136.94L290.375 137.965L291.196 139.564L292.263 140.794L293.372 141.163L294.604 142.229H295.754L297.314 141.819L299.203 141.163L300.599 140.425L302.734 140.384L305.115 140.63L306.388 139.974L307.661 138.785L312.629 138.662L314.354 137.883L319.117 137.596L322.278 136.612L325.891 135.218L327 135.874V136.776L326.302 137.801L326.425 139.851L326.672 141.409L327 142.229L325.481 142.557L325.07 147.026L323.469 149.076L322.155 151.946L320.307 154.365L318.09 158.588L316.735 162.114L315.093 165.066L311.931 169.576L309.221 173.348L307.004 175.439L304.089 178.555L300.886 180.974L298.628 182.368L295.754 184.254L291.606 187.698L288.281 190.773L285.571 193.643L283.353 196.021L281.547 198.768L280.397 200.613L277.851 201.802L277.605 202.909L276.045 204.098L274.361 205.123L273.828 207.624L272.514 210.535L270.461 213.979L269.065 216.357L268.079 218.981L267.915 222.712L269.106 223.86L270.707 225.213L270.625 227.591L270.009 228.042L270.091 230.215L270.748 230.748L270.255 231.855L270.42 233.495L271.118 234.561L271.651 236.365L272.226 238.333L273.171 240.301L275.224 241.654L276.004 244.032L275.059 246.246L275.183 248.05L275.675 250.387L276.045 252.765L276.004 255.922L275.757 257.234L276.209 258.423L276.004 259.981L276.373 263.056L276.209 266.746L274.649 268.755L272.514 270.805L269.722 273.634L267.71 274.823L264.753 275.192L262.167 276.955L259.785 278.226L257.034 282.08L255.802 283.72L253.462 284.294L250.957 287L249.767 288.107H248.576L248.124 289.952V292.371L249.931 294.052L250.341 296.348L251.039 298.685L251.245 300.858H252.271L252.312 302.99L252.025 305.942L251.245 308.443L251.573 310.042L251.327 311.395L250.136 313.076L248.001 314.06L244.716 315.29L241.062 316.93L238.886 318.693L238.229 320.292L238.721 321.768H239.584L239.625 323.777L239.05 327.016L238.229 330.952L237.408 333.494L235.272 335.831L233.548 336.979L232.111 338.619L229.976 341.899L228.744 344.974L227.102 347.516L224.884 350.591L222.421 351.862L220.778 354.199L217.535 357.192L214.866 359.652L212.279 361.825L209.774 362.932H207.845L206.038 363.26L204.806 363.834L204.396 364.777L203.287 364.49L202.466 364.244L201.645 364.777L201.152 365.843L199.715 365.515L197.867 364.982L195.896 364.613L192.16 365.187L190.148 364.695L188.382 365.023L187.233 366.458L184.112 366.991L180.581 367.237L178.405 369L176.721 368.754L175.202 367.77L174.627 366.95L172.656 366.663L172.369 365.187L171.014 364.449L170.644 362.522L169.248 360.554L168.879 359.16L168.509 357.561L169.659 357.315L170.193 355.716L170.07 353.42L169.495 351.247L168.509 349.484L166.703 346.86L165.512 344.482L164.65 341.817L163.746 339.398L162.884 336.569L161.734 334.888L159.969 333.453L157.587 331.075L156.643 328.984L155.658 327.18L155.083 324.966L154.385 321.645L153.358 317.34L153.81 315.454L152.989 313.445L151.921 310.37V304.876L152.414 303.195L151.511 301.514L149.54 298.357L148.02 295.528L146.337 292.248L144.982 289.05L143.134 285.36L141.205 282.572L139.767 280.399L138.823 277.611L139.069 274.946L139.152 271.133L138.823 269.042L139.85 267.853L141.246 263.753L142.108 259.489L142.601 256.906L145.475 253.093L147.158 252.519L148.308 250.018L148.76 246.656L148.677 243.868L147.322 241.531L145.844 237.923L145.598 236.324L144.941 235.381L146.542 233.536L146.707 232.019L145.721 230.133L143.914 226.648V224.68L141.738 221.728L141.122 219.473L140.753 216.972L139.521 214.676L138.454 213.077L135.579 210.289L133.855 208.321L132.746 206.927L130.652 205.533L129.133 203.524L127.655 201.515L126.957 199.178L126.136 196.431L127.326 193.889L127.203 190.855L128.394 191.306V190.117L127.408 189.215L128.763 188.969L128.065 187.001L128.887 184.213L129.585 180.851L130.159 177.817L129.092 174.373L128.722 173.102L127.532 172.774L126.793 173.102L125.52 171.79L124.781 169.945L123.631 170.56L123.138 169.576L122.358 170.027L120.634 170.191L118.006 170.355L115.624 170.724L113.325 171.421L111.642 171.626L110.163 170.396L108.808 168.059L107.33 165.025L105.031 162.442L102.978 160.556L101.089 160.843L96.9011 161.54L93.1236 161.909L89.5514 162.524L87.3752 162.811L86.1845 164.492L83.4334 164.246L80.2308 165.804L77.2745 167.444L75.3447 167.567L73.1274 169.33L71.2387 168.182L69.2268 167.813L67.3791 166.583H66.4347L64.9976 167.28L62.9446 167.034L59.742 167.444L56.7857 167.485L54.24 168.387L50.9962 169.371L48.779 170.314L46.4386 171.421L44.3446 170.437L41.7578 169.002L37.9803 166.706L34.6544 163.713L31.2054 161.294L28.4544 159.449L26.812 157.727L23.8557 156.702L20.5299 152.889L20.3246 150.675L18.8054 147.067L17.7378 144.771L14.6994 143.213L12.8106 141.696L12.3179 139.4L11.4967 139.236L10.7166 139.933L9.23845 137.76V136.284L9.64905 134.603L8.08877 135.054L5.17353 134.89L4.3934 133.045L2.70994 132.225V127.674L3.94174 128.33L6.28214 127.797L6.3232 126.526H3.94174L2.70994 125.378L1.97087 122.59L0 120.868L1.56027 119.474L3.3669 116.809L3.94174 114.677L4.88611 109.962L5.99473 106.969L6.3232 103.648L5.66625 100.532L4.22916 98.359L4.31128 96.965L5.29671 94.546L5.17353 92.414L2.751 90.077L1.60133 87.986L1.84769 84.829L2.79206 83.271L4.3934 82.861L4.80399 80.114L5.95367 78.351L7.39076 75.891L7.51394 74.415L9.52587 72.283L11.8663 69.823L12.8517 64.329L13.8371 62.402L16.8756 60.557L18.559 58.999L19.5034 55.678L20.8994 53.095L24.6769 52.644L27.8385 51.455L29.2756 49.487L31.2875 47.97L33.8743 46.043L35.5578 43.501L36.7896 40.344L36.0094 36.695L36.1326 33.702L37.3644 31.857L38.9657 28.946L39.2942 27.101L40.9776 25.051L42.7843 23.165L45.8227 21.976L49.1896 20.172L50.9962 17.835L52.3923 14.965L53.7472 11.685L54.5684 9.307L55.4307 8.897L56.6214 9.143L57.689 10.66L59.3724 11.89L60.9738 12.71L63.232 12.669L67.5844 12.382L68.8162 12.587L69.7606 13.284L71.3619 13.243L74.3592 12.874L76.6586 11.808L78.1367 9.676L79.8613 8.897H82.6944L83.6798 7.667L85.6507 6.068L87.909 5.084L91.0706 4.51L94.5196 4.141H96.0799L97.1064 3.034H100.391L101.5 2.419L103.43 2.788L105.852 2.747L107.782 3.567L108.316 4.1L109.589 3.321L112.545 2.419L113.941 2.009L115.542 2.337L117.267 2.009L118.457 1.763L119.648 2.337L121.948 2.378L123.179 2.993L125.355 1.763L127.573 0.574L129.092 0L130.57 0.615L131.309 2.173L132.089 3.731L133.239 2.829L135.169 1.804L135.456 2.542L134.922 3.526L133.814 4.715L132.869 5.699L132.91 8.159L134.019 8.815L135.046 10.004L135.087 11.849V13.284L133.691 15.129L132.5 16.605L130.57 17.835L129.995 18.696L130.077 19.68L130.94 21.279L132.623 21.566L134.019 20.992L134.06 21.853L134.183 22.386L135.005 22.181L135.826 21.73L135.908 22.837L136.072 23.698L137.591 23.862L138.864 24.477L140.342 25.42L142.108 26.24H144.654L147.446 26.281L149.827 26.978L151.634 28.167L154.631 28.782L155.863 29.971L156.273 32.349L157.423 33.948L159.681 34.932L163.295 35.383L166.744 36.49L169.618 37.884L171.589 39.606L173.724 40.795L175.531 40.139L178.076 37.761L179.144 35.957L178.282 32.923L178.323 30.463L179.965 28.618L182.1 27.306L185.056 26.445L187.027 25.83L190.066 26.322L192.529 27.265L192.776 29.069L193.761 29.807L196.348 30.135L197.539 31.037L201.809 31.16L202.343 31.857L202.712 33.292L204.847 33.333L205.833 33.005L207.475 33.333L210.965 33.743L213.552 35.137L215.564 35.096L215.974 35.916L219.013 36.162L222.174 37.474L224.227 36.285L226.773 34.522L227.841 33.784L229.688 34.194L230.961 33.128L233.137 33.784L235.272 33.538L235.56 35.014L237.243 35.219L238.311 35.916L240.61 35.67L243.731 35.178L245.168 34.973L245.948 34.604Z" fill="#EEEEEE"/>
<path d="M295.589 270.723L300.434 269.534L303.39 268.181L306.305 265.598L307.045 266.705L309.262 263.138L309.796 264.122L310.74 262.687V261.006L311.643 260.473V258.628L311.192 257.644L312.464 258.177L313.573 257.972L315.421 256.906L315.79 255.43L316.283 254.036L315.913 252.191L316.94 251.371V250.674H317.802L318.336 251.33L318.993 251.658L319.568 252.929L320.553 254.323L321.251 257.193L321.949 259.94L322.319 262.523L322.935 264.942L323.345 265.803L322.729 267.976L322.278 268.55L320.758 266.5L320.102 266.09L319.732 266.869L319.568 268.632L319.65 270.108L320.348 270.928L320.471 271.789L320.102 273.306L319.157 274.454L318.295 275.807L318.582 276.75L318.747 277.775L318.582 279.251L317.679 281.998L316.488 285.565L314.805 290.444L313.86 292.986L312.341 298.439L311.397 301.186L310.781 303.851L310.042 307.09L309.139 310.042L308.194 312.543L306.634 315.249L304.95 315.577L303.103 316.356L300.393 317.791L299.49 318.037L297.354 317.463L295.384 316.479L293.002 314.962L292.427 313.117L291.442 312.133V306.68L289.964 304.097L289.594 302.867L289.266 299.997L290.662 296.43L292.468 294.011L294.07 291.305L295.466 288.64L295.425 286.508L294.439 284.909L293.207 281.178L292.633 276.545L295.589 270.723Z" fill="#EEEEEE"/>
</g>
<defs>
<clipPath id="clip0_316_59">
<rect width="327" height="369" fill="white"/>
</clipPath>
</defs>
</svg>
