<svg width="349" height="283" viewBox="0 0 349 283" fill="none" xmlns="http://www.w3.org/2000/svg">
<g clip-path="url(#clip0_316_63)">
<path d="M169.071 0H172.173L172.716 2.40488L173.608 1.59032L174.5 1.20244L175.198 2.40488L176.71 1.70669L177.912 3.02549L180.937 2.75397L181.906 3.02549L182.449 4.03399L184.582 3.45217L185.396 3.14186L186.094 2.48246L186.909 2.75397L187.723 3.37459L188.033 2.6764L189.817 3.10307L190.205 4.61582L191.252 4.11157L192.493 2.28851L194.354 2.87034L195.013 3.76247L197.766 3.49095L198.581 4.61582L199.356 4.26672L200.597 5.0037L201.489 4.61582L202.458 5.50795H203.816L204.165 4.11157L205.25 3.56853L206.026 3.91763L207.267 3.14186H208.353L210.485 4.03399L210.873 5.50795H212.192L213.859 6.05099L215.914 6.51645L217.427 8.30071L218.668 8.80496V9.81346H219.327L219.947 8.9989L222.274 10.4341L224.213 11.8305L224.911 13.0329L226.966 13.6535L228.207 14.9723V16.0584L230.068 16.8342L231.27 16.0584L233.752 16.8342V17.3772H235.187L235.536 16.4075L236.234 16.7566L236.66 17.3772L237.203 16.9505L237.94 17.3772L238.91 17.9978L239.685 17.4548L241.042 17.1833L242.012 17.6487L242.904 17.5711L243.641 16.2911L245.967 15.7869L247.014 17.0281L248.449 15.7869L249.224 16.2135L249.612 17.1833L250.31 17.2996L251.978 18.6184L253.18 17.1833L255.817 17.1057L257.523 18.6184L257.988 20.2475L256.747 21.8379L257.988 22.2645L258.492 23.5445L259.229 23.9712L259.772 26.2985L258.143 27.4234L258.958 28.1604L258.609 29.6731L259.772 29.4016L260.897 30.4489V31.3798H260.354L260.548 32.621L262.331 33.1641L263.146 32.1556L264.58 32.621L265.085 31.6125L265.705 31.535L267.256 29.1301L268.73 28.6258L269.971 28.7034L271.444 29.5567L272.258 29.1301L273.887 29.0525L275.671 30.2161L277.338 29.4792L278.851 29.8671L281.992 32.1556L282.806 31.7677L284.396 31.8453L285.171 32.5434L285.443 33.3968L286.296 33.2416L287.072 34.0562L287.77 33.8623L287.925 33.2416L288.545 32.5047L289.359 32.5434L290.445 33.6295L290.135 34.4053L290.096 36.655L290.562 37.1593L290.755 38.129H291.802L292.345 37.7411L294.207 38.8272L295.099 38.5556L293.78 36.8877V35.6853L294.905 35.1035L296.184 35.8792L296.882 36.6162L296.068 37.4696L296.882 38.129L296.378 39.2538L297.154 39.7581L297.58 41.1933L298.472 41.5036L298.821 40.8442L298.395 39.6029L298.821 39.215L299.791 39.1763V38.9047L299.364 37.7411L300.954 36.655L302.738 36.6938L304.211 37.9738L305.064 37.6635L306.538 38.129L307.779 38.9047L309.446 40.8442L311.114 42.3181L311.463 43.4818L313.091 45.1885L313.285 46.1194L313.13 48.0588L312.316 49.3776L311.967 51.1231L312.742 51.7049V53.5668L311.889 54.3813L311.269 54.0322L311.036 53.4504L309.912 52.9849L309.252 53.8383L309.369 55.5062L310.222 56.3595L310.571 57.8335L310.338 58.9971L310.997 59.6177L311.036 60.4711H310.61L310.455 59.6177L309.95 59.5402L310.028 62.4881L310.881 63.0311L312.122 64.6602L312.51 68.1124L313.169 71.0991L314.371 71.7973L315.379 72.8834L315.845 74.5125L316.155 77.9258L316.543 79.4774L316.93 80.6022L317.279 82.0762L317.706 82.6192L318.016 84.7526L318.404 86.9248L319.49 88.3599H320.459L320.692 88.8642L320.498 89.2521L319.839 89.6012L318.016 89.8339L316.232 91.5018L314.177 93.6739L314.992 94.3721L315.069 97.1649L314.604 98.1734L314.216 99.4146L313.557 100.501L311.928 103.216H309.989L310.067 104.224L310.726 105.078L310.416 106.397L311.114 106.901L312.393 106.629L312.626 108.103L313.828 108.879L315.379 110.314L316.465 111.982L317.939 112.913L319.218 112.525L319.955 112.913L320.42 112.176H321.351L322.825 113.378L324.143 114.348L325.462 115.551L327.129 118.188L328.486 120.36L329.145 120.554L329.727 120.128L330.891 120.089L331.511 120.865H332.403L333.062 121.64H336.707L337.677 122.843V124.084L335.117 127.226V128.467L336.087 128.351L336.242 127.032H336.707L337.948 128.894L338.103 130.445L338.84 130.057L339.499 130.794L339.654 131.26L340.624 130.833L341.05 131.493V134.13L342.214 134.324L343.183 135.294V136.458L342.756 137.233L342.563 139.25L340.236 139.755L339.538 140.181L337.948 142.043L336.862 142.431L336.823 143.129L337.405 143.633L337.715 145.146L338.84 147.241L338.491 148.133L339.228 149.18L339.189 150.305L338.491 151.43V152.671L338.879 153.253L338.491 154.688L337.56 155.619L338.026 156.705L339.073 157.946L340.662 158.606L340.624 159.498L340.779 160.584L341.593 160.817L342.214 160.429H343.183L343.648 160.817L346.091 160.972L348.263 161.282L349 161.98V163.221L347.642 165.161L346.285 166.984L345.083 167.411L344.54 168.536L343.997 169.971L343.377 171.988L340.973 172.143L341.438 172.763L342.679 173.035L343.105 174.082L342.989 175.362L344.308 175.944L344.54 177.418L343.726 177.961L340.973 180.056L341.205 180.676L341.438 182.111L343.454 183.236L344.152 183.547L344.501 183.236L345.161 183.547L344.54 184.4H342.873L340.74 185.641L338.336 185.408L337.599 185.874L335.272 189.21L332.674 192.39L331.239 194.64L329.727 194.989L328.641 196.424L327.4 196.812L327.594 197.627L327.827 199.178L328.99 200.264L328.254 201.118L328.603 202.165L329.029 203.794L329.65 203.329H330.503L331.472 205.035L331.433 208.488L330.813 211.901L329.533 212.793L327.943 213.452L326.586 213.879L325.423 213.452L324.686 213.297L323.988 215.237L322.941 215.663L322.243 216.168L322.786 216.749L322.67 217.409L321.623 218.456H320.769L320.188 218.185L319.102 219.271L318.326 219.62L317.628 220.706L316.543 221.404L316.426 222.878L315.341 223.964L315.379 225.554L314.294 226.563L313.324 228.114L313.479 229.588L314.061 230.481L313.557 232.653L311.657 234.243L310.842 234.01L310.028 235.329L309.873 237.462L308.244 237.734L308.089 240.216L308.632 240.915L309.059 241.923L309.485 242.389L309.214 242.893L308.206 243.087L308.632 243.979L307.779 244.212L306.654 244.6L305.53 245.918L304.599 245.686L303.319 245.259L302.738 245.492L301.768 244.949L301.032 245.375L299.48 247.043L300.838 248.401L300.799 249.526L300.062 249.72L300.217 250.806L301.342 252.435L301.419 253.676L302.04 254.219L301.148 255.072L298.085 257.982L297.852 259.029L296.999 259.339L296.65 260.852L295.292 262.016L293.819 262.209L293.625 264.265L292.384 264.576L290.911 265.235L290.096 265.739L288.002 265.894L287.188 267.097L285.676 268.299L284.008 268.726L282.922 269.114L280.402 271.053H278.812L276.64 272.566L275.322 272.76L274.003 274.234H273.228L272.452 273.652L271.716 273.768L270.669 274.971L270.552 275.979L269.699 276.639L268.536 276.018L267.528 277.259L266.248 276.678L265.744 277.259L265.666 280.091L264.464 279.897L263.999 280.091L263.417 279.897L263.223 279.082L262.448 278.733L261.323 278.539L261.168 276.406L260.082 276.018L259.423 276.328L258.764 275.824L258.105 276.134L257.329 275.397L256.553 275.708L256.049 277.57L255.545 278.501L256.049 279.121L255.972 279.703L254.421 279.354L253.839 277.88L254.11 276.871L255.313 275.359L254.615 274.583L253.878 274.816L253.063 275.204L253.762 275.669L253.529 276.406L252.288 276.057L251.551 275.397L250.465 275.979L248.565 277.027L247.363 277.919L247.053 278.85L246.394 278.578L245.812 277.686L244.571 278.035L243.408 279.005L240.655 280.983L240.461 283L238.987 282.767L237.436 281.953L236.079 280.75L234.605 280.207L233.481 280.595L232.511 279.975L231.968 280.634H231.193L230.689 280.168L229.719 280.556L230.495 281.72L229.991 282.263L228.246 280.556L227.509 280.828L227.703 281.604L227.005 281.487L225.841 280.712L224.678 281.41L223.36 280.712L221.809 280.168L219.366 278.694L217.543 276.445L217.078 277.337L216.147 277.492L215.333 276.639L214.286 277.647L213.471 277.376L211.92 275.824L210.292 275.941L210.059 277.104L207.926 277.259L206.84 277.57L206.336 277.221L205.483 276.988L204.746 277.996L203.738 277.919L203.622 277.57L203.971 276.639L203.544 276.522L202.458 277.221L200.791 277.182L200.52 275.747L199.55 274.777L197.883 274.583L196.138 273.225L194.936 272.954L194.431 272.488L194.238 273.031L194.664 274.777L194.199 274.699L193.035 272.566L192.958 271.945L192.299 271.286L192.531 270.316L193.772 269.579L194.044 267.873L193.035 267.368L193.152 264.925L193.85 264.537L193.656 262.171L194.238 261.123L194.431 259.805L194.121 258.835L195.711 258.059L196.758 258.641L197.999 257.516L198.775 256.003L200.287 254.607L199.046 254.297L198.619 253.754L199.317 253.404L201.256 253.327L200.597 251.659L199.395 250.03V249.332L200.209 249.758L201.411 248.866L201.76 246.035L202.303 245.104L203.622 243.785L203.118 243.281L202.381 243.63L200.132 244.018L198.658 243.63L198.426 242.738L200.597 242.505L202.769 242.466L202.148 241.69L201.683 238.975L201.218 237.618L200.093 237.928L199.783 237.23L200.713 236.687L200.209 235.135L199.977 233.816L199.434 233.778V233.079L200.054 231.954L199.473 231.644L198.309 231.489L196.797 229.123V227.067L195.983 227.765H195.323L194.742 225.71L194.121 225.942L193.733 227.028L191.756 227.455L191.523 228.619L190.748 229.201H188.964L188.382 230.364L187.335 231.062L187.102 232.924L186.017 233.235L184.078 232.459L182.643 232.498L180.006 231.179L178.339 230.868L177.059 230.519L175.081 228.541L174.228 227.339L171.902 227.184L168.644 225.942L164.611 225.632L161.664 224.817L153.87 223.343L151.504 222.645L149.953 221.094L149.333 220.783L147.239 221.52L144.292 221.908L140.918 222.529L138.94 224.856L138.553 226.873L137.893 228.114L137.661 227.261L136.73 227.998L136.265 227.222L134.791 227.184L132.387 225.942L131.456 225.011L130.681 223.693L129.866 223.537L129.517 224.003L128.781 223.15L128.509 223.693L128.742 224.662L128.121 225.205L127.152 224.391L125.989 224.662L126.415 225.632L124.942 226.602L123.391 226.718L123.08 227.339L121.917 226.99L120.715 227.688L119.629 228.231L119.047 229.627L117.419 228.774L115.441 228.968L113.929 229.045L110.129 227.106L109.663 225.748L108.849 225.71L108.422 226.757L107.608 226.718L107.337 225.671L107.802 224.042L107.065 223.887L106.134 224.546L104.234 224.895L104.002 224.119L103.265 223.576L102.838 224.585L101.908 223.848V222.607L100.744 222.102L100.318 223.227L98.9994 222.8L98.5728 222.49L98.0299 222.723L96.5951 221.365L96.0135 221.714L94.9277 221.52L94.4624 220.628L92.4459 219.077L91.3601 219.154L89.8866 218.107L89.1886 217.991L88.8784 216.594L87.9477 216.478L86.3966 215.275V213.608L84.7679 212.677L83.9536 212.987L81.2392 213.258L79.6493 213.685L79.0676 214.965L77.9043 215.353L76.6634 214.228L76.2368 212.677L77.0124 211.435L77.2838 208.565L77.6716 207.867L76.4307 206.548L75.2674 206.471L74.0653 203.639L73.057 202.437L72.8244 201.118L71.8161 199.993L72.1651 199.101L72.4366 197.743L71.8161 195.726L69.9548 194.95L69.8385 192.002L68.5976 191.77L68.0547 190.645L68.6751 189.093L69.0629 188.318L68.52 186.65L68.2486 185.447L67.7445 184.322L67.9384 183.624L67.7445 182.693L69.3344 181.762L70.4201 181.297L70.4589 179.435L71.8161 177.573L72.5917 177.108L72.0488 176.681L70.4201 176.332L69.0629 176.875L68.4037 176.526L68.1323 174.819L69.0629 174.082L68.52 173.306L68.7139 172.453L70.1875 170.902L69.916 169.622L69.2568 168.148L69.1405 165.82L67.5118 165.122L66.426 165.2L65.379 167.643L64.332 167.527L63.0136 166.092L61.3074 166.596L61.0359 169.893L59.2909 170.359L58.9807 167.255L57.6623 167.992L56.5765 167.876L57.003 170.397L56.6928 171.367L54.8315 172.414L53.3579 172.298L52.5436 171.445L51.1476 171.988L50.0618 173.966L49.6353 173.345L50.023 172.608L49.8291 171.677L48.7434 171.057L47.58 171.406L46.6494 170.242L45.4473 167.023V165.51L45.0983 164.424L44.1676 163.997L44.439 162.872L44.9819 161.36L44.1676 159.459V157.83L45.4085 157.597L45.7187 156.627L46.6494 156.123L47.9678 156.356L48.8597 155.658L48.8209 154.882L48.4331 153.912L48.8985 153.408L48.3168 152.167L48.5107 151.042L48.3944 150.305L49.0148 149.452L48.7046 147.473L48.1229 146.542L48.6658 145.922L49.4026 145.65L48.2005 144.332L49.2087 142.78L49.4414 140.492L50.6823 139.677L50.9925 137.388L51.5741 135.721L52.9314 135.022L54.8315 134.828L56.1111 133.005L56.2275 130.756L56.8867 130.057L57.9337 129.825L59.3685 128.196L59.1746 126.683L58.2827 125.48L57.1581 125.597L55.3356 125.636L55.607 124.782L56.3826 123.851L55.607 123.929L53.7845 123.774L53.862 122.61L55.4519 121.679L57.0806 120.903L56.8867 120.05L55.6458 119.779L55.5683 119.003L55.9948 118.266L55.3356 117.917L54.3661 118.227V120.05L54.9478 120.515L54.7151 121.33L53.3191 121.718L52.8926 120.283L51.2251 120.128L50.2169 120.903L49.1311 120.089L49.5189 119.391L50.7986 119.119L51.07 118.266L50.5659 117.18L51.3803 116.714L52.2334 117.063L51.9231 115.628L53.0089 115.008L54.4049 114.154L54.8315 112.409L55.956 111.323L56.8479 111.478L57.3908 109.461L57.9337 108.763L57.0806 107.211L55.6458 106.513L54.7539 106.901L53.3579 108.026L52.2334 107.25L51.6905 107.521L51.2251 107.405L50.1781 108.414L50.6435 109.189L50.4108 109.538L49.5577 109.694L49.7904 110.353L48.8209 111.245L47.7351 111.749L47.231 111.555L46.882 111.09L46.3391 111.4L45.7187 111.09V110.004L46.4167 109.616L45.9514 108.995L45.0983 108.336L45.4085 107.405L44.9044 106.435L44.1676 105.621L43.3145 105.272L41.5695 105.853V106.823L42.1899 108.414L42.1124 112.37L41.5695 112.68L40.5613 112.37L40.251 111.478L40.0571 108.957L39.4755 108.414V106.203L38.1183 106.513L36.1406 107.134L35.4814 108.53L35.1711 109.616L34.0078 109.383L33.1935 108.22V106.784L33.8527 106.358L35.1711 106.086L34.7058 104.961V104.535L35.3263 103.177L35.5589 101.936L35.0548 100.85L33.8915 101.083L32.7669 100.966V99.9576L34.7058 99.6473L34.667 98.9879L33.8139 98.3673L32.7669 98.0182L31.9914 98.7164L30.6729 98.6776L29.6259 97.2425V95.497L30.1688 93.3636L31.9914 93.1309L33.5813 93.7127L33.969 92.937L36.9161 93.0921L38.1958 93.48L39.0877 93.9454L39.6306 92.8206L39.2816 91.8897L37.6529 90.6872L36.7223 91.0751L35.5589 90.9587L35.9855 90.1054L35.2099 89.6399L35.9467 88.6702L34.5507 86.9635L32.9996 86.3817L33.1547 85.1793L31.0607 84.5199L30.6341 83.7441L29.8974 84.2484L29.6259 83.8217L30.0137 83.0071L29.4708 82.8908L28.9667 83.5114H27.338L26.6013 83.1235L25.6706 83.8217H24.895L24.1195 82.8908L22.8398 82.3477L21.0173 81.7659L21.1336 81.1841L20.6683 79.6325L21.8316 79.9816L22.8398 80.2919L23.3051 79.4774L22.0643 79.0119L20.8621 78.1198H20.0478L19.1171 77.2277L19.5437 76.2967L20.7458 76.1028L20.0478 75.4434L19.4274 75.2882L18.6518 74.4737L17.9926 74.8616L16.9068 73.7367L17.915 72.8446L17.7211 72.4567L16.3639 72.5343L15.472 71.9912L16.6354 71.0991L17.6436 70.5948L17.1783 70.3233L15.7823 70.2458L16.0149 69.47L15.2394 68.8882L14.9679 68.0348L15.3945 66.91L14.9679 66.7548L14.1536 67.1427L13.1454 66.6384L12.1371 65.6687L12.8351 64.6602L13.7658 63.6517L13.378 62.9923L12.5637 63.419L11.6718 64.1172L10.3534 65.0481L9.03492 65.4748L8.02669 63.4966L7.40625 61.945L7.87158 61.0141L9.07369 61.7123L9.81047 61.0917L10.3534 61.2468L11.0126 62.6044L12.0596 62.6432V61.8287L11.5943 61.1693L11.0126 60.3159L11.2065 60.0056L12.1759 59.7729L12.1371 58.842L11.4004 58.3377L11.2065 57.0189L11.5943 56.2431L11.4391 55.0407L9.96558 54.0322L9.92681 51.7437L10.586 50.6964L10.237 49.9982L11.0514 49.5715L11.1289 48.6406L10.1983 48.0588L10.5085 47.2442L10.3921 46.4685L9.81047 46.1194L10.237 44.723L10.6248 44.18L10.3146 42.5896L10.6248 40.4175L11.284 40.146L12.6413 40.3399H13.3005L13.9209 39.9132L14.3087 39.3314L14.6189 39.9132L13.8046 41.232L13.6883 41.6199L13.029 41.426L12.2923 41.3872L12.4861 41.9302L12.8739 42.6284L12.3698 43.7921L11.982 44.8006L12.5637 45.8867L13.2229 47.3218L14.3087 48.757L15.3169 49.494L15.2394 50.6964H13.9985L14.076 51.3946L15.3557 51.9376L15.1618 52.7134L14.076 52.0152L13.5331 52.7134L14.076 53.4504L14.4638 54.808L15.0067 55.9716L16.2476 56.0492L17.2946 54.808L18.4967 54.0322L19.66 53.9546L19.6988 54.3813L18.8457 54.8856L16.6741 56.7862L16.2476 57.368L15.472 58.2601L16.3251 59.928L15.8598 61.2468L16.6354 61.5184L17.8375 62.0614L18.1865 61.2468L19.2723 60.9365L20.5131 61.402L21.5989 60.4711L22.2581 59.7341L22.6847 59.7729L23.7705 60.7814L25.3991 61.4796H28.3463L29.5871 63.1087L31.2546 65.0869L33.6976 67.0263L36.2569 68.3839L39.0877 69.7415L40.6 70.7888L42.8104 72.8058L45.0207 73.9694L45.9514 74.5513L47.6188 76.0252L51.3027 76.1416L51.8456 76.064L53.0089 77.3052L54.56 77.7707L58.2051 79.6325L62.0054 81.2617L64.681 81.4168L65.4954 82.7356L66.6587 83.4338L68.171 83.8217L69.2956 84.6362L69.5283 85.5284L70.8467 86.9248L70.8855 87.7005L71.6998 87.8557L72.7856 88.7478L73.5611 88.903L74.0265 90.0666L74.6469 90.1054L75.1898 89.6399L76.2756 90.7648L75.9654 91.7345L76.547 92.5879L77.6328 93.3636L78.1757 93.1697L78.0594 92.4327L79.6493 91.6182L86.0088 89.6787L88.7233 88.7866L89.1886 87.7005L91.8255 87.2351L94.4624 86.3817L98.7279 86.3041L101.559 84.7526L105.553 84.9078L106.561 85.3732L106.251 86.4205L107.414 86.9248L108.073 85.7999L110.206 84.2096L112.106 83.8217L114.859 84.4423L116.178 82.9683L117.807 81.1065L120.366 80.2144L122.537 78.6628L122.46 76.4519L123.352 76.0252L123.042 75.2107L122.499 74.2022L123.08 73.2712L122.305 72.224L122.227 70.5561L122.848 69.0045L123.352 67.6081L124.166 67.259V64.893L124.903 63.7293L125.019 61.9838L125.446 60.3547L125.95 59.1523L127.772 56.9025L128.044 55.8553L127.734 54.9631L126.958 53.7995L125.601 53.334L125.64 52.791L128.121 50.1146L128.587 48.9121L128.47 47.283L127.656 47.7097L126.803 46.5073L126.997 45.6539L126.183 44.9945L125.019 44.2575L124.67 43.4818L125.717 42.0854L127.152 40.7666L128.277 40.6114L129.44 41.7751L130.409 41.6975L131.456 41.8914L131.573 41.3484L130.215 40.3011L130.138 39.3314L131.146 38.1678L130.836 35.8017L131.146 34.8708L130.72 33.5907L131.185 32.1944L131.689 30.0222L132.309 29.518L131.767 28.9749L131.844 28.1992L133.473 27.0355L134.791 27.6949L135.257 27.0355L134.908 26.3373L136.187 25.484H136.846L137.079 25.3676L137.312 24.2427L138.553 23.0791L138.979 22.0706L140.763 21.2172L142.159 20.2087L143.439 20.17L144.137 19.3166L143.633 18.4245L144.175 17.8039L145.067 17.1057L144.408 16.2523L143.865 15.0887L144.175 14.3517L145.416 13.9638L145.804 12.9165L146.076 11.9856L147.316 11.7141L148.131 11.2874L149.527 9.19285L151.039 7.87404L152.241 7.44737L152.862 8.53344L153.715 8.14556L154.762 6.59402L156.352 6.16735L157.593 5.85705L158.756 6.08978L162.323 5.62432L163.952 5.31401L164.728 4.26672L166.007 3.6849L167.752 3.25822L169.459 3.06428L168.295 2.21094L169.071 0Z" fill="#EEEEEE"/>
<path d="M18.0315 82.5417L20.203 84.9078L21.1337 85.7611L22.297 87.2351L24.3523 87.0799L24.5849 86.149L24.1972 84.9078L22.7236 83.589L22.297 83.9381L21.9093 83.3562L22.0644 82.5417H20.901L20.203 82.7744L19.0397 82.3089L18.6132 81.378L17.7988 80.9514L18.0315 82.5417Z" fill="#EEEEEE"/>
<path d="M12.4473 72.6506L12.9126 72.1076L13.7269 72.3791L13.9984 73.1937L14.6964 73.4264V74.4737L13.5718 73.7367L12.4473 72.6506Z" fill="#EEEEEE"/>
<path d="M7.13477 58.0662L7.40621 57.6007H8.18177L7.79399 56.7474L7.9491 56.1268L9.07365 57.5619L10.1982 59.385L10.0431 60.3159L8.80221 59.1911L7.6001 58.9971L7.13477 58.0662Z" fill="#EEEEEE"/>
<path d="M2.48226 36.8489L1.78426 36.3835L1.16382 37.2368L0.46582 39.409L1.08626 40.9217L1.28015 42.2793L2.05571 42.0854L1.9006 40.7666L2.48226 40.146L2.32715 38.5168L2.09449 37.8187L2.48226 36.8489Z" fill="#EEEEEE"/>
<path d="M10.625 37.4696L11.5169 36.2283L12.6027 36.5774L12.9129 35.5689L13.5333 35.0647L14.3864 34.9483L14.6191 34.2501L15.4722 34.638L14.8906 35.8404L13.8823 36.8877L14.9293 37.3144L15.2783 38.0126L13.8436 38.6332L12.7966 38.8272L12.4476 37.8962L11.672 37.8187L10.625 37.4696Z" fill="#EEEEEE"/>
<path d="M14.6192 42.2794L15.1621 42.7448L14.6192 43.9085L15.1621 44.723L16.2479 43.6757L17.0234 43.9085L17.2561 44.9558L17.9929 44.723L18.497 44.0636L19.2338 44.9558L19.0787 45.9255H18.0704L17.7602 45.46L17.0622 46.2358L17.101 46.9728L16.0928 47.4382L15.2009 46.9728H14.0376L13.4947 45.8479L13.3008 44.0248L13.9212 43.0939L14.6192 42.2794Z" fill="#EEEEEE"/>
<path d="M0.775556 43.7533L1.12456 44.18L1.66744 43.9472V44.4515L1.047 44.9557V46.0418L1.12456 46.8952L0 47.7097L0.349 48.4855L0 49.0673L0.465333 49.4164L0.853111 48.7182L1.16333 47.9424L2.48178 47.1667V45.7315L2.36544 44.2576L1.90011 43.2103L1.24089 43.4042L0.775556 43.7533Z" fill="#EEEEEE"/>
<path d="M7.67773 52.054L8.22062 51.3946L9.11251 52.5195L8.80229 53.334L8.41451 52.5195L7.67773 52.054Z" fill="#EEEEEE"/>
<path d="M1.24121 26.1046L1.82288 26.6476L2.67599 26.3761L2.24943 25.4839L2.94743 24.0488L1.66777 25.0961L1.24121 26.1046Z" fill="#EEEEEE"/>
<path d="M188.383 230.83L188.887 229.938L190.244 230.364L191.369 229.588L191.873 228.774L192.842 229.239V230.131L192.416 230.597L193.23 231.605L192.687 232.342L191.524 231.062L190.322 231.489L189.313 231.295L188.383 230.83Z" fill="#EEEEEE"/>
</g>
<defs>
<clipPath id="clip0_316_63">
<rect width="349" height="283" fill="white"/>
</clipPath>
</defs>
</svg>
