<svg width="590" height="568" viewBox="0 0 590 568" fill="none" xmlns="http://www.w3.org/2000/svg">
<g clip-path="url(#clip0_316_76)">
<path d="M377.23 398.401H379.131V397.613L379.917 397.351L383.719 393.806L385.03 393.413L386.931 393.806L389.75 393.413L392.175 392.428L392.83 393.413L395.256 393.347L395.846 392.034L395.583 390.918L397.878 388.227L398.205 387.44L398.009 385.668L398.926 384.683L399.516 385.077L398.795 386.193L399.516 386.783L399.779 387.834L400.958 387.505L403.646 385.865L405.612 383.436L407.448 381.205L407.972 380.089L409.152 378.12L409.611 376.807L410.004 375.232L409.742 373.853L409.021 373.197L409.611 372.344L410.004 371.425L409.611 370.769L410.463 369.325L410.856 367.684L411.839 367.356L412.233 369.062L413.871 368.931L414.068 367.618L413.806 366.962L412.888 367.421L412.56 366.502L413.347 365.912L414.592 366.568L414.789 369.193L415.838 371.359L416.362 372.541L416.69 374.51L416.887 375.494L416.166 377.266L415.117 378.973L414.855 380.351L413.413 380.745L413.019 382.845L412.954 385.996L412.036 389.081L411.643 390.787L412.692 392.1L411.839 393.019L411.25 393.544L410.791 394.856L409.545 395.578L409.152 394.856L409.545 393.938L409.807 392.887H409.349L408.169 394.134L406.661 394.594L406.268 396.104L405.547 396.366V394.856L404.76 395.053L403.908 395.841L403.056 397.022L399.582 397.613L399.779 396.629L398.533 396.235L397.55 395.71L397.222 396.76L397.747 397.876L398.337 398.401L397.353 398.86L395.78 399.845L394.994 401.879L393.355 401.682L392.306 400.37V398.926L392.634 398.401L392.306 397.022L391.257 396.694L389.815 396.563L388.373 397.285L387.193 397.876L385.555 398.269L383.457 398.926L382.212 398.729L381.425 399.123L381.36 400.37L379.786 399.582L378.41 400.304L377.558 400.107L376.968 399.91L377.23 398.401Z" fill="#EEEEEE"/>
<path d="M382.343 402.601L382.998 404.373L384.244 405.095L385.358 403.389L385.817 402.339L387.062 401.879L388.177 402.536L389.029 403.126L389.291 401.879L390.405 400.96L390.143 399.451L388.635 399.188L388.045 398.729L387.193 399.123L386.341 400.304L385.161 400.238L384.571 399.845L383.588 400.829L382.343 402.601Z" fill="#EEEEEE"/>
<path d="M376.575 411.856L376.378 410.477L375.657 410.281L375.526 411.068L376.05 411.987H374.805V410.281L374.412 409.493L375.657 407.196L375.723 405.817L375.133 403.848L374.281 404.111V405.095L373.297 405.949L372.642 404.899L372.445 403.98L373.625 402.208L375.133 401.879L376.247 400.632H377.099L378.476 402.142L379.459 402.076L379.721 402.536L379.066 403.192L380.114 403.783L380.573 405.095L380.114 405.817L379.197 408.115L378.738 410.149L377.624 410.74L377.23 411.987L376.575 411.856Z" fill="#EEEEEE"/>
<path d="M413.085 364.796L413.544 364.14L412.036 362.893L410.922 362.564V361.842L411.315 360.792H412.823L413.544 361.58L414.462 360.792L416.887 360.53L418.132 361.58L419.705 362.302L421.213 363.352L421.803 362.367L422.065 360.792L424.949 358.364L425.67 358.758H426.523L428.489 357.773V355.804L427.833 354.623L428.882 352.325L427.244 353.507L426.457 354.36L424.753 353.704L422.262 352.325L419.902 350.685L418.132 347.928L416.887 346.812L416.297 346.353L415.248 347.337L416.231 350.028L415.773 352.26L415.576 354.426L414.462 355.541L414.855 356.985L414.265 357.839L412.102 357.445H411.25L411.512 358.364L411.381 359.151L409.546 360.333L409.218 361.908L410.267 363.549L409.873 364.796L410.07 365.912L410.66 366.174L411.643 364.927L412.102 364.074L412.757 364.468L413.085 364.796Z" fill="#EEEEEE"/>
<path d="M429.145 354.623L429.603 354.885L430.652 353.047L432.225 352.325L432.619 351.735L432.029 351.406L430.914 351.997L430.324 352.85L429.145 354.623Z" fill="#EEEEEE"/>
<path d="M434.913 350.488L436.617 348.059L438.78 347.534L440.223 346.353L440.55 345.828H441.402V347.075H440.354L438.453 348.453L437.076 348.847L436.683 349.503L435.7 350.225L434.913 350.488Z" fill="#EEEEEE"/>
<path d="M443.959 345.303L445.401 343.268L446.778 342.415L445.991 343.859L443.959 345.303Z" fill="#EEEEEE"/>
<path d="M416.887 343.465L417.804 341.364L418.722 339.921L419.836 339.592L421.016 340.38L421.803 341.233L422.131 339.855L420.754 338.87L420.295 337.558L419.509 335.851L418.46 334.079L419.05 331.388L419.902 327.909L420.558 326.269L421.737 325.35L423.376 325.743L424.687 326.465V325.087L424.097 322.724L422.852 319.902L422.393 316.948L421.803 314.783L420.82 312.748L420.426 310.254L421.278 307.038L421.213 305.331L420.295 303.559L420.23 300.868L419.968 299.818L420.295 297.849L419.247 296.405L418.198 296.996L419.247 298.768L419.181 300.343L418.722 302.246L418.198 302.509L417.411 301.721L416.428 302.246L416.166 303.362L416.428 305.856L415.772 308.679V311.37L417.215 313.864L417.608 316.095L417.346 317.211L417.018 319.114L417.608 320.821L417.346 325.218L416.69 327.778L416.559 329.419L417.28 331.388L417.411 332.963L416.952 335.26L416.887 339.133L416.493 340.446L416.428 342.415L416.887 343.465Z" fill="#EEEEEE"/>
<path d="M343.407 436.337L344.784 437.453L344.063 440.079L343.407 441.654L342.818 444.739L341.179 447.233L340.917 449.333L338.688 445.986L338.426 442.835L340.392 439.357L341.965 437.191L343.407 436.337Z" fill="#EEEEEE"/>
<path d="M299.687 457.472L304.799 457.209L305.127 458.522L303.816 459.572V460.491L302.44 462.132L300.473 463.773L297.393 462.46L296.868 460.885L297.655 459.047L299.687 457.472Z" fill="#EEEEEE"/>
<path d="M194.481 495.671V498.493L193.498 501.184L193.76 505.45L194.481 508.273L196.71 508.666L199.266 507.485L200.577 505.254L199.856 502.169L197.955 499.018L196.71 496.984L194.481 495.671Z" fill="#EEEEEE"/>
<path d="M337.377 471.583L338.885 472.174L339.409 469.68L339.671 464.232L340.785 462.46H342.293L344.194 463.444L345.046 463.641L345.439 462.985L345.898 463.182V463.904L345.308 465.807L346.619 468.826L345.505 471.189L343.67 472.174L343.014 474.734L343.735 477.884L344.063 479.394L342.49 481.166L341.179 480.116L340.261 479.919L340.13 479L341.31 477.621L340.064 476.309L339.671 477.556L338.295 476.309L337.377 471.583Z" fill="#EEEEEE"/>
<path d="M335.673 490.486L336.525 492.586L333.182 495.146L332.854 496.196L331.15 497.574L328.594 499.937V499.018L329.839 497.312L332.264 495.736L332.592 494.752L335.345 492.061L335.673 490.486Z" fill="#EEEEEE"/>
<path d="M344.652 505.188L345.57 505.45L346.619 502.891L347.143 502.366L347.995 503.35L348.847 502.759L349.634 503.35L350.289 502.366L351.338 502.103L353.043 503.547V504.794L352.256 505.844L352.78 507.485L353.698 508.404L355.533 509.323L356.385 508.535L356.779 509.651H357.762V507.026L357.107 505.844L358.549 503.941L359.532 505.45V506.763L359.991 506.632V505.516L361.105 504.663V502.103L360.253 499.937L359.728 499.281L360.318 498.428L360.187 497.443L359.007 496.59L357.828 495.54L357.565 497.771L356.254 498.493L355.074 498.099L354.812 499.215L353.829 499.543L353.37 500.397L353.108 501.25L351.6 500.856L351.338 499.937H348.716L348.454 501.053L347.143 501.381L345.898 501.972L344.652 505.188Z" fill="#EEEEEE"/>
<path d="M350.159 491.273L349.503 490.748L348.389 491.47V493.899L346.619 494.752V495.54L348.389 497.574L349.438 497.18L349.503 496.393L348.717 495.211L349.372 493.571L350.159 491.864V491.273Z" fill="#EEEEEE"/>
<path d="M349.7 495.54L350.159 493.964L350.946 492.455L351.798 491.339L352.191 491.864L351.732 493.439L350.815 494.161L349.962 495.802L349.7 495.54Z" fill="#EEEEEE"/>
<path d="M351.798 495.211L352.453 495.802L353.961 494.818L353.699 494.161L352.912 493.899L352.191 494.424L351.798 495.211Z" fill="#EEEEEE"/>
<path d="M353.371 489.042L353.961 490.748L355.075 490.945V493.571L356.517 493.242L355.993 491.798L355.665 490.486L355.796 489.633H356.911L357.697 490.158V489.042L357.37 488.32V486.876L356.911 485.629L355.993 485.038H354.485L353.961 485.563L354.158 486.548L355.534 487.532L355.993 488.517L355.665 488.911L354.879 489.304L354.354 489.764L353.961 489.304L353.371 489.042Z" fill="#EEEEEE"/>
<path d="M347.078 492.389L348.913 489.304L346.816 488.517L345.374 488.254L345.177 491.142L344.98 492.652L346.554 491.93L346.816 492.586L347.078 492.389Z" fill="#EEEEEE"/>
<path d="M339.409 481.822L340.655 482.872L341.048 484.71L341.703 485.366L343.014 484.776V483.069L342.031 482.085L341.31 481.691H339.802L339.409 481.822Z" fill="#EEEEEE"/>
<path d="M344.587 479.722L347.143 482.282L347.274 481.625L346.619 480.903L346.947 480.05L347.471 479.984L347.93 480.641L348.716 480.969L349.7 482.15L350.093 482.938L350.748 483.529L351.601 484.316H352.387L352.125 482.872L350.683 481.297L350.552 479.919H349.175L348.913 479.984L348.454 479.525L347.602 478.606L346.619 478.803L346.095 479.197L344.587 479.722Z" fill="#EEEEEE"/>
<path d="M367.791 523.106V521.793L368.774 521.203V522.45L367.791 523.106Z" fill="#EEEEEE"/>
<path d="M368.25 525.272L366.939 526.453L366.152 527.635L365.825 526.453L366.546 525.272L366.48 524.222L366.152 523.106L364.972 525.338L364.579 526.388L365.169 527.897L365.038 528.554L365.562 529.21V531.442L366.939 532.951L367.004 532.229L366.021 530.785L366.152 528.816L367.201 528.619L367.791 529.079L368.774 529.341V528.554L368.053 527.832L367.332 527.569L368.25 526.979L369.102 526.191L368.774 525.272H368.25Z" fill="#EEEEEE"/>
<path d="M363.989 532.295L364.579 531.77L365.366 532.295L366.021 532.951L365.825 533.608L364.907 532.689L363.989 532.295Z" fill="#EEEEEE"/>
<path d="M364.579 536.561L365.3 535.708L366.611 536.364L364.579 536.561Z" fill="#EEEEEE"/>
<path d="M366.35 542.599L367.136 541.024L369.955 540.827L370.741 541.221L372.118 540.565L373.494 541.09L375.133 541.615L376.772 542.993V544.372H376.182L375.264 543.19L373.56 542.468H372.577L371.921 542.665L370.807 542.731L368.775 542.862L367.792 542.009L367.398 541.615L366.35 542.599Z" fill="#EEEEEE"/>
<path d="M359.663 542.074H362.809L363.53 543.387L362.154 544.372L361.761 544.175L360.646 543.847L359.663 542.468V542.074Z" fill="#EEEEEE"/>
<path d="M351.535 568V565.834L352.715 563.996L355.009 563.209L356.386 561.962L359.991 561.305L363.53 560.911L362.744 561.962L359.204 563.471L356.189 564.456L354.485 566.294L351.535 568Z" fill="#EEEEEE"/>
<path d="M358.942 559.008L359.663 558.286H361.761L361.04 559.205L358.942 559.008Z" fill="#EEEEEE"/>
<path d="M353.567 560.78L354.354 559.73L355.73 560.78H353.567Z" fill="#EEEEEE"/>
<path d="M349.307 560.911V560.452H347.602L346.685 561.371H344.063L342.817 561.699L341.769 561.108L339.933 560.452L338.229 560.78L337.442 561.568V562.093L338.557 562.487L340.982 562.224L342.096 562.487L343.342 562.159L345.964 562.027L347.275 561.699L347.996 560.911H349.307Z" fill="#EEEEEE"/>
<path d="M334.493 565.44V564.653L335.018 564.456H337.443L338.754 565.637H339.278L340.13 566.556V567.541L339.54 567.803L338.361 567.409L337.443 566.556L336.853 565.768L335.018 565.834L334.493 565.44Z" fill="#EEEEEE"/>
<path d="M329.97 560.255L331.347 561.633L329.97 561.83L329.118 561.043L327.348 561.24L326.562 562.487V563.274H328.266L329.577 562.749L331.15 562.487L332.068 561.765L333.247 562.487L334.231 561.765V560.583L332.526 560.78H331.871L331.281 560.255H329.97Z" fill="#EEEEEE"/>
<path d="M324.858 562.815L325.775 560.911L325.317 560.452L324.071 560.78L323.612 562.093L323.088 562.487L324.137 562.815H324.858Z" fill="#EEEEEE"/>
<path d="M320.662 562.027L321.907 561.24L321.58 560.255L320.137 559.73L319.351 560.255L318.105 560.058L317.712 558.746L316.27 558.549L313.32 558.746L312.075 557.63L312.337 556.317L313.845 556.514L315.746 555.661H312.075L311.551 555.858L310.895 555.661L308.404 555.267L307.552 554.807L305.061 554.479H304.144L303.292 555.726L300.08 555.529L296.606 555.004V554.02L295.819 553.101L295.098 553.495L293.984 553.101L292.804 552.707L291.69 552.248L291.034 552.707L288.15 552.248L287.232 553.167L285.725 555.201L286.052 555.333L287.429 554.807L288.084 555.201L288.805 555.726L289.461 556.908L290.247 557.105H292.476L293.656 557.958L295.229 558.417L297.917 558.089L300.211 558.22L301.849 559.074L303.816 559.73L306.11 560.255H309.912L312.141 560.715L313.845 560.255L315.156 561.108L316.532 561.437L317.516 560.452L318.63 560.649L319.023 561.108L319.941 561.633L320.662 562.027Z" fill="#EEEEEE"/>
<path d="M353.829 536.955L354.681 536.364L355.73 536.955L359.204 537.283H355.73L354.353 537.677L353.829 537.349V536.955Z" fill="#EEEEEE"/>
<path d="M355.075 524.878L356.189 525.272L354.682 527.438L353.829 528.816L351.535 529.473L348.913 528.948L344.456 528.751L341.572 529.21L340.392 528.816L339.212 528.882L337.901 530.72L338.163 533.345L339.933 535.183L341.179 535.708L342.031 535.38L343.342 533.608L344.259 534.067L346.095 533.608H347.602L348.061 532.689H349.634L349.765 533.805L347.733 534.264L346.881 535.314L345.374 536.167L343.997 537.414L342.621 537.021L343.342 538.136L344.98 539.843L346.357 542.074L345.57 543.19L346.422 544.372L347.668 545.422L347.537 546.078L346.029 546.669L345.177 546.997L344.784 548.244L343.342 547.325V545.356L341.179 543.19L341.31 542.074L341.834 539.909L340.523 540.105L339.147 540.565L338.426 541.549L339.278 543.518L339.081 545.75L338.753 550.279L336.59 550.869L335.541 549.491L336.525 546.472L336.459 544.372L336 542.928H334.755L333.706 542.074L334.23 540.105L335.148 538.268L335.804 537.021L335.279 536.167L335.672 534.526L337.18 533.214L337.049 531.77L337.442 530.195L337.836 529.013L339.933 527.372L340.654 526.913L341.113 526.06L341.965 525.928L344.39 526.847L346.357 527.044L348.52 527.372H350.552L352.125 527.701L353.174 526.519L354.354 525.731" fill="#EEEEEE"/>
<path d="M346.292 549.425L347.341 550.869L348.914 549.885L348.39 548.375L349.307 547.26L348.783 546.538L348.127 546.8L348.324 548.047H347.8L347.341 547.26L346.292 548.047V549.425Z" fill="#EEEEEE"/>
<path d="M300.276 523.762L302.439 524.55H303.488L304.799 524.878L306.044 524.287L306.962 521.071L309.912 520.284L312.534 519.562L314.107 517.527L315.287 516.674L316.532 513.983L319.678 513.327L321.907 512.605L321.448 511.292L321.907 510.701L323.48 510.242L324.857 507.682L327.544 505.385L328.593 507.157L329.183 507.288L329.707 508.929L330.953 509.979H332.395L333.509 511.029L334.951 511.292L334.755 511.948L333.706 512.67L331.87 512.211L331.412 512.801L332.591 514.114L331.674 514.77L330.625 514.836L329.445 514.77L329.052 516.411L328.79 517.461L329.183 518.052L328.331 518.512L328.265 519.627L329.117 520.021L330.756 522.253L329.838 523.5L330.822 524.484L332.198 525.272L332.985 526.322L333.247 527.307H332.198L331.346 526.913L330.232 527.11L329.183 528.619L328.659 530.326L328.134 532.82L327.413 534.067L325.709 535.314L324.66 536.561L324.857 538.333L324.463 540.434L324.005 541.877L323.218 542.993L322.104 543.912L320.137 544.7H319.023L318.302 543.19L317.646 542.599L315.549 542.665L314.566 541.746L313.32 541.615L311.354 542.665L308.863 542.14L308.076 540.63L306.438 540.893L305.323 541.287L302.833 540.959L302.439 538.727L302.308 537.546L301.718 537.021L302.308 535.248L301.653 534.592L301.128 534.198L300.276 534.92L299.948 532.951L299.031 530.982L298.703 529.407L298.244 529.013V526.322L298.703 525.009L299.555 523.959L300.276 523.762Z" fill="#EEEEEE"/>
<path d="M284.61 537.874L285.135 536.561H285.725L286.577 536.955V536.561H287.494L287.822 537.48L288.281 538.596L288.609 539.449L289.461 539.843V540.893H288.15L287.036 539.383L285.987 538.005L284.61 537.874Z" fill="#EEEEEE"/>
<path d="M293.132 541.221L293.394 542.009L295.033 541.746L295.36 540.762L294.639 539.843L293.132 541.221Z" fill="#EEEEEE"/>
<path d="M285.2 550.344L286.183 551.132L286.577 550.213L286.904 548.507V544.569L286.577 543.518L287.429 541.681L285.725 540.04L286.118 539.58L285.2 539.186L283.561 539.383L282.906 538.727L283.234 537.808H282.119L281.857 536.561L281.398 535.051L280.612 534.461L279.104 534.133L278.187 532.754V530.982L279.104 530.195L278.908 529.407L277.99 528.685L276.81 529.604H275.761L276.351 528.947L276.089 528.16L276.286 527.372H276.876L276.482 526.65L274.909 526.453H273.795L272.156 524.681L271.763 523.369L270.845 523.959L269.665 522.712H268.158L265.863 520.743L264.159 518.84L262.389 517.724L260.685 516.608L259.571 515.624L259.44 514.639L258.522 514.18L258.129 513.195L257.014 512.145L254.393 511.817L252.754 512.014L252.033 511.686L251.181 510.832L250.066 510.504L249.018 510.898L249.411 512.605L250.722 514.18L252.492 515.755L253.737 516.674L254.982 517.33L256.687 519.234L257.473 520.284L257.801 521.859L259.44 522.515L261.734 523.959L262.193 526.257L262.586 527.897L262.979 529.407L264.618 529.998L265.732 531.245L266.978 533.279L267.633 534.592L268.42 535.577L268.485 536.233L269.206 537.546L269.338 538.465L270.124 539.58L271.042 540.893L272.615 542.534L273.926 543.453L274.385 544.503L275.761 545.881L277.531 547.194L278.711 548.047L279.891 548.835L281.136 550.016L282.316 551.394L282.709 550.541L284.151 550.869L284.872 550.082L285.2 550.344Z" fill="#EEEEEE"/>
<path d="M260.816 534.986L262.062 534.067L263.111 536.299L262.717 537.152L260.816 534.986Z" fill="#EEEEEE"/>
<path d="M257.473 527.963L258.26 528.16V526.978L257.473 525.994L256.555 525.469H255.572L256.621 526.65L257.473 527.963Z" fill="#EEEEEE"/>
<path d="M22.6797 396.3L23.5318 397.285L27.5303 396.3L28.1857 394.66L29.8245 393.281L27.137 394.2L24.5806 394.331L23.5318 395.316L22.6797 395.644V396.3Z" fill="#EEEEEE"/>
<path d="M278.711 525.469H280.547L281.005 524.55L279.891 521.531L277.99 520.284V516.805L278.318 513.72L277.007 511.423L274.516 508.929L272.943 508.207L272.288 506.763L271.239 505.844H268.224L267.634 503.547L266.454 499.937L265.405 498.69L264.946 497.574L263.111 497.115V494.161L263.439 491.798L264.553 488.254L265.602 485.76L265.798 483.069L265.47 482.216L267.503 480.969L269.141 481.822L269.272 484.25L273.009 484.316L274.844 486.154L276.024 486.351L276.941 488.779L277.335 490.88L279.105 490.486L278.842 492.192L280.612 492.061L282.71 493.177L284.021 494.358L283.627 495.474L283.037 499.15L283.693 499.609L285.79 497.509L288.15 496.458L289.068 495.671V494.621L289.592 494.489L289.92 493.636L290.248 492.652L292.87 492.389L295.033 491.273L297.655 489.436L298.966 487.532L299.293 483.397L298.835 480.969L299.293 479.919L298.703 478.146L297.851 475.718L297.458 474.537L295.95 472.961L294.181 470.795L292.542 470.008L291.624 468.761L289.396 466.332L289.068 464.691L287.822 463.773L286.577 462.132L286.053 460.491L286.839 457.866L288.216 456.684L289.461 455.568L290.182 453.796L291.559 453.009L293.263 452.68L294.05 450.908H295.295L296.868 450.252L299.293 451.433L300.473 450.777L301.522 451.565L300.998 453.14L301.522 454.846L302.309 455.7L302.964 455.634L303.357 454.715L302.505 453.993L302.964 453.074L303.751 452.68L304.275 451.63L305.389 451.04L307.815 450.974L309.716 449.661L310.306 449.989L312.272 449.661L313.386 448.742V449.333L314.501 448.348L314.828 447.167V445.986L315.746 446.642L316.533 447.298L317.975 446.445L319.548 445.986L321.711 446.511L323.415 445.986L325.382 445.132L327.479 442.835L329.249 441.26L330.232 440.866L330.953 439.488L332.199 438.963L333.706 436.994L334.034 436.337L334.689 436.928V435.418L335.542 435.025L336.328 434.237L336.721 431.94L336.328 430.627L337.115 429.708L337.967 430.168L338.885 428.789L339.671 428.067L340.064 427.083L341.179 425.245L342.031 424.129L342.49 424.72L343.604 424.129L343.014 422.817L343.604 421.898L343.145 420.585L343.604 420.257L344.784 420.979V419.666L344.26 418.485L345.767 417.041L343.473 416.516L342.031 415.991L340.917 416.319L340.589 415.466L341.965 414.153L344.063 413.694L343.997 411.987L342.162 410.871L340.589 409.034L341.965 409.362L343.866 410.871L344.063 409.296L342.686 406.933L340.917 405.949L340.785 404.505L339.671 401.682L338.753 399.057L336.918 398.401L335.804 397.154L334.952 396.826L335.345 395.053L336.525 393.216L339.671 390.984L340.458 389.278L344.128 387.374L345.046 386.455L345.767 386.98L346.619 386.849L346.881 385.274L345.243 384.814H342.752L341.834 384.027L339.868 383.174L336.918 386.587L335.804 386.193L334.231 385.996L333.772 384.486L334.493 383.436L333.706 382.058H330.757L329.118 381.008L329.052 378.579L329.577 377.988L330.101 376.676L330.888 376.282L331.936 377.332L332.592 376.544L333.706 376.807L334.427 375.954L336.263 373.394L338.36 372.213L339.933 370.9L341.179 369.259L343.08 368.34H344.784L345.898 369.915L345.636 372.016L344.063 374.182L342.49 375.101L342.621 375.757L344.063 375.822L343.932 376.61L343.014 377.792L342.293 378.12L343.145 378.448L344.915 377.135L347.406 375.101L349.7 373.919L352.191 373.722L353.83 373.328L354.682 374.575L357.238 374.969V377.004L356.583 378.054L357.238 378.973L356.648 379.892L355.599 380.351V381.27L356.386 382.452L357.631 382.845L358.615 381.992L359.729 383.108L361.04 382.189L361.302 383.567L362.285 384.946V386.324L361.171 387.702L361.499 389.409L361.892 392.231L361.105 394.331L360.778 397.679L361.564 398.401L362.81 397.285L364.121 397.613L364.514 396.104L365.89 395.382L367.791 396.104L368.84 396.497V395.841L368.447 395.053L370.479 395.119L371.397 393.478V389.212V386.718L371.003 384.946L369.627 382.78L368.25 380.483L367.07 378.776L364.907 377.07L364.317 376.282L364.711 375.297L364.973 373.788L366.677 372.672L368.512 372.016L370.086 370.44L371.855 369.193L372.445 368.34V366.306L372.839 364.402L374.215 362.827L375.723 361.383L377.755 360.595L378.607 358.823L379.983 357.182L380.835 356.789L381.36 357.445L382.146 357.182L382.409 358.692L383.72 359.414L385.424 359.873L388.111 358.823L390.733 356.789L392.896 355.016L394.338 352.129L396.633 349.831L398.009 347.862L399.91 345.565L402.008 343.071L403.122 340.905L404.629 337.426L406.072 336.048L407.12 333.554L409.677 330.469L410.201 329.091L410.725 327.581V324.956L411.381 323.774L410.66 322.593L411.053 321.346V319.639L411.119 316.817L411.774 315.701V313.798L412.233 313.404V312.223L413.413 311.763L414.331 309.729L413.806 308.416L413.479 305.856L412.823 304.806L411.971 303.69L413.085 304.084L413.806 304.281L414.593 303.69L414.134 302.968L410.463 299.424L410.136 298.374L408.562 297.061L406.596 297.849L405.154 297.586L404.564 301.196L403.712 301.262L403.908 299.424L402.925 300.671L401.09 301.459H399.713L401.221 299.293L400.434 298.374L400.631 297.521L399.976 297.061L399.255 297.914L399.779 298.571L399.32 299.687L397.616 299.818L397.681 296.405L397.223 294.567L396.108 295.027H394.207L392.569 294.042L392.7 292.204L394.404 291.22L396.829 289.054L397.091 288.135L398.075 287.807L399.123 286.757L400.565 285.51L402.729 282.95L402.925 281.637L403.908 280.587L405.023 279.34L406.661 277.765L408.693 275.927L409.873 274.286L410.988 273.892L411.381 272.383L411.905 271.595L412.43 270.348L414.331 269.232L415.773 267.723L417.084 265.622L418.591 264.178L421.279 263.391L424.097 263.063H427.244L430.193 262.734L430.718 264.31L431.57 264.441L432.881 262.406L434.323 263.063L435.962 263.588L437.535 263.391L439.042 262.8L440.615 263.916L441.599 263.391L440.943 262.406L441.599 261.947L442.058 262.275L442.385 260.962L444.024 260.437L445.925 260.962L447.17 261.619L447.826 262.538H448.547L449.137 261.684L450.841 261.947L451.824 263.391L453.725 263.916L452.939 264.703L450.513 264.9L450.186 266.344L450.775 266.935L452.939 266.607L454.774 265.885L455.823 266.41L456.675 265.097L457.724 264.178L459.297 264.441L460.018 265.425L460.804 264.9L461.656 264.31L463.557 264.375L464.016 263.588L463.23 262.341L461.46 262.538L460.346 262.275L460.149 261.422L460.673 260.831L460.411 259.518L461.656 258.14L463.033 256.237L464.803 254.727L466.638 252.758L467.163 251.445L469.195 249.673V247.507L470.899 246.391L472.537 245.276L473.98 245.604L475.487 245.276L478.502 244.488L479.748 246.129L481.321 245.341L482.697 244.488L483.091 245.801L482.37 247.835L481.387 249.083L481.583 250.986L483.091 251.183L482.566 252.561L482.304 254.268L483.353 253.48L484.402 253.086L486.04 251.117L488.662 248.032L490.301 246.391L491.874 246.26L492.464 246.785L492.923 246.523L492.399 245.604L492.136 244.488L492.923 241.994L493.447 239.566L496.266 238.778L497.577 238.253L499.085 239.566L500.395 239.959L500.133 241.272L498.757 240.616L496.528 241.928L496.2 245.998L495.021 247.77L496.004 249.542L494.431 250.92L494.955 252.364L492.792 253.217L488.662 256.105L488.335 257.681L483.484 262.538L481.255 265.294L480.469 266.607L479.551 268.248L475.88 271.923L475.028 272.842L473.259 273.039L472.275 274.22L470.44 274.089L470.243 275.139L470.768 276.715L470.309 277.502L469.129 279.274L468.736 280.324L467.031 281.768L466.573 283.869L465.852 287.15L465.917 293.517L466.769 297.783L467.556 303.625L468.211 307.694L468.932 310.254L469.129 314.52L469.981 316.03L472.406 313.864L474.963 310.713L476.077 308.547L475.749 306.775L476.995 304.806L479.027 303.297L481.124 303.231L480.731 301.459L480.534 298.965L482.173 296.996L484.402 295.027L486.172 295.223L487.81 294.895L489.056 293.189L488.007 291.351L487.417 289.382L488.269 286.888L488.859 285.116L491.088 284.459L492.071 285.247L492.923 285.378L493.513 284.591L493.382 283.015L492.923 281.703L491.743 281.44L491.546 278.881V276.977L492.726 275.533L492.989 274.352L491.022 273.498L490.236 274.746L489.056 274.155L488.531 272.777L488.793 270.545L489.711 268.445L492.136 265.951L492.005 265.032L493.054 263.522L492.923 261.816L493.841 259.518L495.217 258.468L496.528 258.403L497.577 257.746L499.543 259.978L499.871 257.943L501.969 256.63L503.804 255.318L504.001 258.206L503.673 259.19L503.804 260.109L505.181 258.665L506.033 257.156L506.557 255.712L507.606 255.843L509.638 254.793L511.539 254.202L513.702 254.465L515.734 255.055L516.914 256.696L517.504 257.878L518.88 258.534L519.404 256.827L519.863 255.383L521.24 254.858L523.075 253.217L524.648 252.43L525.632 250.33L526.221 249.739L526.943 250.133L527.664 249.608L527.401 248.492L528.975 248.229L529.761 246.917L530.286 245.538L531.596 245.67L532.121 245.013L533.694 244.816L534.808 243.832L536.185 243.504L542.346 239.566L542.674 237.859L544.182 237.596V238.712L544.903 239.5L546.738 239.894L548.573 240.747L550.081 241.403L550.54 240.287L551.72 238.909L551.458 237.596L551.064 234.774L548.77 232.871L548.508 230.705L548.836 230.049L548.115 227.095L547.525 225.651H547L546.083 226.57L544.182 224.601L543.92 222.369L542.478 222.96L542.084 223.748L541.298 223.485L539.79 221.385L539.659 220.072L540.708 220.466L542.281 220.925H543.461L543.133 220.072L541.56 219.678L541.363 218.956H543.067L543.985 220.138L545.362 222.172L549.819 221.844L551.72 220.728L553.424 218.956L554.801 217.381L555.456 214.428L554.407 213.18L554.08 210.227L554.735 209.111L555.063 209.702L555.849 209.374L556.701 207.864L557.16 208.652L558.078 208.455L558.733 207.864L559.323 208.849L557.947 211.737L559.323 213.64L559.061 214.953L559.586 215.478L561.945 215.412L564.371 214.099L566.075 214.821L568.172 216.265L568.893 218.431L568.631 219.875L570.401 221.254L572.105 221.516L573.482 222.566L574.662 223.288L575.579 224.995L576.366 224.929L577.611 224.01V225.651L578.857 225.585V223.879L579.906 224.667L580.692 223.879L579.84 223.288L578.922 222.829L579.185 221.779L579.578 220.466L580.692 220.138L581.348 219.416V216.134L580.037 214.624L579.512 213.837L580.233 213.246L581.348 213.837L581.675 214.756L583.576 215.084L584.822 215.018L585.346 214.624L584.166 213.115L583.904 212.327L584.428 212.262L585.084 213.115L586.133 213.837L586.657 214.099L587.247 213.312V211.933L588.755 210.818L590 210.555L589.017 209.308L587.247 207.864L585.084 205.829L583.838 203.598L583.117 202.679L582.003 202.351L578.922 202.942L577.742 201.563L576.432 201.235L574.662 201.694L575.317 203.926L574.858 205.501L576.235 206.814L575.776 207.667L574.531 207.011L573.613 207.798L573.22 206.42L571.319 205.173L572.105 203.335L571.712 198.281L570.86 198.807L570.401 196.575L569.877 195.656L568.631 195L567.976 196.378L567.255 195.984L567.32 194.081L566.73 193.228L565.944 193.556L565.026 192.899L564.895 191.915L562.929 190.471L562.666 193.359L560.831 194.672L560.372 193.884L561.88 192.834L561.683 191.324V190.471L562.011 189.815H561.552H560.831L560.372 188.502L558.799 187.977L558.012 186.992L557.75 185.68L554.997 183.842L553.686 183.448L552.703 182.398L551.458 181.02L550.081 180.101H548.967L548.639 178.46H546.214L545.427 177.541L543.92 176.753L542.084 176.425L541.56 175.769L540.118 175.047L539.528 173.931L539.135 174.85L537.561 174.587L534.743 174.194L532.776 173.931L532.055 173.537H530.351H529.696L530.089 174.784L529.171 174.653L527.467 173.275L524.517 172.75L522.551 171.962H519.732L519.536 175.244L518.552 176.622L520.191 177.278L520.912 180.888L521.305 182.135L520.322 183.251L518.552 184.695L516.783 185.155L515.472 184.498L515.078 182.398L513.44 181.348L512.391 180.691L511.211 180.56L510.883 176.95L510.359 175.703L511.08 175.375L512.391 176.228L514.554 176.753L515.209 174.391L514.751 173.275L511.277 172.422L509.769 173.734L508.917 175.572L506.491 178.066L503.935 177.541L502.69 177.082L497.97 176.885L496.266 175.506H495.479L494.693 175.966L492.268 176.031L491.35 176.491L490.17 176.097L487.286 179.116V184.104L486.106 185.548L485.844 184.367L486.499 182.267L486.172 179.313L486.958 177.869L486.761 176.95L485.975 177.41L485.647 178.722L485.713 181.545V182.267L484.926 181.742L484.861 176.885L483.091 175.9L480.403 174.325L480.207 173.012L481.452 169.927L481.321 168.68L480.665 166.186L479.354 164.742L477.257 162.839L471.685 161.001H466.114L459.035 163.364L459.821 165.333L459.297 165.727L458.445 164.414L458.248 163.233L455.167 163.758L451.693 162.314L451.89 161.461L452.676 161.395L452.086 159.492L450.71 157.982L449.53 157.26L448.219 158.507L447.695 158.048L446.843 158.704L446.58 157.982L447.826 156.735L447.236 156.013L446.318 156.735L446.253 156.275L446.449 155.619L445.532 154.438L441.926 154.175L442.123 152.797L443.696 151.681L444.221 152.534L445.007 152.403L445.859 151.353L445.4 150.565L445.204 149.909L443.696 148.465L442.254 147.677L439.96 146.824H435.699L433.798 149.45L432.291 151.812L430.456 153.847L429.145 154.503L427.375 154.044L427.244 152.731L427.899 152.272L427.637 151.025L428.358 151.222L429.276 151.287L430.193 150.762L429.931 149.843L429.669 148.662L430.259 147.612L431.504 147.743L432.029 148.793L431.242 150.171L431.111 151.287L432.488 149.909L433.536 148.202L433.995 147.218L433.34 146.627H431.832L430.39 146.89L428.358 147.415L426.523 148.006L425.605 147.349L426.523 146.168L427.375 145.052L428.555 145.249L430.39 145.84L432.553 146.037L433.798 145.774L432.356 145.052L430.062 144.002L426.523 143.017L422.786 142.295L419.574 141.902H416.232L414.462 140.392L412.626 140.064L413.282 141.836L414.2 143.214L412.823 144.199L411.381 144.855L409.283 144.658L408.169 144.789L406.53 146.693L406.793 148.071L407.514 148.465L409.021 147.415L409.873 147.94L408.562 150.828L409.218 152.994L409.611 155.947L408.235 156.538L407.383 157.194L406.399 155.947L405.023 154.372V157.26H404.433L404.367 155.816L403.843 155.225L402.991 155.619L402.466 156.866L402.27 158.704L401.024 159.032L400.172 157.391L398.927 156.997L398.402 156.013L397.223 156.21L396.567 155.028L393.617 154.766L391.848 156.079L389.816 157.785L388.767 157.982L387.39 156.997L386.145 155.947L384.178 153.65L383.261 151.681L382.409 153.191L381.425 156.013L380.639 158.573L379.918 162.051L378.935 164.349L377.755 164.808L376.837 164.152L376.509 162.708L375.919 163.43L374.412 161.723L372.38 159.229L371.397 157.326L371.003 155.422L370.413 154.832L369.496 154.635L369.758 153.978L370.807 153.716L371.265 152.6L370.872 152.534L370.348 153.191L369.43 153.388L368.381 151.55L368.25 150.5L368.709 150.697L368.906 151.222L369.168 150.762L369.037 149.975L368.185 149.581L366.677 148.202L366.153 147.612L365.628 146.365L363.531 145.84L362.22 145.774L362.81 147.612L363.269 149.253L363.531 150.434L364.186 151.419L364.121 152.862L363.727 153.256L364.186 154.438L364.317 156.407L365.169 160.673L364.907 161.592L364.252 161.657L364.186 160.41L363.793 159.098L363.465 156.472L363.203 154.044L363.006 151.681L361.564 149.843L360.188 148.728L359.336 147.284L358.811 146.627L359.205 146.037L359.532 146.758L360.253 146.233L360.581 145.183L359.926 144.199L359.008 143.411L359.794 142.558L360.45 141.836L360.909 142.033L361.171 139.604H360.778L360.516 140.392L360.122 140.064L360.384 138.817L362.023 137.045L362.744 136.651L363.531 136.06L364.383 136.52L363.924 137.57L362.941 138.62L362.482 139.998L361.958 140.654L361.564 141.705L361.826 142.427L362.351 141.245L362.81 140.392L363.334 139.473L363.793 140.129L363.596 141.245L362.875 142.295L362.548 142.755L362.679 143.411L363.531 142.624L364.186 141.376L365.038 141.18L366.087 140.72H367.398L367.791 139.736L368.906 138.882L370.02 138.357L370.938 138.423L371.397 138.817L371.528 138.095L371.069 137.176L370.282 136.651L369.627 137.701L368.906 138.095L368.512 137.438L369.168 136.323L368.971 135.207H367.988L367.398 135.994L366.611 136.52L365.366 136.979L365.235 136.454L365.497 135.929L366.611 135.601L367.267 134.813L367.333 133.96L366.48 134.288L366.022 133.763L365.235 133.238L365.497 132.581L365.038 131.663L364.186 132.45L363.793 131.663L362.875 131.991L362.744 133.435L361.695 133.829L361.958 135.929L361.499 135.994L360.45 134.419L360.253 133.369L360.712 132.385L359.926 131.663L359.205 132.647L358.09 132.844L357.5 131.663L356.386 131.138L356.255 130.284L355.009 129.497L353.24 128.643L352.125 130.481L351.404 130.547L350.421 129.431L350.487 130.809L349.897 132.385L350.29 134.747L350.814 136.716L349.962 138.751L349.241 139.079L348.389 138.62L347.078 136.979L346.554 137.438L347.668 138.751L348.651 139.539H349.569L350.487 140.326L351.142 140.72L352.65 140.983L354.092 141.967L354.878 142.361L356.124 143.542L357.369 144.396L357.5 145.052L357.107 145.38L356.32 144.593L354.747 143.411L352.715 142.361L351.47 141.639L350.356 141.77L349.7 141.967L348.782 141.245L347.078 140.392L345.046 139.539L343.538 138.882L341.244 139.276L339.278 138.751L338.753 137.176L336.918 136.191L335.41 137.242L333.903 137.045L332.199 135.798L331.936 133.107L332.723 132.253L333.116 131.531L332.264 131.203L329.446 131.269L326.824 130.809L325.382 129.694L324.071 130.219L323.022 129.431L320.531 129.694L319.351 130.744L316.598 131.006L314.697 132.056L316.467 134.091L315.353 134.55L315.156 136.257L314.501 136.454L313.648 135.338L314.238 134.616L313.255 133.238L313.517 131.006L313.911 130.219L313.19 128.184L312.272 126.215L312.01 129.103L310.961 129.431L307.946 129.234L306.766 127.528L306.045 126.674L306.897 125.23L306.307 124.968L305.258 126.346L304.341 126.215L303.095 125.23L301.588 126.084L301.194 127.396L300.211 128.315L300.604 129.562L302.571 129.168L303.947 128.184L304.865 128.643V129.562L302.309 131.269L302.046 132.188L299.949 133.041L295.819 134.813L295.426 135.798L292.018 136.913L289.658 136.651L288.478 136.454L288.15 138.489L289.658 139.211L291.428 139.801L291.1 140.523L289.723 140.261L288.412 139.604L287.364 139.276L286.315 140.72L285.922 141.573L284.086 141.836L282.382 143.608L281.399 144.396L279.891 145.183L279.826 144.067L280.678 142.886L282.185 142.164L283.169 140.851L284.938 140.261L286.38 138.948L286.643 137.504L287.364 136.388L287.56 134.813L288.609 133.894L290.248 133.829L290.576 132.188L290.903 130.35L293.001 129.956L295.033 129.431L295.885 128.709L296.868 126.937L297.786 125.559L298.703 124.246H299.883L300.998 122.736L301.325 121.03L302.636 119.98L303.161 118.47L303.816 118.864L305.193 117.945L306.7 116.304H308.011L308.667 115.057L310.043 113.285L311.289 112.891L312.862 110.66L314.697 107.509V105.343L313.648 104.556L313.255 102.783L312.796 103.834L312.338 104.621L311.551 104.162L311.748 102.783L311.616 101.471L310.306 100.355L310.568 99.7643L311.944 100.618L312.796 101.668L313.911 102.652H315.091L315.68 101.536L315.549 99.0423L314.238 98.5172L314.173 95.4324L313.714 94.3823H312.796L312.862 95.6949L312.338 96.6795H311.748L311.616 95.1699L310.961 94.3823L311.616 92.3476L311.223 89.9191L310.83 88.6721L309.519 88.0157H307.815L305.586 86.1123L304.537 86.6374L303.423 86.1123L302.374 87.0312L300.735 87.1625L300.014 86.3749L297.786 87.0968H296.147L295.754 86.6374L294.508 86.8343L294.246 89.0659L293.722 90.2473L291.559 90.116L290.707 90.9036L289.068 90.2473L288.937 89.2628L289.92 88.3439L290.117 86.5718L291.821 84.4715L291.886 82.5681L289.658 81.5179H288.15L286.577 82.765L286.053 82.3712L286.38 81.5179L286.446 80.599L285.528 81.2554L283.562 81.3866L281.137 81.0585L281.202 80.1396L283.496 79.4176L285.135 78.7613L285.79 77.3173L286.839 76.2015L288.085 76.5953L287.167 75.217L286.774 73.1823L285.594 73.7731L284.283 73.1823L283.037 71.4759L282.382 71.1477H281.464L280.94 70.4913L279.957 70.9508L278.908 72.1978L277.466 71.9353L275.565 74.2325L273.205 77.1204L271.435 79.6802L270.714 81.0585L270.649 82.765L269.469 83.5526V85.1278L270.452 86.5718L269.6 89.5253L269.993 90.116L271.698 90.5755L273.271 91.4287L274.975 91.8881L274.844 92.8727L273.009 92.5445L271.763 91.6256L270.059 91.2974L269.076 90.7067L268.813 89.9847L267.961 90.2473L267.503 90.9036L265.47 90.6411L264.815 91.2318L263.111 91.0349L262.652 90.2473L261.734 90.6411L262.324 92.3476L263.57 93.3321L264.749 94.3823L264.946 95.6949L264.487 96.4169L263.57 95.6949L263.176 94.4479L261.734 94.6448L261.341 93.8572L260.685 94.5792L259.243 95.6949V96.6138H257.67L257.998 98.189L257.015 97.7952L255.9 97.7296L255.638 96.5482L254.131 97.2045V97.7952L255.179 97.7296L255.048 98.3203L254.393 98.5172L253.737 99.5674L253.213 99.2392L253.672 98.7798L253.475 98.189H252.557L251.378 98.6485L250.788 99.0423V98.2547L251.378 97.5327L251.836 96.4825L250.788 95.6949L249.149 95.3668L248.756 96.0231L247.772 95.6949L246.593 95.3011L246.199 96.1544L245.413 95.6949L243.971 96.0231V96.7451L242.922 96.8107L242.266 97.2045L241.676 96.3513L241.283 96.4825V97.4671H240.497L240.103 99.4361L240.759 98.911L241.349 97.9921L241.873 98.4516L242.398 99.3048L243.053 99.633L241.742 100.486L239.186 101.011L236.17 102.127V103.046L233.811 102.98L232.434 103.177L231.844 103.768L230.074 103.965L229.747 105.015L228.567 105.868L227.453 105.146L225.552 106.984L224.306 108.756L223.454 110.266L221.815 110.66L220.308 110.2L219.128 110.266L218.866 110.856L219.849 111.382L221.488 111.578L221.684 112.366L221.225 112.891L220.111 112.169V113.285L219.325 114.466L218.866 115.517V117.42L218.276 116.895L217.751 116.042L216.375 115.188L215.523 115.517L214.867 116.567L215.261 117.092L216.637 117.354L217.882 118.733L218.866 120.177L218.407 120.636L217.62 119.651L216.506 119.389L215.588 119.914L214.867 121.03L215.523 121.883L217.293 122.014L218.21 122.408L218.472 124.312L218.931 125.034L217.817 126.084L218.407 126.477L219.39 126.149L219.128 127.068L218.276 127.265L215.654 127.462L214.146 128.512L213.36 129.694L212.18 129.234L211.262 128.84L208.575 129.562L206.739 130.547L200.643 130.678L197.759 131.466L196.186 131.728L196.383 132.647L195.662 133.697V134.747L196.514 135.535L195.858 136.388L196.907 137.767L196.841 141.18L196.448 142.23L197.038 143.017L197.104 144.527L197.431 145.249L198.48 145.905L200.905 146.496L202.02 147.48L202.348 148.924L203.003 149.646L203.396 151.222L205.232 151.55L206.28 152.141L206.608 153.584L207.001 154.832L206.608 155.75L205.69 157.785L205.494 159.163L206.28 161.395L207.067 164.217L207.526 167.565L207.133 168.483L206.018 169.205L204.642 169.534L205.297 171.306L206.608 172.093L207.198 173.406L208.509 174.784L209.492 175.966L210.344 175.703L211.328 174.456L212.114 174.587V175.309L211.59 175.638L210.476 176.819L210.017 177.213L208.771 177.016L208.312 175.9L206.739 174.062L206.346 174.719L205.69 174.128L205.953 173.012L205.428 172.356L203.855 171.831L203.003 170.584L203.134 169.599L203.79 169.009L204.183 167.499L204.38 165.399L204.969 164.414L204.642 163.233L203.921 163.364L203.003 163.823L203.527 164.283L203.069 164.939L202.741 165.924L202.282 166.711L201.561 166.449L201.692 165.661L202.151 164.808L202.02 163.364L201.692 162.445L201.758 158.901L203.069 157.523L204.445 156.735L204.248 155.816L204.576 154.963L205.363 154.044L204.38 153.584L203.265 153.322L201.758 154.11L199.267 153.781L197.431 151.419L196.186 149.712L194.416 148.531L192.909 147.152L192.056 146.43L189.041 146.102L187.075 146.496L185.96 147.612L185.043 148.137L184.584 148.596V149.187L185.895 148.793L187.009 149.253L187.665 150.959L186.681 152.337H184.781L183.863 151.09L182.683 149.778L181.372 150.171L179.799 151.944L180.585 154.241L181.307 155.488L182.749 156.801L183.928 157.654L185.239 158.376L186.157 157.719L186.419 158.376L187.73 158.77L188.189 160.739L188.451 162.248L187.73 162.839L186.485 162.051L186.026 160.804L185.633 160.345L183.47 159.885L179.209 159.623L178.291 159.032L176.849 157.785L176.718 156.801L177.308 155.882V154.372L176.456 153.519V150.828L177.243 150.106L177.701 148.006L177.964 146.89L177.374 145.118L177.898 143.805L177.111 142.624L176.849 140.983L175.538 139.539L174.686 138.029L174.162 137.176L172.982 137.504L172.72 138.292L173.768 139.079L174.883 140.326L175.604 141.902L176.128 144.067L176.063 147.546L175.407 149.187L174.227 150.565L171.999 151.615L170.622 152.862L170.426 154.372L169.967 155.357L168.918 156.538L169.18 157.457L170.557 158.835L171.605 160.673L172.13 163.364L173.244 164.545L173.637 166.383L172.851 168.155L171.671 170.846L171.212 173.669L170.688 175.113L171.474 176.819L171.999 178.132L171.605 180.166L171.736 181.151L172.13 181.545L173.244 180.888L174.358 181.61L175.473 181.545L176.456 180.954L177.374 179.904L180.061 180.101L181.896 181.217L183.404 182.267L185.239 183.251L185.895 186.927L186.616 188.502L187.14 189.618L186.813 190.471L185.174 191.521V194.343L186.157 195.262L187.534 195.131L188.976 195.722L189.238 196.969L188.124 197.166L187.14 196.903L185.633 197.822L184.912 196.772L184.781 195.722L183.666 194.475V191.193L184.06 190.537L183.666 189.158L183.863 187.649L182.224 185.942L181.503 185.155L181.372 183.12H179.602L177.57 183.908L175.604 184.826L174.162 186.073L173.637 188.633L174.227 189.88L175.014 191.587L175.276 193.425L174.948 195.394L172.523 198.413L172.064 200.907L171.736 202.22L170.098 204.057L168.918 204.648L166.558 206.748L166.296 208.52L165.64 209.374L163.871 208.914L162.625 207.995L160.003 208.389L158.43 207.93L156.791 206.945L155.48 205.961L154.694 205.764V204.451L152.793 205.239L152.334 205.895L151.679 204.845L152.072 204.057L153.973 203.532L154.759 203.27L155.415 203.86L156.333 204.254L156.529 205.304L157.447 206.223L158.234 206.026L157.709 204.976L157.316 203.86L157.709 203.007L158.43 203.598L159.348 204.845L160.266 206.026L161.642 205.567L163.15 204.714L163.084 204.057L162.625 202.548L163.215 201.826L164.133 202.088L165.051 201.694L164.985 200.382L165.903 199.266L166.689 197.888L167.476 196.312L168.787 194.803L169.246 193.425L168.721 191.521L169.18 190.143L170.622 188.174L170.491 186.992L168.656 185.483L167.148 183.317L166.689 181.676L167.083 177.475L166.82 175.441L167.41 174.325L166.886 173.012L167.083 170.846L166.427 169.862L167.148 167.893L167.541 166.318V163.692L167.083 160.673L165.051 158.376L164.198 156.275L165.509 154.306L166.296 152.469L167.083 149.187L167.869 146.758L167.541 144.396L167.41 142.558L167.148 141.639L165.378 140.851L162.625 139.933L161.118 140.129L156.726 140.195L156.07 139.342L154.759 141.376L153.907 144.789L153.449 147.874L153.121 151.222L152.334 152.862L151.351 154.897L150.63 155.816L147.287 158.638L146.238 160.476V161.461L146.828 162.117L146.238 162.708V163.889L148.401 164.02L148.86 165.202L148.074 166.252L148.467 167.63L148.074 168.877L147.877 169.927L148.205 171.043L148.532 172.159L146.763 173.472L146.238 175.113L146.631 177.541L147.418 178.526L148.139 177.935L147.942 176.95L147.09 176.885L146.959 175.9L147.68 175.703L148.598 176.228L150.106 176.95L151.154 177.475L150.892 179.444L151.679 181.151L152.334 182.595L153.252 183.514L154.563 183.12L154.891 183.842L154.432 185.877L153.58 187.452L152.99 189.093L152.269 190.537L151.679 190.799L149.253 196.444L142.764 205.764L134.243 212.458L118.839 219.81L112.481 229.458L109.924 245.341L105.271 256.959L100.944 259.781L99.109 263.128L101.6 267.526L108.351 267.066L109.662 270.086L109.597 272.186L99.7645 281.572L99.2401 285.575L100.944 287.15L102.452 290.038L105.336 291.285L111.498 289.645H115.627L117.725 292.139L117.528 295.617L114.513 302.443V304.544L115.562 306.644L121.854 310.844L123.821 311.96L123.427 312.945H125.263L125.59 313.798L128.278 315.111L127.426 317.67L123.952 318.655L122.116 317.473L120.084 319.508L119.822 318.327L117.856 318.064L116.414 315.767H114.054L113.136 317.277L111.498 315.833L110.449 316.62L109.466 316.03L106.713 319.246L102.78 316.292L103.042 318.655L102.255 319.246L101.993 317.145L97.9947 313.667L95.1761 313.864L94.7173 311.96L92.5542 312.945L92.0953 313.864L90.9155 313.732V312.813L88.5557 311.96V313.076L83.9018 316.03L83.9673 317.408L80.8866 318.917L81.9353 322.199L79.9689 322.987L77.0848 319.771L74.8561 322.724V326.334L73.2174 330.929L75.5772 331.716L75.315 334.145L76.4948 334.801L76.757 333.816L79.3134 334.867L82.1975 339.724L80.3622 340.577L82.3942 342.152L83.9018 341.955L85.6716 340.446L89.0145 338.608L91.3743 338.148L92.5542 339.133L94.3895 339.527L95.5038 339.002L96.4871 339.986V341.889L96.0938 342.415L96.5526 343.727L97.0114 344.121L96.6181 345.303L95.3727 345.893L95.1105 346.746L92.5542 346.615L90.8499 347.272L89.67 349.372L91.6365 351.275L89.8011 351.407L89.2767 351.013L86.917 350.947L86.8515 351.8L88.4246 352.325L89.5389 353.835L90.5222 355.673L90.9155 357.576L92.4231 357.707L93.013 359.086H95.1105L95.8971 359.939V361.186L95.1105 362.302L95.045 363.877L95.4383 365.19L96.0938 365.912L95.8971 364.796L96.5526 363.418L98.388 362.433L99.5678 362.827L100.551 364.468L102.976 367.618L103.107 369.325L101.796 368.8L101.731 368.997L102.321 369.981L101.403 369.915L99.5023 369.39L98.8468 369.456L98.2569 369.85L97.1425 369.719L96.7493 368.865L96.356 369.259L96.0282 370.703L96.2904 372.672L99.4367 372.803L99.6989 373.394L98.8468 373.853L99.1745 376.544L100.158 377.66L100.486 378.382L100.092 379.367V381.073V384.355L100.223 385.536L100.879 387.374L100.289 387.768L99.0434 387.505L97.4703 387.768L94.324 388.621L92.3575 388.818L90.9155 388.227L89.0801 387.637L87.638 386.783L86.9826 385.536L85.3439 384.814L83.2463 384.289L82.1975 383.305L82.132 381.401L81.8042 379.957L81.8698 377.857L82.3942 376.61L83.1808 376.413L83.4429 375.494L83.7707 374.444L84.2295 372.409L85.2783 371.359H86.8515L87.1792 371.097L86.5237 370.703L85.2783 370.309L84.3606 369.981L82.9841 367.815L82.0009 365.912L81.542 364.927L80.8866 364.336L78.5924 366.896L76.2326 366.371L75.7738 365.452L70.3333 362.63L70.8577 361.12L67.9736 359.742L65.7449 360.136L63.5163 360.202L63.3196 359.611L58.7968 357.182L55.3883 357.379L50.9966 355.738L50.1444 356.526L51.3898 357.445L53.6185 358.495L55.3227 359.545L55.9127 360.727L56.0438 361.842L56.6993 363.877L55.9782 365.649L54.2084 367.356L51.8487 368.471L50.4722 368.997L48.178 368.275H46.146L44.5073 368.997L42.803 368.603L40.7055 368.078L38.3457 366.765L37.1659 367.29L35.5927 365.124L33.0363 365.058L32.4464 363.549L29.7589 364.008L26.6781 363.615H25.105L22.6797 364.862L20.9754 366.109L18.8124 367.749L14.3551 367.553L10.4222 367.487L9.11121 366.634L7.66915 365.321L6.62038 363.352L3.73625 363.024L1.17987 364.927L1.9009 366.371L0.917676 367.356V368.406L0 369.522L1.11432 369.85L2.16309 369.981L1.57316 370.769L0.852127 371.688V372.869L0.262193 373.919L0.327741 375.035H1.63871H2.68748L2.42529 376.151L2.94967 377.792L3.27741 378.842L2.88412 379.432L3.14632 380.351L2.68748 380.679L2.16309 380.22L1.7698 379.564L1.37651 379.629L1.24542 380.811L1.63871 381.205H2.68748L3.08077 381.598L4.19509 382.452L4.45728 383.305L3.9329 383.896L4.26064 384.355L5.50605 385.799L5.44051 386.455L6.16154 386.783L7.7347 386.587L7.34141 387.571H9.11121L9.96334 388.227L10.7499 387.965L10.9466 388.818L11.9298 389.868L12.9786 390.393L14.224 390L15.666 389.868L16.0593 388.49L16.6493 387.374L18.5502 387.505L20.32 388.162L21.6965 389.343L23.2041 390.853L24.7117 390.984L26.0227 390.393L27.4647 390.328L28.7101 389.474L30.3489 388.03L30.9388 387.44L31.6598 387.702L32.7741 388.556L34.0196 388.162L35.3305 387.44L36.1171 386.98L36.5104 387.44L36.3137 388.556L35.1339 389.803L35.1994 390.525L35.6583 391.05L35.265 392.494L35.0028 393.281L35.6583 394.594L35.7238 397.285L35.3305 398.401L34.4784 399.91L34.0851 401.223L33.1674 402.798L32.3153 404.57L31.922 405.817L31.5287 407.721L31.0699 409.296L30.4799 410.149L29.6278 411.856L31.5943 418.747L32.1187 419.994L31.5287 422.16L31.5943 424.654L32.8397 424.786L33.8885 426.427L35.1994 428.855L36.7726 430.627L37.297 432.465L38.5424 433.253L39.3945 435.287L40.3122 436.6L40.1155 438.306L41.1643 439.619L43.0652 440.735L44.9006 442.77L46.2771 445.461L47.0637 448.283L46.7359 449.267L46.6704 450.121L47.588 451.958L47.1292 452.287L48.0469 453.796L48.8335 455.043L50.3411 455.765L52.1764 456.815L53.5529 458.981L54.4706 460.491L54.7328 461.935L55.6505 462.985L56.5682 465.02L58.1413 466.267L59.059 467.908L60.1733 470.402L60.2389 472.371L59.78 474.93L60.8943 476.571L61.5498 479.394L62.2053 482.019L62.6642 483.857L63.0574 484.25L64.7617 484.579L67.5147 483.791L70.0056 482.478L71.5132 481.756L74.5939 481.56L77.0848 480.181L78.9857 479.919L79.3134 479.262L81.0832 479.328L82.7219 477.753L84.4917 476.834L86.5893 476.506L88.4246 475.324L91.4398 474.668L92.8819 473.815L93.8651 473.618L94.3895 470.927L95.766 469.811L98.1913 469.352L99.8956 468.761L102.124 468.17L103.697 468.301L104.746 467.317L104.943 466.135L105.926 464.954L108.155 464.888L109.728 463.444L111.039 461.344L112.677 461.016L113.857 460.819L113.726 458.719L113.988 456.487L114.185 454.256L114.775 453.862L115.562 454.518L115.758 455.437L116.873 454.715L118.118 452.812L118.839 451.63L119.626 451.368L120.609 449.596L121.395 448.086L121.133 447.43L120.216 446.905L118.511 445.067L117.069 443.098L113.923 442.638L111.432 441.719L109.4 438.832L108.745 436.403L108.679 433.056L107.63 433.909L105.598 436.272L103.239 438.438L102.649 439.422L101.6 439.685L100.617 441.063L98.1258 441.26L95.766 440.866L93.1441 441.522L91.6365 440.341L91.1121 440.144L90.9155 438.7L91.7676 437.716L91.8331 434.106L91.1121 433.515L89.8667 433.646L89.0801 435.287L88.8835 436.666L88.7524 437.913L87.7036 436.14L86.1304 433.778L86.917 431.94L85.6716 429.905L82.132 427.28L81.411 425.18L80.5588 423.211L79.6412 421.307L78.3302 419.994V419.076L79.9689 418.55L81.411 416.975L82.7875 415.925L84.6884 417.041L85.6716 416.188L86.6548 416.516L88.0969 419.338L88.8179 420.651L90.26 422.423L90.8499 424.589L92.1609 425.77L93.9307 426.164L94.4551 426.82L95.3727 427.214L95.6349 427.936L97.798 429.118L99.9611 430.036L102.911 431.349L104.025 431.087L106.123 429.446L108.548 428.593H109.99L111.432 429.905L112.481 434.04L114.578 434.631L116.61 434.959L118.184 435.156L118.708 435.55H119.56L120.347 435.222L121.264 435.55L123.1 436.14L123.821 435.484L124.345 436.206L126.377 437.125L127.95 436.666L130.376 436.469H133.718L134.833 435.812L136.603 436.272H138.7L141.978 435.812L145.91 435.55L146.173 437.125L146.763 437.847L148.008 437.978L148.729 440.997L149.253 441.522L150.892 441.785L151.679 442.77L152.596 442.704L153.449 444.542L154.956 445.592L156.66 445.986L158.234 445.592L159.217 445.264L159.61 445.658L159.217 446.511L157.316 447.758L156.529 448.217L154.497 447.955L155.743 449.792L157.578 451.565L159.151 453.337L160.593 453.927L162.691 453.665L164.657 452.877L165.837 450.711L165.772 449.005L166.493 448.48L168.131 448.217L167.672 448.874L167.279 449.53L167.607 451.63L168.197 454.19L168.525 455.568L168.131 456.29L167.804 457.472L168.525 460.556L169.377 460.819L168.918 462L168.656 463.444L169.573 465.873L170.163 470.402L171.015 472.436L173.637 477.424L174.49 480.05L175.211 481.494L175.407 483.332L177.046 486.745L178.029 487.86L179.471 491.339L180.782 494.949L181.634 498.034L182.88 499.675L183.732 500.462L185.371 500.922L186.878 499.872L187.534 498.231L190.024 496.59L190.811 494.227L191.729 493.046L192.515 492.849L193.499 493.308V489.764L193.105 488.779L193.499 487.664L194.22 485.891L194.809 484.054L195.137 482.675L194.088 481.1L194.416 479.787V475.981L194.22 474.274L194.875 473.093L196.12 472.436L197.497 472.961L198.218 471.517L198.808 470.861L200.578 470.795L201.823 470.008L202.348 469.68V469.089L201.889 468.761L202.413 468.039L204.248 466.529L206.608 464.363L209.361 462.526L211.065 460.097L212.573 458.587L212.901 457.34L214.015 457.275L214.081 457.8L215.982 457.472L217.03 456.815L217.62 455.7L219.128 454.059L218.603 453.14L218.735 451.827L219.849 450.843L221.815 450.252L223.126 448.742L223.651 448.677L223.585 450.449L224.372 450.777L226.207 450.58L227.977 449.989L230.074 448.874L230.664 449.596L231.058 449.267L231.582 448.677L232.106 449.399L232.827 448.545L232.631 446.642L231.975 444.87L231.189 444.214L229.222 442.966L227.387 442.048L226.994 441.26L228.436 441.588L228.895 440.866L228.632 439.947L228.37 437.519L228.698 435.156L229.353 433.318L230.795 432.531L231.385 432.793L230.992 433.384L230.14 433.975L229.55 434.828L229.222 436.403L229.353 438.7L229.616 440.735V442.048L230.795 442.835L232.369 443.623L232.631 444.936L233.614 446.839L234.663 447.101L235.253 446.248L235.843 446.642L236.367 448.152L236.629 450.843L237.088 451.958L238.989 454.387L239.972 455.634L242.004 457.144L243.774 459.835L245.347 462.46L246.265 464.888L246.396 467.645L245.74 469.548L245.216 470.861L245.347 472.043L246.986 472.699L248.035 472.239L249.149 472.896L250.001 472.502L252.295 469.877L254.065 469.286L254.458 467.776H255.376L256.163 469.023L257.08 471.911L257.867 473.88L258.129 476.243L258.916 477.556L259.44 480.378L260.358 481.297L260.751 483.332L261.21 484.382L260.685 485.104L260.489 485.694L260.882 486.285L260.489 486.942L260.882 487.532L261.538 487.926L261.472 489.961L260.751 491.405L260.685 494.161L260.62 495.277L260.227 495.868L260.096 497.574L259.702 499.478L259.833 501.841L260.227 501.578L260.817 500.397L261.865 501.578L262.717 502.694L263.57 503.481L263.635 504.335H264.291L264.946 505.582L265.995 506.829L266.781 508.338L267.437 509.979L267.371 512.408L268.42 513.983L269.666 517.855L270.845 519.759L271.566 520.612L273.205 521.99L274.713 522.581L276.024 524.025L277.99 525.009L278.711 525.469Z" fill="#EEEEEE"/>
<path d="M98.585 485.104L99.4371 485.629H100.879L101.272 484.579L98.585 485.104Z" fill="#EEEEEE"/>
<path d="M464.213 320.427L464.737 321.346L466.704 320.427L467.687 319.246V317.867H466.769L466.31 319.246L464.672 319.902L464.213 320.427Z" fill="#EEEEEE"/>
<path d="M494.562 268.379L495.61 265.754L497.97 264.9L498.363 266.673H496.462L494.562 268.379Z" fill="#EEEEEE"/>
<path d="M399.91 292.992L400.566 291.548H401.811L402.598 292.992L401.877 294.108L399.91 292.992Z" fill="#EEEEEE"/>
<path d="M366.612 145.446L367.136 146.365H367.988L368.25 145.446L370.02 145.905V146.627L368.709 146.89L369.234 147.284L370.741 147.94L371.397 147.284V146.037L371.003 144.921H369.234L367.333 143.739H365.956L365.301 144.33L365.76 145.118L366.612 145.446Z" fill="#EEEEEE"/>
<path d="M353.174 127.396L354.485 127.79L355.14 126.871L354.157 126.477L353.174 127.396Z" fill="#EEEEEE"/>
<path d="M369.233 140.195L370.02 139.145L371.134 139.933L369.233 140.195Z" fill="#EEEEEE"/>
<path d="M368.774 141.77L369.233 141.245L370.544 142.361L369.627 142.624L368.774 141.77Z" fill="#EEEEEE"/>
<path d="M307.225 121.292L308.929 120.833L309.322 118.339L313.386 119.389L314.107 120.439L312.927 122.671L311.944 124.115L309.847 123.721L308.667 122.408L307.683 122.08L307.225 121.292Z" fill="#EEEEEE"/>
<path d="M157.906 137.307H158.955L159.479 138.095L162.953 136.388L163.74 137.635L164.199 137.241L163.74 135.404L162.56 133.303L161.446 132.516H159.873L157.906 133.566L158.168 135.272L157.906 137.307Z" fill="#EEEEEE"/>
<path d="M182.552 146.496L184.846 143.477L187.402 143.871V144.593L185.764 146.496L183.076 147.021L182.552 146.496Z" fill="#EEEEEE"/>
<path d="M189.106 139.933L190.549 137.701H191.335L192.122 139.342V141.573H190.024L189.106 140.523V139.933Z" fill="#EEEEEE"/>
<path d="M179.537 136.126L180.389 135.272L181.897 136.126V137.045H180.389L179.537 136.126Z" fill="#EEEEEE"/>
<path d="M216.637 113.679L217.948 114.269H218.603L218.865 113.285H219.39V112.366H218.013L217.096 112.891L216.637 113.679Z" fill="#EEEEEE"/>
<path d="M249.87 94.3823L250.853 95.2355H251.837L252.295 95.498L252.754 95.1699L252.426 94.3823L252.951 93.6603L252.361 93.3977L250.591 93.5946L249.87 93.9228V94.3823Z" fill="#EEEEEE"/>
<path d="M549.164 163.758L548.771 161.198L550.213 158.638L552.572 156.407L555.194 155.422H557.685H559.258L560.504 157.063L562.273 159.623L560.569 161.395L557.62 161.986L555.522 162.511L554.145 161.592L552.769 161.723L552.179 162.708L549.164 163.758Z" fill="#EEEEEE"/>
<path d="M399.123 155.357L399.91 156.275L401.483 156.669L402.335 155.619L401.745 154.7H400.172L399.123 155.357Z" fill="#EEEEEE"/>
<path d="M409.218 132.647V133.96L411.25 132.975L412.757 133.041L414.462 134.288L417.084 134.879L419.837 135.469L421.279 135.732L422.327 135.338L421.934 133.829L421.803 131.4L420.23 129.562L418.722 127.987L417.149 127.134L414.658 127.396L413.282 127.659L412.823 129.956L412.299 131.4L410.725 132.581L409.218 132.647Z" fill="#EEEEEE"/>
<path d="M411.775 126.74L410.529 124.771V122.736L412.627 122.146L413.413 122.736V124.968L411.775 126.74Z" fill="#EEEEEE"/>
<path d="M394.798 126.346L395.978 126.74V124.837L394.535 122.999L393.29 122.474V123.655L394.208 124.443L394.667 125.165L394.798 126.346Z" fill="#EEEEEE"/>
<path d="M394.208 100.683L393.814 102.39L394.208 103.505L393.814 105.081V106.787L395.256 106L395.584 103.702L394.994 101.865L394.208 100.683Z" fill="#EEEEEE"/>
<path d="M405.023 95.0386L407.317 96.6794L409.153 98.5172V99.633L409.808 100.289L410.07 101.011H411.25L411.644 101.93L413.02 102.915L413.413 102.324L413.02 101.536L412.889 97.9265L413.413 96.942L415.052 97.3358V96.8107L414.79 96.1544L415.052 95.7606L416.494 96.8764L418.067 98.6485L419.706 100.355L421.279 100.486L422.394 99.6986L424.032 100.683L424.884 101.536L426.195 102.324L427.506 103.309L428.358 104.031L428.096 104.949L426.785 106.065L426.982 108.1L426.392 109.872L424.098 111.71L423.246 110.922L421.935 111.119L420.493 110.069L419.116 107.575L419.051 105.737L420.362 104.096L420.624 102.849L420.755 101.865L419.968 101.602L418.002 101.668L417.346 102.849L417.084 104.687L417.346 107.115L418.198 109.084L418.854 110.528L420.362 111.185L421.607 111.907L422.394 112.3L422.262 113.351L420.493 113.613L418.985 114.532H418.198L417.019 113.416L417.477 112.366L416.691 112.038L415.642 112.366L413.676 113.219L411.316 114.073L409.808 114.532L408.956 112.957L407.776 112.891L408.104 114.532L407.58 115.713L406.334 116.829L405.023 115.976L403.385 115.385L402.336 114.073L401.287 111.907L400.042 111.119L399.189 109.216L398.665 108.1V107.378L399.648 106.328L399.976 105.474L399.124 104.162L399.255 103.44L399.583 102.849L399.517 101.668L400.959 101.077L401.156 100.158L400.763 99.5017L400.959 98.7798L401.746 97.9265L402.991 97.4014L403.516 96.22L405.023 95.0386Z" fill="#EEEEEE"/>
<path d="M432.684 104.556H433.668V106.262L435.241 107.312L436.289 105.934L440.484 107.312V108.822H442.123L442.91 108.297L445.204 108.822L446.515 109.675L447.564 110.66L448.088 110.2L448.678 110.266L448.219 111.775L447.695 113.547L444.417 115.254L442.123 115.582L439.042 114.991L436.617 112.104H435.372L431.767 108.756L432.291 108.034V106.525L432.684 104.556Z" fill="#EEEEEE"/>
<path d="M439.895 87.425L440.681 88.4752L442.516 87.9501L443.631 86.4405L443.172 85.5872L441.402 86.1123L439.895 87.425Z" fill="#EEEEEE"/>
<path d="M287.691 60.9743L289.133 59.5304L289.461 58.4146L290.248 59.3335V61.8932L291.952 62.1558H293.591L293.853 63.9279L292.608 65.2406L292.018 64.453L289.133 64.3217L288.15 63.0746L287.691 61.8276V60.9743Z" fill="#EEEEEE"/>
<path d="M285.069 57.1019L283.299 60.0555L281.53 59.6617L279.891 60.8431L277.597 61.8276L276.417 62.0901L275.892 62.9434L274.909 61.8276L273.336 62.4183L270.124 62.2214L268.551 64.3217L266.06 66.0938H264.094V64.1904L264.815 61.8276L266.585 58.4146L267.306 55.3298L267.699 52.6388L268.289 51.7199L269.796 52.245L270.19 51.9824L268.944 50.3416L269.272 48.0444L270.517 47.5849L269.665 46.5348L269.862 45.6159L270.845 45.3534L270.911 44.5001L270.517 43.9094L271.501 42.8593L271.828 41.5466L272.418 41.284L272.943 42.3342L273.729 43.1218L274.057 42.5311V40.037L274.581 39.5119L275.827 40.5621L276.876 41.7435L276.351 43.0562L276.024 43.7781L275.761 45.8128L275.237 48.7007L274.581 50.1447L275.106 50.2103L275.827 49.554L276.286 48.5694L276.482 46.863L277.859 46.0753L278.711 44.6314L279.694 44.8283L280.415 46.7973L281.333 48.3725L281.923 50.1447L282.251 51.9824L282.709 51.9168L282.972 51.0636L283.299 50.7354L284.283 51.0636L284.61 51.7199L285.069 54.6078V57.1019Z" fill="#EEEEEE"/>
<path d="M265.274 45.9441L265.668 49.0289L264.094 50.9323L260.751 50.6698L257.802 50.5385L257.343 50.8667L255.049 48.3726L254.787 47.2568L250.985 47.5193L250.526 46.0753L249.412 45.4846L248.363 46.5348L246.724 45.1565L246.921 43.9094L245.806 42.7936V38.0023L244.102 37.6741L243.84 36.6896L242.922 36.2302L242.267 37.0834V38.0023H241.808L241.087 37.1491L241.284 36.624L242.726 35.3113L243.578 34.3924L243.709 33.4735L244.43 32.6203L246.003 31.7014L245.085 30.1918L245.544 28.6822L246.331 27.829L247.904 26.0569L248.756 26.9757L249.28 26.0569L250.657 25.7287L252.23 25.4661L253.41 25.7943L254.852 25.0067L255.901 24.2847L256.95 24.5473L258.064 25.4005L258.588 26.2538L258.457 27.1726L258.129 28.8791L257.015 30.52L255.049 31.8327L253.017 33.2766L253.344 33.7361L254.721 33.211L255.966 32.3578L257.212 31.7014L256.687 32.8172L256.95 33.0797C256.95 33.0797 257.605 32.6203 257.736 32.6203C257.867 32.6203 258.916 31.7671 258.916 31.7671L259.572 31.1107L259.244 30.1918L259.113 29.4698L259.768 28.7479L260.293 29.6011L260.817 29.076V27.7634L260.489 27.107L260.751 26.6476L262.456 26.1881L263.57 26.7132V27.829L264.291 28.551L265.274 29.6667L265.864 31.7671L265.143 33.0797L265.405 34.1955L265.078 36.7553L264.946 40.4308L264.815 42.0716L264.357 42.728L263.111 41.6778L262.914 42.2686L263.767 43.1218L264.619 44.2376L265.34 45.7472L265.274 45.9441Z" fill="#EEEEEE"/>
<path d="M238.923 39.1837L237.94 40.2995L236.629 39.7744L234.663 38.4618L234.27 37.4772H235.056L235.712 38.4618L237.023 38.8556L238.465 39.0525L238.923 39.1837Z" fill="#EEEEEE"/>
<path d="M233.942 33.8017L235.843 35.18L236.629 34.5237H239.317L241.021 33.8017L242.201 32.489L242.988 30.8482L243.774 29.6011L242.791 29.0104L242.922 27.8946L240.759 27.4352L238.399 27.107L237.088 26.1225H233.68L234.27 27.107V28.2228L233.68 28.551L234.007 29.798L233.68 31.1107L234.073 31.3732L235.253 31.8327L236.892 32.0296L237.547 32.6203L236.76 33.2766H234.794L233.942 32.8828V33.8017Z" fill="#EEEEEE"/>
<path d="M240.235 25.3349L241.48 26.6476L242.857 27.2383L244.495 26.7132L245.675 25.5318L246.593 24.6129H248.363L249.87 23.3658L252.361 22.972L254.917 22.8408L256.425 22.0532L256.294 21.3312L255.639 20.5436L255.507 17.59L255.18 16.4742L255.573 14.5052L256.032 14.1114L256.556 14.4396L258.457 13.2581L257.867 12.5362L258.064 11.0922L256.884 10.6328L255.311 8.86064L254.131 7.81049L253.869 6.43217L252.754 5.05385L252.689 3.87243L251.837 2.23157L250.919 1.9034L251.181 0.459441L250.329 0H248.625L248.363 0.525075L249.084 1.18142L249.149 1.83776L248.232 2.62538L247.183 3.87243L245.806 4.33187L244.495 5.05385L241.677 7.21978L241.283 9.05755L239.972 10.1733L240.104 11.1578L239.448 11.9455L239.972 12.208L240.825 11.8798L241.546 11.4204L242.004 11.7486L241.546 12.7987L240.694 13.7832L240.169 15.1615L240.366 16.9993L240.104 17.9838L238.727 18.5745L238.137 19.1652V19.6247L239.645 19.8872L239.579 20.5436L239.186 21.003L238.465 20.7405L237.416 20.3467L236.826 20.8061L237.351 21.2655L238.268 21.4624L239.055 21.5937L239.841 21.3968L240.89 21.2655L241.677 21.9875L241.873 22.447L241.48 22.7751L240.759 22.3157H239.448L238.399 22.5126L238.53 23.1033L240.104 23.6284L240.431 24.2191L240.235 24.7442V25.3349Z" fill="#EEEEEE"/>
<path d="M238.858 24.5473L239.316 24.8754L238.858 25.138L237.678 25.0067L238.005 24.3504L238.858 24.5473Z" fill="#EEEEEE"/>
<path d="M235.58 2.03466V4.3975L233.679 5.11947L231.778 4.3975L230.14 3.08481L230.926 2.03466L233.679 1.18141L235.58 2.03466Z" fill="#EEEEEE"/>
<path d="M214.867 118.864L215.195 117.945H215.982V118.733L214.867 118.864Z" fill="#EEEEEE"/>
<path d="M213.426 119.455L214.016 118.404L212.967 118.208L212.442 118.798L213.426 119.455Z" fill="#EEEEEE"/>
<path d="M201.889 110.528L201.102 110.791L199.66 108.625L199.922 106L201.889 104.687L202.282 107.247L201.692 107.706L201.889 110.528Z" fill="#EEEEEE"/>
<path d="M202.282 98.2547L203.855 97.4671L205.297 98.2547L205.035 99.2392L203.331 98.6485L202.282 98.5829V98.2547Z" fill="#EEEEEE"/>
<path d="M200.774 98.386L200.381 99.2392L200.971 99.8299L201.757 99.2392L201.102 99.1079L200.774 98.386Z" fill="#EEEEEE"/>
<path d="M225.289 82.5024H226.076L226.338 80.7303L226.928 80.2052L228.96 79.6802L228.632 77.7111L227.124 78.0393L226.731 79.4176L225.289 80.4021V82.5024Z" fill="#EEEEEE"/>
<path d="M229.288 80.3365L229.944 81.1241L230.73 80.074L230.402 79.6145L229.288 80.3365Z" fill="#EEEEEE"/>
<path d="M249.607 82.1743L252.95 79.6145V81.1241L251.312 83.2244L251.049 81.9774L249.607 82.5024V82.1743Z" fill="#EEEEEE"/>
</g>
<defs>
<clipPath id="clip0_316_76">
<rect width="590" height="568" fill="white"/>
</clipPath>
</defs>
</svg>
