<svg width="375" height="265" viewBox="0 0 375 265" fill="none" xmlns="http://www.w3.org/2000/svg">
<path d="M83.6896 179.929C83.0218 179.804 82.3539 179.679 81.6861 179.513H80.0165L79.5991 180.388H78.3886L77.8459 181.429H76.7189L77.9294 179.513L80.0999 176.637L83.4392 174.096H85.9854L87.9889 172.262H86.4863L85.5262 172.887L83.9401 171.845H82.02L81.8531 170.97H78.5555L78.0964 169.304L80.0999 168.012L81.8531 167.47L82.3539 164.928L81.9783 163.011L79.8912 163.553V163.011L81.1852 161.803L80.6426 160.928L81.06 159.428L82.3957 160.803L84.7749 160.553L85.0253 159.928L86.7785 160.72L86.4445 158.553L87.488 155.469L85.7767 153.052L84.7332 151.386L85.234 149.261L84.6497 148.76L83.2722 149.594L81.8113 149.344L80.6008 150.052L79.5573 149.261H78.3051L78.4721 148.052L79.8078 146.219L80.3086 144.552L79.3904 142.968L80.1417 141.802L79.3486 141.26L78.3051 142.468L77.5955 141.552L76.9694 141.718L76.5102 145.427L75.9676 145.052L76.2181 141.51L76.4268 140.552V138.468L77.9712 136.343L77.7625 135.635L76.6355 136.676L75.7172 137.635V138.593L74.5902 138.885L73.6719 138.676L74.0475 137.843V137.218L75.5085 135.635L76.0511 133.843L76.2598 132.593L75.8841 131.634L75.592 130.301L76.3015 128.759L75.8007 128.092L76.2598 127.592L77.7625 127.217V125.551L77.3451 124.967L77.7207 124.467H78.639L78.7642 122.425H83.3975L83.9401 122.009L84.7332 121.717H86.0689L86.361 123.05L85.3175 123.967L82.2287 127.342L82.7296 127.801L82.3539 128.384L81.9783 128.967L82.1452 130.218L83.1053 129.634L85.1506 128.926L87.488 128.842L90.7021 129.009L91.4951 130.176L90.3681 131.759L90.2847 133.176C90.2847 133.176 89.5751 134.759 89.5751 134.884C89.5751 135.01 88.4481 136.385 88.4481 136.385L87.5298 137.51H86.4028L86.2358 138.26L86.7367 138.635L87.1959 138.551L87.6133 138.843L87.6967 139.426L86.5697 139.343L86.1941 139.802L85.1506 140.927L85.7767 141.427L87.5298 141.76L89.3246 141.635L90.4934 142.677L91.3699 144.302L92.2465 145.177L92.5387 147.385L93.6657 149.719L94.2918 151.511L95.544 152.761L97.1301 153.344L98.1737 154.636L98.3406 158.178L99.0502 159.011L99.6763 159.72L100.052 161.095L99.0502 162.428L99.5928 163.136L101.471 163.011L102.556 162.303L104.477 162.803L105.478 163.887V165.887L105.103 167.387L103.809 169.054L102.515 170.637L100.636 171.845L100.887 172.762L102.64 173.346L104.101 172.971L104.477 173.387L104.143 174.179L100.135 176.596L99.3007 176.429L98.6328 176.012L95.2936 176.596L93.7491 176.096L93.0396 176.512L92.4134 176.887L91.4534 176.637L89.7003 177.346L87.1541 176.721L85.568 177.221L84.3992 178.346C84.1488 178.846 83.8566 179.304 83.6062 179.804L83.6896 179.929Z" fill="#EEEEEE"/>
<path d="M73.5064 147.052L74.8004 150.261L76.2196 151.302V152.553L73.5064 155.344L73.089 155.928L73.5064 158.47L74.0073 161.595L73.5064 164.762L72.6299 166.554V167.512H70.4594H69.6663L68.0801 167.97L65.7427 170.304L62.8626 171.804H59.9825V170.846L58.605 171.096L59.2311 170.095L57.9789 170.22L57.3945 169.387L58.605 168.137L57.9372 167.679L58.3546 167.387L59.3563 167.262L59.1476 166.387L59.732 165.595L61.1095 165.095L60.9425 164.47L59.0224 164.928L59.2311 164.345L60.0659 163.553L60.1077 162.678L61.0677 162.053L60.9007 161.22L59.6485 161.095L59.0642 160.553L57.7285 160.47L58.0206 159.178L57.6032 158.511L59.0224 158.011L60.3999 157.053L60.1077 155.928L58.9389 156.178L58.8972 155.261L59.1059 154.553L58.4798 153.844L59.6485 153.344L61.2764 153.719L62.153 154.219L63.7391 153.969L65.3253 152.469L65.9514 151.261L65.0748 150.677L64.407 150.552L65.1583 149.552L64.9496 148.594L66.2018 147.552L67.9132 146.844L68.3306 147.386L68.7063 146.844L69.2489 146.51H69.9585L70.7933 147.344L73.5064 147.052Z" fill="#EEEEEE"/>
<path d="M74.7588 132.968L75.6354 132.176L74.7588 131.843L74.1327 131.676L73.9657 130.092H73.5066L73.6318 129.134H72.9222L72.7135 130.259L72.1709 130.843L72.3379 131.384L73.1309 131.343L73.3814 132.468L74.7588 132.968Z" fill="#EEEEEE"/>
<path d="M70.458 125.842L71.585 124.092L72.9207 123.134L73.7555 123.592L72.712 125.051L72.7955 126.634L71.4598 127.301L70.458 125.842Z" fill="#EEEEEE"/>
<path d="M7.22114 77.2971H10.1012L12.7309 76.8804L17.5311 80.2556H18.825L20.9121 81.4224H23.1243L24.9609 80.7973L27.048 78.5055L28.7176 78.0888L29.4689 76.8804L30.7211 77.6304L31.7647 76.8804L34.6448 74.0885L38.0258 73.2135L39.6954 71.4633V70.2549L41.9076 69.0882L42.9512 67.7131L41.4485 66.4213H43.3686V65.3379L42.8677 64.0462L43.3686 62.0877L42.7425 61.0043L40.9476 60.2959L40.3215 59.4625H38.6101L38.6936 56.8373L37.7336 56.1289L37.6918 54.4621L35.897 55.1705L34.9787 53.8371L34.0604 52.0453L32.3908 52.462L32.2655 55.2539L30.3455 55.9623L29.2185 55.4205L28.3419 57.2957H27.2149L26.0879 55.7122H25.2949V56.9623L25.8375 58.8375L25.587 59.6708L24.7522 58.0457L23.667 57.2123L22.6234 55.1289L20.4112 57.1707L20.6616 59.4625L19.5764 59.7959L17.1554 55.8789L16.2371 56.2956L16.905 58.5458L16.7798 61.171L14.5258 60.7543L13.1066 64.3795L12.6474 62.7961L12.1465 60.9626L11.27 59.6708L12.5639 58.1291L11.7291 56.9623L10.6021 56.4206L7.84725 52.4203L5.8437 52.6704L5.21759 53.4204L5.76021 53.9204L6.84547 53.4204L7.84725 54.2538L6.21936 54.9205L6.42806 55.4205L7.84725 56.0873L8.3064 58.1291L7.30462 57.0873L6.63677 56.9623L6.2611 57.379L4.7167 55.1705L3.7984 55.5872L3.42274 56.754L2.54618 56.8373L3.75666 58.1291L2.54618 58.2957L3.50622 59.0041L4.7167 59.6708L4.04885 60.6709L1.79485 59.3375L2.08703 60.5876L1.79485 61.296L0.375666 60.6709L0 61.5876L2.08703 62.5877L3.92362 61.5876L5.96892 61.0043L7.05417 60.8793L7.63854 60.3376L8.55684 61.0876L10.4769 62.171L10.0178 63.0878L7.76377 64.5045L9.47513 65.3796L10.6021 64.5462L10.6439 66.1296L9.68384 66.7547H7.13766L4.88366 67.4214L2.71314 67.6714L2.54618 68.8382L3.50622 68.2964L5.21759 68.1714L8.26466 68.3798L8.97425 69.5882L8.93251 71.1717L10.7274 70.0049L10.4352 71.5467L10.8108 71.9634L12.23 72.4217L10.7274 73.8385L10.6439 75.0886L9.01599 76.1303L7.72203 76.3804L7.01243 76.172L6.84547 76.7137L7.22114 77.2971Z" fill="#EEEEEE"/>
<path d="M345.78 177.137L348.159 176.596L349.119 173.721L346.156 172.304L345.738 171.345H343.651L344.111 170.22L341.856 168.929L334.761 164.22L333.592 161.886V159.553L337.015 151.886L337.223 147.927L334.886 145.177H330.211L323.282 146.969L320.068 145.594L318.356 142.385L316.436 140.593L317.062 136.093L328.082 125.55L328.207 123.217L326.705 119.8L319.15 120.342L316.311 115.425L318.398 111.675L323.24 108.466L328.499 95.4234L331.38 77.6305L338.559 66.7547L355.881 58.5458L365.482 51.0036L372.828 40.5862L374.665 33.669L370.908 27.7936L364.313 23.7517L359.638 19.9181L354.295 17.5846L348.201 16.7095L346.824 15.6678L345.237 16.1261L345.071 17.2512L343.61 17.7513L343.317 19.3347L344.904 21.8349L344.737 23.46L346.198 24.5851L346.114 26.6685L344.403 28.4603L341.898 28.6687L341.397 29.2937L342.357 31.0022L340.938 32.5856L339.352 32.3356L338.309 31.3355L338.559 29.8771L338.768 28.5437L339.603 28.252L338.475 26.1685L338.35 25.2518L336.764 25.7518L334.51 27.0019L333.007 27.752L332.298 29.3354L331.087 30.6688L329.668 30.3355L328.959 29.6688H326.538L325.786 29.2937L324.117 30.2938L322.948 30.7938L321.612 33.0857L321.445 34.7941L319.859 33.3774H319.442L317.981 35.9609L317.563 35.3358L317.897 34.0024L314.6 33.669V32.7106L316.228 31.7106L317.396 31.6272L317.146 30.7522L316.687 29.8354L316.896 28.2103L317.271 27.2103L316.812 26.8352L316.269 26.1268L315.059 26.3352L311.386 29.1687L312.054 30.3355L312.471 31.8356L310.801 32.7523L310.342 32.2939L310.801 31.7522L310.593 31.0439L309.215 30.5438L307.838 30.9605L307.128 31.7939L304.248 32.7523L302.328 34.8358L300.867 36.0859L298.404 37.5443L297.778 38.0443H296.693L296.484 38.7944L297.152 39.4194L296.109 39.7111L293.02 40.7112L292.644 43.8781L292.269 45.6699L292.06 47.6284L289.889 48.0867L288.136 48.6284L285.465 48.3367L283.92 47.5867L283.42 45.7116L282.501 44.5865L281.082 44.0031L280.706 41.9613L282.334 40.4195V39.0027L283.712 38.336L287.051 38.086L287.594 37.5443L287.218 36.5026L286.801 34.8358L285.632 32.7106L284.129 31.5022L282.167 30.5022H279.83H277.492L276.115 30.0021L274.696 28.9604L274.487 29.2937L275.238 30.3771L276.324 31.2105L277.743 32.3773L277.993 33.9607V36.4192L277.743 38.6694L276.866 41.2529L276.365 43.2947L276.157 44.4615L276.449 45.0032L277.993 45.6282L278.828 47.17L279.162 48.6701L278.786 49.2535V49.7118L279.329 50.2535L278.745 51.1703L278.077 52.9204L277.325 54.5455L277.451 55.2122L277.785 55.9623L277.325 57.0874L276.824 56.1706L275.614 55.2956L274.779 54.8372L275.03 54.3372L274.529 53.8788L273.986 53.6704V52.9621H272.984L272.275 53.2121L270.188 51.837L268.852 53.4204L266.974 55.8373L265.346 56.5456L263.968 56.9623L263.175 58.0874L262.507 59.2958L261.172 60.0876L260.086 61.046L259.794 62.2127L260.253 63.7962L261.714 66.088L263.175 69.2965V70.6716L262.09 70.9633L260.963 69.3799L260.17 70.0466V71.2967L258.709 70.7967L256.956 69.6716L255.453 69.0882L254.076 69.3799L253.408 69.9633L253.116 69.1299L253.658 68.4215L252.531 67.9214L251.571 67.5048V66.4213L248.816 65.2129L248.149 65.588V67.0881L246.771 67.3381L247.063 68.5465L248.107 70.1299L248.9 71.7134L250.027 72.6301L251.279 71.8384L251.989 72.0884L252.865 73.4218L252.448 74.2136L253.158 75.8387L252.573 76.7554L250.862 78.2138L249.192 77.7971L247.23 76.6721L245.352 76.2554L245.143 74.5886L243.056 72.8801L242.013 73.5885L239.675 71.255L239.926 68.2131L239.133 67.1297L238.84 64.8379L237.922 63.4628L238.882 61.421L239.383 60.3792L238.882 59.4208L239.174 58.7125L239.842 59.2125V58.0041L238.924 56.879L237.38 55.4206L235.501 54.5038L234.541 53.8788V52.6287L233.706 52.212L233.414 50.9619L232.162 49.9202L231.244 49.5035L230.743 48.4617L229.991 47.7534L230.325 46.9616L229.991 46.2533L229.198 45.5449V44.7948L230.033 44.9615L230.451 45.2115L231.452 46.0449L232.412 47.545L233.832 48.7118L234.499 49.2535L234.792 48.3784L235.793 49.3785L237.046 49.7535L238.214 50.1285L238.59 51.2953L239.842 50.5452L241.136 51.5453L242.722 52.712L244.434 53.2121L246.437 53.5038L248.316 54.0038L250.027 54.5038L251.613 55.4206L252.782 56.0039L255.203 55.7539L257.248 55.4206L258.918 54.5872L260.42 53.8788L262.174 52.5037L263.467 50.9203L264.511 49.5452L265.262 48.4201L265.596 46.8366L265.972 45.1698L265.012 44.0864L264.553 41.7946V40.0028L263.092 38.461L261.38 37.5443L260.88 36.7526L258.751 35.7525L255.787 32.7523H253.951L253.366 31.6272L250.737 28.5437L248.399 26.3352L245.978 24.5434L242.722 22.9183L241.261 22.4599L239.842 22.7099L238.089 22.2099L236.67 21.6682L234.959 22.1266L234.708 23.46L233.581 24.5017L233.205 24.1267L233.915 23.0016V20.6265L232.454 20.0431L230.158 19.5847L228.447 18.293L228.197 17.4596L228.864 16.6262L229.866 17.6679L231.327 18.293L232.287 17.9179L232.496 17.0429L231.995 16.1678H230.534L229.824 15.5428L228.906 14.5427L228.03 14.751V16.2095L227.32 16.4178V16.9179L227.487 17.7096L226.443 17.7929L225.734 16.8762L224.398 16.3345L222.729 16.0845L221.56 15.1677L221.101 15.4178L220.516 16.9595L219.389 16.2511L219.598 15.5844L219.389 14.751L218.429 14.1677L217.219 13.2509L215.674 12.7509L214.255 12.0425L214.422 11.0424L215.8 11.5425L217.469 11.9175L219.264 12.4175L220.475 12.2509L221.602 11.1258L222.979 10.2924H224.106L224.273 9.25066L223.814 8.25059L223.188 8.58394L222.854 7.87556L222.562 7.08384L220.6 7.62554L220.224 7.08384L221.017 6.08377L219.932 5.20871L219.014 6.0421L218.888 4.87535L217.553 5.33371L216.968 5.0837L217.302 4.33364L216.05 2.87521L215.132 3.66693L214.088 5.00036V7.0005L214.297 7.66721L213.587 7.79222L212.126 7.5422L211.751 6.83382L212.544 6.0421L213.003 5.20871L212.043 5.70874L211.125 5.87542L211.417 5.16704L212.001 4.79201L211.751 4.2503L212.293 3.62526L213.17 3.2919L213.671 2.95855L213.838 2.16682L212.711 1.70846L212.377 0.50004L211.125 1.04175L210.457 0.250023L210.039 0.625049L210.415 1.7918L209.288 1.54178L208.787 2.04182L209.831 3.2919L210.165 3.95862L208.37 5.50039V7.20885L207.368 8.33393L205.949 9.12565L205.782 7.5422V5.66707L205.531 4.75034L206.575 3.7086L205.531 2.70853L204.571 4.50032L204.07 5.95876L203.236 7.16718L202.025 8.5006L201.775 10.7091L200.439 12.7092L199.27 12.1259L199.604 9.91737L200.523 7.87556L199.938 7.0005L201.107 5.87542L201.733 4.62533L202.777 3.62526L202.484 3.08356L201.65 2.37517L201.316 3.33357L200.314 2.7502L198.811 2.04182L198.227 3.75027L197.183 3.33357L196.975 4.04196L198.436 4.83368L198.06 6.0421L197.35 5.50039L196.641 6.16711L196.891 7.62554L195.806 7.45886L195.973 6.20878L195.388 5.04203L194.762 4.50032L194.47 5.00036L194.721 6.29211L195.096 7.0005L195.263 7.79222L194.47 8.95897L193.301 10.3341L193.134 12.1675L193.844 13.501C193.844 13.501 192.717 14.1677 192.634 14.2093C192.55 14.2093 191.34 13.0843 191.34 13.0843L190.63 11.8758L191.047 11.2091L189.586 10.7924L189.753 11.6675L189.378 12.2092L188.585 11.4175L188.376 10.2091L187.541 10.0007L186.957 10.8758L185.913 10.5007L184.703 10.8758L185.287 12.2509L186.498 12.5426L187.625 13.2509L187.374 14.2927L187.583 15.2094L186.331 14.7094L184.953 13.6676L184.578 14.9177L184.077 15.0844L183.701 15.8345L182.991 15.5428L183.284 14.5844L182.783 13.3759L182.574 14.626L182.365 15.8761L182.031 16.8762L181.531 17.9596L181.948 18.8347L181.238 19.0847L180.529 19.4597L180.362 18.543L180.612 16.7095L180.529 15.5844L180.904 14.0427H180.362L179.569 16.0845L178.859 17.2512L179.11 18.3763L178.442 18.168L177.983 17.2512L178.191 16.2928L177.356 16.3762L175.687 16.8345L175.52 16.0845L176.772 15.1677L177.899 14.0427L177.732 13.2509H176.981L176.522 13.5426L176.062 12.8759L174.476 14.2093L174.936 15.1261H174.268L173.642 16.2511L172.598 17.6262L172.306 18.168L172.515 18.543H173.683L174.393 18.168L174.476 17.1262L174.977 16.9595L175.228 18.0846L175.645 19.0847L175.854 20.0848L177.064 20.7931L177.231 22.2516L176.647 22.8349L176.146 22.4599L176.313 21.5849L175.603 20.6681L174.56 19.2514L173.516 19.8347L174.184 21.5015L173.308 21.6682L172.807 20.1681H172.264L171.68 20.7515L171.304 19.8347L169.593 18.6263L168.716 19.543L168.883 20.4181L167.547 21.2098V22.0016L167.172 22.5016L167.422 23.1683L167.172 23.5017V24.0434L168.507 23.2933L169.134 22.7933L170.511 22.96L171.304 22.0432L171.972 23.3766L170.428 23.9184L169.509 24.6267L169.134 26.2102L169.342 27.1686L168.09 28.4187L166.086 29.002L165.126 28.752V27.5019L164.083 26.9602V28.252L163.039 28.6687L162.872 27.5436L162.413 26.9602L162.789 25.8352L161.453 26.4185V27.877H160.618L160.076 25.7518L159.575 26.0018L158.865 27.3353L157.947 27.4186L156.862 28.5437L157.237 29.2937L158.531 28.377L159.408 28.2103L158.74 29.4187L159.867 29.2521L160.702 28.5437L161.412 28.7104V29.5021L160.285 30.5438L160.118 31.1272L158.991 31.2105L157.947 31.7939L156.904 32.5023L155.317 32.7106L154.441 33.0857L153.356 34.2524L152.396 34.8358L151.269 35.2525L150.642 37.0443L152.521 35.9192L153.648 34.9191L155.234 33.4607H156.361L156.486 34.0441L157.655 33.2523L158.907 32.3356L160.535 31.4189L161.412 32.3773L162.372 31.4606L163.624 30.2938L164.25 29.8354L164.793 31.0439L166.629 30.8355L168.549 29.9604L170.01 30.2521L170.428 31.5022H168.8L167.088 32.4606L166.045 31.5856L164.041 32.6273L165.377 33.9191L164.793 35.7108L164.417 36.5026L163.832 35.7525L163.332 33.544L162.33 34.5858L160.744 34.6691L160.451 35.6692L161.578 35.4608L162.497 35.7525L163.039 36.6276H161.912L160.702 37.2526L160.118 37.3776L159.617 36.3359L158.907 37.2526L158.49 38.1694L159.241 38.7527L160.368 38.1694L161.412 38.2527L161.495 39.2944L160.285 39.5444L160.076 39.9195L161.286 41.3779L160.535 41.5029L159.199 40.3778L158.031 41.3779L157.864 42.5447L158.49 43.4614L159.992 43.3364L160.702 43.7531L161.37 44.4615L161.078 45.5449L160.159 44.6698L159.032 44.3365H157.697L156.695 44.9198L155.359 45.9616L154.274 47.545V48.1701L154.816 48.6284L154.441 49.3368L152.396 49.5868L151.769 51.8787L151.519 52.587L152.103 53.2954L153.272 53.7538L153.022 54.0038H151.895L151.728 55.2956L150.142 55.9206L150.935 56.754L150.768 57.0874L149.849 56.9207L149.641 57.2124L149.849 58.6708L148.388 60.0042V60.7959L149.682 61.7127L149.39 62.3794L147.554 62.0877L147.303 62.6711L147.554 63.7962L149.182 65.0462L149.056 66.338L147.554 65.0046L145.759 66.838L144.381 67.2964L144.131 67.7548L145.216 68.7132L144.924 69.3382L142.586 71.2133L141.585 72.1301L139.957 74.2136L139.164 75.797V77.0888L137.578 77.7555V78.8806L138.83 78.2972L138.371 79.5889L138.788 80.0473L139.164 80.6307L140.374 79.5889L141.543 79.0889L142.795 77.7971L142.503 76.5887L143.713 75.7137L144.381 75.547L144.799 76.5471L143.296 77.1304L143.713 77.5055L144.715 77.3388V78.4639L143.296 79.1306L142.586 79.6723L142.461 81.5474L139.79 81.1724V82.2141H138.496V81.089L137.035 79.9223L135.991 81.5057L135.24 82.0474L134.155 81.7141L133.153 82.0474L132.736 82.9642L131.358 83.0475L130.983 85.5894L129.856 85.756L129.313 84.7976L127.309 85.6727L126.934 87.4228L128.562 87.2145L128.144 89.3813L125.932 88.7146L124.763 89.1313L126.475 90.173L124.763 90.7147L122.801 91.7981V93.0482L122.008 92.3398L121.257 91.2981L120.965 91.7981V92.7982L119.587 92.2982L119.003 92.7149L120.589 94.2566H120.047L119.253 93.7566L118.502 95.5484L119.713 97.2152L119.17 98.7986L119.671 100.799H121.8L124.137 100.34L123.887 101.299L121.674 101.924L119.045 102.507L119.42 103.507L118.794 104.341V104.841L119.504 105.549L118.544 106.174L118.92 108.258L119.963 107.966L121.132 109.133L121.424 109.883L120.464 110.299L119.671 112.008L120.172 112.216L121.549 110.633L122.426 109.799L122.843 108.591L123.427 107.216L125.681 106.466V107.508L123.511 108.299L123.177 109.841L122.05 111.174L122.384 112.341L121.34 113.591L120.84 114.216L120.464 113.675L119.88 113.8L119.587 115.258L120.172 116.008L121.674 115.508L122.175 114.216L123.135 114.966L123.01 116.592L122.426 116.842V118.258L122.927 119.425H122.092L121.424 118.8L121.007 119.258L120.923 121.175L122.551 122.634L123.344 123.384L124.93 124.009L125.014 125.509L125.932 125.634L129.062 125.425L130.649 125.217L133.737 122.884L137.118 119.05L138.078 117.592L139.08 118.383L140.499 116.967L140.625 115.591L140.166 114.258L140.917 113.633L141.96 114.341L142.378 116.717L143.755 117.508V119.133L144.256 122.175L145.216 124.134L144.715 125.05L146.093 126.926L146.427 129.176L148.013 132.259L149.098 134.801L150.601 136.843L150.1 138.426L149.766 140.385L151.06 142.593V145.052L153.063 145.302L155.943 144.802L155.735 142.677L156.695 140.885L158.031 140.385L158.949 139.385L162.205 139.885L163.707 137.426L164.793 134.468L165.627 130.259L166.337 125.967L165.794 121.175L168.674 119.842L169.509 118.258L171.012 119.008L172.723 117.217L173.308 115.591L174.769 113.633L174.685 110.674L174.101 108.924L171.095 106.091L169.509 106.424L169.259 105.466L167.422 103.632L167.631 96.7568L168.716 95.5901L169.134 91.9231L169.634 91.5481L168.633 90.298L169.301 89.3813L170.344 89.8813L170.887 88.5896L171.054 86.2561H173.099L172.974 84.1726L175.812 82.3391L176.271 81.2557L180.028 79.0889L180.445 78.0055L181.781 77.6721L182.95 75.297L183.325 73.8802L185.412 72.1301L185.162 70.7967L183.826 69.4632L184.327 68.5882L183.868 67.2964L185.496 65.0879V62.1294L187.332 61.8794L188.71 60.5459V57.8374L189.879 58.2958H191.465L192.007 59.0875L192.842 58.2541L195.806 58.6708L197.434 58.8375L199.562 60.1709L200.773 62.7961L201.65 65.7546L201.107 67.9214L200.147 67.4214L198.519 67.9214L197.475 69.9216L195.221 73.6719L193.051 76.5887L192.091 77.8805L190.839 77.5055L190.421 77.8805L190.129 79.5473L188.919 80.214L189.211 82.7142L186.039 82.9642L185.955 85.2143L184.369 86.3394L183.826 88.0062L184.327 89.5896L185.371 91.1731L184.786 93.9233L186.08 96.0901L185.83 99.6737L185.287 101.549L184.745 105.966L185.12 106.257L186.039 105.716L187.166 106.924L188.334 107.299L188.251 108.841L189.378 109.341L189.545 110.383L191.173 110.591L191.507 112.05L193.385 111.341L196.015 110.299L198.269 109.966L200.523 108.299L203.152 107.799L205.615 106.633L208.203 106.132L210.29 106.633L212.293 106.007L214.714 104.507L215.132 105.007L213.629 106.382L215.591 108.383L216.676 109.341L219.64 108.841L220.433 110.299L220.683 111.758L219.348 111.341L216.843 111.008L215.925 112.216L214.339 112.341L213.629 113.425L212.21 113.716L211.793 115.3H209.455L206.241 114.8L203.778 114.008L202.192 114.466L200.022 115.008L198.769 114.883L196.432 116.3L194.47 116.883L193.928 118.675L193.51 120.342L194.303 122.092L194.428 123.384L195.889 123.884L196.975 122.967L198.31 123.717L197.601 124.884L197.142 128.259L197.475 130.884L197.183 132.884L195.347 134.343L193.385 134.093L192.258 132.884L191.966 131.134L191.173 130.843L189.545 128.551L188.084 129.217L186.039 130.468L185.538 131.551L185.204 133.884L183.826 135.218L183.451 137.843L184.035 142.51L184.87 147.302L184.578 149.302L182.574 149.177L181.197 148.802L179.402 149.177V150.219L180.32 150.552V151.011L179.443 151.344L178.275 152.761L177.356 153.677L175.812 153.219L173.85 153.052L172.89 149.886L172.014 149.761L169.342 150.094L166.963 151.469L165.377 151.636L163.582 153.802L161.745 154.303L159.241 155.011L157.154 156.136L157.446 156.969L157.154 157.594L156.194 157.469L155.067 156.428L154.441 155.344L153.856 154.678L153.147 154.844L152.229 154.178L152.813 153.052L153.773 152.844L153.856 151.802L152.103 151.427L151.811 152.552L151.227 153.177L150.016 152.927L148.889 153.427L147.637 154.344L145.634 154.761L144.548 156.053L142.336 155.803V154.511L143.88 152.677L143.38 152.136L142.712 152.344L142.211 153.344L141.251 153.011L139.581 152.552L138.454 152.011L138.371 150.511L137.035 149.761V149.177L138.162 148.844L138.078 148.344L136.743 147.969L137.118 146.927L137.745 146.635L137.327 145.51L137.619 144.802L138.454 145.385L138.955 146.51L139.79 147.302L140.833 147.76H141.543L141.877 147.052L142.169 146.385L141.626 145.469L140.583 144.51L139.748 144.343L138.788 144.552H138.287L137.745 143.885L138.579 142.885L138.663 141.802L139.372 141.468L139.665 139.801L139.957 139.301L140.708 138.968L141.209 139.301L141.793 139.51L142.127 138.926L142.461 138.176L141.919 137.343L141.042 137.093L140.04 137.385L139.748 136.343L139.539 134.634L140.332 133.134L140.959 131.884L140.792 129.009L139.289 129.717L138.287 130.384L137.452 132.051L136.826 132.676L134.948 133.051L133.153 133.593L131.984 134.676L131.901 135.343L132.402 135.885L133.111 135.51L133.779 136.468V137.385H133.111L131.692 136.885L131.817 139.26L131.316 140.718V143.26L131.776 144.302L132.819 145.51L133.487 146.927L133.654 149.844L134.447 151.136L133.946 152.927L134.739 154.678L134.614 155.761L135.991 156.553L135.407 156.886L134.322 156.386L133.445 156.553L132.986 157.636V158.386L131.817 158.469L130.983 159.22L130.649 157.636L127.268 158.344L126.516 160.053L125.64 159.386L124.054 159.595L121.758 159.845L120.38 161.636V162.553L120.923 163.261L121.549 163.595L121.007 165.053L118.92 166.887L118.377 166.387L118.836 164.887L119.128 164.012L118.419 163.011L117.5 163.303L116.958 164.345L116.54 166.428L116.123 168.053L115.121 169.304L113.535 170.595L114.578 171.345L114.954 171.887L114.453 172.22L112.867 171.887L111.949 172.887L110.237 173.887L108.568 174.971L105.98 175.596L105.187 176.179L104.853 177.888V179.888L103.642 181.346L101.722 182.555L99.9692 183.221L99.1344 183.513L98.7588 184.513L99.4266 185.138L99.0927 185.68L98.0909 186.096L95.6282 185.888L94.0421 185.43L92.9151 184.805L91.8298 183.596H90.995L90.7028 184.555L91.3707 185.596L92.2472 187.805L92.5394 189.763L91.7046 190.263H88.7827L87.0296 190.472L86.4035 189.763L85.6522 189.013L83.8156 189.555L82.2295 190.055H80.852L79.2659 190.68L78.9319 191.722L79.5163 191.93L80.9355 191.722L81.1025 192.847L80.0172 193.805L80.7268 194.847L81.8955 194.639L83.4817 194.847L84.6504 195.514L85.3183 196.055L87.5305 195.847L88.5323 197.014L88.6158 197.931L89.5758 198.597L90.1602 200.097L89.4506 200.972L90.5358 202.181L91.5794 203.098L93.0403 203.806L93.8334 204.889L93.9168 207.348L95.1273 208.765L95.2108 209.765L94.2508 209.39L93.7081 209.765L93.4577 211.89L93.6247 213.932L93.1238 215.015L92.7064 217.89C92.7064 217.89 92.2055 219.89 92.2055 220.015C92.2055 220.14 90.2019 221.391 90.2019 221.391L87.9062 221.016L82.9808 220.849L81.6868 220.557L79.4328 220.641L77.4293 220.057L75.0083 219.515L70.9595 219.932L69.1646 220.14L66.9106 219.015H65.9088L64.4479 221.224L62.7366 221.432L60.8165 222.516L61.3591 223.682L61.5678 224.891H62.7783L62.5278 227.599L62.2357 229.599L63.2374 232.058L62.6948 235.517L62.4026 237.6L61.9435 240.059L60.7747 242.684L60.3573 243.225L59.8564 245.392L61.1087 245.809L60.9834 246.809L61.86 247.059L62.4861 246.309L62.6531 248.434L62.3609 250.726L62.0687 253.351V254.185H63.4044L65.9506 253.893L67.6202 254.185L69.4151 253.81L72.003 254.518L72.6291 256.685L73.6726 258.602L75.6344 259.393L76.6779 258.101L78.2641 256.976L79.3493 256.81L80.685 255.81H82.8556H85.0261L87.1966 255.685L89.1584 255.56L90.2854 254.351L91.6211 252.309L93.1238 251.393L94.5429 251.559L95.1273 249.976L96.1708 248.017L98.2996 245.726L96.2543 242.85L97.4231 240.642L99.9275 236.183L101.722 233.725L103.601 232.85L105.354 232.516L107.107 231.225L109.778 229.808L110.822 228.599L110.738 226.474L109.945 223.891L110.446 222.266L113.076 219.807L116.749 219.474L117.041 220.766L119.086 220.682L121.633 222.016L124.638 221.641L128.144 218.557L130.774 217.724L132.11 216.015L134.197 214.557L135.908 215.39L139.581 217.432L140.124 219.932L141 221.807L141.167 222.891L142.712 224.307L143.88 225.808L145.508 226.558L146.635 227.933L148.013 229.558L149.808 231.1L151.811 232.141L154.441 232.766L155.025 233.975L156.403 234.892L157.237 235.475L158.949 235.683L158.698 237.558L159.992 238.35L161.871 239.267L162.58 241.392L163.624 243.684L163.832 245.392L162.956 246.226L162.455 247.309L161.787 249.184L162.288 249.684H163.206L164.417 248.101L164.959 246.476L165.293 245.309L166.337 244.517L167.297 244.309V243.184L166.796 241.85L165.627 241.392L164.751 240.809V239.767L166.921 236.225L167.422 236.1L168.007 236.642L169.008 237.475H170.344L170.887 238.142L171.221 239.058L172.097 239.684L172.556 239.6L172.848 238.642L172.515 237.558L171.346 236.475L169.467 235.058L167.631 233.725L164.584 232.516L162.246 231.225L162.413 230.225L163.415 229.558L163.081 229.141L161.954 228.849L160.952 229.224L159.158 228.849L157.404 227.599L155.317 225.391L153.94 222.849L153.648 221.349L152.604 219.599L151.602 219.015L150.183 217.64L148.514 216.849L147.929 215.307L146.886 214.348L147.303 213.015L148.18 212.057L147.721 210.723L147.22 209.64L147.637 208.556L148.889 208.015L149.265 208.348L150.809 207.515L152.312 206.931L153.898 207.306L153.397 208.598L153.105 209.681L153.773 211.057L154.399 212.057L155.401 211.265L155.777 209.681L156.361 208.681L157.154 209.931L158.114 210.556L158.74 211.432V213.015L159.116 214.348L159.909 216.015L161.119 217.515L162.205 218.89L163.081 219.89H165.377L167.213 221.182L168.424 222.432L167.631 222.849L168.591 223.641L170.887 224.057L173.057 225.558L174.56 226.391L175.77 228.308L177.523 229.224L177.231 231.266L177.106 233.308L177.398 234.391L176.313 236.6L176.689 237.683L178.066 238.183L179.277 239.559L178.15 240.35L178.943 242.017L180.028 243.767L181.656 244.226L182.365 245.476L183.492 246.059L183.951 247.517H185.204L186.999 247.226L189.67 247.642L191.715 248.309V249.226L190.713 249.726L189.169 248.851L187.75 248.726L186.957 247.976L186.164 248.351L185.788 248.934L184.828 248.851L183.701 249.976L184.745 251.101L185.997 252.351L185.496 253.184L186.289 255.268L187.291 254.393H187.875L188.418 255.643L188.793 256.893L189.378 256.56L189.753 255.351H190.588L191.381 256.685L191.465 255.726L191.089 254.31L190.672 253.059L190.087 251.934L190.588 251.518L191.465 251.893L192.383 252.393L192.55 251.809L191.757 250.684L191.298 250.018L192.174 249.434L193.093 249.309L194.053 249.726L194.721 250.143L195.263 250.018L195.43 248.809L196.182 247.892V246.642L195.514 246.226L194.261 245.809L193.218 244.642L192.467 244.351L191.966 244.642L192.467 245.309L193.594 246.392V247.059H192.801L192.508 246.476L191.59 245.892L190.797 245.059L191.214 244.309L190.839 243.517L191.047 242.6L190.839 242.184L191.548 242.767L192.258 242.6L191.757 241.684L190.505 240.434L190.004 239.183L189.42 238.267L189.127 237.142L189.461 236.1L190.171 235.725L191.047 235.517L191.548 236.35L192.55 237.35L193.594 237.6L194.261 237.183L194.762 236.517L194.554 235.392L195.138 234.642L196.39 234.183L197.726 233.85L199.187 233.683L200.147 233.266L201.232 233.766L202.484 234.141L203.904 234.433L204.864 233.558V232.1L205.907 231.725L205.156 229.849L207.577 227.641L211.208 228.141L210.832 226.808L209.58 225.683L209.914 224.807L211.333 222.641L211.584 220.641L212.753 219.974H213.713L213.838 216.932V214.89L215.466 213.515L216.509 212.182H217.845L218.221 210.223L218.596 208.848L217.636 208.265L218.012 207.39L218.555 206.681L218.972 207.265L220.683 206.14L221.351 205.056L220.057 203.681L220.308 202.973L221.602 203.848L222.228 204.223L222.603 202.973L222.77 202.181L223.814 201.973H225.692L226.819 201.889L227.07 200.847L227.988 201.222L228.28 201.931L229.365 202.514L228.864 203.473L228.03 203.764L228.739 204.639L229.866 205.014L230.826 204.848L232.037 204.598L233.205 204.848L234.499 205.098V206.39L233.581 206.848L232.162 207.39L230.534 208.848L231.452 209.181L232.538 209.848L232.872 210.765L234.082 210.64L234.332 211.807L234.04 213.182L234.499 214.14L234.959 214.765L235.877 214.64L237.087 214.14L237.88 213.265L238.214 212.598H239.133L240.427 212.223L241.053 211.682L241.554 211.015L242.639 210.681L243.599 211.098H244.851H245.561L245.728 209.973L245.06 208.806L243.808 209.515L242.555 209.89L241.888 210.265L240.802 210.015L240.051 208.431L239.55 207.598L238.131 206.681L238.256 205.223L239.133 204.348L240.928 203.306L241.22 201.806L242.138 202.598L243.14 202.014L245.018 201.639L247.022 201.097L248.65 200.514L250.236 199.556L251.822 198.972L253.366 199.097L255.62 198.431L257.206 198.056L257.749 198.972L256.831 200.389L254.66 201.097L254.451 201.931L253.324 201.681L251.697 202.223L252.197 203.431L253.533 203.973L253.158 205.973L252.072 206.098L251.571 207.681L250.611 209.306L249.985 209.64L248.19 209.348L247.481 210.515L247.898 210.765L248.691 210.14L249.234 211.265L249.86 212.807L251.53 213.432L253.283 214.598L254.66 215.14L256.413 216.057L257.791 217.599L259.168 219.182L260.253 220.182L261.756 219.515L266.389 221.224L270.438 221.432L275.155 223.682L275.781 224.849L277.534 224.974L278.244 224.016L280.748 224.224L283.962 225.849L283.253 227.099L286.3 228.641L288.721 229.933L289.806 231.725L292.394 232.058L294.982 229.308L293.312 226.766L290.724 223.099V220.474L291.475 217.849L290.515 217.557L288.888 215.223L287.176 215.098L287.928 213.307L291.642 208.098L292.519 207.598L292.644 208.306L293.02 207.806L293.604 206.89L294.606 207.723L295.566 207.265L296.109 205.764L296.943 203.764L294.731 202.056L296.777 201.097L293.521 195.639L290.641 194.514L290.348 195.597L289.013 194.805L289.305 192.097L286.675 191.263L288.47 186.096V182.013L291.016 178.721L294.272 182.346L296.484 181.513L295.274 177.846L298.78 176.096V174.596L303.914 171.22V170.012L306.544 170.97V172.012L307.88 172.137L308.422 171.095L310.885 170.012L311.386 172.095L314.558 171.845L319.066 175.762L319.316 178.179L320.235 177.512L319.943 174.887L324.409 178.179L327.498 174.554L328.583 175.137L329.793 174.304L331.672 175.929L332.715 174.262H335.345L336.973 176.846L339.185 177.137L339.477 178.388L341.69 176.096L343.777 177.429L345.237 176.929L345.78 177.137Z" fill="#EEEEEE"/>
<path d="M294.188 25.4185L294.689 22.6266L296.442 19.9181H299.406L302.745 22.6683L301.326 25.4185L298.488 27.9603H296.609L295.148 27.0853L294.188 25.4185Z" fill="#EEEEEE"/>
<path d="M336.723 9.91741L338.434 8.33397L340.563 11.6675L341.774 12.5426L344.32 15.4178L343.234 17.1679H341.064L340.521 15.5011L338.893 15.0428L338.017 14.7928L336.723 12.7509L335.638 11.1258L337.558 11.9176L336.723 9.91741Z" fill="#EEEEEE"/>
<path d="M143.629 143.593L144.088 145.969L146.342 147.094L147.719 147.76L149.18 145.969L148.429 145.135L150.349 143.593L149.013 141.302L147.511 141.718V142.927L145.465 143.343L144.13 143.093L143.629 143.593Z" fill="#EEEEEE"/>
<path d="M148.221 148.219L149.014 148.594L147.97 149.511L147.511 151.386L144.464 150.386V149.344L146.05 149.802L147.177 149.26L148.221 148.219Z" fill="#EEEEEE"/>
<path d="M133.779 227.683V226.224L135.407 225.141L137.077 224.182V226.391L137.536 227.183L136.993 227.683L137.077 229.516L136.117 231.683L134.739 230.933L133.779 227.683Z" fill="#EEEEEE"/>
<path d="M136.618 233.183L137.536 233.975L138.496 236.558L137.536 237.267L138.037 239.1L137.954 241.725L137.161 243.476H135.324L134.614 244.434L133.404 243.559V241.267L133.78 239.975L132.193 235.267L133.78 235.1L136.618 233.183Z" fill="#EEEEEE"/>
<path d="M149.723 249.643V250.893L150.891 252.018H152.352L154.189 253.476L155.608 254.185L157.153 254.601L158.029 255.768H159.699L160.742 254.351L159.782 252.684L160.283 250.684L161.535 248.601L158.906 249.143L157.153 249.809L156.026 249.476L154.815 249.726L153.772 249.643L152.352 248.601L149.723 249.643Z" fill="#EEEEEE"/>
<path d="M172.472 130.301L173.014 133.009L174.517 132.051L174.976 130.301L175.686 127.676L175.185 127.176L173.432 128.259L172.472 130.301Z" fill="#EEEEEE"/>
<path d="M187.833 124.092L189.085 125.134L191.59 124.092L192.758 122.925L192.299 121.884H189.461L188.25 123.05L187.833 124.092Z" fill="#EEEEEE"/>
<path d="M189.085 119.467L190.838 118.508L192.424 119.467L190.755 120.55L189.085 119.467Z" fill="#EEEEEE"/>
<path d="M178.399 108.549L179.109 110.049L180.862 109.299L180.319 107.466L178.859 107.883L178.399 108.549Z" fill="#EEEEEE"/>
<path d="M194.971 262.602V263.477L197.684 263.727L199.395 264.977L203.736 264.769L205.489 263.977L204.738 263.81L203.235 264.102L202.901 263.31L199.52 262.768L197.809 263.018L197.392 262.602L196.265 262.227L194.971 262.602Z" fill="#EEEEEE"/>
<path d="M108.776 241.392L111.156 239.6L111.49 240.683L112.491 240.642L112.283 241.642L111.49 242.392L109.987 242.017L109.903 241.559L108.776 241.392Z" fill="#EEEEEE"/>
<path d="M161.537 25.3768L162.372 23.5434L164.042 21.7099L164.375 22.5433L163.29 24.3351L162.33 25.3768L161.829 26.1269L161.537 25.3768Z" fill="#EEEEEE"/>
<path d="M181.948 11.5424L182.825 10.7507L183.451 11.5424L182.7 13.0425L181.948 12.6258V11.5424Z" fill="#EEEEEE"/>
<path d="M188.377 6.00043L189.42 7.87556L190.422 7.33385L191.883 6.95883L192.676 6.00043L193.553 4.08363L192.342 4.79201L191.591 4.50032L190.965 4.91702L191.257 5.66707L190.673 6.00043L189.754 5.16704L188.377 6.00043Z" fill="#EEEEEE"/>
<path d="M202.108 0.583374L202.651 1.87513L203.778 1.25009L204.154 0H202.776L202.108 0.583374Z" fill="#EEEEEE"/>
<path d="M192.133 8.45897V9.9174H192.675L194.47 7.87559L194.095 6.37549L192.592 7.29222L192.133 8.45897Z" fill="#EEEEEE"/>
</svg>
