<?xml version="1.0" encoding="UTF-8"?>
<svg id="Layer_1" data-name="Layer 1" xmlns="http://www.w3.org/2000/svg" version="1.1" viewBox="0 0 375 265">
  <defs>
    <style>
      .cls-1 {
        fill: #2a2a2a;
        stroke-width: 0px;
      }
    </style>
  </defs>
  <path class="cls-1" d="M83.7,179.9c-.7-.1-1.3-.2-2-.4h-1.7l-.4.9h-1.2l-.5,1h-1.1l1.2-1.9,2.2-2.9,3.3-2.5h2.5l2-1.8h-1.5l-1,.6-1.6-1h-1.9l-.2-.9h-3.3l-.5-1.7,2-1.3,1.8-.5.5-2.5-.4-1.9-2.1.5v-.5l1.3-1.2-.5-.9.4-1.5,1.3,1.4,2.4-.2.3-.6,1.8.8-.3-2.2,1-3.1-1.7-2.4-1-1.7.5-2.1-.6-.5-1.4.8-1.5-.2-1.2.7-1-.8h-1.3l.2-1.2,1.3-1.8.5-1.7-.9-1.6.8-1.2-.8-.5-1,1.2-.7-.9-.6.2-.5,3.7-.5-.4.3-3.5.2-1v-2.1l1.5-2.1-.2-.7-1.1,1-.9,1v1l-1.1.3-.9-.2.4-.8v-.6l1.5-1.6.5-1.8.2-1.2-.4-1-.3-1.3.7-1.5-.5-.7.5-.5,1.5-.4v-1.7l-.4-.6.4-.5h.9v-2h4.8l.5-.4.8-.3h1.3l.3,1.3-1,.9-3.1,3.4.5.5-.4.6-.4.6.2,1.3,1-.6,2-.7h2.3c0,0,3.2,0,3.2,0l.8,1.2-1.1,1.6v1.4c0,0-.8,1.6-.8,1.7s-1.1,1.5-1.1,1.5l-.9,1.1h-1.1l-.2.8.5.4h.5c0,0,.4.2.4.2v.6c0,0-1,0-1,0l-.4.5-1,1.1.6.5,1.8.3h1.8c0-.1,1.2.9,1.2.9l.9,1.6.9.9.3,2.2,1.1,2.3.6,1.8,1.3,1.2,1.6.6,1,1.3.2,3.5.7.8.6.7.4,1.4-1,1.3.5.7h1.9c0-.1,1.1-.8,1.1-.8l1.9.5,1,1.1v2l-.4,1.5-1.3,1.7-1.3,1.6-1.9,1.2.3.9,1.8.6,1.5-.4.4.4-.3.8-4,2.4-.8-.2-.7-.4-3.3.6-1.5-.5-.7.4-.6.4-1-.2-1.8.7-2.5-.6-1.6.5-1.2,1.1c-.3.5-.5,1-.8,1.5h0Z"/>
  <path class="cls-1" d="M73.5,147.1l1.3,3.2,1.4,1v1.3l-2.7,2.8-.4.6.4,2.5.5,3.1-.5,3.2-.9,1.8v1h-3l-1.6.5-2.3,2.3-2.9,1.5h-2.9v-1l-1.4.2.6-1h-1.3c0,.1-.6-.7-.6-.7l1.2-1.2-.7-.5.4-.3h1c0-.1-.2-1-.2-1l.6-.8,1.4-.5-.2-.6-1.9.5.2-.6.8-.8v-.9s1-.6,1-.6l-.2-.8h-1.3c0-.1-.6-.7-.6-.7h-1.3c0,0,.3-1.4.3-1.4l-.4-.7,1.4-.5,1.4-1-.3-1.1-1.2.2v-.9s.2-.7.2-.7l-.6-.7,1.2-.5,1.6.4.9.5,1.6-.2,1.6-1.5.6-1.2-.9-.6h-.7c0-.1.8-1.1.8-1.1l-.2-1,1.3-1,1.7-.7.4.5.4-.5.5-.3h.7l.8.8,2.7-.3Z"/>
  <path class="cls-1" d="M74.8,133l.9-.8-.9-.3-.6-.2-.2-1.6h-.5v-1c.1,0-.6,0-.6,0l-.2,1.1-.5.6.2.5h.8s.3,1.1.3,1.1l1.4.5Z"/>
  <path class="cls-1" d="M70.5,125.8l1.1-1.8,1.3-1,.8.5-1,1.5v1.6c0,0-1.3.7-1.3.7l-1-1.5Z"/>
  <path class="cls-1" d="M7.2,77.3h2.9l2.6-.4,4.8,3.4h1.3l2.1,1.2h2.2l1.8-.6,2.1-2.3,1.7-.4.8-1.2,1.3.8,1-.8,2.9-2.8,3.4-.9,1.7-1.8v-1.2l2.2-1.2,1-1.4-1.5-1.3h1.9v-1.1l-.5-1.3.5-2-.6-1.1-1.8-.7-.6-.8h-1.7v-2.6c0,0-.9-.7-.9-.7v-1.7s-1.8.7-1.8.7l-.9-1.3-.9-1.8-1.7.4v2.8c-.1,0-2,.7-2,.7l-1.1-.5-.9,1.9h-1.1l-1.1-1.6h-.8v1.3l.5,1.9-.3.8-.8-1.6-1.1-.8-1-2.1-2.2,2,.3,2.3-1.1.3-2.4-3.9-.9.4.7,2.3v2.6c-.1,0-2.4-.4-2.4-.4l-1.4,3.6-.5-1.6-.5-1.8-.9-1.3,1.3-1.5-.8-1.2-1.1-.5-2.8-4-2,.3-.6.8.5.5,1.1-.5,1,.8-1.6.7.2.5,1.4.7.5,2-1-1h-.7c0-.1-.4.3-.4.3l-1.5-2.2-.9.4-.4,1.2h-.9c0,0,1.2,1.4,1.2,1.4l-1.2.2,1,.7,1.2.7-.7,1-2.3-1.3.3,1.3-.3.7-1.4-.6-.4.9,2.1,1,1.8-1,2-.6h1.1c0-.1.6-.7.6-.7l.9.8,1.9,1.1-.5.9-2.3,1.4,1.7.9,1.1-.8v1.6s-.9.6-.9.6h-2.5l-2.3.7-2.2.2-.2,1.2,1-.5h1.7c0-.1,3,0,3,0l.7,1.2v1.6s1.8-1.2,1.8-1.2l-.3,1.5.4.4,1.4.5-1.5,1.4v1.3c0,0-1.7,1-1.7,1l-1.3.3-.7-.2-.2.5.4.6Z"/>
  <path class="cls-1" d="M345.8,177.1l2.4-.5,1-2.9-3-1.4-.4-1h-2.1l.5-1.1-2.3-1.3-7.1-4.7-1.2-2.3v-2.3l3.4-7.7.2-4-2.3-2.8h-4.7l-6.9,1.8-3.2-1.4-1.7-3.2-1.9-1.8.6-4.5,11-10.5v-2.3c.1,0-1.4-3.4-1.4-3.4l-7.6.5-2.8-4.9,2.1-3.8,4.8-3.2,5.3-13,2.9-17.8,7.2-10.9,17.3-8.2,9.6-7.5,7.3-10.4,1.8-6.9-3.8-5.9-6.6-4-4.7-3.8-5.3-2.3-6.1-.9-1.4-1-1.6.5-.2,1.1-1.5.5-.3,1.6,1.6,2.5-.2,1.6,1.5,1.1v2.1c0,0-1.8,1.8-1.8,1.8l-2.5.2-.5.6,1,1.7-1.4,1.6-1.6-.2-1-1,.2-1.5.2-1.3.8-.3-1.1-2.1v-.9c-.1,0-1.7.5-1.7.5l-2.3,1.3-1.5.8-.7,1.6-1.2,1.3-1.4-.3-.7-.7h-2.4l-.8-.4-1.7,1-1.2.5-1.3,2.3-.2,1.7-1.6-1.4h-.4l-1.5,2.6-.4-.6.3-1.3-3.3-.3v-1l1.6-1h1.2c0,0-.2-1-.2-1l-.5-.9.2-1.6.4-1-.5-.4-.5-.7-1.2.2-3.7,2.8.7,1.2.4,1.5-1.7.9-.5-.5.5-.5-.2-.7-1.4-.5-1.4.4-.7.8-2.9,1-1.9,2.1-1.5,1.3-2.5,1.5-.6.5h-1.1l-.2.8.7.6-1,.3-3.1,1-.4,3.2-.4,1.8-.2,2-2.2.5-1.8.5-2.7-.3-1.5-.8-.5-1.9-.9-1.1-1.4-.6-.4-2,1.6-1.5v-1.4l1.4-.7,3.3-.2.5-.5-.4-1-.4-1.7-1.2-2.1-1.5-1.2-2-1h-4.7l-1.4-.5-1.4-1-.2.3.8,1.1,1.1.8,1.4,1.2.2,1.6v2.5l-.2,2.3-.9,2.6-.5,2-.2,1.2.3.5,1.5.6.8,1.5.3,1.5-.4.6v.5l.5.5-.6.9-.7,1.8-.8,1.6v.7c.1,0,.5.8.5.8l-.5,1.1-.5-.9-1.2-.9-.8-.5.3-.5-.5-.5-.5-.2v-.7h-1l-.7.2-2.1-1.4-1.3,1.6-1.9,2.4-1.6.7-1.4.4-.8,1.1-.7,1.2-1.3.8-1.1,1-.3,1.2.5,1.6,1.5,2.3,1.5,3.2v1.4l-1.1.3-1.1-1.6-.8.7v1.3l-1.5-.5-1.8-1.1-1.5-.6-1.4.3-.7.6-.3-.8.5-.7-1.1-.5-1-.4v-1.1l-2.8-1.2-.7.4v1.5l-1.4.2.3,1.2,1,1.6.8,1.6,1.1.9,1.3-.8.7.2.9,1.3-.4.8.7,1.6-.6.9-1.7,1.5-1.7-.4-2-1.1-1.9-.4-.2-1.7-2.1-1.7-1,.7-2.3-2.3.3-3-.8-1.1-.3-2.3-.9-1.4,1-2,.5-1-.5-1,.3-.7.7.5v-1.2l-.9-1.1-1.5-1.5-1.9-.9-1-.6v-1.3l-.8-.4-.3-1.3-1.3-1-.9-.4-.5-1-.8-.7.3-.8-.3-.7-.8-.7v-.8l.8.2.4.2,1,.8,1,1.5,1.4,1.2.7.5.3-.9,1,1,1.3.4,1.2.4.4,1.2,1.3-.8,1.3,1,1.6,1.2,1.7.5,2,.3,1.9.5,1.7.5,1.6.9,1.2.6,2.4-.2,2-.3,1.7-.8,1.5-.7,1.8-1.4,1.3-1.6,1-1.4.8-1.1.3-1.6.4-1.7-1-1.1-.5-2.3v-1.8l-1.5-1.5-1.7-.9-.5-.8-2.1-1-3-3h-1.8l-.6-1.1-2.6-3.1-2.3-2.2-2.4-1.8-3.3-1.6-1.5-.5-1.4.2-1.8-.5-1.4-.5-1.7.5-.3,1.3-1.1,1-.4-.4.7-1.1v-2.4l-1.5-.6-2.3-.5-1.7-1.3-.2-.8.7-.8,1,1,1.5.6,1-.4.2-.9-.5-.9h-1.5l-.7-.6-.9-1-.9.2v1.5l-.7.2v.5l.2.8h-1c0,0-.7-.8-.7-.8l-1.3-.5-1.7-.2-1.2-.9-.5.3-.6,1.5-1.1-.7.2-.7-.2-.8-1-.6-1.2-.9-1.5-.5-1.4-.7.2-1,1.4.5,1.7.4,1.8.5,1.2-.2,1.1-1.1,1.4-.8h1.1l.2-1-.5-1-.6.3-.3-.7-.3-.8-2,.5-.4-.5.8-1-1.1-.9-.9.8v-1.2c-.1,0-1.5.5-1.5.5l-.6-.3.3-.8-1.3-1.5-.9.8-1,1.3v2l.2.7h-.7c0,.1-1.5-.1-1.5-.1l-.4-.7.8-.8.5-.8-1,.5-.9.2.3-.7.6-.4-.2-.5.5-.6.9-.3.5-.3.2-.8-1.1-.5-.3-1.2-1.3.5-.7-.8-.4.4.4,1.2-1.1-.3-.5.5,1,1.3.3.7-1.8,1.5v1.7l-1,1.1-1.4.8-.2-1.6v-1.9l-.3-.9,1-1-1-1-1,1.8-.5,1.5-.8,1.2-1.2,1.3-.2,2.2-1.3,2-1.2-.6.3-2.2.9-2-.6-.9,1.2-1.1.6-1.3,1-1-.3-.5-.8-.7-.3,1-1-.6-1.5-.7-.6,1.7-1-.4-.2.7,1.5.8-.4,1.2-.7-.5-.7.7.2,1.5-1.1-.2.2-1.3-.6-1.2-.6-.5-.3.5.3,1.3.4.7.2.8-.8,1.2-1.2,1.4-.2,1.8.7,1.3s-1.1.7-1.2.7c0,0-1.3-1.1-1.3-1.1l-.7-1.2.4-.7-1.5-.4.2.9-.4.5-.8-.8-.2-1.2-.8-.2-.6.9-1-.4-1.2.4.6,1.4,1.2.3,1.1.7-.3,1,.2.9-1.3-.5-1.4-1-.4,1.3-.5.2-.4.8-.7-.3.3-1-.5-1.2-.2,1.3-.2,1.3-.3,1-.5,1.1.4.9-.7.2-.7.4-.2-.9.2-1.8v-1.1c0,0,.3-1.5.3-1.5h-.5l-.8,2-.7,1.2.3,1.1-.7-.2-.5-.9.2-1h-.8c0,0-1.7.5-1.7.5l-.2-.8,1.3-.9,1.1-1.1-.2-.8h-.8l-.5.3-.5-.7-1.6,1.3.5.9h-.7l-.6,1.1-1,1.4-.3.5.2.4h1.2l.7-.4v-1c0,0,.6-.2.6-.2l.3,1.1.4,1,.2,1,1.2.7.2,1.5-.6.6-.5-.4.2-.9-.7-.9-1-1.4-1,.6.7,1.7-.9.2-.5-1.5h-.5l-.6.6-.4-.9-1.7-1.2-.9.9.2.9-1.3.8v.8l-.4.5.2.7-.2.3v.5l1.3-.8.6-.5,1.4.2.8-.9.7,1.3-1.5.5-.9.7-.4,1.6.2,1-1.3,1.3-2,.6-1-.2v-1.3l-1-.5v1.3l-1,.4-.2-1.1-.5-.6.4-1.1-1.3.6v1.5h-.8l-.5-2.1-.5.2-.7,1.3h-.9c0,0-1.1,1.2-1.1,1.2l.4.8,1.3-.9.9-.2-.7,1.2,1.1-.2.8-.7.7.2v.8l-1.1,1-.2.6h-1.1c0,0-1,.7-1,.7l-1,.7-1.6.2-.9.4-1.1,1.2-1,.6-1.1.4-.6,1.8,1.9-1.1,1.1-1,1.6-1.5h1.1v.6c.1,0,1.3-.8,1.3-.8l1.3-.9,1.6-.9.9,1,1-.9,1.3-1.2.6-.5.5,1.2,1.8-.2,1.9-.9,1.5.3.4,1.3h-1.6l-1.7,1-1-.9-2,1,1.3,1.3-.6,1.8-.4.8-.6-.8-.5-2.2-1,1h-1.6c0,0-.3,1.1-.3,1.1l1.1-.2.9.3.5.9h-1.1l-1.2.6h-.6c0,.1-.5-.9-.5-.9l-.7.9-.4.9.8.6,1.1-.6h1c0,0,0,1.1,0,1.1l-1.2.2-.2.4,1.2,1.5h-.8c0,.1-1.3-1-1.3-1l-1.2,1-.2,1.2.6.9h1.5c0-.1.7.3.7.3l.7.7-.3,1.1-.9-.9-1.1-.3h-1.3l-1,.6-1.3,1-1.1,1.6v.6l.5.5-.4.7-2,.2-.6,2.3-.2.7.6.7,1.2.5-.2.2h-1.1l-.2,1.3-1.6.6.8.8-.2.3-.9-.2-.2.3.2,1.5-1.5,1.3v.8l1.3.9-.3.7-1.8-.3-.3.6.3,1.1,1.6,1.3v1.3c-.1,0-1.6-1.3-1.6-1.3l-1.8,1.8-1.4.5-.2.5,1.1,1-.3.6-2.3,1.9-1,.9-1.6,2.1-.8,1.6v1.3l-1.6.7v1.1l1.3-.6-.5,1.3.4.5.4.6,1.2-1,1.2-.5,1.3-1.3-.3-1.2,1.2-.9.7-.2.4,1-1.5.6.4.4,1-.2v1.1l-1.4.7-.7.5v1.9c-.1,0-2.8-.4-2.8-.4v1h-1.3v-1.1l-1.5-1.2-1,1.6-.8.5-1.1-.3-1,.3-.4.9h-1.4c0,0-.4,2.6-.4,2.6l-1.1.2-.5-1-2,.9-.4,1.8,1.6-.2-.4,2.2-2.2-.7-1.2.4,1.7,1-1.7.5-2,1.1v1.3l-.8-.7-.8-1-.3.5v1l-1.4-.5-.6.4,1.6,1.5h-.5l-.8-.5-.8,1.8,1.2,1.7-.5,1.6.5,2h2.1l2.3-.5-.2,1-2.2.6-2.6.6.4,1-.6.8v.5l.7.7-1,.6.4,2.1,1-.3,1.2,1.2.3.8-1,.4-.8,1.7.5.2,1.4-1.6.9-.8.4-1.2.6-1.4,2.3-.8v1l-2.2.8-.3,1.5-1.1,1.3.3,1.2-1,1.2-.5.6-.4-.5h-.6c0,.1-.3,1.6-.3,1.6l.6.8,1.5-.5.5-1.3,1,.8v1.6c-.1,0-.7.2-.7.2v1.4l.5,1.2h-.8l-.7-.6-.4.5v1.9c0,0,1.5,1.5,1.5,1.5l.8.8,1.6.6v1.5c0,0,1,.1,1,.1l3.1-.2,1.6-.2,3.1-2.3,3.4-3.8,1-1.5,1,.8,1.4-1.4v-1.4c.1,0-.3-1.3-.3-1.3l.8-.6,1,.7.4,2.4,1.4.8v1.6l.5,3,1,2-.5.9,1.4,1.9.3,2.2,1.6,3.1,1.1,2.5,1.5,2-.5,1.6-.3,2,1.3,2.2v2.5l2,.2,2.9-.5-.2-2.1,1-1.8,1.3-.5.9-1,3.3.5,1.5-2.5,1.1-3,.8-4.2.7-4.3-.5-4.8,2.9-1.3.8-1.6,1.5.8,1.7-1.8.6-1.6,1.5-2v-3c0,0-.7-1.8-.7-1.8l-3-2.8-1.6.3-.2-1-1.8-1.8.2-6.9,1.1-1.2.4-3.7.5-.4-1-1.3.7-.9,1,.5.5-1.3.2-2.3h2v-2.1c-.1,0,2.7-1.8,2.7-1.8l.5-1.1,3.8-2.2.4-1.1,1.3-.3,1.2-2.4.4-1.4,2.1-1.8-.2-1.3-1.3-1.3.5-.9-.5-1.3,1.6-2.2v-3l1.8-.2,1.4-1.3v-2.7l1.2.5h1.6l.5.8.8-.8,3,.4,1.6.2,2.1,1.3,1.2,2.6.9,3-.5,2.2-1-.5-1.6.5-1,2-2.3,3.8-2.2,2.9-1,1.3-1.3-.4-.4.4-.3,1.7-1.2.7.3,2.5-3.2.2v2.3c0,0-1.7,1.1-1.7,1.1l-.5,1.7.5,1.6,1,1.6-.6,2.8,1.3,2.2-.2,3.6-.5,1.9-.5,4.4.4.3.9-.5,1.1,1.2,1.2.4v1.5c0,0,1,.5,1,.5l.2,1,1.6.2.3,1.5,1.9-.7,2.6-1,2.3-.3,2.3-1.7,2.6-.5,2.5-1.2,2.6-.5,2.1.5,2-.6,2.4-1.5.4.5-1.5,1.4,2,2,1.1,1,3-.5.8,1.5.2,1.5-1.3-.4-2.5-.3-.9,1.2h-1.6c0,.1-.7,1.2-.7,1.2l-1.4.3-.4,1.6h-2.3l-3.2-.5-2.5-.8-1.6.5-2.2.5h-1.3c0-.1-2.3,1.3-2.3,1.3l-2,.6-.5,1.8-.4,1.7.8,1.8v1.3c.1,0,1.6.5,1.6.5l1.1-.9,1.3.8-.7,1.2-.5,3.4.3,2.6-.3,2-1.8,1.5-2-.2-1.1-1.2-.3-1.8-.8-.3-1.6-2.3-1.5.7-2,1.3-.5,1.1-.3,2.3-1.4,1.3-.4,2.6.6,4.7.8,4.8-.3,2h-2c0-.1-1.4-.5-1.4-.5l-1.8.4v1l.9.3v.5l-.9.3-1.2,1.4-.9.9-1.5-.5-2-.2-1-3.2h-.9c0-.1-2.7.2-2.7.2l-2.4,1.4-1.6.2-1.8,2.2-1.8.5-2.5.7-2.1,1.1.3.8-.3.6h-1c0-.1-1.1-1.2-1.1-1.2l-.6-1.1-.6-.7-.7.2-.9-.7.6-1.1,1-.2v-1c0,0-1.7-.4-1.7-.4l-.3,1.1-.6.6-1.2-.2-1.1.5-1.3.9-2,.4-1.1,1.3-2.2-.2v-1.3l1.5-1.8-.5-.5-.7.2-.5,1-1-.3-1.7-.5-1.1-.5v-1.5c0,0-1.4-.8-1.4-.8v-.6l1.1-.3v-.5c0,0-1.4-.4-1.4-.4l.4-1,.6-.3-.4-1.1.3-.7.8.6.5,1.1.8.8,1,.5h.7l.3-.7.3-.7-.5-.9-1-1-.8-.2-1,.2h-.5l-.5-.7.8-1v-1.1c0,0,.8-.3.8-.3l.3-1.7.3-.5.8-.3.5.3.6.2.3-.6.3-.8-.5-.8-.9-.2-1,.3-.3-1-.2-1.7.8-1.5.6-1.2-.2-2.9-1.5.7-1,.7-.8,1.7-.6.6-1.9.4-1.8.5-1.2,1.1v.7c0,0,.4.5.4.5l.7-.4.7,1v.9h-.7l-1.4-.5v2.4c.1,0-.4,1.5-.4,1.5v2.5l.5,1,1,1.2.7,1.4.2,2.9.8,1.3-.5,1.8.8,1.8v1.1c-.1,0,1.3.8,1.3.8l-.6.3-1.1-.5-.9.2-.5,1.1v.8h-1.2c0,0-.8.8-.8.8l-.3-1.6-3.4.7-.8,1.7-.9-.7-1.6.2-2.3.2-1.4,1.8v.9l.5.7.6.3-.5,1.5-2.1,1.8-.5-.5.5-1.5.3-.9-.7-1-.9.3-.5,1-.4,2.1-.4,1.6-1,1.3-1.6,1.3,1,.8.4.5-.5.3-1.6-.3-.9,1-1.7,1-1.7,1.1-2.6.6-.8.6-.3,1.7v2l-1.2,1.5-1.9,1.2-1.8.7-.8.3-.4,1,.7.6-.3.5-1,.4-2.5-.2-1.6-.5-1.1-.6-1.1-1.2h-.8l-.3,1,.7,1,.9,2.2.3,2-.8.5h-2.9l-1.8.2-.6-.7-.8-.8-1.8.5-1.6.5h-1.4l-1.6.6-.3,1,.6.2,1.4-.2.2,1.1-1.1,1,.7,1,1.2-.2,1.6.2,1.2.7.7.5,2.2-.2,1,1.2v.9c0,0,1,.7,1,.7l.6,1.5-.7.9,1.1,1.2,1,.9,1.5.7.8,1.1v2.5c0,0,1.3,1.4,1.3,1.4v1c0,0-.9-.4-.9-.4l-.5.4-.3,2.1.2,2-.5,1.1-.4,2.9s-.5,2-.5,2.1-2,1.4-2,1.4l-2.3-.4-4.9-.2-1.3-.3h-2.3c0,0-2-.5-2-.5l-2.4-.5-4,.4-1.8.2-2.3-1.1h-1l-1.5,2.2-1.7.2-1.9,1.1.5,1.2.2,1.2h1.2l-.3,2.7-.3,2,1,2.5-.5,3.5-.3,2.1-.5,2.5-1.2,2.6-.4.5-.5,2.2,1.3.4v1c-.1,0,.8.2.8.2l.6-.8.2,2.1-.3,2.3-.3,2.6v.8h1.3l2.5-.3,1.7.3,1.8-.4,2.6.7.6,2.2,1,1.9,2,.8,1-1.3,1.6-1.1,1.1-.2,1.3-1h6.5c0-.1,2-.2,2-.2l1.1-1.2,1.3-2,1.5-.9,1.4.2.6-1.6,1-2,2.1-2.3-2-2.9,1.2-2.2,2.5-4.5,1.8-2.5,1.9-.9,1.8-.3,1.8-1.3,2.7-1.4,1-1.2v-2.1c0,0-.9-2.6-.9-2.6l.5-1.6,2.6-2.5,3.7-.3.3,1.3h2c0,0,2.5,1.2,2.5,1.2l3-.4,3.5-3.1,2.6-.8,1.3-1.7,2.1-1.5,1.7.8,3.7,2,.5,2.5.9,1.9.2,1.1,1.5,1.4,1.2,1.5,1.6.8,1.1,1.4,1.4,1.6,1.8,1.5,2,1,2.6.6.6,1.2,1.4.9.8.6,1.7.2-.3,1.9,1.3.8,1.9.9.7,2.1,1,2.3.2,1.7-.9.8-.5,1.1-.7,1.9.5.5h.9l1.2-1.6.5-1.6.3-1.2,1-.8,1-.2v-1.1l-.5-1.3-1.2-.5-.9-.6v-1l2.2-3.5h.5c0-.1.6.4.6.4l1,.8h1.3l.5.7.3.9.9.6h.5c0,0,.3-1,.3-1l-.3-1.1-1.2-1.1-1.9-1.4-1.8-1.3-3-1.2-2.3-1.3.2-1,1-.7-.3-.4-1.1-.3-1,.4-1.8-.4-1.8-1.2-2.1-2.2-1.4-2.5-.3-1.5-1-1.8-1-.6-1.4-1.4-1.7-.8-.6-1.5-1-1,.4-1.3.9-1-.5-1.3-.5-1.1.4-1.1,1.3-.5.4.3,1.5-.8,1.5-.6,1.6.4-.5,1.3-.3,1.1.7,1.4.6,1,1-.8.4-1.6.6-1,.8,1.2,1,.6.6.9v1.6l.4,1.3.8,1.7,1.2,1.5,1.1,1.4.9,1h2.3l1.8,1.3,1.2,1.2-.8.4,1,.8,2.3.4,2.2,1.5,1.5.8,1.2,1.9,1.8.9-.3,2v2c-.1,0,.2,1.1.2,1.1l-1.1,2.2.4,1.1,1.4.5,1.2,1.4-1.1.8.8,1.7,1.1,1.8,1.6.5.7,1.2,1.1.6.5,1.5h1.3l1.8-.3,2.7.4,2,.7v.9l-1,.5-1.5-.9h-1.4c0-.1-.8-.9-.8-.9l-.8.4-.4.6h-1c0,0-1.1,1-1.1,1l1,1.1,1.3,1.2-.5.8.8,2.1,1-.9h.6l.5,1.2.4,1.2.6-.3.4-1.2h.8l.8,1.3v-1c0,0-.3-1.4-.3-1.4l-.4-1.3-.6-1.1.5-.4.9.4.9.5.2-.6-.8-1.1-.5-.7.9-.6h.9c0-.1,1,.3,1,.3l.7.4h.5c0-.1.2-1.3.2-1.3l.8-.9v-1.2l-.7-.4-1.3-.4-1-1.2-.8-.3-.5.3.5.7,1.1,1.1v.7h-.8l-.3-.6-.9-.6-.8-.8.4-.8-.4-.8.2-.9-.2-.4.7.6.7-.2-.5-.9-1.3-1.2-.5-1.3-.6-.9-.3-1.1.3-1,.7-.4.9-.2.5.8,1,1,1,.2.7-.4.5-.7-.2-1.1.6-.8,1.3-.5,1.3-.3,1.5-.2,1-.4,1.1.5,1.3.4,1.4.3,1-.9v-1.5l1-.4-.8-1.9,2.4-2.2,3.6.5-.4-1.3-1.3-1.1.3-.9,1.4-2.2.3-2,1.2-.7h1v-3c.1,0,.1-2,.1-2l1.6-1.4,1-1.3h1.3l.4-2,.4-1.4-1-.6.4-.9.5-.7.4.6,1.7-1.1.7-1.1-1.3-1.4.3-.7,1.3.9.6.4.4-1.2.2-.8,1-.2h3c0,0,.3-1.1.3-1.1l.9.4.3.7,1.1.6-.5,1-.8.3.7.9,1.1.4,1-.2,1.2-.2,1.2.2,1.3.2v1.3l-.9.5-1.4.5-1.6,1.5.9.3,1.1.7.3.9h1.2c0-.1.2,1,.2,1l-.3,1.4.5,1,.5.6h.9c0-.1,1.2-.6,1.2-.6l.8-.9.3-.7h.9l1.3-.4.6-.5.5-.7,1.1-.3,1,.4h2l.2-1.1-.7-1.2-1.3.7-1.3.4-.7.4-1.1-.2-.8-1.6-.5-.8-1.4-.9v-1.5c.1,0,1-.9,1-.9l1.8-1,.3-1.5.9.8,1-.6,1.9-.4,2-.5,1.6-.6,1.6-1,1.6-.6h1.5c0,.1,2.3-.5,2.3-.5l1.6-.4.5.9-.9,1.4-2.2.7-.2.8-1.1-.2-1.6.5.5,1.2,1.3.5-.4,2h-1.1c0,.1-.5,1.7-.5,1.7l-1,1.6-.6.3-1.8-.3-.7,1.2.4.2.8-.6.5,1.1.6,1.5,1.7.6,1.8,1.2,1.4.5,1.8.9,1.4,1.5,1.4,1.6,1.1,1,1.5-.7,4.6,1.7,4,.2,4.7,2.2.6,1.2h1.8c0,.1.7-.8.7-.8l2.5.2,3.2,1.6-.7,1.2,3,1.5,2.4,1.3,1.1,1.8,2.6.3,2.6-2.8-1.7-2.5-2.6-3.7v-2.6l.8-2.6-1-.3-1.6-2.3h-1.7c0-.1.8-1.9.8-1.9l3.7-5.2.9-.5v.7c.1,0,.5-.5.5-.5l.6-.9,1,.8,1-.5.5-1.5.8-2-2.2-1.7,2-1-3.3-5.5-2.9-1.1-.3,1.1-1.3-.8.3-2.7-2.6-.8,1.8-5.2v-4.1l2.5-3.3,3.3,3.6,2.2-.8-1.2-3.7,3.5-1.8v-1.5l5.1-3.4v-1.2l2.6,1v1h1.3c0,.1.5-.9.5-.9l2.5-1.1.5,2.1,3.2-.2,4.5,3.9.2,2.4.9-.7-.3-2.6,4.5,3.3,3.1-3.6,1.1.6,1.2-.8,1.9,1.6,1-1.7h2.6l1.6,2.6,2.2.3.3,1.3,2.2-2.3,2.1,1.3,1.5-.5.5.2Z"/>
  <path class="cls-1" d="M294.2,25.4l.5-2.8,1.8-2.7h3l3.3,2.8-1.4,2.8-2.8,2.5h-1.9l-1.5-.9-1-1.7Z"/>
  <path class="cls-1" d="M336.7,9.9l1.7-1.6,2.1,3.3,1.2.9,2.5,2.9-1.1,1.8h-2.2l-.5-1.7-1.6-.5-.9-.2-1.3-2-1.1-1.6,1.9.8-.8-2Z"/>
  <path class="cls-1" d="M143.6,143.6l.5,2.4,2.3,1.1,1.4.7,1.5-1.8-.8-.8,1.9-1.5-1.3-2.3-1.5.4v1.2l-2,.4-1.3-.2-.5.5Z"/>
  <path class="cls-1" d="M148.2,148.2l.8.4-1,.9-.5,1.9-3-1v-1l1.6.5,1.1-.5,1-1Z"/>
  <path class="cls-1" d="M133.8,227.7v-1.5l1.6-1.1,1.7-1v2.2l.5.8-.5.5v1.8c0,0-.9,2.2-.9,2.2l-1.4-.8-1-3.2Z"/>
  <path class="cls-1" d="M136.6,233.2l.9.8,1,2.6-1,.7.5,1.8v2.6c0,0-.9,1.8-.9,1.8h-1.8l-.7,1-1.2-.9v-2.3l.4-1.3-1.6-4.7,1.6-.2,2.8-1.9Z"/>
  <path class="cls-1" d="M149.7,249.6v1.2l1.2,1.1h1.5l1.8,1.5,1.4.7,1.5.4.9,1.2h1.7l1-1.4-1-1.7.5-2,1.3-2.1-2.6.5-1.8.7-1.1-.3-1.2.2h-1c0,0-1.4-1.1-1.4-1.1l-2.6,1Z"/>
  <path class="cls-1" d="M172.5,130.3l.5,2.7,1.5-1,.5-1.8.7-2.6-.5-.5-1.8,1.1-1,2Z"/>
  <path class="cls-1" d="M187.8,124.1l1.3,1,2.5-1,1.2-1.2-.5-1h-2.8l-1.2,1.2-.4,1Z"/>
  <path class="cls-1" d="M189.1,119.5l1.8-1,1.6,1-1.7,1.1-1.7-1.1Z"/>
  <path class="cls-1" d="M178.4,108.5l.7,1.5,1.8-.8-.5-1.8-1.5.4-.5.7Z"/>
  <path class="cls-1" d="M195,262.6v.9l2.7.2,1.7,1.2,4.3-.2,1.8-.8-.8-.2-1.5.3-.3-.8-3.4-.5-1.7.2-.4-.4-1.1-.4-1.3.4Z"/>
  <path class="cls-1" d="M108.8,241.4l2.4-1.8.3,1.1h1s-.2,1-.2,1l-.8.8-1.5-.4v-.5c0,0-1.2-.2-1.2-.2Z"/>
  <path class="cls-1" d="M161.5,25.4l.8-1.8,1.7-1.8.3.8-1.1,1.8-1,1-.5.8-.3-.8Z"/>
  <path class="cls-1" d="M181.9,11.5l.9-.8.6.8-.8,1.5-.8-.4v-1.1Z"/>
  <path class="cls-1" d="M188.4,6l1,1.9,1-.5,1.5-.4.8-1,.9-1.9-1.2.7-.8-.3-.6.4.3.8-.6.3-.9-.8-1.4.8Z"/>
  <path class="cls-1" d="M202.1.6l.5,1.3,1.1-.6.4-1.3h-1.4l-.7.6Z"/>
  <path class="cls-1" d="M192.1,8.5v1.5h.5l1.8-2-.4-1.5-1.5.9-.5,1.2Z"/>
</svg>