<?xml version="1.0" encoding="UTF-8"?>
<svg id="Layer_1" data-name="Layer 1" xmlns="http://www.w3.org/2000/svg" xmlns:xlink="http://www.w3.org/1999/xlink" version="1.1" viewBox="0 0 342 276">
  <defs>
    <style>
      .cls-1 {
        clip-path: url(#clippath);
      }

      .cls-2 {
        fill: none;
      }

      .cls-2, .cls-3 {
        stroke-width: 0px;
      }

      .cls-3 {
        fill: #2a2a2a;
      }
    </style>
    <clipPath id="clippath">
      <rect class="cls-2" width="342" height="276"/>
    </clipPath>
  </defs>
  <g class="cls-1">
    <g>
      <path class="cls-3" d="M276.6,110l.7-1.3.8,2.2-1.5-.9Z"/>
      <path class="cls-3" d="M286.9,99v-1.5l1.6,1.9-1.6-.4Z"/>
      <path class="cls-3" d="M282.9,93.1v-1.6l1.4.8-1.4.8Z"/>
      <path class="cls-3" d="M279.1,86.3l1.3-.4-1.8-2.3h-.5l1,2.7Z"/>
      <path class="cls-3" d="M275.5,78.9l1.1-1,.7,3.2-2.6-1v-2.9l.8,1.7Z"/>
      <path class="cls-3" d="M333.5,95.7l2.7-1.7-1-1.6-1.7-1.7-1.9.5-2,1.2-.6,2.1,2.5.6,1.9.6Z"/>
      <path class="cls-3" d="M335.7,86.3l.5,2.3,1.8-1.3h2.1l1.9-2.8-3.6,1.3-2.7.4Z"/>
      <path class="cls-3" d="M212.3,27.2l.6-.6,1.3,1.9.6.3,1.1,1.6,1.8,2.1.9.3.8,1.8-1.3.8-2.2-1.5v-1.4l-1.5-1.3-1.1-.8-.6-2.3-.5-1Z"/>
      <path class="cls-3" d="M222.5,35l2.4,2.2h.8l-.6-1.7-1.6-.4h-.9Z"/>
      <path class="cls-3" d="M224.5,41.1l1.1-.7.3,1.6,1.1-.4h1.1l1,2.2-1.3-1h-1.9l-1.3-1.6Z"/>
      <path class="cls-3" d="M233,39.5l2.8,2.3,1.9.8.4,1.1.5-.4.9.8.2-.4-1.9-2.3-4.1-1.9h-.6Z"/>
      <path class="cls-3" d="M238.6,49.2l1.1,1.3,1.8.2,1.5.4,1.4-.5-2.1-1.8-1.8-.3-1.6.5-.3.3Z"/>
      <path class="cls-3" d="M248,53.6l.5,1.2,1.4.3.8.9,1.1-.3-.7-1.3-1.4-.5-1.7-.3Z"/>
      <path class="cls-3" d="M247.3,49.5l.8-.8-1.6-1-1.5-1.9-.2-1.6-.6-1-.6.3.7,1.5v1.4s1,1.2,1,1.2l2.2,1.9Z"/>
      <path class="cls-3" d="M88.4,1l1.6,1.3,2.9-.9-1.6-1.4h-1.7l-1.3,1Z"/>
      <path class="cls-3" d="M116,4.4l.9,1.5h1.6l.3-.8-1.4-.4-.7-.3h-.6Z"/>
      <path class="cls-3" d="M116,8.4l1.9.9,2.1.3v-.9h-2l-2-.3Z"/>
      <path class="cls-3" d="M107.4,31.8v3.2l1.8-.7,1.5-3.5-.9-1.7-.8-.4-.8,2.1-.8.9Z"/>
      <path class="cls-3" d="M86.9,60.8l2.6.2,2,.3,2.2-1.7-.2-1h-2.1l-2,.5-1.9.3-.5.5v.8Z"/>
      <path class="cls-3" d="M119.5,72.3l.5-.4,1.3.8.7,1.3h-1.5l-1-1.7Z"/>
      <path class="cls-3" d="M172.3,10.7l.7-.7,1.9.3v.8h-2l-.6-.4Z"/>
      <path class="cls-3" d="M150.3,55.4l-1.6,3-.8,3.2-1.6,3.2,1,.5-.2,1.2-.8.5v1.8l.5,1.3-1.3,1.8v.7l.6,1.4-.2,3.7-.4,3.7-.6,4-1.8,3.5-.7,2.5-.5.6-4.1.9-1.9-1.4-2.4-1-.9-1.9-2.3-.6-2.2-1.1-2-2.2-2.4-1.1-3-.5-6.6-6,2.5-3.7.6-2-.7-2.1,2.1-1.4,1.1-1.4,2.2-2.5-3-1.1v1.1l-.5.6h-1.4c0,0-.2-1.3-.2-1.3l-3.2-.2-.7.5-.8-.3-.9-.8-1-.2-2.2.6-.5-1.1-1.7-.4-2.5-.2-.9-.4-1.2-1.4-1.2.3-.6-.8-.8-.6h-.8c0,0-.5.7-.5.7h.8s.6.3.6.3l.8,1,.6,1.2v1.3l-1.7.7-2.4.4-2.1-.5-2.3-.3-.8,1.9-1.5-.5-2.5,5.3v.8h-1.2c0,.1-2.2,4.5-2.2,4.5l1.9,1.8-.5,2.3-1-1h-.8s-1.5.2-1.5.2l-1.4-1-3.6,1.6v-.8l.4-.9-.4-.9-3.6-3.9-2.8-.8-.8,1.5-2.2.5-.8-.9-.6,3.2h-2.7c0,.1-1.2,1-1.2,1l1,2.3h-.5l-.5-.5-1.9.2-.4,1.3-1.7.7.6,1.7.2,1.3-.8,1.8-.4.6-2-1.6-1.2.5-1.2,2.2,2.1,2.1-.4.6h-.7c0-.1-.7,1.6-.7,1.6l-1.6-2.4-.7-1.4-.5-.7-1.2-.6-1.9,2-1.1,1.7.4,2.5.4,2-1.9,2-1.6,1.5-1.2,2.6-1.3,1.6-2.5,1.3-6,1.8-1.9-.7-2.5,1.7-4.3,1.7-2.5.9-2.7-.8-3.1,2-1.8.9-1.6,1.8-2,1-2.6,1.2-1,1.7-.8,2.1-1.1-.3v-3.6l-.8.7-1.4,3.6.8,1.2-.5,2.2-.3,2.6-1,1-.5,2,.7,2.4.8,1.9,1.1,2.2,1.4,3.4.3,1.6-.6,1.2-.6-1.1-.8-.5v.7c0,0,.3.9.3.9l-.5.9-1.2-.4-.4-1.5-1.7-.4.7,1.1,1.7,1.8,1.4,2.7,1.1,2.2.3,2.7,2,3,.6,2.5,1.3,2.2.3,4.5,1.1,3.2.7,2,2.1,4.1.3,4.4-.8,1.8v3.3l-.7,2.5-2.7,1.1v1.8c0,0,.6,1.4.6,1.4l2.3.7,1.5,1.3,1,1.3,1.9.6,1.1.6h3l2,.5,1.6-.4,2.3-1,2-2,.7-.9h2.4c0,0,1-2.1,1-2.1l1.7-.7,4-.5,4.4-.5,3,.3.3,1.4,1.6-1.1h3.1c0,0,.6.6.6.6l1.2-.2,1.6-1.3,1.1-1.7.9-2.3,2-1.2,1.6-.5,2.9-1.4,3.5-2h1.4c0,0,3,0,3,0h2l2.8-.9,3.5-1.6,2.2-1.3h4.3c0,0,2.9-.6,2.9-.6l1.9.6,2.8-.5,2.1.8,2.1,1.2,1.1,1,2.6-.7,1.3,1.5,2.9-.4,1.7,2.2,1.3.4.6,1.2-1.1.9,1.1,1.4,1.7.5.9,2.3,1.6,1.7,1.1,2.1.7,2.7.2,1.7,1.5.7.2-.8-.4-.4.2-1.1,1.3-1.6,1.4-2.1,1.9-1.5,2.7-2,.2-1.1,2-2.1.4-2.7.6,1.8.5,2.6-1,.2.4,1,.6.8-2.4,2.8-.5,5.7-2.3.3-.5.8.7.7h1.5l2-.4.6-2.7,1.1-3.2.7.4.8,1.9,1.1,1.6-.7,3.2-1.3,1.7.5.3,1.3-.3,1.3-.8.5,1.1,1.9.9,1.1.9,1.1,2,.9,2.7-.9,2.3,1,1.9,1.3,1.2,1.1,2,1.5.9.2.5h1.7l.7.6.9,1.6h1.5l1.3-.7,1.8.3,1.8.8,1.5,1,2.1.5,1.6.8,1.8-1.5,1.4-.9,1-2.2,1.3-.8.9-.6,1.1,1.3-.8,3,1.1-.6,1.3-1.4.7.3.3,2,.8.8,2.2,1.1,1.5-.8,2-.3,1.9-1.9,2.1-2.3.5-1,3-.3,2.3-.6,3.2.4,2.8-1.6v-4.9l1.2-4.1,1-3.9,1.4-2.4.9-2.7.3-2.4,1.4-1.6.4-3.3,1.3-.8,1.5-2.5v-.9l3.3-2.4.5-.8-.4-1.1,2.1-3,1.1-3.5v-1.6l-.3-1.3.8-2.6,1.2-4.4.9-3,.3-1.1-.3-3-1-2.2-1.1-2-.4-1,.4-1.2-.3-1.7v-5.3c0,0,1.3-3.9,1.3-3.9l-.3-1.6h-.5v1.6l-1.1,2.7-.5-1.2-1.9-1.9v-1.2c0,0-1.8-1.1-1.8-1.1l-.9-1.5-.8-1.6-.9-1-1.9-.5-1-1.9-1.5.3-.2-5.2-1.9-.8-1.9-1.1-.2.3.3,1.3-2.5-2.5-.2-2.1-.7-2.2-.5-1.4-1.7-.8-.9-2-1.2-1.6-2.1-1.9-3.9-1.3.3-.7.5-.2-.5-.5-1.7-.7-2.2-.8-1.6-1.7-1.3-2.7-.3-1.6.4-1.9v-1.4c0,0-1.3-2.5-1.3-2.5l-1.1-1.3-1.1-1.9-.3-2.6-.6-2.3-.3-.7.4-.8.2-1.4-1.7-1.2-2.1-1.5-.2-1.3-1.8.8-1,1-1.4-1.4-.7-2.9-.2-1.9.3-.5-1.2-2.7-.5-1.8-.9-.5.3-1.6-1.7-2.1-.2-3-1.4-2h-.3Z"/>
      <path class="cls-3" d="M315.9,233.2l1.6,1.3,1.4.8,3.2-2.1,1.7-3.6,2.8-3.9,1.3-3.3-1-2.1,1.4-1.2,1.7-1h1.9l.2-1.5,2.1-2.8.8-4.5-2.5-.6-2.4,2.4-2,.4-3.8-1.7-1.6-1.1-.9-2.3v-1.9c-.1,0-1.6-1.5-1.6-1.5v3.7c0,0-1-.3-1-.3l-3.2-3.4v-1.7c-.1,0,.2-.5.2-.5l-1.1-1.8-.6-1.1.4-.8-.7-1.3-.3-1.1-.4-.8-1.9-1.2-2.4-.3-2.1-2.3-.5-.4v.7c-.1,0,1.6,2.3,1.6,2.3l.2,2,1.3,1.8,1.8,2.5.7.9,1.2.2.3.9-.5.7,1,1.8.9,1.3.7-.3.5,1.1-.5.4.6,3,.3,2.1-.3,1.9-.8,1.5-.3,2.5-1.4,1.4-2.5,1.1-.2.6.5,1.1,1.4.5,1.3.5,1,1,1.9.6,1.2,2.3v2.5c0,0-2.6,4.6-2.6,4.6Z"/>
      <path class="cls-3" d="M120,197.6l.7,1,4.3-.5,1.1-1-1.6-.9h-3l-1.5,1.4Z"/>
      <path class="cls-3" d="M178.1,224.2l.7-1.2,1.5,1.8-.6,1.8-1.6-2.4Z"/>
      <path class="cls-3" d="M161.9,229.5l2.5.4,2.8,1.6,2.1.7,2.6.4,1-.9h3.7s.6-.7.6-.7h.9l.3-1,.8.3.9,2.3v4.8l-1.4,2-.6,3.1v1.6l-2.1.4-1.6,3h-.7l-.2,1.1-1.3.9-1-.3-2.6-1.2-2.1-2.2-1.1-2.1-.9-3.6v-2.5l-1.5-1.7-1.6-3.8.3-2.6Z"/>
      <path class="cls-3" d="M157.6,225.4h.8l.4-3h-1.3v3Z"/>
      <path class="cls-3" d="M307.5,251l-1.9-2,.3-2.3,2.3-2.4,1.4-2.1,2.9-4.5v-2.2l-.3-1.1,1.1-1.4-1.4-.5-1.3-1.3-.7,1.2-2.5.6-.2-2.3-1.6-.3-.5-1.3h-.7l-1.4,1.2-1,3.6-1.4,2.5-2.2,3.6-.9,2.4-2.1,2.1-1.8.8-2.6,3-3.7,2.1-2.5,1.7-1.9.5-.8,1.9-.9.3-1,1.7-3.1,2.7-1.6,2.2-1.1,3.1.4.8-.4,1,.3.9,1.1.8h1.8l1-.4.8.2,1.1,1.3h1.9l1.7,1.9,1-.7,1.4.5,2,.3,1.2-.5,2-2.9,3.2-2.4.8-3.8,1.7-3.8.4-2.1,1.4-2.3,4.2-2.3.6-.7,1.7.5.7.2h1.3Z"/>
      <path class="cls-3" d="M280.1,272.5h1.2v1.5l.8.2v.5l-3.3,1.2.6-1.7.7-1.7Z"/>
      <path class="cls-3" d="M90,4.8h1l.9,1.6,1.1-1.1v-1.1l2.7-.3,1.9-1.8,3.3.5,2.3.8,2.4.5,1.6.6v1.5l1,1.3-1,2.3.6,1.3v1.9l1.3,1.8h.8v-1.3h.5s.2,1.9.2,1.9l1,1.4.6,1h2.6l2.2-2.6,1.8-1.9.3-1,4.1-.9,1.4-2.5,2.3-.8,4.1,1.9,5.3,2.6,2.4.3,2.7.4,2.5,1.1,5.2,2.1,3.2,1.4,2.5.3,2.8,1.3,1.8.6,2.3,1.4,2.4,1.3,1.4.7,1.8,2.2v2.9l3.4.9,2.7,1.2,3.4,1.9,1.1,1.6-.5.5h-1.4l-2.1-1.3-.7,1.3.6,1.9.9,1.9,1.9,1.5,2.3,1.9.9,1.4v1.5l1.7,2.1,1.3.3h2.7v1l-.3,1.1,1.7.7,2.2,2.3.9.5h1.8l-.5.9.2,1.1-1.3.9-1-1.2-1.4-.8-2.9-.6-.9-.5-5.6-.5-2.2-1.7-2.5-2.3-3-4.2-2.2-2.6-2.5-.8-3-.6-2.4-.8-1.3,1.3h-.6s-1.2-.8-1.2-.8l-.9,2.3-.3,2.2-3.1-1.1-.3.7,1.9,1.3.3,1.4-2.3,1.3-1.8.6-2.1-.6-2.7-.3-2.2.2-2.1-1.5-2-1.8-2-2.2-2.7-.3-2.3.4-.8,1.4h-1.6c0-.1-.4-.6-.4-.6l-.8.4-1.2.5-1.6-.7-.3-.9,1.3-2.2,1.3-1.2,1.8-.2,1.5.2v-.8s-1.3-1.1-1.3-1.1l1-1.5-.5-.4-1.6-2.3-1.3-3.2-.6-1.1-1.7-1-.6-.6-4.9-2-4.1-1.6-2.8-.4-1.6-.4-1.5-2.1h-1.7s-.6.5-.6.5l-.7-.4-.6-.8-.6-.2-1.3-1.3-1.2,2.1-1.6,1-1-.4-.9-1.7.5-1.9-1.5-1.6-.9-.4h-1.6s0-.9,0-.9l1.7-.5,1.4.4.6.5,1.1-.9,1.6-1,1.3.5,1.7-.3.2-1.1-1.3-.8-1.3.5-1.3-.5-2.3.3h-2.1s-1.1-1-1.1-1l-.5-1.8-1.6-.6-1.8-.5h-1.6s-.7-1.4-.7-1.4l-.8-1.2Z"/>
      <path class="cls-3" d="M183.6,30.8l2.7.9h6.2l2.2-.9,1.7-2.3,3.1-1.1v-1.3l1.3-1.8-1.1-2.2-1-.5-1.5.5.4,1.6v1.6c.1,0-1.8.4-1.8.4l-2,2.7-3.5.4-.8-1.5h-.9s-.1,1.2-.1,1.2h-3.4c0,0-4.2.3-4.2.3l.6,1,2.1,1Z"/>
      <path class="cls-3" d="M193.4,14.2v-.8l2.9,1.6,2.8,1.4,2.2,2,2,1.8,1,1,.3,1.7-.4.5h-1.2l-.3-1.2v-1.1c0,0-1.9-2.3-1.9-2.3l-1.3-1.4-2.7-1.5-2.3-1.3-1-.5Z"/>
      <path class="cls-3" d="M261.5,106.8l.3-1,2.7,1.9,1,1,1.6.7.9,1.6,1.5,1.2,1.4.9,1.6.9,1.3,1.3,1.7.9.4,1.5-1.7-.6-1.7-.2-.7-1.1-1.4-.7-.8-.7-1.5-.3-1.1-.9-1.5-1.5-.5-1.1-1.5-1-2.1-2.8Z"/>
    </g>
  </g>
</svg>