<svg width="342" height="276" viewBox="0 0 342 276" fill="none" xmlns="http://www.w3.org/2000/svg">
<g clip-path="url(#clip0_316_164)">
<path d="M276.602 110.012L277.324 108.681L278.084 110.925L276.602 110.012Z" fill="#EEEEEE"/>
<path d="M286.862 98.9843V97.5012L288.42 99.3645L286.862 98.9843Z" fill="#EEEEEE"/>
<path d="M282.872 93.0901V91.531L284.24 92.3296L282.872 93.0901Z" fill="#EEEEEE"/>
<path d="M279.11 86.3213L280.364 85.941L278.578 83.6594H278.084L279.11 86.3213Z" fill="#EEEEEE"/>
<path d="M275.538 78.868L276.602 77.8793L277.324 81.0736L274.702 80.0849V77.1568L275.538 78.868Z" fill="#EEEEEE"/>
<path d="M333.45 95.6759L336.186 93.9647L335.198 92.3296L333.45 90.6183L331.512 91.1127L329.536 92.3296L328.966 94.4591L331.512 95.1055L333.45 95.6759Z" fill="#EEEEEE"/>
<path d="M335.692 86.3213L336.186 88.6409L337.972 87.386H340.1L342 84.6101L338.352 85.903L335.692 86.3213Z" fill="#EEEEEE"/>
<path d="M212.344 27.1513L212.952 26.5809L214.206 28.4822L214.852 28.7484L215.954 30.3836L217.778 32.4751L218.69 32.8173L219.526 34.6046L218.196 35.4031L215.954 33.9201V32.4751L214.472 31.2202L213.37 30.4216L212.8 28.14L212.344 27.1513Z" fill="#EEEEEE"/>
<path d="M222.452 34.9848L224.808 37.1524H225.568L224.998 35.4031L223.402 34.9848H222.452Z" fill="#EEEEEE"/>
<path d="M224.504 41.0692L225.568 40.3466L225.91 41.9058L226.974 41.4875H228.038L228.988 43.693L227.734 42.7043H225.834L224.504 41.0692Z" fill="#EEEEEE"/>
<path d="M232.978 39.472L235.79 41.7917L237.652 42.5903L238.07 43.693L238.602 43.3128L239.476 44.1113L239.666 43.693L237.766 41.4114L233.624 39.472H232.978Z" fill="#EEEEEE"/>
<path d="M238.602 49.207L239.666 50.4618L241.452 50.69L242.972 51.1083L244.416 50.5759L242.326 48.7506L240.502 48.4084L238.906 48.9027L238.602 49.207Z" fill="#EEEEEE"/>
<path d="M248.026 53.58L248.482 54.7589L249.888 55.0251L250.686 55.8997L251.788 55.5955L251.066 54.3406L249.698 53.8462L248.026 53.58Z" fill="#EEEEEE"/>
<path d="M247.266 49.4731L248.026 48.7126L246.392 47.6859L244.91 45.7465L244.682 44.1113L244.036 43.1226L243.39 43.3888L244.074 44.8719L244.112 46.3169L245.062 47.5338L247.266 49.4731Z" fill="#EEEEEE"/>
<path d="M88.3877 0.988702L90.0217 2.28162L92.9097 1.36897L91.3137 0H89.6417L88.3877 0.988702Z" fill="#EEEEEE"/>
<path d="M116.014 4.44916L116.888 5.97024H118.446L118.75 5.2097L117.382 4.7914L116.66 4.44916H116.014Z" fill="#EEEEEE"/>
<path d="M116.014 8.36594L117.952 9.24056L120.042 9.54477V8.67015H118.028L116.014 8.36594Z" fill="#EEEEEE"/>
<path d="M107.426 31.7525V34.9848L109.25 34.3004L110.732 30.8399L109.82 29.1667L109.06 28.7484L108.262 30.8399L107.426 31.7525Z" fill="#EEEEEE"/>
<path d="M86.9443 60.8432L89.5663 61.0714L91.5423 61.3756L93.7083 59.6263L93.4803 58.6376H91.3903L89.3763 59.132L87.5143 59.4742L87.0583 60.0066L86.9443 60.8432Z" fill="#EEEEEE"/>
<path d="M119.548 72.3274L120.042 71.9091L121.334 72.7456L122.018 74.0005H120.498L119.548 72.3274Z" fill="#EEEEEE"/>
<path d="M172.254 10.7236L172.938 10.0391L174.838 10.3814V11.1419H172.862L172.254 10.7236Z" fill="#EEEEEE"/>
<path d="M150.252 55.4053L148.618 58.4095L147.82 61.5657L146.224 64.722L147.212 65.2543L147.022 66.4332L146.224 66.9275V68.7148L146.68 70.0077L145.426 71.795V72.5175L146.034 73.8865L145.806 77.5751L145.426 81.2637L144.818 85.2185L142.994 88.717L142.31 91.1887L141.854 91.7972L137.75 92.7098L135.85 91.3028L133.456 90.3141L132.506 88.4508L130.188 87.8043L128.022 86.7016L126.008 84.458L123.652 83.3552L120.688 82.8608L114.114 76.8526L116.584 73.202L117.154 71.2246L116.47 69.1331L118.56 67.7261L119.662 66.3191L121.828 63.7713L118.864 62.6685V63.7713L118.37 64.3797L117.002 64.4558L116.774 63.0868L113.62 62.9347L112.936 63.429L112.1 63.1628L111.188 62.3643L110.238 62.1361L108.034 62.7826L107.54 61.6798L105.868 61.2615L103.36 61.0714L102.448 60.6531L101.27 59.2841L100.092 59.5503L99.484 58.7897L98.724 58.1813L97.888 58.2574L97.394 58.9038L98.192 58.8658L98.8 59.208L99.56 60.1967L100.168 61.3756V62.6305L98.42 63.353L95.988 63.7713L93.936 63.2769L91.618 62.9727L90.858 64.836L89.338 64.3417L86.868 69.6274V70.388L85.652 70.5021L83.41 74.9132L85.348 76.7005L84.854 78.9821L83.866 77.9553L83.106 77.9934L81.624 78.1835L80.218 77.1568L76.646 78.7539V77.9553L77.026 77.0807L76.646 76.2061L73.074 72.3274L70.262 71.4908L69.464 72.9738L67.26 73.5062L66.462 72.6316L65.816 75.7878L63.118 75.9019L61.902 76.7765L62.928 79.0581H62.396L61.902 78.6018L60.04 78.7539L59.622 80.0468L57.874 80.7693L58.52 82.4425L58.71 83.7735L57.874 85.5608L57.456 86.1312L55.48 84.534L54.264 85.0284L53.048 87.2339L55.176 89.3254L54.758 89.9339L54.074 89.8198L53.352 91.493L51.794 89.1353L51.11 87.7283L50.578 87.0438L49.4 86.4354L47.538 88.4508L46.436 90.2L46.816 92.7098L47.234 94.6872L45.296 96.6646L43.738 98.1857L42.56 100.772L41.23 102.369L38.76 103.662L32.794 105.449L30.894 104.726L28.348 106.438L24.054 108.111L21.546 109.023L18.886 108.187L15.808 110.202L14.022 111.115L12.426 112.902L10.45 113.891L7.828 115.07L6.84 116.781L6.08 118.834L4.978 118.53V117.047V114.956L4.18 115.678L2.812 119.253L3.648 120.47L3.154 122.713L2.812 125.299L1.786 126.326L1.292 128.303L1.976 130.699L2.774 132.562L3.876 134.768L5.244 138.152L5.548 139.711L4.94 140.928L4.294 139.863L3.458 139.331L3.382 140.053L3.762 140.928L3.268 141.803L2.09 141.422L1.672 139.939L0 139.521L0.722 140.662L2.394 142.449L3.8 145.187L4.94 147.431L5.244 150.093L7.258 153.059L7.828 155.568L9.158 157.736L9.462 162.223L10.526 165.379L11.21 167.395L13.3 171.464L13.604 175.837L12.844 177.624V180.894L12.122 183.404L9.424 184.469L9.348 186.294L10.032 187.663L12.312 188.348L13.832 189.641L14.82 190.972L16.72 191.58L17.86 192.227H20.862L22.838 192.683L24.434 192.265L26.714 191.276L28.728 189.298L29.45 188.386L31.882 188.462L32.908 186.294L34.618 185.572L38.57 185.077L43.016 184.621L46.018 184.925L46.322 186.294L47.88 185.192L50.958 185.115L51.566 185.8L52.782 185.61L54.378 184.279L55.442 182.53L56.354 180.248L58.33 179.031L59.926 178.537L62.814 177.13L66.31 175.152L67.678 175.076L70.642 175.228H72.656L75.506 174.278L79.04 172.681L81.206 171.35L85.462 171.274L88.388 170.779L90.25 171.35L93.1 170.893L95.19 171.692L97.318 172.871L98.382 173.859L100.966 173.175L102.296 174.658L105.184 174.278L106.856 176.521L108.148 176.94L108.718 178.157L107.654 179.031L108.756 180.438L110.428 180.894L111.34 183.176L112.936 184.887L114.076 186.979L114.798 189.679L114.988 191.352L116.47 192.074L116.66 191.276L116.28 190.858L116.47 189.793L117.8 188.196L119.244 186.104L121.144 184.621L123.842 182.606L124.032 181.503L126.008 179.411L126.426 176.711L126.996 178.461L127.528 181.047L126.54 181.237L126.92 182.225L127.528 183.024L125.134 185.8L124.64 191.542L122.322 191.884L121.866 192.683L122.55 193.367H124.032L126.046 192.949L126.692 190.249L127.794 187.093L128.516 187.511L129.314 189.374L130.416 190.934L129.694 194.166L128.44 195.915L128.934 196.219L130.188 195.915L131.48 195.117L132.012 196.219L133.95 197.132L135.052 198.007L136.192 200.022L137.066 202.684L136.192 204.966L137.18 206.867L138.434 208.084L139.536 210.061L141.056 210.974L141.246 211.43H142.994L143.716 212.077L144.628 213.636H146.11L147.402 212.951L149.188 213.255L150.974 214.016L152.494 215.043L154.622 215.537L156.256 216.336L158.042 214.853L159.41 213.94L160.398 211.734L161.728 210.936L162.602 210.289L163.704 211.582L162.906 214.548L164.008 213.94L165.262 212.571L165.984 212.837L166.288 214.853L167.048 215.651L169.252 216.716L170.734 215.955L172.748 215.651L174.648 213.712L176.738 211.43L177.232 210.441L180.272 210.137L182.552 209.567L185.782 209.985L188.556 208.35V203.482L189.734 199.338L190.722 195.421L192.09 193.063L193.04 190.363L193.382 187.967L194.826 186.37L195.206 183.1L196.498 182.301L197.98 179.83V178.917L201.286 176.483L201.78 175.647L201.4 174.506L203.528 171.464L204.592 167.965V166.368L204.288 165.075L205.048 162.489L206.264 158.116L207.138 155.112L207.404 154.009L207.1 150.967L206.15 148.724L205.01 146.708L204.63 145.719L205.01 144.503L204.744 142.829L204.668 137.506L206.074 133.589L205.808 132.03L205.276 132.106V133.665L204.174 136.365L203.68 135.148L201.742 133.209L201.666 131.992L199.956 130.889L199.006 129.406L198.208 127.771L197.334 126.744L195.396 126.288L194.408 124.348L192.926 124.653L192.698 119.481L190.76 118.682L188.898 117.541L188.67 117.884L188.974 119.177L186.504 116.705L186.276 114.575L185.554 112.408L185.06 110.963L183.312 110.164L182.438 108.149L181.26 106.514L179.208 104.612L175.332 103.357L175.636 102.673L176.092 102.521L175.636 102.064L173.888 101.342L171.722 100.581L170.126 98.8702L168.872 96.2083L168.606 94.6492L168.986 92.7479L168.91 91.3028L167.694 88.8311L166.554 87.5001L165.49 85.6368L165.224 83.051L164.654 80.7693L164.35 80.0849L164.73 79.3243L164.958 77.9553L163.248 76.7385L161.12 75.2554L160.93 74.0005L159.144 74.8371L158.156 75.7878L156.712 74.3428L156.028 71.4147L155.838 69.5514L156.142 69.019L154.926 66.3191L154.432 64.4938L153.52 64.0375L153.862 62.4784L152.152 60.4249L151.962 57.3827L150.556 55.4053H150.252Z" fill="#EEEEEE"/>
<path d="M315.894 233.182L317.49 234.436L318.858 235.235L322.012 233.182L323.76 229.569L326.61 225.652L327.864 222.382L326.914 220.328L328.282 219.112L329.954 218.123H331.854L332.082 216.602L334.172 213.826L334.97 209.339L332.424 208.73L330.068 211.164L328.092 211.544L324.254 209.833L322.658 208.73L321.708 206.411L321.594 204.471L320.112 202.988L320.036 206.715L319.086 206.411L315.894 202.988L315.78 201.239L316.122 200.707L315.058 198.919L314.488 197.816L314.868 196.98L314.184 195.725L313.88 194.66L313.462 193.862L311.6 192.645L309.168 192.341L307.078 190.021L306.584 189.641L306.47 190.325L308.218 192.607L308.408 194.622L309.738 196.447L311.562 198.995L312.284 199.87L313.5 200.022L313.766 200.897L313.31 201.619L314.26 203.406L315.21 204.699L315.894 204.433L316.388 205.574L315.894 205.992L316.464 209.034L316.768 211.088L316.464 212.951L315.666 214.434L315.324 216.982L313.88 218.351L311.41 219.454L311.258 220.024L311.752 221.127L313.12 221.659L314.412 222.154L315.362 223.18L317.3 223.751L318.478 226.032L318.402 228.58L315.894 233.182Z" fill="#EEEEEE"/>
<path d="M120.042 197.626L120.764 198.615L125.058 198.121L126.198 197.132L124.564 196.219H121.524L120.042 197.626Z" fill="#EEEEEE"/>
<path d="M178.106 224.169L178.79 222.99L180.31 224.778L179.702 226.565L178.106 224.169Z" fill="#EEEEEE"/>
<path d="M161.88 229.455L164.388 229.873L167.162 231.47L169.252 232.155L171.836 232.535L172.862 231.661L176.586 231.622L177.232 230.976H178.106L178.41 229.949L179.208 230.254L180.082 232.535V237.289L178.676 239.304L178.106 242.384V243.981L176.016 244.362L174.458 247.328H173.736L173.508 248.43L172.216 249.343L171.228 249.077L168.644 247.86L166.592 245.654L165.49 243.563L164.578 239.988V237.517L163.096 235.805L161.538 232.041L161.88 229.455Z" fill="#EEEEEE"/>
<path d="M157.586 225.386H158.422L158.84 222.344H157.586V225.386Z" fill="#EEEEEE"/>
<path d="M307.534 251.016L305.596 249.039L305.9 246.719L308.218 244.285L309.662 242.156L312.55 237.631V235.425L312.208 234.322L313.272 232.953L311.904 232.459L310.65 231.204L309.928 232.383L307.382 232.953L307.154 230.634L305.596 230.33L305.102 229.075H304.418L303.05 230.253L302.062 233.828L300.656 236.376L298.452 240.026L297.54 242.46L295.412 244.59L293.588 245.426L290.966 248.468L287.28 250.598L284.734 252.309L282.834 252.842L282.036 254.781L281.124 255.047L280.136 256.796L277.058 259.496L275.424 261.702L274.322 264.82L274.74 265.581L274.322 266.607L274.664 267.482L275.728 268.28H277.514L278.54 267.862L279.338 268.052L280.44 269.383H282.378L284.088 271.285L285.114 270.562L286.482 271.018L288.458 271.285L289.674 270.752L291.688 267.824L294.842 265.428L295.64 261.664L297.312 257.823L297.73 255.732L299.098 253.45L303.316 251.13L303.886 250.446L305.558 250.902L306.28 251.092L307.534 251.016Z" fill="#EEEEEE"/>
<path d="M280.136 272.502H281.352V274.023L282.188 274.251V274.783L278.882 276L279.452 274.251L280.136 272.502Z" fill="#EEEEEE"/>
<path d="M90.0225 4.79141H91.0485L91.9985 6.38854L93.0625 5.28576V4.18298L95.7605 3.87876L97.6225 2.05347L100.89 2.58584L103.208 3.42244L105.64 3.87876L107.236 4.44917V5.93222L108.224 7.22514L107.236 9.54479L107.844 10.8377V12.7391L109.098 14.5263H109.896V13.1954L110.39 13.1574L110.618 15.1348L111.568 16.5037L112.214 17.4924H114.836L117.078 14.9066L118.864 12.9672L119.206 11.9405L123.31 11.0659L124.678 8.51806L126.996 7.68146L131.1 9.58281L136.382 12.2067L138.738 12.5489L141.398 12.9292L143.944 13.9939L149.112 16.1235L152.266 17.4924L154.774 17.8347L157.586 19.1656L159.41 19.8121L161.728 21.181L164.084 22.474L165.49 23.1585L167.276 25.326V28.2541L170.696 29.1287L173.394 30.3075L176.776 32.1709L177.878 33.806L177.384 34.3004H175.978L173.85 32.9694L173.128 34.3004L173.774 36.2397L174.648 38.1791L176.548 39.7002L178.828 41.6396L179.74 43.0846V44.5677L181.412 46.6211L182.704 46.9253H185.402V47.914L185.098 49.0548L186.77 49.7774L188.974 52.097L189.848 52.5533H191.634L191.102 53.4279L191.254 54.4927L189.962 55.4053L188.974 54.1885L187.606 53.4279L184.756 52.8195L183.806 52.3632L178.182 51.9069L175.978 50.1576L173.47 47.876L170.506 43.655L168.302 41.0692L165.794 40.3086L162.83 39.6622L160.474 38.8256L159.182 40.1185L158.574 40.0805L157.396 39.3199L156.484 41.6396L156.218 43.8832L153.102 42.7804L152.798 43.5029L154.66 44.7958L155.002 46.1648L152.722 47.4197L150.936 47.9901L148.884 47.3436L146.148 47.0014L143.982 47.2295L141.93 45.7085L139.916 43.9212L137.94 41.7537L135.204 41.4114L132.924 41.8297L132.088 43.1987L130.53 43.0846L130.112 42.6283L129.352 43.0466L128.136 43.5029L126.502 42.8184L126.236 41.9058L127.49 39.7382L128.82 38.5214L130.606 38.3312L132.126 38.5594L132.164 37.7988L130.872 36.7341L131.86 35.213L131.328 34.7947L129.694 32.4751L128.364 29.3188L127.756 28.178L126.084 27.1513L125.514 26.5048L120.574 24.4894L116.508 22.8542L113.696 22.474L112.062 22.0937L110.58 20.0022L108.87 20.0402L108.3 20.5346L107.578 20.1163L106.97 19.3177L106.324 19.1276L105.07 17.8727L103.892 19.9642L102.296 20.9529L101.308 20.5726L100.358 18.8614L100.814 16.9601L99.3325 15.4009L98.3825 15.0207L96.7865 15.0587V14.108L98.4585 13.6517L99.8265 14.07L100.472 14.5263L101.574 13.6517L103.208 12.701L104.462 13.1954L106.21 12.8531L106.362 11.7884L105.108 10.9518L103.816 11.4842L102.524 11.0278L100.206 11.3321L98.0785 11.3701L97.0145 10.3053L96.5585 8.48003L94.9245 7.8716L93.1005 7.33922L91.5045 7.30119L90.7825 5.97025L90.0225 4.79141Z" fill="#EEEEEE"/>
<path d="M183.578 30.7638L186.276 31.6385H189.658H192.432L194.674 30.7638L196.384 28.4442L199.5 27.3414V26.0865L200.792 24.2612L199.652 22.0557L198.664 21.5613L197.182 22.0937L197.562 23.6908L197.676 25.288L195.776 25.6682L193.8 28.3301L190.342 28.7484L189.544 27.2273L188.67 27.2654L188.556 28.4442L185.136 28.3681L180.918 28.7484L181.488 29.7371L183.578 30.7638Z" fill="#EEEEEE"/>
<path d="M193.42 14.2221V13.4615L196.27 15.0587L199.044 16.4657L201.248 18.4811L203.262 20.2684L204.288 21.2951L204.63 23.0063L204.25 23.5387H203.072L202.73 22.3218L202.806 21.181L200.792 18.8994L199.462 17.4544L196.726 15.9333L194.408 14.6784L193.42 14.2221Z" fill="#EEEEEE"/>
<path d="M261.478 106.818L261.782 105.829L264.48 107.692L265.468 108.681L267.064 109.404L267.976 111.001L269.458 112.18L270.864 113.092L272.498 113.967L273.828 115.298L275.538 116.173L275.918 117.656L274.208 117.085L272.536 116.857L271.852 115.792L270.446 115.07L269.648 114.385L268.166 114.081L267.064 113.206L265.582 111.723L265.088 110.621L263.606 109.632L261.478 106.818Z" fill="#EEEEEE"/>
</g>
<defs>
<clipPath id="clip0_316_164">
<rect width="342" height="276" fill="white"/>
</clipPath>
</defs>
</svg>
