<svg width="216" height="370" viewBox="0 0 216 370" fill="none" xmlns="http://www.w3.org/2000/svg">
<g clip-path="url(#clip0_316_199)">
<path d="M15.3551 23.6389L18.4425 19.7744L18.0309 17.8833L19.2247 19.24L19.8422 20.7611H20.8714L20.542 18.2122L22.6827 16.1978L24.1647 14.3067L26.3053 13.1556V10.9356L26.9228 8.01667L29.5986 6.37222H31.7804L32.8919 5.92V5.18H35.1149L37.8731 4.76889L40.1784 3.28889L42.072 2.01444V0.411111L44.4185 0L45.8182 0.534444L46.6415 1.80889L44.8714 3.08333L42.8542 3.41222L43.1424 4.89222L43.8834 7.44111V9.08556L42.6484 10.7711L42.072 12.4978L43.0189 14.2656L44.3362 15.54L46.2298 15.4578L47.1767 14.3889V11.84L45.3654 8.92111V7.44111L47.1767 6.04333L48.7822 5.59111L50.964 4.85111L52.1578 4.11111V3.20667L51.0051 2.63111L51.0875 1.39778L52.1578 1.19222L53.0223 2.46667L53.8868 3.90556L54.8336 4.35778L57.0566 4.23444L58.4151 5.18L59.4031 6.37222L60.3087 8.38667L61.2556 9.08556L63.6432 8.75667L66.6895 8.38667L69.9417 8.55111L71.1355 9.74333L73.0703 10.6889L75.2522 11.1411L77.8456 10.36L81.3036 8.75667L84.0618 8.18111L86.6141 7.60556L87.7667 7.81111V8.34556L85.7907 8.88L85.4202 9.41444L86.4082 10.4833L87.7667 11.1L89.1664 11.84H90.7307H91.5952L92.7479 12.9911L94.2298 13.7722L94.6415 15.9922L95.012 17.8833H98.0583L99.7873 18.9522L101.557 20.2267L102.834 21.46L103.986 21.9122L105.057 23.31L105.468 24.8722L107.897 26.3522L109.173 28.2844L110.985 29.6411L113.208 30.2578L115.101 31.0389L117.036 30.5044H120.124L122.099 29.7233L125.063 30.5867L128.192 31.7789L131.362 32.6833L133.791 34.2044L136.343 36.0956L137.208 37.5756L138.484 38.11L139.719 39.8367V42.0567L140.336 43.7422L140.871 45.7156L141.859 48.2644L142.93 49.4156H144.206L145.111 51.3478V53.8967L144.37 55.4589L143.218 56.4044V54.39L142.395 55.1711L141.201 56.7333L139.06 57.6789L137.907 59.2L136.672 61.0911L136.837 62.0367L138.031 60.7622L139.307 60.68L139.719 62.0367L140.46 60.68L141.448 59.8989L142.477 58.2544L144.288 56.6511L146.388 56.24L145.441 57.35L146.799 58.3367L147.664 57.3911L149.599 58.6244L151.822 59.2V60.7622L151.163 62.8589L149.804 64.2567L148.611 64.8733L148.199 65.9422L150.134 65.6133L151.822 64.1333L153.304 61.8311L154.374 60.6389L155.938 60.4744L156.556 61.2967L157.667 60.6389L158.573 61.2967L160.59 61.9544L162.648 62.3656L164.336 62.9L165.489 64.0922L167.588 64.6267L168.947 65.2844L169.441 67.0111L171.293 68.4911L170.593 69.5189L171.499 70.1356L173.022 69.93L175.657 69.0256L176.81 68.7789L178.703 70.1356L181.05 70.6289L184.302 71.2044L185.619 71.5333L187.225 71.04L191.671 71.0811L193.194 72.1911L195.293 73.4244L197.887 75.0689L200.274 77.1244L202.374 79.3033L205.585 81.03L209.372 81.3178L212.007 80.9889L212.748 82.6744L213.859 84.9767L214.148 88.1011L215.753 89.0878L216 91.4722L214.806 93.8156L214.353 96.6933L212.913 99.9L211.431 101.914L209.29 104.669L205.75 107.752L204.103 109.602L203.115 111.74L201.345 114.864L200.069 116.92L199.039 118.112L197.804 116.714L196.94 117.167L197.31 118.441L196.281 119.716L196.322 121.853L195.787 125.019L195.87 127.897L195.952 129.87L196.322 132.049L195.746 134.392L194.964 137.229L194.84 140.888L194.1 142.203L192.782 143.807L192.576 146.52L192.288 149.357L191.753 151.042L190.436 153.016L189.777 154.496L187.595 156.633L186.566 158.483L186.196 159.963L186.731 161.854L185.99 162.923L184.096 163.417L182.367 164.938L181.873 166.418H179.691L175.245 166.664L172.034 167.034L169.976 167.528L168.617 168.926L166.724 170.241L165.365 171.228L164.419 170.776L163.184 171.474L160.055 173.037L157.009 175.544L154.497 177.477L153.18 179.614H151.039L150.916 181.382L151.204 182.944L150.71 184.507L150.916 187.097L151.41 188.453L151.657 189.563L151.163 191.043L150.834 194.086L150.504 195.812L149.475 196.593L147.54 197.786L145.894 200.047L144.947 202.143L144.082 204.98L142.889 207.488L141.077 210.201L139.142 212.339L137.002 214.312L134.738 215.669L133.708 217.354L133.256 219.533L132.35 220.191L131.238 221.342L130.045 223.521L128.727 225.248L127.616 227.386L125.681 228.948L123.54 229.852L122.182 230.674L121.07 230.346L119.094 229.77L117.201 229.976L115.678 230.674L113.66 229.482L111.684 228.249L108.062 227.673L106.868 226.769L105.592 227.057L105.468 228.824L106.744 229.852L108.391 231.003L110.12 232.031L111.561 233.717L110.985 234.868L110.408 236.142L110.861 237.622L111.973 238.979L113.619 239.801L113.66 241.939L112.549 244.323L110.573 246.708L109.708 248.558L107.897 250.408L104.604 252.299L100.528 252.874L96.5352 253.902L92.9125 254.396L89.2487 253.861L87.9726 253.121L87.4374 253.656L87.9314 254.396L87.5197 256.122L88.5901 257.602L87.4786 260.069L86.9434 262.577L87.3962 265.29L86.9846 266.4L84.4734 267.099L80.7684 267.387L78.9983 266.606L76.6106 265.084L74.8817 265.29L74.1407 267.757L74.6758 269.648L74.9228 274.252L76.94 274.787L77.928 275.691L79.3276 275.321L80.1509 273.923L81.0566 273.759L81.5094 275.691L81.4683 277.171L80.7684 278.199L79.6158 277.829L78.8748 276.76L77.5575 276.554L76.8576 276.102L75.705 276.719L75.3756 277.829L76.1578 278.692L77.681 279.35L76.4871 280.09L75.0875 280.953L73.729 283.584L73.5643 285.434L73.729 287.778L72.1647 290.121L71.6707 292.053L69.777 292.382L67.6364 293.533L65.4134 294.191L64.3019 295.63L63.3551 297.686L62.7376 299.7L63.2727 302.002L64.8371 303.688L66.4014 305.25L67.554 306.196L70.5592 306.648L71.7118 308.416L71.0943 310.882L70.0652 313.143L67.4717 315.569L64.7136 317.83L63.1081 319.762L62.4082 324.696L60.7616 327.039L58.0858 328.354L55.8216 331.15L54.9983 334.274L55.9863 334.973L56.4391 337.563L57.0566 339.783L58.2916 342.003L59.1561 343.936L58.5798 344.223L56.9743 343.196L55.2041 342.949L53.9691 344.717H52.4871L50.5935 345.868L48.3293 347.183L47.5472 349.444V352.857L47.0943 354.994L46.3122 355.488H44.8302L43.1835 354.46L40.7136 352.98L37.8319 351.171L38.7376 350.143L37.3379 349.609L36.3911 348.047L36.8439 346.608L35.1973 346.238L34.9503 345.333H34.3328L34.0034 346.073H33.3859L33.6329 345.169L33.9623 344.141L33.4683 343.812L32.1921 344.429L33.0978 342.743L33.1801 342.044L31.4923 340.03L31.6569 339.496L33.1801 340.318L32.5626 339.126L33.2624 338.344L33.8799 337.358L33.3448 335.878L33.6329 334.891L32.0274 334.069L31.3688 335.138L29.4751 337.358H28.1578L27.9108 336.453L29.5575 335.179L30.4631 334.809L29.8868 333.987L28.9811 334.11L28.7341 333.329L29.187 332.219L31.41 331.561L31.7804 330.574L30.3396 329.999L31.1218 329.259L30.6278 328.354L31.9451 326.751L33.9623 326.874L34.3328 325.888L32.3979 324.778L31.7804 323.709L31.3688 325.189L30.3396 326.463L29.5163 326.134L28.94 324.778L27.4168 325.148L26.47 324.243L27.1698 323.051L26.6758 321.777L27.8696 321.119L26.3876 319.598V315.034L26.964 313.39L27.952 313.883L28.3636 314.582L28.5283 313.102V311.951L29.187 311.499L29.8456 312.65L30.3808 314.5L30.7925 316.638L31.163 317.912L32.2744 317.583L31.9451 316.309L31.2453 314.007L30.7101 312.691L31.3276 312.157L33.0566 312.773L35.2384 312.938L35.4443 312.074L34.6209 311.499L32.3156 311.417L31.2453 311.376L30.2573 310.266L31.9039 308.21L33.0978 306.771L32.3979 305.003L31.6981 303.852L29.187 303.729L28.0343 302.824L27.1698 303.153L27.5815 304.633L25.8937 304.428L26.1818 302.578L27.7873 301.344L29.5575 299.864L29.5163 298.878L29.0635 298.261L31.2041 297.686L31.163 295.178L32.4803 296.617L33.0566 296.534L32.8096 294.726L32.5626 293.903L33.4271 293.369L32.6449 292.259L31.7393 290.738L32.8919 289.833L31.8216 289.217L31.9039 288.353L32.6038 289.011L33.0566 288.353L32.6861 287.408H31.7393V285.846L33.5094 286.544L34.7033 287.696L35.1149 289.792L34.1681 291.108L33.7976 292.177L34.3328 292.917L34.2504 295.383L33.8388 296.658L34.1681 297.768L35.3208 298.261L35.7736 296.699L36.3499 294.931L36.6792 294.109L36.1852 292.876L37.2144 291.848L37.0497 290.738L36.3087 289.957L37.4614 288.764L38.2436 287.819L37.9554 286.914L37.2144 285.969L38.9434 284.283L38.6964 283.214L37.9554 282.187L38.8611 279.967L39.2727 278.692L38.9022 276.637L40.0961 274.992L40.4666 273.43L39.2727 272.731L39.8491 270.922L38.5317 269.812L37.7496 270.388L36.5969 271.374L35.5678 271.909L35.5266 272.978L36.1441 274.787L35.0738 276.308L34.9503 278.199L35.2796 279.227L35.0738 280.213L34.1681 281.693L31.7393 280.46L32.8919 277.541L33.0154 274.047L33.6329 271.95L35.1149 271.251L34.8268 270.059L34.1269 267.14L34.1681 265.167L34.7033 262.371L35.1149 261.343L36.2676 259.699L37.2144 257.479L36.8851 254.108L35.8148 251.723L35.9382 248.023L35.2796 246.708L35.8148 244.406L37.3791 243.871L37.7084 241.404L39.1081 238.568L40.0137 235.731L40.7547 233.922L42.2779 230.921L42.8542 226.687L44.542 224.138V220.684L45.4889 218.506L45.4065 214.148L44.9125 213.038L44.3774 209.584L44.5832 205.186L46.0652 203.747V200.622L45.3654 199.348L45.53 197.621L46.7238 193.962L47.9588 190.303L48.5352 188.207L48.9468 182.204L49.976 179.738L49.6467 177.764L49.3173 176.038L49.9348 174.023V171.269L49.2762 170.159L49.3173 168.473L51.0051 166.623L50.964 163.334L51.4168 161.649L51.8696 157.373L51.2933 154.167L51.4991 150.138L50.8405 148.247L50.6758 144.547L49.3997 143.642L45.8594 140.806L45.2007 139.038L42.0309 137.517L38.3259 135.173L33.5506 133.282L32.9331 132.008L30.7513 131.432L28.446 129.911L26.0995 127.116L24.4117 125.964L23.012 122.84L23.3413 120.579L22.0652 118.729L20.1304 115.029L18.1955 111.493L16.2196 108.657L14.7376 105.409L12.9262 100.722L11.1561 97.1867L9.0566 94.5556L7.45111 91.5956L6.75129 89.8278L4.61063 87.9778L1.97599 86.9911L0.90566 85.6756L1.77015 84.1956L0.535163 81.9756L0 79.6322L0.864494 77.0011L3.66381 74.3289L5.76329 72.8078L6.33962 70.9167L6.05146 69.6422L4.03431 69.5189L2.05832 68.5322L1.97599 66.5178L2.55232 63.1878L3.74614 59.3644L5.72213 56.7333L5.92796 54.3489L7.16295 53.28L9.1801 52.6222L10.8268 51.8L10.6209 49.9911L12.2264 49.4156L11.8971 47.1544L13.2967 45.7156L14.6141 46.2089L16.0137 45.5511L17.2075 42.7144L18.4014 40.9056L17.8662 38.3978L18.1544 36.0544L17.4134 32.0667L18.2367 30.3811L17.6604 29.2711L17.9074 27.7089L17.578 26.1056L15.3551 23.6389Z" fill="#EEEEEE"/>
<path d="M50.1405 351.788L50.4698 349.28L51.499 348.951L50.7992 347.964L53.3515 347.636L54.8335 345.457L55.5745 346.484L57.8798 345.95L59.7734 349.033L58.1268 350.02L59.1559 351.377L60.5144 351.788L62.0376 354.748L63.8489 356.639L66.8952 359.064L68.5007 360.709L71.0118 361.983L72.535 362.394L74.1817 361.86V363.011L72.288 364.573L70.806 363.998L67.5539 365.108L65.7426 366.053L64.3841 367.533L63.9312 366.506H61.5024L60.7614 364.943L58.6208 365.313L59.3618 366.793L58.9501 367.533L60.5144 368.109L60.8438 370L59.2383 368.397L57.7974 368.643L56.6448 367.04L55.6568 367.246L54.6276 368.191L52.7751 366.958L52.5693 365.478L53.6396 363.998L51.8283 363.546L50.1405 363.833L49.1113 365.683L47.8352 364.82L48.9878 363.874L48.1645 362.806L47.3823 361.737L46.0239 361.326L43.8832 361.613L42.854 360.914V360.38L44.2125 360.914L45.3652 360.257L46.0239 359.517L45.9004 358.612L44.7477 358.407L43.4715 359.023L42.854 358.283L41.3721 356.886L40.1782 357.173L39.0256 357.091L38.3257 355.981L37.8729 354.912L36.6379 353.926L35.4029 353.514L35.1148 352.404V351.089L30.71 348.663V347.841L32.9741 348.828L36.0204 350.554L37.7082 352.117L39.2726 353.391L40.6722 354.049L41.3309 355.036L42.0719 356.351L43.7597 356.392L45.6534 356.886L46.9707 357.749L47.3 358.941L46.559 360.051L47.7528 360.339L48.8643 359.763L49.1525 359.106L48.288 358.571L48.1645 356.187L49.1113 354.789L49.9347 354.09L50.0582 355.734L50.1817 357.42L50.511 358.407L50.017 359.229L50.3875 359.763L52.0753 359.393L52.4458 360.75L53.6396 360.421H55.451L56.1096 360.873L56.6036 360.216L56.0273 359.393L54.1336 358.612L52.4458 357.584L51.5402 355.488L52.4458 354.501L54.3395 353.72L55.0805 352.774L54.2571 351.87L52.8986 351.623L51.1285 352.404L50.1405 351.788Z" fill="#EEEEEE"/>
<path d="M27.4171 327.203V329.3L26.8408 331.561L27.7465 331.972L28.5698 329.382L29.4755 328.313L27.7053 326.833L27.4171 327.203Z" fill="#EEEEEE"/>
<path d="M28.4463 340.77L29.4754 339.948L30.3811 340.359L30.9574 341.551L30.4223 342.579L30.2988 343.771L29.0226 342.373L28.4463 340.77Z" fill="#EEEEEE"/>
<path d="M94.1475 341.88L95.7529 342.908L97.5643 341.346L99.2109 340.811L100.94 338.139L101.599 337.111L100.034 337.44L98.8816 337.111L97.8524 337.933L96.8644 337.111H95.8764V337.728L96.8644 338.016L97.8524 338.961L97.0291 339.208H95.9588L96.3293 340.194L96.5763 340.811L94.1475 341.88Z" fill="#EEEEEE"/>
<path d="M100.322 341.839L100.61 342.908H102.792L104.068 341.222L103.574 339.989H104.809L105.962 340.359L107.074 339.496L107.321 337.892L108.02 337.481L107.279 336.659L106.044 337.111L104.809 336.33L102.792 338.18L103.327 338.961L102.339 339.619L100.94 340.318L100.322 341.839Z" fill="#EEEEEE"/>
<g clip-path="url(#clip1_316_199)">
</g>
</g>
<defs>
<clipPath id="clip0_316_199">
<rect width="216" height="370" fill="white"/>
</clipPath>
<clipPath id="clip1_316_199">
<rect width="554" height="557" fill="white" transform="translate(20 319)"/>
</clipPath>
</defs>
</svg>
