<?xml version="1.0" encoding="UTF-8"?>
<svg id="Layer_1" data-name="Layer 1" xmlns="http://www.w3.org/2000/svg" xmlns:xlink="http://www.w3.org/1999/xlink" version="1.1" viewBox="0 0 216 370">
  <defs>
    <style>
      .cls-1 {
        clip-path: url(#clippath);
      }

      .cls-2 {
        fill: none;
      }

      .cls-2, .cls-3 {
        stroke-width: 0px;
      }

      .cls-3 {
        fill: #2a2a2a;
      }
    </style>
    <clipPath id="clippath">
      <rect class="cls-2" width="216" height="370"/>
    </clipPath>
  </defs>
  <g class="cls-1">
    <g>
      <path class="cls-3" d="M15.4,23.6l3.1-3.9-.4-1.9,1.2,1.4.6,1.5h1l-.3-2.5,2.1-2,1.5-1.9,2.1-1.2v-2.2l.6-2.9,2.7-1.6h2.2l1.1-.5v-.7h2.2l2.8-.4,2.3-1.5,1.9-1.3V.4l2.3-.4,1.4.5.8,1.3-1.8,1.3-2,.3.3,1.5.7,2.5v1.6l-1.2,1.7-.6,1.7.9,1.8,1.3,1.3h1.9l.9-1.2v-2.5l-1.8-2.9v-1.5l1.8-1.4,1.6-.5,2.2-.7,1.2-.7v-.9l-1.2-.6v-1.2l1.2-.2.9,1.3.9,1.4.9.5h2.2c0,0,1.4.8,1.4.8l1,1.2.9,2,.9.7,2.4-.3,3-.4,3.3.2,1.2,1.2,1.9.9,2.2.5,2.6-.8,3.5-1.6,2.8-.6,2.6-.6,1.2.2v.5l-2,.5-.4.5,1,1.1,1.4.6,1.4.7h2.4l1.2,1.2,1.5.8.4,2.2.4,1.9h3l1.7,1.1,1.8,1.3,1.3,1.2,1.2.5,1.1,1.4.4,1.6,2.4,1.5,1.3,1.9,1.8,1.4,2.2.6,1.9.8,1.9-.5h3.1l2-.8,3,.9,3.1,1.2,3.2.9,2.4,1.5,2.6,1.9.9,1.5,1.3.5,1.2,1.7v2.2l.6,1.7.5,2,1,2.5,1.1,1.2h1.3l.9,1.9v2.5l-.7,1.6-1.2.9v-2l-.8.8-1.2,1.6-2.1.9-1.2,1.5-1.2,1.9.2.9,1.2-1.3h1.3l.4,1.3.7-1.4,1-.8,1-1.6,1.8-1.6,2.1-.4-.9,1.1,1.4,1,.9-.9,1.9,1.2,2.2.6v1.6l-.7,2.1-1.4,1.4-1.2.6-.4,1.1,1.9-.3,1.7-1.5,1.5-2.3,1.1-1.2,1.6-.2.6.8,1.1-.7.9.7,2,.7,2.1.4,1.7.5,1.2,1.2,2.1.5,1.4.7.5,1.7,1.9,1.5-.7,1,.9.6,1.5-.2,2.6-.9,1.2-.2,1.9,1.4,2.3.5,3.3.6,1.3.3,1.6-.5h4.4l1.5,1.2,2.1,1.2,2.6,1.6,2.4,2.1,2.1,2.2,3.2,1.7,3.8.3,2.6-.3.7,1.7,1.1,2.3.3,3.1,1.6,1,.2,2.4-1.2,2.3-.5,2.9-1.4,3.2-1.5,2-2.1,2.8-3.5,3.1-1.6,1.8-1,2.1-1.8,3.1-1.3,2.1-1,1.2-1.2-1.4-.9.5.4,1.3-1,1.3v2.1l-.5,3.2v2.9l.2,2,.4,2.2-.6,2.3-.8,2.8v3.7c-.1,0-.9,1.3-.9,1.3l-1.3,1.6-.2,2.7-.3,2.8-.5,1.7-1.3,2-.7,1.5-2.2,2.1-1,1.9-.4,1.5.5,1.9-.7,1.1-1.9.5-1.7,1.5-.5,1.5h-2.2l-4.4.2-3.2.4-2.1.5-1.4,1.4-1.9,1.3-1.4,1-.9-.5-1.2.7-3.1,1.6-3,2.5-2.5,1.9-1.3,2.1h-2.1v1.8c-.1,0,.2,1.6.2,1.6l-.5,1.6.2,2.6.5,1.4.2,1.1-.5,1.5-.3,3-.3,1.7-1,.8-1.9,1.2-1.6,2.3-.9,2.1-.9,2.8-1.2,2.5-1.8,2.7-1.9,2.1-2.1,2-2.3,1.4-1,1.7-.5,2.2-.9.7-1.1,1.2-1.2,2.2-1.3,1.7-1.1,2.1-1.9,1.6-2.1.9-1.4.8-1.1-.3-2-.6-1.9.2-1.5.7-2-1.2-2-1.2-3.6-.6-1.2-.9-1.3.3v1.8c0,0,1.2,1,1.2,1l1.6,1.2,1.7,1,1.4,1.7-.6,1.2-.6,1.3.5,1.5,1.1,1.4,1.6.8v2.1l-1.1,2.4-2,2.4-.9,1.9-1.8,1.9-3.3,1.9-4.1.6-4,1-3.6.5-3.7-.5-1.3-.7-.5.5.5.7-.4,1.7,1.1,1.5-1.1,2.5-.5,2.5.5,2.7-.4,1.1-2.5.7-3.7.3-1.8-.8-2.4-1.5-1.7.2-.7,2.5.5,1.9.2,4.6,2,.5,1,.9,1.4-.4.8-1.4.9-.2.5,1.9v1.5l-.7,1-1.2-.4-.7-1.1-1.3-.2-.7-.5-1.2.6-.3,1.1.8.9,1.5.7-1.2.7-1.4.9-1.4,2.6-.2,1.8.2,2.3-1.6,2.3-.5,1.9-1.9.3-2.1,1.2-2.2.7-1.1,1.4-.9,2.1-.6,2,.5,2.3,1.6,1.7,1.6,1.6,1.2.9,3,.5,1.2,1.8-.6,2.5-1,2.3-2.6,2.4-2.8,2.3-1.6,1.9-.7,4.9-1.6,2.3-2.7,1.3-2.3,2.8-.8,3.1,1,.7.5,2.6.6,2.2,1.2,2.2.9,1.9-.6.3-1.6-1-1.8-.2-1.2,1.8h-1.5l-1.9,1.2-2.3,1.3-.8,2.3v3.4l-.5,2.1-.8.5h-1.5l-1.6-1-2.5-1.5-2.9-1.8.9-1-1.4-.5-.9-1.6.5-1.4-1.6-.4-.2-.9h-.6l-.3.7h-.6l.2-.9.3-1-.5-.3-1.3.6.9-1.7v-.7l-1.6-2,.2-.5,1.5.8-.6-1.2.7-.8.6-1-.5-1.5.3-1-1.6-.8-.7,1.1-1.9,2.2h-1.3l-.2-.9,1.6-1.3.9-.4-.6-.8h-.9c0,.1-.2-.7-.2-.7l.5-1.1,2.2-.7.4-1-1.4-.6.8-.7-.5-.9,1.3-1.6h2c0,.1.4-.9.4-.9l-1.9-1.1-.6-1.1-.4,1.5-1,1.3-.8-.3-.6-1.4-1.5.4-.9-.9.7-1.2-.5-1.3,1.2-.7-1.5-1.5v-4.6l.6-1.6,1,.5.4.7.2-1.5v-1.2l.7-.5.7,1.2.5,1.9.4,2.1.4,1.3,1.1-.3-.3-1.3-.7-2.3-.5-1.3.6-.5,1.7.6,2.2.2.2-.9-.8-.6h-3.4c0-.1-1-1.2-1-1.2l1.6-2.1,1.2-1.4-.7-1.8-.7-1.2h-2.5c0-.1-1.2-1-1.2-1l-.9.3.4,1.5-1.7-.2.3-1.9,1.6-1.2,1.8-1.5v-1l-.5-.6,2.1-.6v-2.5l1.3,1.4h.6l-.2-1.9-.2-.8.9-.5-.8-1.1-.9-1.5,1.2-.9-1.1-.6v-.9l.8.7.5-.7-.4-.9h-.9v-1.6l1.8.7,1.2,1.2.4,2.1-.9,1.3-.4,1.1.5.7v2.5l-.5,1.3.3,1.1,1.2.5.5-1.6.6-1.8.3-.8-.5-1.2,1-1-.2-1.1-.7-.8,1.2-1.2.8-.9-.3-.9-.7-.9,1.7-1.7-.2-1.1-.7-1,.9-2.2.4-1.3-.4-2.1,1.2-1.6.4-1.6-1.2-.7.6-1.8-1.3-1.1-.8.6-1.2,1-1,.5v1.1l.6,1.8-1.1,1.5v1.9c0,0,.2,1,.2,1l-.2,1-.9,1.5-2.4-1.2,1.2-2.9v-3.5c0,0,.7-2.1.7-2.1l1.5-.7-.3-1.2-.7-2.9v-2l.6-2.8.4-1,1.2-1.6.9-2.2-.3-3.4-1.1-2.4v-3.7c0,0-.5-1.3-.5-1.3l.5-2.3,1.6-.5.3-2.5,1.4-2.8.9-2.8.7-1.8,1.5-3,.6-4.2,1.7-2.5v-3.5l.9-2.2v-4.4l-.6-1.1-.5-3.5.2-4.4,1.5-1.4v-3.1l-.7-1.3.2-1.7,1.2-3.7,1.2-3.7.6-2.1.4-6,1-2.5-.3-2-.3-1.7.6-2v-2.8l-.7-1.1v-1.7l1.7-1.9v-3.3l.4-1.7.5-4.3-.6-3.2.2-4-.7-1.9-.2-3.7-1.3-.9-3.5-2.8-.7-1.8-3.2-1.5-3.7-2.3-4.8-1.9-.6-1.3-2.2-.6-2.3-1.5-2.3-2.8-1.7-1.2-1.4-3.1.3-2.3-1.3-1.9-1.9-3.7-1.9-3.5-2-2.8-1.5-3.2-1.8-4.7-1.8-3.5-2.1-2.6-1.6-3-.7-1.8-2.1-1.8-2.6-1-1.1-1.3.9-1.5-1.2-2.2-.5-2.3.9-2.6,2.8-2.7,2.1-1.5.6-1.9-.3-1.3h-2c0,0-2-1.1-2-1.1v-2l.5-3.3,1.2-3.8,2-2.6.2-2.4,1.2-1.1,2-.7,1.6-.8-.2-1.8,1.6-.6-.3-2.3,1.4-1.4,1.3.5,1.4-.7,1.2-2.8,1.2-1.8-.5-2.5.3-2.3-.7-4,.8-1.7-.6-1.1.2-1.6-.3-1.6-2.2-2.5-1.5-.6Z"/>
      <path class="cls-3" d="M50.1,351.8l.3-2.5,1-.3-.7-1,2.6-.3,1.5-2.2.7,1,2.3-.5,1.9,3.1-1.6,1,1,1.4,1.4.4,1.5,3,1.8,1.9,3,2.4,1.6,1.6,2.5,1.3,1.5.4,1.6-.5v1.2l-1.9,1.6-1.5-.6-3.3,1.1-1.8.9-1.4,1.5-.5-1h-2.4l-.7-1.6-2.1.4.7,1.5-.4.7,1.6.6.3,1.9-1.6-1.6-1.4.2-1.2-1.6-1,.2-1,.9-1.9-1.2-.2-1.5,1.1-1.5-1.8-.5-1.7.3-1,1.9-1.3-.9,1.2-.9-.8-1.1-.8-1.1-1.4-.4-2.1.3-1-.7v-.5l1.4.5,1.2-.7.7-.7v-.9c0,0-1.3-.2-1.3-.2l-1.3.6-.6-.7-1.5-1.4-1.2.3h-1.2l-.7-1.2-.5-1.1-1.2-1-1.2-.4-.3-1.1v-1.3l-4.4-2.4v-.8l2.3,1,3,1.7,1.7,1.6,1.6,1.3,1.4.7.7,1,.7,1.3h1.7l1.9.5,1.3.9.3,1.2-.7,1.1,1.2.3,1.1-.6.3-.7-.9-.5v-2.4c0,0,.8-1.4.8-1.4l.8-.7v1.6c0,0,.2,1.7.2,1.7l.3,1-.5.8.4.5,1.7-.4.4,1.4,1.2-.3h1.8l.7.5.5-.7-.6-.8-1.9-.8-1.7-1-.9-2.1.9-1,1.9-.8.7-.9-.8-.9-1.4-.2-1.8.8-1-.6.2-.3Z"/>
      <path class="cls-3" d="M27.4,327.2v2.1l-.6,2.3.9.4.8-2.6.9-1.1-1.8-1.5-.3.4h.1Z"/>
      <path class="cls-3" d="M28.4,340.8l1-.8.9.4.6,1.2-.5,1v1.2c-.1,0-1.4-1.4-1.4-1.4l-.6-1.6h0Z"/>
      <path class="cls-3" d="M94.1,341.9l1.6,1,1.8-1.6,1.6-.5,1.7-2.7.7-1-1.6.3-1.2-.3-1,.8-1-.8h-1v.6l1,.3,1,.9-.8.2h-1.1l.4,1,.2.6-2.4,1.1h.1Z"/>
      <path class="cls-3" d="M100.3,341.8l.3,1.1h2.2l1.3-1.7-.5-1.2h1.2l1.2.4,1.1-.9.2-1.6.7-.4-.7-.8-1.2.5-1.2-.8-2,1.9.5.8-1,.7-1.4.7-.6,1.5v-.2Z"/>
    </g>
  </g>
</svg>