<svg width="218" height="218" viewBox="0 0 218 218" fill="none" xmlns="http://www.w3.org/2000/svg">
<path d="M30.3824 196.208L12.8892 0H205.111L187.599 196.177L108.882 218L30.3824 196.208Z" fill="#362955"/>
<path d="M172.607 183.685L187.572 16.0426H109V201.32L172.607 183.685Z" fill="#47386A"/>
<path d="M52.9927 88.8137L55.1493 112.878H109V88.8137H52.9927ZM50.8464 64.1716H109V40.1073H48.6587L50.8464 64.1716ZM109 151.311L108.894 151.339L82.094 144.102L80.3811 124.91H56.224L59.5957 162.694L108.889 176.379L109 176.348V151.311Z" fill="#261D3A"/>
<path d="M108.917 88.8137V112.878H138.549L135.756 144.087L108.917 151.331V176.367L158.25 162.694L158.612 158.628L164.266 95.2754L164.854 88.8137L169.198 40.1073H108.917V64.1716H142.826L140.636 88.8137H108.917Z" fill="#261D3A"/>
</svg>
