<svg width="153" height="153" viewBox="0 0 153 153" fill="none" xmlns="http://www.w3.org/2000/svg">
<g clip-path="url(#clip0_46_11)">
<path d="M153 0H0V153H153V0Z" fill="#C2D0FF"/>
<path d="M102.777 119.532C105.859 124.564 109.869 128.263 116.96 128.263C122.917 128.263 126.723 125.285 126.723 121.171C126.723 116.241 122.813 114.495 116.256 111.627L112.661 110.085C102.287 105.665 95.3943 100.128 95.3943 88.4218C95.3943 77.639 103.61 69.4304 116.45 69.4304C125.591 69.4304 132.163 72.6118 136.899 80.9418L125.703 88.1304C123.238 83.7104 120.579 81.9691 116.45 81.9691C112.239 81.9691 109.57 84.6406 109.57 88.1304C109.57 92.4436 112.241 94.1897 118.41 96.8611L122.004 98.4008C134.22 103.639 141.117 108.98 141.117 120.987C141.117 133.931 130.949 141.022 117.293 141.022C103.94 141.022 95.3142 134.659 91.0933 126.32L102.777 119.532ZM51.9884 120.778C54.247 124.785 56.3016 128.173 61.2413 128.173C65.9649 128.173 68.9447 126.325 68.9447 119.138V70.2513H83.3219V119.333C83.3219 134.22 74.5936 140.996 61.8533 140.996C50.3419 140.996 43.6754 135.038 40.2852 127.863L51.9884 120.778Z" fill="#E8EDFF"/>
</g>
<defs>
<clipPath id="clip0_46_11">
<rect width="153" height="153" fill="white"/>
</clipPath>
</defs>
</svg>
