<svg width="222" height="207" viewBox="0 0 222 207" fill="none" xmlns="http://www.w3.org/2000/svg">
<path d="M111 79.7C97.9578 79.7 87.3 90.3577 87.3 103.4C87.3 116.442 97.9578 127.1 111 127.1C124.042 127.1 134.7 116.442 134.7 103.4C134.7 90.3577 124.042 79.7 111 79.7Z" fill="#C2D0FF"/>
<path d="M0.399994 103.4C0.399994 110.711 4.07489 117.461 9.98924 123.157C15.9039 128.855 24.123 133.713 34.0982 137.778C54.0491 145.905 81.1145 150.8 110.999 150.8C140.884 150.8 167.951 145.905 187.9 137.778C197.876 133.713 206.095 128.855 212.009 123.157C217.924 117.46 221.598 110.71 221.598 103.4C221.598 96.0891 217.923 89.3317 212.009 83.6342C206.094 77.9367 197.875 73.0784 187.9 69.0138C167.951 60.8863 140.884 56 110.999 56C81.1145 56 54.0469 60.8881 34.0982 69.0138C24.1226 73.0784 15.9052 77.9367 9.98924 83.6342C4.07462 89.3317 0.399994 96.0891 0.399994 103.4ZM8.30722 103.4C8.30722 98.7128 10.6031 94.0329 15.4827 89.3353C20.3604 84.6377 27.7593 80.141 37.0844 76.3445C55.7325 68.7479 81.9858 63.9072 111.001 63.9072C140.015 63.9072 166.27 68.7461 184.918 76.3445C194.243 80.1429 201.642 84.6377 206.52 89.3353C211.398 94.0329 213.695 98.7128 213.695 103.4C213.695 108.087 211.4 112.758 206.52 117.456C201.642 122.154 194.243 126.658 184.918 130.456C166.27 138.053 140.017 142.884 111.001 142.884C81.988 142.884 55.733 138.053 37.0844 130.456C27.7597 126.658 20.3604 122.154 15.4827 117.456C10.605 112.759 8.30722 108.085 8.30722 103.4Z" fill="#C2D0FF"/>
<path d="M168.652 203.166C175.019 199.493 178.932 192.777 180.759 184.615C182.586 176.452 182.489 166.635 180.798 155.624C177.405 133.605 167.516 106.757 151.933 79.7934C136.35 52.8309 118.02 30.8495 100.628 16.9049C91.9312 9.93259 83.4705 4.94024 75.4807 2.43797C67.4908 -0.0642975 59.7123 -0.0360826 53.3449 3.63706C46.9775 7.3102 43.0713 14.0217 41.2443 22.1845C39.4192 30.3472 39.5145 40.164 41.2055 51.1747C44.5983 73.1941 54.4875 100.042 70.0703 127.006C85.6536 153.968 103.984 175.95 121.375 189.89C130.072 196.862 138.533 201.854 146.523 204.357C154.513 206.859 162.284 206.834 168.652 203.163V203.166ZM164.691 196.313C160.703 198.614 155.497 198.884 148.879 196.812C142.259 194.74 134.49 190.282 126.325 183.735C109.993 170.641 92.0854 149.297 76.9165 123.058C61.7494 96.8152 52.2026 70.6518 49.016 49.9763C47.4236 39.6395 47.443 30.6881 48.956 23.9257C50.469 17.1633 53.3081 12.7953 57.2953 10.4957C61.284 8.19626 66.4895 7.92473 73.1074 9.99669C79.7254 12.0687 87.5021 16.523 95.6685 23.0705C111.999 36.1638 129.901 57.5114 145.068 83.7561C160.235 109.999 169.789 136.158 172.976 156.833C174.568 167.172 174.542 176.126 173.027 182.888C171.514 189.65 168.676 194.018 164.688 196.318L164.691 196.313Z" fill="#C2D0FF"/>
<path d="M53.3481 203.166C46.9807 199.493 43.0677 192.777 41.2407 184.613C39.4139 176.45 39.5074 166.639 41.202 155.63C44.5947 133.609 54.4875 106.754 70.0704 79.7899C85.6537 52.8274 103.984 30.846 121.375 16.9013C130.072 9.92903 138.53 4.9439 146.519 2.44163C154.509 -0.0606346 162.288 -0.0324216 168.657 3.64072C175.024 7.31386 178.931 14.0254 180.757 22.1899C182.583 30.3527 182.491 40.164 180.796 51.173C177.404 73.1923 167.514 100.04 151.931 127.004C136.348 153.966 118.014 175.952 100.622 189.897C91.9249 196.869 83.466 201.856 75.478 204.357C67.4882 206.859 59.7168 206.834 53.3476 203.163L53.3481 203.166ZM57.3086 196.313C61.2974 198.613 66.4993 198.891 73.1177 196.819C79.7374 194.747 87.5105 190.282 95.6769 183.735C112.01 170.642 129.917 149.298 145.086 123.054C160.253 96.811 169.798 70.6521 172.983 49.9767C174.575 39.638 174.559 30.6799 173.046 23.917C171.533 17.1546 168.696 12.7866 164.707 10.487C160.718 8.18755 155.513 7.91602 148.895 9.98798C142.275 12.06 134.495 16.5215 126.331 23.069C109.998 36.1623 92.1014 57.5026 76.9352 83.7455C61.7681 109.988 52.2123 136.152 49.0279 156.827C47.4356 167.166 47.4585 176.126 48.9732 182.89C50.4862 189.653 53.3288 194.014 57.3156 196.315L57.3086 196.313Z" fill="#C2D0FF"/>
</svg>
