<svg width="152" height="152" viewBox="0 0 152 152" fill="none" xmlns="http://www.w3.org/2000/svg">
<g clip-path="url(#clip0_46_103)">
<path d="M0 76V0H152V152H0" fill="#47386A"/>
<path d="M33.326 76.2661V82.4601H53.086V138.7H67.1081V82.4601H86.8681V76.3801C86.8681 72.9601 86.868 70.1861 86.716 70.1101C86.716 69.9961 74.6701 69.9581 60.0401 69.9581L33.4401 70.0721V76.3041L33.326 76.2661ZM122.132 69.9201C126.008 70.8321 128.972 72.5801 131.632 75.3541C133.038 76.8741 135.128 79.5341 135.28 80.2181C135.28 80.4461 128.706 84.8921 124.716 87.3621C124.564 87.4761 123.956 86.8301 123.348 85.8421C121.372 83.0301 119.358 81.8141 116.204 81.5861C111.644 81.2821 108.604 83.6761 108.604 87.6661C108.604 88.8821 108.832 89.5661 109.288 90.5541C110.314 92.6441 112.214 93.8981 118.104 96.4821C128.972 101.156 133.684 104.234 136.534 108.642C139.764 113.582 140.486 121.334 138.32 127.148C135.888 133.494 129.96 137.788 121.486 139.194C118.826 139.65 112.746 139.574 109.896 139.08C103.816 137.94 98.0021 134.9 94.4301 130.986C93.0241 129.466 90.3261 125.4 90.4781 125.134L91.922 124.222L97.622 120.916L101.916 118.408L102.904 119.738C104.158 121.714 106.97 124.374 108.604 125.286C113.544 127.832 120.156 127.49 123.424 124.526C124.83 123.234 125.438 121.866 125.438 119.966C125.438 118.218 125.172 117.42 124.298 116.09C123.082 114.418 120.65 113.05 113.81 110.01C105.944 106.666 102.6 104.538 99.484 101.27C97.698 99.2941 96.0641 96.2161 95.3041 93.6701C94.7341 91.4661 94.544 86.0701 95.076 83.9041C96.71 76.3041 102.448 70.9841 110.656 69.4641C113.316 68.9321 119.586 69.1601 122.208 69.8441L122.132 69.9201Z" fill="#261D3A"/>
</g>
<defs>
<clipPath id="clip0_46_103">
<rect width="152" height="152" fill="white"/>
</clipPath>
</defs>
</svg>
