<svg width="103" height="126" viewBox="0 0 103 126" fill="none" xmlns="http://www.w3.org/2000/svg">
<path d="M99.7227 42.9534C98.9888 43.5204 86.0316 50.7906 86.0316 66.9564C86.0316 85.6548 102.519 92.2698 103.013 92.4336C102.937 92.8368 100.393 101.493 94.3197 110.313C88.9039 118.075 83.2478 125.824 74.6434 125.824C66.0389 125.824 63.8246 120.847 53.8915 120.847C44.2115 120.847 40.7698 125.987 32.8993 125.987C25.0287 125.987 19.5371 118.805 13.223 109.985C5.90921 99.6282 0 83.538 0 68.2668C0 43.7724 15.9941 30.7818 31.7351 30.7818C40.0991 30.7818 47.0713 36.2502 52.3225 36.2502C57.3206 36.2502 65.1152 30.4542 74.6307 30.4542C78.237 30.4542 91.1942 30.7818 99.7227 42.9534ZM70.1134 20.0844C74.0486 15.435 76.8324 8.9838 76.8324 2.5326C76.8324 1.638 76.7565 0.7308 76.592 0C70.1893 0.2394 62.5719 4.2462 57.9786 9.5508C54.3724 13.6332 51.0065 20.0844 51.0065 26.6238C51.0065 27.6066 51.171 28.5894 51.2469 28.9044C51.6518 28.98 52.3098 29.0682 52.9678 29.0682C58.7125 29.0682 65.9377 25.2378 70.1134 20.0844Z" fill="#EAEAEA"/>
</svg>
