<svg width="156" height="132" viewBox="0 0 156 132" fill="none" xmlns="http://www.w3.org/2000/svg">
<path d="M53.301 59.1858C49.3182 59.1858 45.2523 59.64 41.6549 60.5182C45.2598 61.3889 49.3257 61.8355 53.301 61.8355C53.9585 61.8355 54.6235 61.8204 55.2886 61.7977V59.2237C54.6235 59.2009 53.966 59.1858 53.301 59.1858ZM155.017 64.2657C155.002 64.2051 154.979 64.1521 154.957 64.0991C154.911 63.978 154.858 63.872 154.79 63.766C154.76 63.7055 154.722 63.6601 154.684 63.6071C154.609 63.5086 154.526 63.4178 154.435 63.3345C154.39 63.2967 154.344 63.2512 154.299 63.2134C154.276 63.1982 154.261 63.1831 154.246 63.168C154.103 63.0695 153.959 62.9938 153.808 62.9408L153.778 62.9257L148.193 60.7832L127.916 53.0082L126.654 52.5237V50.7976C126.654 50.3736 126.601 49.9572 126.51 49.556C126.488 49.4727 126.472 49.3894 126.45 49.3062L122.671 50.7294C122.671 50.7294 122.679 50.7749 122.679 50.7976C122.679 53.258 116.073 56.7481 105.531 57.2023L80.6363 66.5974C81.3392 67.7406 82.435 68.7626 83.8256 69.6484C88.3223 72.5252 95.91 74.0318 103.203 74.0318C114.569 74.0318 126.654 70.3752 126.654 63.5919V56.7859L142.585 62.903H142.593L147.512 64.7881L78.422 90.8689L53.3085 100.347L8.50785 83.1695L29.8577 75.1144V82.4352C29.8577 89.2185 41.9345 92.8751 53.301 92.8751C53.9585 92.8751 54.6235 92.8599 55.2886 92.8372C66.0278 92.436 76.7518 88.8248 76.7518 82.4352V69.6333C76.7518 69.2093 76.6989 68.7929 76.6082 68.3917C76.5855 68.3084 76.5704 68.2251 76.5478 68.1419L72.7615 69.5727C72.7615 69.5727 72.769 69.6106 72.769 69.6333C72.769 72.0937 66.1713 75.5838 55.6287 76.038C55.5153 76.0456 55.402 76.0532 55.2886 76.0532C54.6386 76.0759 53.9811 76.091 53.301 76.091C41.4206 76.091 33.8329 72.2678 33.8329 69.6333C33.8329 69.4667 33.8632 69.3002 33.9236 69.126C34.4224 67.6498 37.0449 65.9085 41.277 64.6972L35.7299 62.5699C33.1905 63.7963 31.2785 65.3634 30.4018 67.2334C30.0466 67.9829 29.8577 68.7854 29.8577 69.6333V70.8597L28.1119 71.5184L2.2427 81.2844H2.21247V81.2996C2.06132 81.3526 1.91773 81.4207 1.78926 81.5116C1.76658 81.5267 1.75147 81.5494 1.73635 81.5646C1.68345 81.5949 1.64566 81.6403 1.60032 81.6857C1.50207 81.769 1.41894 81.8522 1.34337 81.9507C1.30558 82.0037 1.26779 82.0491 1.23756 82.1097C1.16954 82.2156 1.11664 82.3216 1.0713 82.4352C1.05618 82.4958 1.02595 82.5487 1.01084 82.6017C0.957934 82.7759 0.927704 82.95 0.927704 83.1241V110.446C0.927704 111.272 1.43406 112.014 2.20492 112.309L52.5906 131.629C52.5906 131.629 52.6284 131.629 52.6435 131.637C52.8551 131.712 53.0818 131.758 53.301 131.758C53.5201 131.758 53.7393 131.712 53.9509 131.644C53.966 131.637 53.9812 131.637 54.0038 131.629L153.808 93.9577C154.586 93.6624 155.1 92.9205 155.1 92.0953V64.8183V64.7881C155.093 64.6064 155.062 64.4322 155.017 64.2657ZM122.679 63.5919C122.679 66.2265 115.091 70.0572 103.211 70.0572V61.2374C104.261 61.2374 105.327 61.2072 106.377 61.139C112.688 60.7681 118.832 59.2767 122.679 56.7784V63.5919ZM53.3085 80.0732C53.966 80.0732 54.6311 80.058 55.2886 80.0277C55.6891 80.0202 56.0821 79.9974 56.4751 79.9747C62.778 79.6038 68.9298 78.1199 72.769 75.6141V82.4352C72.769 84.9108 66.0278 88.4614 55.2886 88.8551C54.6462 88.8778 53.9812 88.8929 53.3085 88.8929V80.0732ZM151.125 90.7174L55.2886 126.89V103.852L76.4873 95.8503L151.125 67.68V90.7174Z" fill="black"/>
<path d="M155.017 24.8985C155.002 24.8379 154.979 24.7849 154.957 24.7319C154.911 24.6108 154.858 24.5048 154.79 24.3988C154.76 24.3383 154.722 24.2929 154.684 24.2399C154.609 24.1414 154.526 24.0506 154.435 23.9673C154.39 23.9295 154.344 23.884 154.299 23.8462C154.276 23.831 154.261 23.8159 154.246 23.8008C154.103 23.7023 153.959 23.6266 153.808 23.5736L126.654 13.1565V11.4304C126.654 11.0064 126.601 10.59 126.51 10.1888C126.329 9.39387 125.966 8.64438 125.46 7.94031C125.203 7.59206 124.916 7.25896 124.583 6.93342C120.653 3.04212 111.735 0.98291 103.211 0.98291H103.203C93.2649 0.98291 82.7676 3.78404 80.3038 9.03048C79.9486 9.77997 79.7597 10.5749 79.7597 11.4228V12.6568L59.7475 20.2123C57.6314 19.9549 55.4549 19.8186 53.301 19.8186C48.3282 19.8186 43.2193 20.5227 39.0476 21.8778C34.8759 23.233 31.6337 25.2467 30.4018 27.8662C30.0466 28.6157 29.8577 29.4182 29.8577 30.2661V31.4925L2.22003 41.9248H2.21247C2.06132 41.9854 1.91773 42.0535 1.78926 42.1444C1.76658 42.1595 1.75147 42.1822 1.73635 42.1974C1.68345 42.2277 1.64566 42.2731 1.60032 42.3185C1.50207 42.4018 1.41894 42.4851 1.34337 42.5835C1.30558 42.6365 1.26779 42.6819 1.23756 42.7425C1.16954 42.8484 1.11664 42.9544 1.0713 43.068C1.05618 43.1286 1.02595 43.1816 1.01084 43.2345C0.957934 43.4087 0.927704 43.5828 0.927704 43.7569V71.0793C0.927704 71.9045 1.43406 72.6464 2.20492 72.9417L2.2427 72.9568L28.1119 82.8743L52.5906 92.2619C52.5906 92.2619 52.6284 92.2619 52.6435 92.2695C52.8551 92.3452 53.0818 92.3906 53.301 92.3906H53.3085C53.5277 92.3906 53.7393 92.3452 53.9509 92.277C53.966 92.2695 53.9812 92.2695 54.0038 92.2619L56.4751 91.3307L76.7518 83.6768L83.8256 81.0044L103.211 73.6912L106.377 72.495L127.916 64.3642L153.778 54.598H153.808C154.586 54.2952 155.1 53.5533 155.1 52.7281V25.4512V25.4209C155.093 25.2392 155.062 25.0651 155.017 24.8985ZM83.8256 10.9231C84.7023 8.32641 92.0632 4.96505 103.211 4.96505C112.869 4.96505 119.686 7.49364 121.9 9.84811C122.406 10.3932 122.679 10.9307 122.679 11.4304C122.679 14.0649 115.091 17.8881 103.211 17.8881C91.3302 17.8881 83.7349 14.0649 83.7349 11.4304C83.7349 11.2638 83.7651 11.0897 83.8256 10.9231ZM122.679 17.4112V24.2247C122.679 26.8593 115.091 30.69 103.211 30.69V21.8703C110.564 21.8703 118.189 20.3258 122.679 17.4112ZM33.9236 29.7588C34.8003 27.1697 42.1613 23.8008 53.301 23.8008C62.9594 23.8008 69.7763 26.3293 71.9982 28.6914C72.5045 29.2365 72.769 29.774 72.769 30.2661C72.769 32.9006 65.1889 36.7238 53.301 36.7238C41.4131 36.7238 33.8329 32.9006 33.8329 30.2661C33.8329 30.0995 33.8632 29.933 33.9236 29.7588ZM53.3085 49.5257V40.706C60.6544 40.706 68.2874 39.1691 72.769 36.2469V43.068C72.769 45.695 65.1889 49.5257 53.3085 49.5257ZM29.8577 35.7472V43.068C29.8577 47.4741 34.959 50.5629 41.6549 52.1906C45.2598 53.0612 49.3257 53.5079 53.301 53.5079C53.9585 53.5079 54.6235 53.4927 55.2886 53.47C66.0278 53.0688 76.7518 49.4576 76.7518 43.068V30.2661C76.7518 29.8421 76.6989 29.4257 76.6082 29.0245C76.4268 28.2296 76.0716 27.4801 75.5577 26.7836C75.3008 26.4278 75.0136 26.0947 74.6811 25.7691C72.9504 24.0506 70.2448 22.6955 67.0329 21.7113L79.7672 16.9039V24.2247C79.7672 31.008 91.8441 34.6646 103.203 34.6646C114.562 34.6646 126.654 31.008 126.654 24.2247V17.4187L147.512 25.4209L78.422 51.5017L53.3085 60.9801L41.277 56.3696L35.7299 54.2422L8.50785 43.8023L29.8577 35.7472ZM142.593 54.5753H142.585L126.45 60.6621L122.671 62.0854L105.531 68.5583L80.6363 77.9534L76.5478 79.4978L72.7615 80.9287L55.6287 87.394L55.2886 87.5227V64.4853L76.4873 56.4831L151.125 28.3128V51.3503L148.193 52.4556L142.593 54.5753Z" fill="black"/>
<path d="M147.512 25.4208L78.422 51.5015L53.3085 60.98L41.277 56.3695L35.7299 54.2421L8.50784 43.8022L29.8577 35.7471V43.0679C29.8577 47.474 34.959 50.5628 41.6549 52.1905C45.2598 53.0611 49.3257 53.5078 53.301 53.5078C53.9585 53.5078 54.6235 53.4926 55.2886 53.4699C66.0278 53.0687 76.7518 49.4575 76.7518 43.0679V30.266C76.7518 29.842 76.6989 29.4256 76.6082 29.0244C76.4268 28.2295 76.0716 27.48 75.5577 26.7835C75.3008 26.4276 75.0136 26.0945 74.6811 25.769C72.9504 24.0505 70.2448 22.6953 67.0329 21.7112L79.7672 16.9038V24.2246C79.7672 31.0079 91.8441 34.6645 103.203 34.6645C114.562 34.6645 126.654 31.0079 126.654 24.2246V17.4186L147.512 25.4208Z" fill="#F9F9F9"/>
<path d="M151.125 28.3127V51.3502L126.45 60.662L122.671 62.0853L105.531 68.5582L80.6363 77.9533L76.5477 79.4977L72.7614 80.9286L55.6287 87.3939C55.5153 87.4015 55.4019 87.409 55.2886 87.409V64.4852L76.4873 56.483L151.125 28.3127Z" fill="#F9F9F9"/>
</svg>
