<svg width="481" height="184" viewBox="0 0 481 184" fill="none" xmlns="http://www.w3.org/2000/svg">
<path fill-rule="evenodd" clip-rule="evenodd" d="M105.055 2.75829C107.271 5.22101 108.011 8.42589 109.244 11.3817C105.302 16.5536 98.8971 19.019 93.4786 22.2187C91.7555 22.7118 91.0159 23.9418 89.2902 24.6814C86.8275 23.6953 82.639 22.4652 82.639 18.7698C80.9159 16.0606 79.1902 13.5979 79.1902 10.6395C83.6252 5.46497 91.0133 6.69762 95.6948 1.77217C98.1576 1.77217 99.8833 -0.200066 102.346 1.27911C103.086 2.0187 103.825 2.75829 105.055 2.75829ZM87.811 34.0444C92.246 33.3048 97.6645 31.3326 101.113 35.2745C102.593 36.0141 102.099 37.4907 102.593 38.4768C102.346 39.2164 101.853 41.186 100.13 41.4326C98.4066 41.186 96.4344 42.9117 94.4622 43.6488C95.4483 44.1418 97.418 45.1279 97.911 46.6045C99.1411 48.5768 97.911 51.0395 97.911 52.7626C96.6784 56.7045 90.7668 56.2115 91.2599 61.3835C84.8552 63.5997 80.9159 70.0043 74.0182 70.7439C70.0763 74.1927 65.1509 76.902 61.946 81.3369C60.4694 69.2673 69.3367 57.6907 79.4367 52.2696C78.6971 49.5603 74.5113 48.3277 74.5113 45.1254C72.7856 43.1531 71.5555 40.1999 71.5555 37.7346C75.7439 34.5323 79.9324 30.0974 85.5974 31.8231C85.8414 32.8117 87.3205 32.8117 87.811 34.0444Z" fill="#EAEAEA"/>
<path fill-rule="evenodd" clip-rule="evenodd" d="M126.734 67.7931C126.734 67.3001 126.241 66.807 125.748 66.5605C124.518 66.807 123.532 65.8209 122.546 66.807C122.056 64.5908 118.111 66.314 117.374 64.0978C121.069 63.1117 124.762 65.3278 126.734 67.7931ZM121.56 68.5302L121.313 66.807L122.053 67.5466L121.56 68.5302ZM128.211 69.0232C127.965 70.7464 126.732 71.486 125.502 71.979L126.732 69.5163C126.732 69.7628 126.978 70.0093 126.978 70.0093C127.718 70.0093 127.965 69.0232 128.211 69.0232ZM123.532 69.2698C123.286 69.7628 122.546 70.2559 122.793 70.9955C123.532 70.5024 124.762 71.7325 124.762 72.4721C124.762 72.7186 124.516 72.9651 124.272 73.2117C124.272 72.4721 123.532 71.9816 122.793 72.2255L122.546 72.4721C122.546 73.9513 122.793 71.7325 122.299 71.7325C118.851 71.9816 121.313 75.4278 118.111 75.6744C118.111 74.6883 118.851 74.4443 119.59 73.9512C118.604 71.7325 117.374 74.4443 116.141 73.9512L117.371 72.7212L117.125 72.4746C117.371 72.4746 119.588 72.9677 119.834 71.2446C120.574 72.9677 121.804 70.998 122.543 70.505C122.546 69.7628 122.546 68.7767 123.532 69.2698ZM113.923 75.1813C113.43 74.6883 113.43 74.1952 114.169 73.7047C113.923 74.1952 113.679 74.6883 113.923 75.1813ZM89.7833 83.5582C88.0602 83.5582 86.581 83.5582 85.5949 84.7883L85.1018 84.5417C85.3484 83.0651 88.3041 83.8022 89.7833 82.8186V83.5582ZM80.6694 91.6859C80.4229 92.4255 79.6833 92.4255 79.1903 92.4255C79.4368 91.9325 80.1764 91.6859 80.6694 91.6859ZM64.1648 94.1487C63.4252 94.1487 62.4417 94.3952 61.946 93.9021C62.4391 93.1625 63.6718 93.9021 64.1648 93.1626V94.1487Z" fill="#F3C41D"/>
<path fill-rule="evenodd" clip-rule="evenodd" d="M58.4971 61.6325C56.5249 68.5302 50.3668 66.558 45.1948 69.5163C45.4414 70.0094 43.4691 70.2559 41.9925 70.4998L40.5134 71.2394C35.0948 71.979 31.646 75.6744 26.718 77.8906C26.9645 80.1068 24.0062 78.8767 22.7761 80.1068C22.283 81.8325 19.0807 81.0929 19.8203 83.3091C17.6041 85.0322 14.4018 86.5114 13.4157 88.9767C16.1249 91.4394 19.8203 90.9464 22.7761 91.686C32.6295 92.6721 41.2504 91.4394 50.3668 91.4394C53.0761 90.9464 55.5414 89.9603 58.4971 89.9603V90.2068C60.4694 90.9464 61.946 88.4837 64.1648 89.4672C65.6414 87.7441 68.5997 89.2207 70.0763 87.251C73.0321 86.2649 77.218 87.0045 79.4367 85.5253V86.0184C78.4506 85.7693 78.6971 86.7554 78.2066 87.2484C78.6997 87.7415 79.6833 87.495 80.4228 87.495C83.6277 84.0461 86.337 88.4811 89.2928 84.5392C90.5228 82.816 92.4951 82.0765 94.4647 81.5834L95.2043 82.5695C96.1904 79.6137 99.3928 80.5973 101.116 79.1207C99.8833 79.3672 99.6367 81.3369 97.9136 80.5998C99.1437 82.8186 95.9439 83.0626 95.2043 84.2952C94.4647 84.5418 92.7416 84.2952 92.9881 83.0652C92.2486 83.8047 92.2486 86.514 90.5254 85.5279C88.5557 86.0209 85.8439 86.758 83.6277 87.9906C81.165 88.2371 77.9601 89.7137 75.2509 88.9767C73.0347 90.2068 70.8159 89.9603 68.3532 90.9464C65.1509 91.686 60.472 91.4394 57.7601 93.1626C56.7766 93.1626 57.2696 94.6417 56.2835 94.6417C57.2696 94.6417 57.0231 97.351 58.4997 96.1209C57.7601 96.1209 57.2696 97.1071 57.0205 96.1209C55.5439 96.3675 54.3113 98.0932 53.0786 96.614C51.109 97.5975 48.3997 97.1045 46.181 97.351V96.614C47.6601 97.8441 47.1671 95.3813 48.3997 95.1348V94.1487C44.7043 95.6279 40.5159 95.1348 36.3275 96.8605C37.5576 99.3232 34.1113 97.351 33.3717 98.3371C33.3717 97.8441 33.8622 97.8441 34.1113 97.5975C28.9393 95.8744 26.474 99.3232 20.809 98.0906L20.0694 99.3207C17.6067 97.8415 14.4044 100.797 11.9391 99.0741C9.22981 98.5811 5.53444 97.8415 4.54832 95.1322C3.56477 95.3788 3.31824 94.6392 3.07171 93.9022C3.56477 91.1929 -1.36325 90.2068 0.855517 87.251C-0.623659 85.5253 1.34601 83.5556 1.5951 81.8325C1.84163 81.586 1.84163 81.0929 2.0856 80.5998L2.57865 81.3394C3.80873 80.3533 4.05783 78.8767 4.54832 77.6466L8.24369 73.7047C7.99716 73.9513 8.24369 74.1952 8.49022 74.1952C8.98328 74.1952 9.22981 73.7047 9.7203 73.4556C9.22724 71.979 10.2134 71.7299 11.1995 70.9929C11.9391 70.7464 12.9226 71.4834 13.1717 70.4998C12.4321 68.5302 15.6344 70.4999 15.6344 68.2837C18.3437 68.5302 18.8367 65.3279 21.546 65.8209C25.2388 62.1256 30.4134 61.879 34.6018 58.9233C41.746 56.7071 54.0648 51.286 58.4971 61.6325ZM50.8624 94.1487H49.8763L50.8624 94.8883V94.1487ZM48.3997 96.614H49.3858C49.8763 96.3649 49.8763 95.8744 50.3694 95.3813C49.3858 95.3813 48.6437 95.8744 48.3997 96.614Z" fill="#F3C41D"/>
<path fill-rule="evenodd" clip-rule="evenodd" d="M32.8787 98.0907C32.6322 98.5812 32.1391 98.3372 31.8926 98.3372V97.8442C32.1417 97.8442 32.6322 97.5977 32.8787 98.0907ZM111.709 75.1814C111.216 75.6745 110.476 76.6606 109.737 75.6745H109.49C109.983 75.428 110.72 74.9349 111.709 75.1814Z" fill="#F3C41D"/>
<path fill-rule="evenodd" clip-rule="evenodd" d="M65.1509 115.088C66.1345 121.002 63.1787 126.174 59.9764 130.856L58.4972 131.102L58.7437 130.856L58.4972 130.609C55.7879 134.058 52.5856 136.768 51.846 141.202C51.353 141.449 50.8599 141.449 50.616 141.693C49.8764 139.23 48.1532 136.028 49.6298 133.565C49.1368 126.174 52.5856 120.756 56.0345 114.595C58.2507 113.365 60.4694 109.421 62.9322 111.393L65.1509 115.088ZM50.8625 163.126C51.8486 165.098 51.6021 167.065 51.109 169.037C49.6298 169.286 48.1532 169.037 46.9206 168.298L46.6741 168.547C44.9509 167.561 43.4718 166.33 43.2252 164.358C42.7322 161.649 46.181 162.142 46.6741 159.923C48.1532 160.414 49.6298 161.893 50.8625 163.126ZM143.732 134.549V146.128C140.776 147.607 129.197 148.591 126.241 148.591C110.23 148.591 105.055 140.214 105.055 125.191C105.055 109.423 111.706 101.789 127.718 101.789C133.63 101.789 137.818 102.775 143.73 104.5V114.844H140.034V113.121C139.048 105.73 135.846 104.254 127.718 104.254C115.402 104.254 111.953 113.121 111.953 123.961C111.953 135.784 113.923 146.377 127.965 146.377C138.065 146.377 139.051 143.668 140.037 134.554H143.732V134.549ZM161.22 125.681C161.22 109.177 166.639 102.282 183.636 102.282C200.634 102.282 206.053 109.179 206.053 125.681C206.053 142.189 201.618 149.084 183.636 149.084C166.641 149.084 161.22 142.186 161.22 125.681ZM167.871 125.681C167.871 136.767 170.581 146.867 183.636 146.867C196.939 146.867 199.402 136.767 199.402 125.681C199.402 114.598 196.939 104.744 183.636 104.744C170.581 104.742 167.871 114.595 167.871 125.681ZM263.204 109.916H262.957L247.192 147.851C246.702 148.588 246.209 148.588 245.713 148.098L229.702 110.653V141.446C229.702 145.635 230.688 145.881 235.12 145.881V148.098H221.325V145.881C225.76 145.881 226.743 145.635 226.743 141.446V109.421C226.743 104.986 225.513 104.986 221.325 104.986V102.77H231.671L247.929 139.228L263.448 102.77H274.041V104.986C269.852 104.986 268.625 104.986 268.625 109.421V141.446C268.625 145.635 269.608 145.881 274.041 145.881V148.098H257.539V145.881C262.218 145.881 263.201 145.635 263.201 141.446L263.204 109.916ZM304.834 141.446C304.834 144.895 304.587 145.881 310.992 145.881V148.098C308.039 148.098 304.834 148.098 301.878 147.851C298.678 148.098 295.72 148.098 292.518 148.098V145.881C298.922 145.881 298.922 144.895 298.922 141.446V109.421C298.922 105.728 298.922 104.742 292.518 104.742V102.526C295.717 102.772 298.676 102.772 301.878 102.772C306.313 102.772 310.745 102.772 315.424 102.526C323.801 102.526 328.234 104.988 328.234 114.105C328.234 126.421 321.336 127.898 310.743 127.898H304.829V141.446H304.834ZM304.834 125.435H308.039C316.169 125.435 321.832 125.188 321.832 115.335C321.832 105.728 318.632 104.988 311.244 104.988H304.834V125.435ZM365.187 102.772L378.985 138.737C379.722 140.709 381.448 146.374 386.62 145.881V148.098H368.639V145.881C368.639 145.881 374.306 145.881 374.306 143.17C374.306 141.939 373.811 140.707 373.318 139.721L369.129 128.637H353.364L349.176 139.967C348.929 140.956 348.685 141.939 348.685 142.923C348.685 145.879 351.885 145.879 354.101 145.879V148.095H338.583V145.879C340.799 145.632 342.034 145.879 343.508 143.907C344.497 142.92 346.223 138.242 346.96 137.009L360.999 102.767H365.187V102.772ZM367.899 125.435L361.248 108.686L354.101 126.177H368.146L367.899 125.435ZM419.134 122.723C425.292 124.939 430.959 127.898 430.959 135.288C430.959 146.128 422.092 148.837 412.973 148.837C408.294 148.837 403.369 148.098 398.934 146.125V134.302H403.122C403.859 140.707 402.138 146.621 413.715 146.621C419.624 146.621 425.045 143.909 425.045 137.505C425.045 130.114 417.904 128.637 412.236 126.665C406.078 124.449 400.659 122.23 400.659 114.595C400.659 105.974 407.801 102.033 415.687 102.033C420.122 102.033 424.308 102.77 428.99 104.495V115.335H425.294C424.804 110.16 426.036 104.495 415.934 104.495C410.513 104.495 406.324 106.711 406.324 112.623C406.324 116.565 408.297 118.537 411.745 120.014L419.134 122.723ZM468.894 121.986C475.052 124.202 480.72 126.911 480.72 134.549C480.72 145.391 471.852 148.098 462.733 148.098C458.054 148.098 453.129 147.358 448.694 145.388V133.565H452.882C453.619 139.967 451.894 145.881 463.475 145.881C469.384 145.881 474.806 143.17 474.806 136.767C474.806 129.377 467.664 127.898 461.996 125.928C455.838 123.709 450.42 121.493 450.42 113.856C450.42 104.988 457.561 101.293 465.448 101.293C469.883 101.293 474.069 102.033 478.75 103.756V114.595H475.055C474.564 109.421 475.792 103.756 465.694 103.756C460.273 103.756 456.085 105.972 456.085 111.883C456.085 115.579 458.057 117.798 461.506 119.274L468.894 121.986ZM221.82 178.644C221.82 177.167 221.82 176.921 218.865 176.921V175.935C220.59 176.181 221.82 176.181 223.053 176.181C224.286 176.181 225.516 176.181 226.255 175.935V176.921C224.283 176.921 224.283 177.411 224.283 178.644V182.093C222.067 182.833 219.604 183.323 217.385 183.323C210.981 183.323 208.764 180.123 208.764 174.209C208.764 168.051 211.474 164.849 217.878 164.849C220.341 164.849 222.067 165.095 224.283 165.832V170.021H222.806C222.56 166.328 221.574 165.586 217.878 165.586C212.706 165.586 211.474 169.774 211.474 174.207C211.474 179.132 212.704 182.337 218.125 182.337C219.108 182.337 220.588 182.088 221.82 181.351V178.644ZM252.855 180.367C252.855 181.844 252.608 182.339 255.323 182.339V183.076H247.932V182.339C250.395 182.339 250.395 181.846 250.395 180.367V167.802C250.395 166.325 250.395 166.079 247.932 166.079V165.095H256.553C259.758 165.095 261.974 165.342 261.974 169.035C261.974 172.237 260.248 173.472 257.539 173.716C258.276 174.946 261.232 179.628 261.974 180.614C262.711 181.353 263.204 182.09 264.683 182.339V183.076H260.739C259.013 180.367 255.323 174.456 254.58 174.209C254.09 173.963 253.35 173.963 252.855 173.963V180.367ZM252.855 173.223H254.087C256.797 173.223 259.508 173.223 259.508 169.53C259.508 166.818 258.276 166.081 255.567 166.081H252.852L252.855 173.223ZM286.606 173.963C286.606 167.558 288.822 164.849 295.473 164.849C302.371 164.849 304.341 167.558 304.341 173.963C304.341 180.614 302.62 183.323 295.473 183.323C288.822 183.323 286.606 180.614 286.606 173.963ZM289.315 173.963C289.315 178.398 290.304 182.339 295.473 182.339C300.651 182.339 301.632 178.398 301.632 173.963C301.632 169.774 300.648 165.586 295.473 165.586C290.302 165.588 289.315 169.774 289.315 173.963ZM331.932 177.165C331.932 180.614 333.411 182.339 336.857 182.339C340.799 182.339 342.525 180.86 342.525 176.921V167.805C342.525 166.081 342.525 166.081 339.815 166.081V165.095H346.22V166.081C343.752 166.081 343.752 166.328 343.752 167.805V176.672C343.752 181.846 341.043 183.323 336.117 183.323C331.929 183.323 329.466 181.6 329.466 177.411V167.805C329.466 166.328 329.713 166.081 327.25 166.081V165.095H334.394V166.081C331.932 166.081 331.932 166.328 331.932 167.805V177.165ZM372.825 180.367C372.825 181.844 372.825 182.339 375.287 182.339V183.076H367.899V182.339C370.362 182.339 370.362 181.846 370.362 180.367V167.802C370.362 166.325 370.362 166.079 367.899 166.079V165.095H377.013C380.213 165.095 382.185 166.081 382.185 169.53C382.185 174.456 379.232 175.195 375.043 175.195H372.827L372.825 180.367ZM372.825 174.209H374.057C377.257 174.209 379.473 173.963 379.473 170.021C379.473 166.328 378.241 166.081 375.285 166.081H372.822V174.209H372.825Z" fill="#EAEAEA"/>
<path fill-rule="evenodd" clip-rule="evenodd" d="M103.332 82.079C102.839 82.079 101.853 82.3256 101.116 81.8325C101.856 81.0929 102.839 81.8325 103.332 81.0929V82.079ZM107.765 77.6441C106.285 77.6441 104.809 77.6441 103.576 79.1207L103.33 78.6302C103.576 77.151 106.532 77.8906 107.765 76.9045V77.6441ZM113.43 77.6441C112.939 77.3976 111.953 77.8906 111.46 77.151C111.953 76.658 112.939 77.3975 113.43 76.658V77.6441ZM109.49 79.1232L109.244 77.4001L109.983 77.8906L109.49 79.1232Z" fill="#F3C41D"/>
</svg>
