<svg width="144" height="144" viewBox="0 0 144 144" fill="none" xmlns="http://www.w3.org/2000/svg">
<g clip-path="url(#clip0_41_139)">
<path d="M18.5805 0C8.31876 0 0 8.31876 0 18.5805V125.418C0 135.68 8.31876 143.999 18.5805 143.999H125.418C135.68 143.999 143.999 135.68 143.999 125.418V18.5805C143.999 8.31876 135.68 0 125.418 0H18.5805ZM18.5805 9.29023H125.418C130.549 9.29022 134.708 13.4496 134.708 18.5805V125.418C134.708 130.549 130.549 134.708 125.418 134.708H18.5805C13.4496 134.708 9.29023 130.549 9.29023 125.418V18.5805C9.29023 13.4496 13.4496 9.29023 18.5805 9.29023Z" fill="#0671D8"/>
<path d="M65.0316 97.5474V106.838H116.128V97.5474H65.0316Z" fill="#0671D8"/>
<path d="M65.0316 37.1609V87.0959H75.4831V46.4511H85.9346V87.0959H96.3861V46.4511H103.354C105.278 46.4511 106.838 48.0109 106.838 49.935V87.0959H117.289V48.7737C117.289 42.3601 112.09 37.1609 105.676 37.1609H65.0316Z" fill="#0671D8"/>
<path d="M38.3222 37.1609C31.9086 37.1609 26.7094 42.3601 26.7094 48.7737V75.4831C26.7094 81.8966 31.9086 87.0959 38.3222 87.0959H47.6124V89.4184C47.6124 93.9079 43.453 97.5474 38.3222 97.5474H32.5158V106.838H38.3222C49.2253 106.838 58.0639 99.0388 58.0639 89.4184V37.1609H38.3222ZM40.6448 46.4511H47.6124V77.8056H40.6448C38.7207 77.8056 37.1609 76.2459 37.1609 74.3218V49.935C37.1609 48.0109 38.7207 46.4511 40.6448 46.4511Z" fill="#0671D8"/>
</g>
<defs>
<clipPath id="clip0_41_139">
<rect width="144" height="144" fill="white"/>
</clipPath>
</defs>
</svg>
