<svg width="154" height="154" viewBox="0 0 154 154" fill="none" xmlns="http://www.w3.org/2000/svg">
<g clip-path="url(#clip0_41_135)">
<path d="M77.008 145.712L97.353 30.8027C116.745 30.8027 122.862 32.9383 123.745 41.655C123.745 41.655 136.754 36.7838 143.315 26.8904C117.712 14.9755 91.9857 14.4382 91.9857 14.4382L76.9742 32.8001L77.008 32.7978L61.9965 14.4353C61.9965 14.4353 36.27 14.9732 10.6696 26.8881C17.2251 36.7815 30.2392 41.6527 30.2392 41.6527C31.1275 32.9354 37.2369 30.7998 56.4991 30.786L77.008 145.712Z" fill="#E82127"/>
<path d="M77 9.13441C97.6971 8.97545 121.387 12.3498 145.639 22.9648C148.88 17.1059 149.713 14.5165 149.713 14.5165C123.203 3.98327 98.3761 0.378507 76.9971 0.288086C55.6193 0.378507 30.7938 3.98384 4.28674 14.5165C4.28674 14.5165 5.46927 17.706 8.35848 22.9648C32.6054 12.3498 56.2995 8.97545 76.9971 9.13441H77Z" fill="#E82127"/>
</g>
</svg>
