<svg width="441" height="129" viewBox="0 0 441 129" fill="none" xmlns="http://www.w3.org/2000/svg">
<g clip-path="url(#clip0_41_117)">
<path d="M131.911 12.6528H163.712L187.31 87.6305L212.203 12.6528H240.835L202.995 116.157H168.604L131.911 12.6528Z" fill="#FDB913"/>
<path d="M304.442 45.1931C303.147 34.7298 295.807 30.8562 287.606 30.8562C270.195 30.8562 264.872 46.7733 264.872 65.6933C264.872 72 265.012 98.0938 287.319 98.0938C302.572 98.0938 304.155 87.0572 304.73 83.0403H334.661C334.517 115.437 301.425 118.164 287.898 118.164C277.823 118.164 259.984 116.444 248.471 104.401C237.102 92.3569 235.088 75.8736 235.088 65.12C235.088 50.9264 238.397 36.7364 248.183 25.6962C258.83 13.6562 272.5 10.4993 287.61 10.4993C304.446 10.4993 317.254 14.5126 325.454 23.1162C333.798 32.0064 333.946 41.3267 334.086 45.1967H304.446L304.442 45.1931Z" fill="#FDB913"/>
<path d="M371.211 12.6528V74.1536C371.211 79.7436 371.642 85.4805 374.523 89.7805C378.407 95.5138 385.169 98.2372 392.222 98.2372C410.493 98.2372 412.943 83.4702 412.943 73.1502V12.6528H441V72.5769C441 84.0436 439.417 96.5172 432.943 104.117C422.869 116.448 404.311 118.881 391.215 118.881C342.142 118.881 342.002 88.4905 342.002 71.5736L342.142 12.6528H371.207H371.211Z" fill="#FDB913"/>
<path d="M110.517 110.108C135.8 84.9196 135.8 44.0804 110.517 18.8916C85.2347 -6.2972 44.2437 -6.2972 18.9613 18.8916C-6.32118 44.0804 -6.32118 84.9196 18.9613 110.108C44.2437 135.297 85.2347 135.297 110.517 110.108Z" fill="#FDB913"/>
<path d="M85.8878 122.448C118.012 110.811 134.586 75.4329 122.906 43.4276C111.227 11.4223 75.7165 -5.09002 43.5923 6.5463C11.468 18.1826 -5.10564 53.5611 6.57393 85.5664C18.2535 117.572 53.7635 134.084 85.8878 122.448Z" fill="#FDB913"/>
<path d="M64.6103 101.914C62.1538 101.914 60.1612 103.888 60.1612 106.321C60.1612 108.754 62.1538 110.729 64.6103 110.729C67.0668 110.729 69.0593 108.754 69.0593 106.321C69.0593 103.888 67.0668 101.914 64.6103 101.914Z" fill="#231F20"/>
<path d="M71.336 106.4C71.336 107.368 71.1202 108.281 70.7426 109.109L93.7072 106.364L70.7174 103.63C71.113 104.472 71.336 105.407 71.336 106.396V106.4Z" fill="#231F20"/>
<path d="M35.4378 106.371L58.6219 109.134C58.237 108.299 58.0176 107.375 58.0176 106.396C58.0176 105.418 58.2478 104.454 58.6506 103.605L35.4414 106.368L35.4378 106.371Z" fill="#231F20"/>
<path d="M64.3549 24.6105C66.3942 24.6105 68.0451 22.9729 68.0451 20.9555C68.0451 18.938 66.3906 17.2969 64.3549 17.2969C62.3192 17.2969 60.6647 18.9345 60.6647 20.9555C60.6647 22.9765 62.3192 24.6105 64.3549 24.6105Z" fill="#231F20"/>
<path d="M58.5032 20.9553C58.5032 20.21 58.6506 19.5005 58.9096 18.8447L43.1419 20.9947L58.942 23.1519C58.6614 22.4746 58.5032 21.7329 58.5032 20.9517V20.9553Z" fill="#231F20"/>
<path d="M85.5068 20.9913L69.8002 18.8521C70.0556 19.5042 70.2031 20.2101 70.2031 20.9555C70.2031 21.7008 70.0484 22.4676 69.7679 23.1449L85.5068 20.9913Z" fill="#231F20"/>
<path d="M61.2618 49.3462L61.2978 48.8839C61.2978 48.8839 60.1792 47.6011 55.6114 47.6011C51.0437 47.6011 49.9611 49.0989 49.9611 49.0989L49.9251 49.4537C49.9251 49.4537 50.8243 49.5612 51.2199 50.4534C51.7594 51.6646 51.9033 56.3014 51.9033 56.3014L51.4717 94.2632C51.4717 94.2632 51.4357 94.5499 51.6515 94.6897C51.8673 94.8294 52.7197 95.1555 55.5719 95.1555C58.424 95.1555 59.28 94.8043 59.4994 94.6753C59.6936 94.5571 59.6937 94.2632 59.6937 94.2632L59.352 56.1939C59.352 56.1939 59.2441 52.2021 60.0713 50.457C60.5245 49.5038 61.2618 49.3497 61.2618 49.3497V49.3462Z" fill="#231F20"/>
<path d="M77.6338 94.6861C77.8496 94.5463 77.8136 94.2597 77.8136 94.2597L77.382 56.2978C77.382 56.2978 77.5259 51.661 78.0654 50.4534C78.461 49.5612 79.3601 49.4537 79.3601 49.4537L79.3242 49.0989C79.3242 49.0989 78.2452 47.6011 73.6738 47.6011C69.1025 47.6011 67.9875 48.8839 67.9875 48.8839L68.0235 49.3462C68.0235 49.3462 68.7572 49.5002 69.2104 50.4534C70.0376 52.1985 69.9261 56.1903 69.9261 56.1903L69.5844 94.2597C69.5844 94.2597 69.5844 94.5535 69.7751 94.6717C69.9945 94.8007 70.8505 95.1519 73.7026 95.1519C76.5548 95.1519 77.4072 94.8294 77.623 94.6861H77.6338Z" fill="#231F20"/>
<path d="M64.7398 2.82373C30.55 2.82373 2.83417 30.4369 2.83417 64.5001C2.83417 98.5632 30.55 126.176 64.7398 126.176C98.9295 126.176 126.645 98.5632 126.645 64.5001C126.645 30.4369 98.9295 2.82373 64.7398 2.82373ZM64.7398 9.6249C81.9282 9.6249 97.2715 17.4688 107.374 29.7596H84.2768C84.1185 29.7596 84.0754 29.8421 84.0754 29.9209V32.4471H45.397V29.9209C45.397 29.8385 45.3538 29.7596 45.1955 29.7596H22.105C32.2044 17.4688 47.5513 9.6249 64.7398 9.6249ZM103.102 86.1792H96.8722L93.9913 45.813H97.5916L103.098 86.1792H103.102ZM35.4558 45.8309L32.5749 86.1971H26.3455L31.852 45.8309H35.4522H35.4558ZM9.66421 64.5001C9.66421 51.9011 13.9298 40.2946 21.098 31.0317V31.408C21.098 31.408 22.6697 33.2749 23.407 34.3714C24.8061 36.4461 24.1012 40.4272 24.1012 40.4272L17.0661 91.9914C12.3581 83.9074 9.66421 74.5191 9.66421 64.5001ZM64.7433 119.372C46.6486 119.372 30.5931 110.678 20.5513 97.2553C26.8238 97.2553 38.0238 97.2553 39.1244 97.2553C40.6566 97.2553 40.6458 94.9584 40.6458 94.9584L44.2496 43.1828H85.2407L88.8373 94.962C88.8373 94.962 88.5424 97.2553 90.3587 97.2553C91.6571 97.2553 102.724 97.2553 108.939 97.2553C98.8972 110.678 82.8417 119.375 64.7469 119.375L64.7433 119.372ZM105.375 40.4236C105.375 40.4236 104.515 36.4461 106.26 34.1385C107.062 33.0814 108.374 31.4044 108.374 31.4044V31.0138C115.546 40.2803 119.815 51.8903 119.815 64.4965C119.815 74.5191 117.118 83.9146 112.406 91.9986L105.371 40.4201L105.375 40.4236Z" fill="#231F20"/>
</g>
<defs>
<clipPath id="clip0_41_117">
<rect width="441" height="129" fill="white"/>
</clipPath>
</defs>
</svg>
