<?xml version="1.0" encoding="UTF-8"?><svg id="Layer_1" xmlns="http://www.w3.org/2000/svg" viewBox="0 0 451.66 628.42"><defs><style>.cls-1{fill:#ce0000;}</style></defs><path class="cls-1" d="M217.52,66.51c-7.03-4.18-12.96-9.94-20.37-13.37-14.05-6.65-26.47,1.75-39.07,7.56-.24,.12-.5,.17-.77,.17h-2.43c-3.74,0-5.27-2.6-6.45-6.89l-.12-1.67c.01-8.86,2.75-15.9,8-22.05,.01-.03,.04-.05,.05-.06,1.26-1.56-.46-3.73-2.25-2.84-12.61,6.31-24.71,13.18-28.67,26.61-.87,2.61-3.32,4.34-6.04,4.34h-.26c-2.42-.1-2.55-.71-5.27-2.55-.59-.4-1.56-1.18-2.11-1.63-2.17-1.77-2.2-1.29-3.14-2.15-1.25-1.14-1.92-2.78-1.85-4.47,.23-12.43,4.68-30.95,2.65-45.93-.23-1.71-2.47-2.16-3.39-.71-11.43,18.11-34.46,30.36-33.05,53.03h.01c.01,2.52-1.52,4.77-3.86,5.69-2.33,.91-4.99,.31-6.68-1.53-1.22-.09-2.39-.57-3.33-1.34-7.29-5.17-14.13-10.93-20.44-17.23-1.2-1.18-3.2-.27-3.14,1.41,.51,13.25,4.41,27.38-3.86,37.68-.06,.08-.13,.15-.21,.22-3.87,3.88-9.08,6.04-14.49,6.12-1.3,.01-2.12,1.39-1.62,2.58,2.85,6.74,4.61,14.15,2.15,20.4-2.39,6.31-8.11,10.68-14.73,11.39-.93,.1-1.65,.9-1.63,1.84,.21,11.93-4.02,27.79,2.49,36.62,4.01,5.99,9.37,10.81,15.53,14.14,6.17,3.34,13.12,5.19,20.35,5.27,.17-.01,.33-.03,.5-.03,1.32,0,2.58,.49,3.57,1.38,.8,.71,1.35,1.62,1.62,2.64,.21,.73,.78,1.29,1.54,1.38,4.7,.53,9.18,2.29,12.98,5.13,.12,.08,.22,.17,.32,.27,1.07,1.14,1.66,2.66,1.66,4.23,0,1.65-.64,3.21-1.81,4.37-6,5.82-16.3,9.72-19.17,18-.51,1.57-1.62,2.88-3.07,3.65-1.14,1.27-2.84,1.92-4.54,1.72-1.07-.01-2.12,.01-3.18,.09-.67,.05-1.23,.49-1.52,1.09-.31,.68-.76,1.31-1.31,1.83-6.13,7.43-9.05,16.99-8.12,26.58,.51,11.44,10.81,15.14,19.68,19.56,1.76,.78,2.93,2.46,3.06,4.34,.03,.41,.17,.8,.41,1.12,.68,.9,1.09,1.97,1.2,3.1,1.12,12.4-7.29,19.74-12.38,30.04-6.75,13.61,6.58,21.36,16.93,11.88h.01c.98-.93,2.25-1.49,3.57-1.62,.82-.08,1.47-.76,1.57-1.58,.59-4.61,.64-9.29,.15-13.92-4.22-33.87-11.25-63.59,5.69-95.05,1.53-2.48,4.56-3.57,7.33-2.64,2.76,.95,4.5,3.68,4.18,6.57-.06,.82-.3,1.61-.71,2.3-20.37,37.83,2.52,74.45-6.49,113.2-.05,.27-.06,.55,0,.82,4.01,18.2,12.91,23.18,26.69,14.92h0c6.88-3.84,12.56-9.5,16.43-16.35,4.76-8.6,6.88-18.41,6.07-28.19-2.43-19.44-4.91-44.93-12.2-63.01-1.62-.48-3.16-1.2-4.56-2.15-3.02-1.81-5.58-4.32-7.47-7.3-1.59-2.75-2.69-6.84-6.32-7.42-1.5-.14-2.85-.94-3.7-2.16-.85-1.23-1.12-2.79-.72-4.23,.58-3.66,4.01-6.17,7.67-5.62,10.88,1.68,10.73,15.98,20.9,17.38,14.32,1.98,25.44-12.4,24.75-25.76-.1-1.85,.69-3.65,2.15-4.79,1.45-1.16,3.38-1.54,5.17-1.02,.05-.06,.05-.13,.18-.19,9.89-9.49,20.09-21.35,15.16-34.99-.22-.63-.8-1.05-1.44-1.17-13.64-2.29-25.77-12.48-39.67-10.12h0c-.84,.12-1.7,.08-2.51-.14-.45-.12-.91-.01-1.32,.21-8.09,4.34-17.57,4.6-26.13,13.48-5.63,5.75-14.38-3.07-8.82-8.83,12.13-12.58,28.68-10.8,37.78-27.03,4.65-8.3,16.8-12.52,25.86-12.07,18.09,.95,38.67,6,55.22-4.5,14.18-9,21.06-22.73,25.98-37.9,.27-.82-.09-1.72-.84-2.17ZM56.72,167.06l-4.78,4.79c-2.46,2.43-6.4,2.43-8.84-.01-2.43-2.44-2.43-6.4,.03-8.84l4.78-4.78c2.44-2.44,6.4-2.43,8.83,.01,2.44,2.44,2.43,6.39-.01,8.83Zm54.67-5.63c.48-.17,.98-.27,1.47-.32,.84-.36,1.72-.6,2.62-.69,6.47-.64,15.46,3.51,15.41,11.05-.26,6.84-5.95,12.19-12.79,12.02-5.49-.13-10.55-2.94-13.57-7.52-.08-.1-.14-.22-.19-.33-3-6.71,.89-11.63,7.06-14.2Zm-12.89,107.45c1.36,16.98,7.42,33.08-.05,49.49-3.33,7.31-14.06,.96-10.76-6.29,6.04-13.27-.57-29.44-1.66-43.2-.64-8.01,11.83-7.96,12.47,0Z"/><path d="M130.89,171.47c-.26,6.84-5.95,12.19-12.79,12.02-5.49-.13-10.55-2.94-13.57-7.52-.08-.1-.14-.22-.19-.33-3-6.71,.89-11.63,7.06-14.2,.48-.17,.98-.27,1.47-.32,.84-.36,1.72-.6,2.62-.69,6.47-.64,15.46,3.51,15.41,11.05Z"/><path d="M58.71,418.6c2.82-21.06,3.95-42.31,3.37-63.55-10.03-5.25-11.7-13.3-11.06-22.57h0c-3.14,1.77-6.57,2.98-10.12,3.58,0,.52-.07,1.03-.2,1.54-12.93,39.69,8.57,84.12-.83,124.19,10.39-10.16,17.42-34.49,18.83-43.18h0Z"/><path d="M44.65,194.63c-1.34-.19-2.43-.25-3.77-.44h0c-2.5-.19-4.48-2.17-4.66-4.67-4.91-.18-9.77-1.13-14.38-2.81-.13,.07-.13,.19-.25,.25h0c-8.41,7.38-14.02,17.42-15.91,28.45,7.6-4.91,16.39-7.63,25.44-7.87,3.6-5.17,8.2-9.56,13.54-12.9h0Z"/><path d="M90.22,377.57c-.33-1.96,.24-3.97,1.55-5.47,1.31-1.5,3.21-2.33,5.2-2.27-1.76-4.8-2.88-9.81-3.32-14.89-5.85,3.09-12.45,4.49-19.05,4.03,.85,19.92-.22,39.89-3.19,59.61,11.02-11.67,22.2-23.37,18.82-41.01h0Z"/><path d="M147.81,216.88c4.28-4.67,9.27-8.76,13.42-13.55,2.55-3,11.89-22.25,1.6-23.2-4.08,7.67-9.44,14.59-15.85,20.46-1.04,1.02-2.43,1.63-3.9,1.69-1.25,13.02-8.76,24.61-20.14,31.06,8.25,2.85,19.39-10.38,24.87-16.45h0Z"/><path d="M168.13,126.32c-1.28-.42-2.38-1.26-3.13-2.37-17-.76-37.45-2.3-44.87,9.08h0c4.64,.49,9.19,1.65,13.5,3.45,7.22,3.97,15.18,6.41,23.39,7.16,.22,.02,.44,.06,.64,.13,.52,.03,1.03,.11,1.53,.25,.27,.11,.52,.24,.76,.39,.41,.23,.78,.51,1.12,.83,.24,.24,.45,.49,.64,.76,.19,.26,.44,.38,.64,.7h0c3.8,6.45,5.3,13.99,4.28,21.41,4.3,1.36,7.98,4.21,10.37,8.04,2.39,3.83,3.34,8.39,2.67,12.86-1.02,15.75-10.36,22.69-20.25,33.62-10.73,11.81-29.53,30.04-43.87,21.6,2.69,12.78,3.45,25.76,6.65,38.99,2.75,10.48,3.12,21.44,1.08,32.08,1.02,.76,1.77,1.84,2.11,3.07,4.35,14.44,10.93,28.06,15.18,42.63,3.76,12.96,11.19,24.55,21.41,33.36,4.98-17-5.06-38.03-12.03-52.86-3.37-7.22,7.36-13.55,10.81-6.27,7.54,16.04,16.61,36.37,14.7,54.97h0c1.01,.82,1.7,1.98,1.92,3.26,1.92,7.86,4.94,15.41,8.95,22.43,3.9,8.31,6.26,3.45,9.2-3.32,7.25-14.46,7.83-31.35,1.6-46.27-3.13-7.36,7.61-13.68,10.74-6.33h0c6.1,12.31,7.83,26.33,4.92,39.75-.05,.37-.13,.73-.25,1.08,1.09,.71,1.93,1.77,2.36,3.01,3.65,10.16,12.21,16.87,18.28,25.43,2.81,3.94,4.98,10.36,7.87,15.47,2.98-9.37,4.15-19.22,3.45-29.02-.95-12.01-8.5-20.25-15.4-29.47-4.86-6.39,6.01-12.59,10.73-6.27,9.33,12.34,17.71,23.53,17.26,39.76h0c-.23,7.4-1.15,14.76-2.75,21.99,1.68,.66,3.02,1.97,3.71,3.65,1.72,4.86,3.81,9.58,6.23,14.12,6.59,10.99,8.63-2.37,8.7-9.08-.42-16.36-3.33-32.57-8.65-48.05-.75-3.27,1.22-6.55,4.45-7.44,3.24-.89,6.6,.92,7.63,4.12,5.43,15.47,8.47,31.68,9,48.06,.2,5.55-.27,11.11-1.41,16.56,6.35,2.49,11.96,6.55,16.31,11.81,.56-1.47,1.12-2.94,1.6-4.5-.7-2.05-1.21-3.94-1.6-5.56-.73-2.91,.8-5.91,3.58-7.02,.47-11.62-2.51-23.12-8.57-33.05-4.16-6.9,6.65-13.93,10.81-7.03,9.41,15.49,12.54,33.99,8.75,51.71,1.65,4,3.6,7.86,5.82,11.57,1.91,3.19,7.35,13.42,9.78,10.35,0-.07-.06-.13-.06-.19h0c.06-1.16,.43-2.29,1.08-3.26,2.43-18.6,.45-41.62-9-57.52-1.58-2.97-.53-6.66,2.38-8.35,2.91-1.69,6.63-.77,8.43,2.08,8.95,15.08,10.12,29.98,10.86,47.11h0c.82,7.63,.52,15.34-.9,22.88,1.35,7.73,7.61,14.83,12.85,21.6,7.35-14.62,3.58-42.24,1.34-55.41-5.49-33.18-27.03-62.32-46.12-89.03-4.67-6.52,6.14-12.78,10.81-6.27,21.41,29.98,45.06,62.89,48.51,100.8,1.76,13.28,2.1,26.71,1.02,40.07,2.61,.05,4.85,1.87,5.42,4.41,1.19,4.9,2.66,9.72,4.39,14.44,.45-2.95,3.03-5.1,6.01-4.99,.44-11.95,.89-24.03,.32-35.92-2.25-44.43-25.87-79-48.51-115.68-4.22-6.84,6.52-13.1,10.74-6.27,14.51,23.46,33.55,49.21,42.83,76.49h0c.36-1.35,1.23-2.5,2.43-3.2,.9-14.38-5.56-31.13-9.14-44.36-4.77-18.63-11.47-36.71-20-53.94-15.47-28.56-32.91-55.99-52.22-82.11-20.58-29.16-37.25-57.66-68.52-76.78-13.42-8.25-26.91-15.98-39.63-25.31-12.71-9.32-22.31-22.06-37.71-26.91h0Zm-23.71,179.27c-4.86-11.19-6.75-23.39-12.02-34.39-3.37-7.22,7.36-13.55,10.81-6.27,5.24,11.06,7.1,23.2,11.95,34.31,3.19,7.31-7.55,13.7-10.74,6.35h0Zm33.71-143.72c-.91-3.32,1.04-6.75,4.35-7.67,5.15-.87,10.44-.32,15.29,1.6,3.27,.97,5.2,4.36,4.35,7.67-.92,3.31-4.35,5.26-7.67,4.35-2.7-1.29-5.69-1.83-8.67-1.6-3.31,.84-6.69-1.08-7.67-4.35h0Zm12.4,22.95h-2.4c-3.37-.11-6.05-2.86-6.05-6.23s2.68-6.13,6.05-6.23h2.4c3.36,.11,6.04,2.86,6.04,6.23s-2.68,6.13-6.04,6.23h0Zm-16.65,149.61c.32-14.62-5.81-27.17-11.89-40.01-3.45-7.22,7.31-13.55,10.73-6.33,7.03,14.89,14,29.47,13.68,46.34h0c-.15,3.35-2.91,6-6.27,6s-6.12-2.65-6.27-6.01h0Zm3.87-92.93c-6.65-4.35-.44-15.15,6.33-10.74,16.33,10.23,27.97,26.49,32.4,45.25,1.47,7.87-10.54,11.25-12.01,3.32-3.54-15.66-13.15-29.26-26.72-37.84h0Zm39.56,76.95c-1.01,3.19-4.36,5.01-7.59,4.14-3.23-.87-5.21-4.13-4.48-7.4,1.21-6.45-.3-13.11-4.16-18.41-1.56-2.97-.5-6.63,2.4-8.32,2.9-1.68,6.6-.78,8.41,2.04,5.53,8.19,7.5,18.27,5.45,27.93h-.03Zm17.32-68.77c-9.39-13.55-23.14-23.06-36.11-32.92-6.27-4.79-.06-15.66,6.33-10.8,14.77,11.25,29.85,21.98,40.59,37.39,4.62,6.64-6.24,12.84-10.78,6.33h-.02Zm23.97,55.11c-4.69-8.85-8.39-18.2-10.99-27.87-1.6-7.79,10.42-11.19,12.02-3.26h0c2.27,8.64,5.56,16.98,9.79,24.85,3.33,7.22-7.41,13.55-10.79,6.26l-.03,.03Zm12.78,30.37c-1.62-2.97-.57-6.69,2.35-8.39,2.93-1.7,6.67-.76,8.46,2.12,8.46,12.67,15.38,26.31,20.6,40.63,2.43,7.67-9.59,10.93-12.01,3.25-4.96-13.26-11.46-25.89-19.37-37.64l-.02,.03Zm16.19,67.2c-.74-2.6-1.88-5.06-3.37-7.31-4.36-6.78,6.43-13.03,10.76-6.29,2.05,3.17,3.61,6.64,4.62,10.28,.72,3.24-1.23,6.48-4.43,7.36-3.2,.88-6.53-.89-7.58-4.04h0Zm30.4-3.31c.84,3.31-1.08,6.69-4.35,7.66-3.31,.89-6.72-1.05-7.65-4.35-.09-2.87-1.36-5.57-3.52-7.46-6.7-4.37-.46-15.18,6.29-10.77,5.07,3.42,8.43,8.85,9.23,14.91h0Zm-.8-78.31c1.79,6.46,5.56,12.14,7.99,18.41h0c.89,3.31-1.04,6.73-4.34,7.67-3.33,.82-6.71-1.12-7.67-4.41-2.99-5.97-5.65-12.09-7.98-18.35-.77-3.26,1.18-6.54,4.41-7.43,3.22-.89,6.58,.92,7.6,4.11h0Zm-23.01-67.81c7.96,10.03,14.12,21.36,18.22,33.49,2.36,7.67-9.65,10.93-12.02,3.26h0c-3.85-11.04-9.58-21.34-16.93-30.43-4.8-6.45,6.01-12.71,10.74-6.33h0Zm-82.83-75.55c28.25,11.57,48,32.29,69.09,53.57,2.42,2.44,2.4,6.37-.04,8.79-2.44,2.42-6.37,2.4-8.78-.04-19.3-19.43-37.64-39.62-63.55-50.29-7.33-3.01-4.14-15.09,3.28-12.03h0Z"/><path d="M129.08,392.19c5.95,4.86,12.02,9.98,18.34,14.32,4.86,3.32,8.11,3.19,10.29,.56-10.93-9-21.61-19.43-26.14-33.24-4.53-13.81-9.91-27.29-14.51-41.06h0c-3.36,5.65-7.64,10.71-12.66,14.95,.77,.96,1.23,2.14,1.28,3.37,.7,17.56,10.29,30.21,23.39,41.08h0Z"/><path d="M220.8,433.55c-4.73-5.29-9.09-10.9-13.04-16.8-1.77,5.04-4.73,9.58-8.63,13.22-5.56,4.6-15.41,8.5-20.01,.25h0c-3.37-5.85-6.38-11.92-9-18.15-.88,2.3-2.11,4.46-3.65,6.39,6.08,8.44,11,17.7,17.19,26.08,7.68,9.22,16.68,17.25,26.71,23.84,11.77,9.41,23,19.48,33.62,30.16,1.23-12.72-1.76-25.5-8.5-36.36-1.12-1.49-1.37-3.46-.64-5.18-5.62-7.03-7.98-16.36-14.06-23.46h0Z"/><path d="M397.33,456.3c3.86,22.85,4.65,46.11,2.37,69.17-.34,3.93-1.02,7.82-2.04,11.62,4.99,18.28,9,37.9,19.56,53.18,7.67,11.25,20.14,28.37,34.45,34.45-15.12-25.57-27.06-52.89-35.54-81.36-7.87-28.65-10.74-58.49-18.79-87.06h0Z"/><path d="M414.77,608.04c-14.25-17.9-20.33-38.48-26.52-59.57-.97,.11-1.96,.09-2.94-.07,2.94,16.93,5.75,33.87,9.33,50.68h0c1.14,5,2.55,9.92,4.22,14.77,7.16,2.94,13.36,7.35,20.32,10.74h0c1.62,.87,3.31,1.58,5.06,2.11-.44-2.36-1.12-4.73-1.69-7.04-.16-.8-.16-1.63,0-2.43-2.79-3.14-5.41-6.26-7.78-9.2h0Z"/><path d="M391.52,628.42c-3.7-13.81-9.39-27.61-11.95-41.55-3.32-18.09-6.33-36.23-9.72-54.33-.02-.38,.01-.75,.06-1.12-1.08-3-1.98-6.01-2.75-8.89-1.65,3.38-3.97,6.39-6.84,8.83-1.38,1.33-3.29,1.96-5.19,1.71-1.9-.25-3.59-1.35-4.58-3-2.32-3.98-4.91-7.8-7.73-11.44,14.89,26.34,25.69,56.18,24.75,85.9,6.98,8.9,15.03,16.93,23.95,23.89h0Z"/><path d="M189.35,509.74c24.93,23.39,48.89,40.78,83.53,34.51-8.95-9.2-17.19-19.17-26.99-27.56h0c-.83-.3-1.59-.75-2.25-1.34-18.22-16.82-37.2-32.03-55.86-48.13-13.87-11.96-21.61-27.99-32.21-42.64-.26-.33-.48-.69-.64-1.08-9-.19-17.77-9.4-24.29-14.26-10.8-7.51-20.15-16.91-27.61-27.74,.89,22.05-14.32,35.79-28.76,52.35-1.7,2.14-4.77,2.62-7.03,1.08-1.22,3.77-2.67,7.46-4.34,11.05-3.01,7-6.69,13.71-10.99,20-.1,.61-.32,1.2-.64,1.73-11.25,18.15-1.41,59.18,22.5,62.32-5.21-10.43-8.12-21.85-8.57-33.49,.1-3.38,2.88-6.08,6.26-6.08s6.16,2.69,6.26,6.08c.26,15.47,9.2,48.64,30.42,40.33h0c1.71-.8,3.73-.52,5.17,.7,1.36-.82,2.99-1.07,4.54-.7,9.07,2.04,18.41,2.64,27.67,1.79-1.54-1.73-2.99-3.55-4.34-5.43-4.73-6.52,6.07-12.72,10.74-6.27,15.38,21.24,38.01,20.81,60.7,16.96-11.52-7.35-22.26-15.85-32.06-25.38-5.92-5.5,2.9-14.32,8.78-8.82h0Zm49.54,11.19c2.96,2.3,6.38,3.94,10.03,4.79,7.61,2.56,4.35,14.57-3.32,12.02h0c-5.7-1.5-11-4.22-15.54-7.98-5.88-5.5,2.94-14.32,8.82-8.82h0Zm-34.69-23.33c2.97-1.71,6.76-.71,8.5,2.25,2.42,3.62,6.29,6.01,10.62,6.52,7.99,.26,8.05,12.71,0,12.37-8.73-.58-16.67-5.27-21.37-12.65-.84-1.42-1.07-3.12-.64-4.72,.42-1.6,1.47-2.95,2.9-3.78h0Zm-134.36-14c-2.97,1.69-6.75,.69-8.5-2.25-1.99-4.79-2.85-9.97-2.5-15.14,0-6.39,12.47-6.39,12.53,0s-.38,6.45,.7,8.82h0c1.66,3,.67,6.77-2.24,8.58h0Zm38-70.97c.98-3.27,4.36-5.19,7.67-4.36,3.32,.92,5.26,4.35,4.35,7.67-.48,1.25-.67,2.6-.56,3.94-.14,3.33-2.89,5.97-6.23,5.97s-6.09-2.64-6.23-5.97c-.15-2.46,.2-4.92,1-7.25h0Zm15.39,47.24c2.37,2.75,4.5,5.69,6.39,8.79,3.8,7.08-6.95,13.37-10.76,6.29h0c-1.89-3.1-4.03-6.04-6.4-8.79-1.73-2.97-.72-6.79,2.25-8.53,2.98-1.64,6.72-.66,8.51,2.23h0Zm-18.29-28.81c.18,6.99,1.16,13.94,2.94,20.71,1.92,7.8-10.12,11.12-12.01,3.32h0c-2.04-7.86-3.2-15.92-3.45-24.03,.14-3.35,2.9-6.01,6.26-6.01s6.13,2.65,6.27,6.01h0Zm-18,47.88c-3.11-5.87-4.53-12.49-4.09-19.12,.14-3.36,2.9-6.01,6.26-6.01s6.13,2.65,6.27,6.01c-.44,4.41,.36,8.86,2.3,12.84,4.17,6.85-6.55,13.11-10.77,6.28h.03Zm17.57,41.54c-3.3-5.38-5.67-11.27-7.03-17.43-.76-3.26,1.18-6.54,4.41-7.43,3.23-.89,6.58,.92,7.6,4.11,1.13,5.11,3.08,10.01,5.75,14.51,4.38,6.76-6.42,12.96-10.77,6.25h.03Zm31-.96h0c-10.46-5.49-18.37-14.84-22.05-26.08-2.68-7.6,9.39-10.87,12.02-3.32,2.81,8.11,8.66,14.8,16.31,18.67,7.12,3.71,.79,14.44-6.3,10.74h.02Zm7.87-54.33h0c-2.98,1.67-6.74,.67-8.5-2.24-5.6-5.75-10.43-12.19-14.38-19.18-1.65-2.98-.66-6.73,2.25-8.5,2.97-1.72,6.77-.72,8.5,2.25,3.97,6.95,8.78,13.39,14.33,19.17,.85,1.42,1.09,3.12,.67,4.73-.42,1.6-1.47,2.96-2.91,3.79h.04Zm2.05-16.14c-3.01-2.98-5.21-6.68-6.39-10.74-.78-3.27,1.16-6.57,4.41-7.46,3.24-.89,6.6,.94,7.61,4.15,.58,2,1.68,3.81,3.19,5.24,5.53,5.76-3.26,14.61-8.85,8.82h.04Zm25.18,47.33c-6.35,.03-12.48-2.32-17.19-6.58-5.87-5.5,2.94-14.26,8.82-8.82h0c2.32,1.99,5.31,3.06,8.37,3,3.42,.02,6.19,2.8,6.18,6.22-.01,3.42-2.8,6.19-6.22,6.18h.04Zm6.46-13.62c-6.07-4.6-11.57-9.78-17.58-14.38h0c-2.92-1.76-3.92-5.52-2.25-8.5,.82-1.43,2.18-2.48,3.78-2.9s3.3-.19,4.72,.65c6.07,4.6,11.56,9.78,17.57,14.38,2.93,1.76,3.92,5.53,2.25,8.51-.82,1.44-2.19,2.49-3.8,2.91s-3.31,.19-4.74-.66h.04Z"/><path d="M294.36,546.99c-1.73-10.46-4.74-20.68-8.95-30.42-4.14-13.27-9.58-26.09-16.23-38.29-8.76,.2-15.28-11.56-19.55-21.15-.39,.89-.64,1.79-.96,2.62l-.13,.13h0c7.69,14.87,10.01,31.94,6.58,48.32,13.87,12.08,24.61,27.74,39.24,38.79h0Z"/><path d="M306.69,547.89c12.61,10.93,24.35,22.83,35.09,35.6,5.17,6.59,8.89,13.81,13.5,20.45,1.41-37.45-18.86-75.74-39.88-105.01h0c-.77-.97-1.17-2.2-1.12-3.45-2.12-2.85-4.02-5.86-5.68-9-.76,1.22-1.54,2.43-2.36,3.65h0c-1.15,1.88-3.2,3.02-5.4,3.02s-4.25-1.14-5.4-3.02c-3.1-5.7-7.6-10.52-13.07-14.01,6.62,13.22,12.13,26.97,16.48,41.1,3.92,9.85,6.56,20.16,7.85,30.68h0Z"/></svg>