<?xml version="1.0" encoding="utf-8"?>
<!-- Generator: Adobe Illustrator 26.3.1, SVG Export Plug-In . SVG Version: 6.00 Build 0)  -->
<svg version="1.1" id="Layer_1" xmlns="http://www.w3.org/2000/svg" xmlns:xlink="http://www.w3.org/1999/xlink" x="0px" y="0px"
	 viewBox="0 0 451.7 628.4" style="enable-background:new 0 0 451.7 628.4;" xml:space="preserve">
<style type="text/css">
	.st0{fill:#CE0000;}
	.st1{fill:#EAEAEA;}
</style>
<path class="st0" d="M217.5,66.5c-7-4.2-13-9.9-20.4-13.4c-14.1-6.7-26.5,1.8-39.1,7.6c-0.2,0.1-0.5,0.2-0.8,0.2h-2.4
	c-3.7,0-5.3-2.6-6.4-6.9l-0.1-1.7c0-8.9,2.8-15.9,8-22c0,0,0,0,0.1-0.1c1.3-1.6-0.5-3.7-2.2-2.8c-12.6,6.3-24.7,13.2-28.7,26.6
	c-0.9,2.6-3.3,4.3-6,4.3h-0.3c-2.4-0.1-2.6-0.7-5.3-2.5c-0.6-0.4-1.6-1.2-2.1-1.6c-2.2-1.8-2.2-1.3-3.1-2.2
	c-1.2-1.1-1.9-2.8-1.8-4.5c0.2-12.4,4.7-31,2.7-45.9c-0.2-1.7-2.5-2.2-3.4-0.7C94.6,19,71.6,31.2,73,53.9h0c0,2.5-1.5,4.8-3.9,5.7
	c-2.3,0.9-5,0.3-6.7-1.5c-1.2-0.1-2.4-0.6-3.3-1.3C51.8,51.6,45,45.8,38.7,39.5c-1.2-1.2-3.2-0.3-3.1,1.4
	c0.5,13.2,4.4,27.4-3.9,37.7c-0.1,0.1-0.1,0.2-0.2,0.2c-3.9,3.9-9.1,6-14.5,6.1c-1.3,0-2.1,1.4-1.6,2.6c2.8,6.7,4.6,14.2,2.2,20.4
	c-2.4,6.3-8.1,10.7-14.7,11.4c-0.9,0.1-1.6,0.9-1.6,1.8c0.2,11.9-4,27.8,2.5,36.6c4,6,9.4,10.8,15.5,14.1c6.2,3.3,13.1,5.2,20.4,5.3
	c0.2,0,0.3,0,0.5,0c1.3,0,2.6,0.5,3.6,1.4c0.8,0.7,1.3,1.6,1.6,2.6c0.2,0.7,0.8,1.3,1.5,1.4c4.7,0.5,9.2,2.3,13,5.1
	c0.1,0.1,0.2,0.2,0.3,0.3c1.1,1.1,1.7,2.7,1.7,4.2c0,1.6-0.6,3.2-1.8,4.4c-6,5.8-16.3,9.7-19.2,18c-0.5,1.6-1.6,2.9-3.1,3.6
	c-1.1,1.3-2.8,1.9-4.5,1.7c-1.1,0-2.1,0-3.2,0.1c-0.7,0.1-1.2,0.5-1.5,1.1c-0.3,0.7-0.8,1.3-1.3,1.8c-6.1,7.4-9.1,17-8.1,26.6
	c0.5,11.4,10.8,15.1,19.7,19.6c1.8,0.8,2.9,2.5,3.1,4.3c0,0.4,0.2,0.8,0.4,1.1c0.7,0.9,1.1,2,1.2,3.1c1.1,12.4-7.3,19.7-12.4,30
	c-6.8,13.6,6.6,21.4,16.9,11.9l0,0c1-0.9,2.2-1.5,3.6-1.6c0.8-0.1,1.5-0.8,1.6-1.6c0.6-4.6,0.6-9.3,0.2-13.9
	c-4.2-33.9-11.2-63.6,5.7-95.1c1.5-2.5,4.6-3.6,7.3-2.6c2.8,0.9,4.5,3.7,4.2,6.6c-0.1,0.8-0.3,1.6-0.7,2.3
	c-20.4,37.8,2.5,74.4-6.5,113.2c0,0.3-0.1,0.5,0,0.8c4,18.2,12.9,23.2,26.7,14.9l0,0c6.9-3.8,12.6-9.5,16.4-16.4
	c4.8-8.6,6.9-18.4,6.1-28.2c-2.4-19.4-4.9-44.9-12.2-63c-1.6-0.5-3.2-1.2-4.6-2.1c-3-1.8-5.6-4.3-7.5-7.3c-1.6-2.8-2.7-6.8-6.3-7.4
	c-1.5-0.1-2.8-0.9-3.7-2.2c-0.8-1.2-1.1-2.8-0.7-4.2c0.6-3.7,4-6.2,7.7-5.6c10.9,1.7,10.7,16,20.9,17.4c14.3,2,25.4-12.4,24.8-25.8
	c-0.1-1.9,0.7-3.6,2.1-4.8c1.4-1.2,3.4-1.5,5.2-1c0.1-0.1,0.1-0.1,0.2-0.2c9.9-9.5,20.1-21.4,15.2-35c-0.2-0.6-0.8-1.1-1.4-1.2
	c-13.6-2.3-25.8-12.5-39.7-10.1l0,0c-0.8,0.1-1.7,0.1-2.5-0.1c-0.4-0.1-0.9,0-1.3,0.2c-8.1,4.3-17.6,4.6-26.1,13.5
	c-5.6,5.8-14.4-3.1-8.8-8.8c12.1-12.6,28.7-10.8,37.8-27c4.7-8.3,16.8-12.5,25.9-12.1c18.1,0.9,38.7,6,55.2-4.5
	c14.2-9,21.1-22.7,26-37.9C218.6,67.8,218.3,66.9,217.5,66.5L217.5,66.5L217.5,66.5z M56.7,167.1l-4.8,4.8c-2.5,2.4-6.4,2.4-8.8,0
	c-2.4-2.4-2.4-6.4,0-8.8l4.8-4.8c2.4-2.4,6.4-2.4,8.8,0C59.2,160.7,59.2,164.6,56.7,167.1L56.7,167.1L56.7,167.1z M111.4,161.4
	c0.5-0.2,1-0.3,1.5-0.3c0.8-0.4,1.7-0.6,2.6-0.7c6.5-0.6,15.5,3.5,15.4,11.1c-0.3,6.8-5.9,12.2-12.8,12c-5.5-0.1-10.6-2.9-13.6-7.5
	c-0.1-0.1-0.1-0.2-0.2-0.3C101.3,168.9,105.2,164,111.4,161.4L111.4,161.4L111.4,161.4z M98.5,268.9c1.4,17,7.4,33.1-0.1,49.5
	c-3.3,7.3-14.1,1-10.8-6.3c6-13.3-0.6-29.4-1.7-43.2C85.4,260.9,97.9,260.9,98.5,268.9L98.5,268.9L98.5,268.9z"/>
<path class="st1" d="M58.7,418.6c2.8-21.1,4-42.3,3.4-63.5c-10-5.2-11.7-13.3-11.1-22.6l0,0c-3.1,1.8-6.6,3-10.1,3.6
	c0,0.5-0.1,1-0.2,1.5c-12.9,39.7,8.6,84.1-0.8,124.2C50.3,451.6,57.3,427.3,58.7,418.6L58.7,418.6L58.7,418.6z"/>
<path class="st1" d="M44.7,194.6c-1.3-0.2-2.4-0.2-3.8-0.4l0,0c-2.5-0.2-4.5-2.2-4.7-4.7c-4.9-0.2-9.8-1.1-14.4-2.8
	c-0.1,0.1-0.1,0.2-0.2,0.2l0,0c-8.4,7.4-14,17.4-15.9,28.4c7.6-4.9,16.4-7.6,25.4-7.9C34.7,202.4,39.3,198,44.7,194.6L44.7,194.6
	L44.7,194.6z"/>
<path class="st1" d="M90.2,377.6c-0.3-2,0.2-4,1.6-5.5c1.3-1.5,3.2-2.3,5.2-2.3c-1.8-4.8-2.9-9.8-3.3-14.9c-5.8,3.1-12.4,4.5-19.1,4
	c0.8,19.9-0.2,39.9-3.2,59.6C82.4,406.9,93.6,395.2,90.2,377.6C90.2,377.6,90.2,377.6,90.2,377.6z"/>
<path class="st1" d="M147.8,216.9c4.3-4.7,9.3-8.8,13.4-13.6c2.6-3,11.9-22.2,1.6-23.2c-4.1,7.7-9.4,14.6-15.9,20.5
	c-1,1-2.4,1.6-3.9,1.7c-1.2,13-8.8,24.6-20.1,31.1C131.2,236.2,142.3,223,147.8,216.9L147.8,216.9L147.8,216.9z"/>
<path class="st1" d="M168.1,126.3c-1.3-0.4-2.4-1.3-3.1-2.4c-17-0.8-37.4-2.3-44.9,9.1l0,0c4.6,0.5,9.2,1.6,13.5,3.4
	c7.2,4,15.2,6.4,23.4,7.2c0.2,0,0.4,0.1,0.6,0.1c0.5,0,1,0.1,1.5,0.2c0.3,0.1,0.5,0.2,0.8,0.4c0.4,0.2,0.8,0.5,1.1,0.8
	c0.2,0.2,0.4,0.5,0.6,0.8c0.2,0.3,0.4,0.4,0.6,0.7l0,0c3.8,6.4,5.3,14,4.3,21.4c4.3,1.4,8,4.2,10.4,8c2.4,3.8,3.3,8.4,2.7,12.9
	c-1,15.8-10.4,22.7-20.2,33.6c-10.7,11.8-29.5,30-43.9,21.6c2.7,12.8,3.4,25.8,6.7,39c2.8,10.5,3.1,21.4,1.1,32.1
	c1,0.8,1.8,1.8,2.1,3.1c4.3,14.4,10.9,28.1,15.2,42.6c3.8,13,11.2,24.5,21.4,33.4c5-17-5.1-38-12-52.9c-3.4-7.2,7.4-13.5,10.8-6.3
	c7.5,16,16.6,36.4,14.7,55l0,0c1,0.8,1.7,2,1.9,3.3c1.9,7.9,4.9,15.4,8.9,22.4c3.9,8.3,6.3,3.5,9.2-3.3c7.2-14.5,7.8-31.4,1.6-46.3
	c-3.1-7.4,7.6-13.7,10.7-6.3l0,0c6.1,12.3,7.8,26.3,4.9,39.8c-0.1,0.4-0.1,0.7-0.2,1.1c1.1,0.7,1.9,1.8,2.4,3
	c3.6,10.2,12.2,16.9,18.3,25.4c2.8,3.9,5,10.4,7.9,15.5c3-9.4,4.1-19.2,3.4-29c-0.9-12-8.5-20.2-15.4-29.5c-4.9-6.4,6-12.6,10.7-6.3
	c9.3,12.3,17.7,23.5,17.3,39.8l0,0c-0.2,7.4-1.1,14.8-2.8,22c1.7,0.7,3,2,3.7,3.6c1.7,4.9,3.8,9.6,6.2,14.1c6.6,11,8.6-2.4,8.7-9.1
	c-0.4-16.4-3.3-32.6-8.6-48c-0.8-3.3,1.2-6.5,4.5-7.4c3.2-0.9,6.6,0.9,7.6,4.1c5.4,15.5,8.5,31.7,9,48.1c0.2,5.5-0.3,11.1-1.4,16.6
	c6.4,2.5,12,6.5,16.3,11.8c0.6-1.5,1.1-2.9,1.6-4.5c-0.7-2-1.2-3.9-1.6-5.6c-0.7-2.9,0.8-5.9,3.6-7c0.5-11.6-2.5-23.1-8.6-33
	c-4.2-6.9,6.6-13.9,10.8-7c9.4,15.5,12.5,34,8.8,51.7c1.6,4,3.6,7.9,5.8,11.6c1.9,3.2,7.4,13.4,9.8,10.4c0-0.1-0.1-0.1-0.1-0.2l0,0
	c0.1-1.2,0.4-2.3,1.1-3.3c2.4-18.6,0.5-41.6-9-57.5c-1.6-3-0.5-6.7,2.4-8.4s6.6-0.8,8.4,2.1c9,15.1,10.1,30,10.9,47.1l0,0
	c0.8,7.6,0.5,15.3-0.9,22.9c1.4,7.7,7.6,14.8,12.9,21.6c7.4-14.6,3.6-42.2,1.3-55.4c-5.5-33.2-27-62.3-46.1-89
	c-4.7-6.5,6.1-12.8,10.8-6.3c21.4,30,45.1,62.9,48.5,100.8c1.8,13.3,2.1,26.7,1,40.1c2.6,0,4.9,1.9,5.4,4.4
	c1.2,4.9,2.7,9.7,4.4,14.4c0.5-3,3-5.1,6-5c0.4-12,0.9-24,0.3-35.9c-2.2-44.4-25.9-79-48.5-115.7c-4.2-6.8,6.5-13.1,10.7-6.3
	c14.5,23.5,33.5,49.2,42.8,76.5l0,0c0.4-1.4,1.2-2.5,2.4-3.2c0.9-14.4-5.6-31.1-9.1-44.4c-4.8-18.6-11.5-36.7-20-53.9
	c-15.5-28.6-32.9-56-52.2-82.1c-20.6-29.2-37.2-57.7-68.5-76.8c-13.4-8.2-26.9-16-39.6-25.3C193.1,143.9,183.5,131.2,168.1,126.3
	L168.1,126.3L168.1,126.3L168.1,126.3z M144.4,305.6c-4.9-11.2-6.8-23.4-12-34.4c-3.4-7.2,7.4-13.5,10.8-6.3
	c5.2,11.1,7.1,23.2,11.9,34.3C158.4,306.6,147.6,312.9,144.4,305.6L144.4,305.6L144.4,305.6z M178.1,161.9c-0.9-3.3,1-6.8,4.4-7.7
	c5.1-0.9,10.4-0.3,15.3,1.6c3.3,1,5.2,4.4,4.4,7.7c-0.9,3.3-4.4,5.3-7.7,4.4c-2.7-1.3-5.7-1.8-8.7-1.6
	C182.5,167.1,179.1,165.1,178.1,161.9L178.1,161.9L178.1,161.9z M190.5,184.8h-2.4c-3.4-0.1-6.1-2.9-6.1-6.2s2.7-6.1,6.1-6.2h2.4
	c3.4,0.1,6,2.9,6,6.2S193.9,184.7,190.5,184.8L190.5,184.8z M173.9,334.4c0.3-14.6-5.8-27.2-11.9-40c-3.4-7.2,7.3-13.5,10.7-6.3
	c7,14.9,14,29.5,13.7,46.3l0,0c-0.1,3.4-2.9,6-6.3,6S174,337.8,173.9,334.4L173.9,334.4L173.9,334.4z M177.8,241.5
	c-6.6-4.4-0.4-15.1,6.3-10.7c16.3,10.2,28,26.5,32.4,45.2c1.5,7.9-10.5,11.2-12,3.3C200.9,263.7,191.3,250.1,177.8,241.5
	L177.8,241.5L177.8,241.5z M217.3,318.5c-1,3.2-4.4,5-7.6,4.1s-5.2-4.1-4.5-7.4c1.2-6.5-0.3-13.1-4.2-18.4c-1.6-3-0.5-6.6,2.4-8.3
	c2.9-1.7,6.6-0.8,8.4,2C217.4,298.7,219.4,308.8,217.3,318.5L217.3,318.5L217.3,318.5z M234.6,249.7c-9.4-13.6-23.1-23.1-36.1-32.9
	c-6.3-4.8-0.1-15.7,6.3-10.8c14.8,11.2,29.9,22,40.6,37.4C250.1,250,239.2,256.2,234.6,249.7L234.6,249.7z M258.6,304.8
	c-4.7-8.9-8.4-18.2-11-27.9c-1.6-7.8,10.4-11.2,12-3.3l0,0c2.3,8.6,5.6,17,9.8,24.9C272.8,305.8,262,312.1,258.6,304.8L258.6,304.8
	L258.6,304.8L258.6,304.8z M271.4,335.2c-1.6-3-0.6-6.7,2.4-8.4c2.9-1.7,6.7-0.8,8.5,2.1c8.5,12.7,15.4,26.3,20.6,40.6
	c2.4,7.7-9.6,10.9-12,3.2C285.8,359.5,279.3,346.9,271.4,335.2L271.4,335.2L271.4,335.2L271.4,335.2z M287.6,402.4
	c-0.7-2.6-1.9-5.1-3.4-7.3c-4.4-6.8,6.4-13,10.8-6.3c2,3.2,3.6,6.6,4.6,10.3c0.7,3.2-1.2,6.5-4.4,7.4
	C292,407.3,288.6,405.5,287.6,402.4L287.6,402.4L287.6,402.4z M318,399.1c0.8,3.3-1.1,6.7-4.4,7.7c-3.3,0.9-6.7-1-7.6-4.4
	c-0.1-2.9-1.4-5.6-3.5-7.5c-6.7-4.4-0.5-15.2,6.3-10.8C313.8,387.6,317.2,393,318,399.1L318,399.1L318,399.1z M317.2,320.8
	c1.8,6.5,5.6,12.1,8,18.4l0,0c0.9,3.3-1,6.7-4.3,7.7c-3.3,0.8-6.7-1.1-7.7-4.4c-3-6-5.6-12.1-8-18.4c-0.8-3.3,1.2-6.5,4.4-7.4
	C312.8,315.8,316.2,317.6,317.2,320.8L317.2,320.8L317.2,320.8z M294.2,253c8,10,14.1,21.4,18.2,33.5c2.4,7.7-9.6,10.9-12,3.3l0,0
	c-3.9-11-9.6-21.3-16.9-30.4C278.6,252.8,289.5,246.6,294.2,253L294.2,253L294.2,253z M211.3,177.4c28.2,11.6,48,32.3,69.1,53.6
	c2.4,2.4,2.4,6.4,0,8.8s-6.4,2.4-8.8,0c-19.3-19.4-37.6-39.6-63.6-50.3C200.7,186.4,203.9,174.4,211.3,177.4L211.3,177.4z"/>
<path class="st1" d="M129.1,392.2c5.9,4.9,12,10,18.3,14.3c4.9,3.3,8.1,3.2,10.3,0.6c-10.9-9-21.6-19.4-26.1-33.2
	s-9.9-27.3-14.5-41.1l0,0c-3.4,5.6-7.6,10.7-12.7,15c0.8,1,1.2,2.1,1.3,3.4C106.4,368.7,116,381.3,129.1,392.2L129.1,392.2
	L129.1,392.2L129.1,392.2z"/>
<path class="st1" d="M220.8,433.5c-4.7-5.3-9.1-10.9-13-16.8c-1.8,5-4.7,9.6-8.6,13.2c-5.6,4.6-15.4,8.5-20,0.2l0,0
	c-3.4-5.9-6.4-11.9-9-18.1c-0.9,2.3-2.1,4.5-3.6,6.4c6.1,8.4,11,17.7,17.2,26.1c7.7,9.2,16.7,17.2,26.7,23.8
	c11.8,9.4,23,19.5,33.6,30.2c1.2-12.7-1.8-25.5-8.5-36.4c-1.1-1.5-1.4-3.5-0.6-5.2C229.2,450,226.9,440.6,220.8,433.5L220.8,433.5
	L220.8,433.5z"/>
<path class="st1" d="M397.3,456.3c3.9,22.9,4.6,46.1,2.4,69.2c-0.3,3.9-1,7.8-2,11.6c5,18.3,9,37.9,19.6,53.2
	c7.7,11.2,20.1,28.4,34.5,34.5c-15.1-25.6-27.1-52.9-35.5-81.4C408.3,514.7,405.4,484.9,397.3,456.3L397.3,456.3L397.3,456.3z"/>
<path class="st1" d="M414.8,608c-14.2-17.9-20.3-38.5-26.5-59.6c-1,0.1-2,0.1-2.9-0.1c2.9,16.9,5.8,33.9,9.3,50.7l0,0
	c1.1,5,2.5,9.9,4.2,14.8c7.2,2.9,13.4,7.3,20.3,10.7l0,0c1.6,0.9,3.3,1.6,5.1,2.1c-0.4-2.4-1.1-4.7-1.7-7c-0.2-0.8-0.2-1.6,0-2.4
	C419.8,614.1,417.1,611,414.8,608L414.8,608L414.8,608z"/>
<path class="st1" d="M391.5,628.4c-3.7-13.8-9.4-27.6-12-41.5c-3.3-18.1-6.3-36.2-9.7-54.3c0-0.4,0-0.8,0.1-1.1c-1.1-3-2-6-2.8-8.9
	c-1.6,3.4-4,6.4-6.8,8.8c-1.4,1.3-3.3,2-5.2,1.7s-3.6-1.3-4.6-3c-2.3-4-4.9-7.8-7.7-11.4c14.9,26.3,25.7,56.2,24.8,85.9
	C374.6,613.4,382.6,621.5,391.5,628.4L391.5,628.4L391.5,628.4z"/>
<path class="st1" d="M189.4,509.7c24.9,23.4,48.9,40.8,83.5,34.5c-9-9.2-17.2-19.2-27-27.6l0,0c-0.8-0.3-1.6-0.8-2.2-1.3
	c-18.2-16.8-37.2-32-55.9-48.1c-13.9-12-21.6-28-32.2-42.6c-0.3-0.3-0.5-0.7-0.6-1.1c-9-0.2-17.8-9.4-24.3-14.3
	c-10.8-7.5-20.2-16.9-27.6-27.7c0.9,22-14.3,35.8-28.8,52.4c-1.7,2.1-4.8,2.6-7,1.1c-1.2,3.8-2.7,7.5-4.3,11c-3,7-6.7,13.7-11,20
	c-0.1,0.6-0.3,1.2-0.6,1.7C40,485.9,49.9,526.9,73.8,530c-5.2-10.4-8.1-21.9-8.6-33.5c0.1-3.4,2.9-6.1,6.3-6.1s6.2,2.7,6.3,6.1
	c0.3,15.5,9.2,48.6,30.4,40.3l0,0c1.7-0.8,3.7-0.5,5.2,0.7c1.4-0.8,3-1.1,4.5-0.7c9.1,2,18.4,2.6,27.7,1.8c-1.5-1.7-3-3.5-4.3-5.4
	c-4.7-6.5,6.1-12.7,10.7-6.3c15.4,21.2,38,20.8,60.7,17c-11.5-7.3-22.3-15.8-32.1-25.4C174.7,513,183.5,504.2,189.4,509.7
	L189.4,509.7L189.4,509.7L189.4,509.7z M238.9,520.9c3,2.3,6.4,3.9,10,4.8c7.6,2.6,4.4,14.6-3.3,12l0,0c-5.7-1.5-11-4.2-15.5-8
	C224.2,524.3,233,515.4,238.9,520.9L238.9,520.9L238.9,520.9z M204.2,497.6c3-1.7,6.8-0.7,8.5,2.2c2.4,3.6,6.3,6,10.6,6.5
	c8,0.3,8.1,12.7,0,12.4c-8.7-0.6-16.7-5.3-21.4-12.6c-0.8-1.4-1.1-3.1-0.6-4.7C201.8,499.8,202.8,498.4,204.2,497.6L204.2,497.6
	L204.2,497.6z M69.9,483.6c-3,1.7-6.8,0.7-8.5-2.2c-2-4.8-2.8-10-2.5-15.1c0-6.4,12.5-6.4,12.5,0s-0.4,6.5,0.7,8.8l0,0
	C73.8,478,72.8,481.8,69.9,483.6L69.9,483.6L69.9,483.6z M107.9,412.6c1-3.3,4.4-5.2,7.7-4.4c3.3,0.9,5.3,4.4,4.3,7.7
	c-0.5,1.2-0.7,2.6-0.6,3.9c-0.1,3.3-2.9,6-6.2,6s-6.1-2.6-6.2-6C106.7,417.4,107.1,415,107.9,412.6L107.9,412.6L107.9,412.6z
	 M123.2,459.9c2.4,2.8,4.5,5.7,6.4,8.8c3.8,7.1-6.9,13.4-10.8,6.3l0,0c-1.9-3.1-4-6-6.4-8.8c-1.7-3-0.7-6.8,2.2-8.5
	C117.7,456,121.4,457,123.2,459.9L123.2,459.9L123.2,459.9z M105,431.1c0.2,7,1.2,13.9,2.9,20.7c1.9,7.8-10.1,11.1-12,3.3l0,0
	c-2-7.9-3.2-15.9-3.4-24c0.1-3.4,2.9-6,6.3-6S104.8,427.7,105,431.1L105,431.1z M87,478.9c-3.1-5.9-4.5-12.5-4.1-19.1
	c0.1-3.4,2.9-6,6.3-6s6.1,2.6,6.3,6c-0.4,4.4,0.4,8.9,2.3,12.8C101.9,479.5,91.1,485.8,87,478.9C86.9,478.9,87,478.9,87,478.9z
	 M104.5,520.5c-3.3-5.4-5.7-11.3-7-17.4c-0.8-3.3,1.2-6.5,4.4-7.4c3.2-0.9,6.6,0.9,7.6,4.1c1.1,5.1,3.1,10,5.8,14.5
	C119.6,521,108.8,527.2,104.5,520.5L104.5,520.5L104.5,520.5z M135.5,519.5L135.5,519.5c-10.5-5.5-18.4-14.8-22.1-26.1
	c-2.7-7.6,9.4-10.9,12-3.3c2.8,8.1,8.7,14.8,16.3,18.7C148.9,512.5,142.6,523.2,135.5,519.5L135.5,519.5L135.5,519.5z M143.4,465.2
	L143.4,465.2c-3,1.7-6.7,0.7-8.5-2.2c-5.6-5.8-10.4-12.2-14.4-19.2c-1.7-3-0.7-6.7,2.2-8.5c3-1.7,6.8-0.7,8.5,2.2
	c4,7,8.8,13.4,14.3,19.2c0.9,1.4,1.1,3.1,0.7,4.7C145.8,463,144.8,464.4,143.4,465.2L143.4,465.2L143.4,465.2L143.4,465.2z
	 M145.4,449c-3-3-5.2-6.7-6.4-10.7c-0.8-3.3,1.2-6.6,4.4-7.5c3.2-0.9,6.6,0.9,7.6,4.1c0.6,2,1.7,3.8,3.2,5.2
	C159.8,446,151,454.8,145.4,449L145.4,449L145.4,449z M170.6,496.4c-6.4,0-12.5-2.3-17.2-6.6c-5.9-5.5,2.9-14.3,8.8-8.8l0,0
	c2.3,2,5.3,3.1,8.4,3c3.4,0,6.2,2.8,6.2,6.2C176.8,493.6,174,496.4,170.6,496.4L170.6,496.4L170.6,496.4z M177.1,482.7
	c-6.1-4.6-11.6-9.8-17.6-14.4l0,0c-2.9-1.8-3.9-5.5-2.2-8.5c0.8-1.4,2.2-2.5,3.8-2.9s3.3-0.2,4.7,0.6c6.1,4.6,11.6,9.8,17.6,14.4
	c2.9,1.8,3.9,5.5,2.2,8.5c-0.8,1.4-2.2,2.5-3.8,2.9S178.5,483.6,177.1,482.7L177.1,482.7L177.1,482.7z"/>
<path class="st1" d="M294.4,547c-1.7-10.5-4.7-20.7-9-30.4c-4.1-13.3-9.6-26.1-16.2-38.3c-8.8,0.2-15.3-11.6-19.6-21.1
	c-0.4,0.9-0.6,1.8-1,2.6l-0.1,0.1l0,0c7.7,14.9,10,31.9,6.6,48.3C269,520.3,279.7,535.9,294.4,547L294.4,547L294.4,547z"/>
<path class="st1" d="M306.7,547.9c12.6,10.9,24.4,22.8,35.1,35.6c5.2,6.6,8.9,13.8,13.5,20.5c1.4-37.5-18.9-75.7-39.9-105l0,0
	c-0.8-1-1.2-2.2-1.1-3.5c-2.1-2.9-4-5.9-5.7-9c-0.8,1.2-1.5,2.4-2.4,3.6l0,0c-1.1,1.9-3.2,3-5.4,3s-4.2-1.1-5.4-3
	c-3.1-5.7-7.6-10.5-13.1-14c6.6,13.2,12.1,27,16.5,41.1C302.8,527.1,305.4,537.4,306.7,547.9L306.7,547.9L306.7,547.9z"/>
</svg>
