<?xml version="1.0" encoding="utf-8"?>
<!-- Generator: Adobe Illustrator 26.3.1, SVG Export Plug-In . SVG Version: 6.00 Build 0)  -->
<svg version="1.1" id="Layer_1" xmlns="http://www.w3.org/2000/svg" xmlns:xlink="http://www.w3.org/1999/xlink" x="0px" y="0px"
	 viewBox="0 0 800 800" fill="#525252" style="enable-background:new 0 0 800 800;" xml:space="preserve">
<path d="M426.1,218l-11.7,11.7l100,8.6l60.1-60.1c9.4-9.4,26.6-23.5,51.6-39.1s41.4-20.3,47.7-14.1c17.2,17.2,0,50.8-51.6,101.6
	l-59.4,59.4l8.6,100l11.7-10.9c9.4-10.1,19.5-10.1,27.3-2.4c9.4,9.4,5.5,22.7-13.3,41.4l-18.8,19.5l9.4,67.2l13.3-14.1
	c8.6-9.4,18-9.4,26.6-1.6c9.4,9.4,7.8,21.1-4.7,33.6l-28.1,28.1c11,75,12.5,117.2,3.9,125.8c-3.9,3.1-9.4,6.2-17.2,7.8
	c-7,0.8-13.3,0-17.2-3.1c-3.1-3.9-7.8-18-12.5-42.2c-5.5-25-18.8-67.2-42.2-126.6c-22.7-60.1-39.1-93.8-46.9-102.4
	c-3.1-3.1-7.8-3.1-13.3,0c-5.5,2.4-25,18.8-56.2,49.2c-31.2,31.2-60.1,56.2-87.5,75.8c-0.8,4.7,1.6,20.3,5.5,46.1
	c3.9,25.8,5.5,43,4.7,49.2c-1.6,6.2-7.8,14.8-18,25c-5.5,5.5-9.4,8.6-13.3,9.4c-10.2-10.2-25.8-43-46.9-96.9
	c-58.6-25.8-90.6-42.2-96.9-48.5c0-3.1,3.1-7.8,8.6-13.3c10.1-10.1,18.8-16.4,25.8-17.2c6.2-1.6,22.7,0.8,48.5,5.5
	c25.8,3.9,41.4,5.5,46.9,5.5c18.8-28.1,53.9-69.5,108.6-124.2c15.6-17.2,20.3-28.1,14.9-33.6c-7.8-8.6-42.2-24.2-101.6-46.9
	c-60.1-22.7-101.6-37.5-126.6-42.2c-25-5.5-39.1-9.4-42.2-13.3c-3.9-3.1-4.7-9.4-3.1-17.2c0.8-7.8,3.9-13.3,7.8-17.2
	c7.8-7.8,50-7,125.8,3.9l27.3-28.1c12.5-11.7,24.2-13.3,33.6-3.9c8.6,7.8,7.8,17.2-0.8,25.8l-14.1,13.3l67.2,9.4l18.8-18
	c18.8-18.8,32-22.7,41.4-13.3C436.2,199.1,435.5,207.7,426.1,218L426.1,218z"/>
</svg>
