<?xml version="1.0" encoding="UTF-8"?><svg id="Layer_1" xmlns="http://www.w3.org/2000/svg" xmlns:xlink="http://www.w3.org/1999/xlink" viewBox="0 0 466.76 500"><defs><style>.cls-1{fill:none;}.cls-2{clip-path:url(#clippath);}.cls-3{fill:#ffffffab;}.cls-4{fill:#ffffffdd;}.cls-5{fill:#ffffff88;}.cls-6{fill:#ffffff;fill-rule:evenodd;}</style><clipPath id="clippath"><rect class="cls-1" x="-113.71" y="-155.89" width="694.17" height="694.17"/></clipPath></defs><g class="cls-2"><g><path class="cls-6" d="M35.6,172.97H431.1c13.58,0,24.61,13.36,24.61,29.81v254.15c0,16.45-11.03,29.81-24.61,29.81H35.6c-13.58,0-24.61-13.36-24.61-29.81V202.78c0-16.45,11.03-29.81,24.61-29.81Zm142.91,50.21h109.68c11.49,0,20.83,9.33,20.83,20.83h0c0,11.49-9.33,20.83-20.83,20.83h-109.68c-11.49,0-20.83-9.33-20.83-20.83h0c0-11.49,9.33-20.83,20.83-20.83Z"/><path class="cls-4" d="M62.75,109.19H403.96c9.11,0,16.51,9.33,16.51,20.83v33.32H46.24v-33.32c0-11.49,7.4-20.83,16.51-20.83Z"/><path class="cls-3" d="M86.22,55.12H380.48c7.55,0,13.68,7.94,13.68,17.72v26.71H72.54v-26.71c0-9.78,6.13-17.72,13.68-17.72Z"/><path class="cls-5" d="M111.84,12.15h243.03c5.76,0,10.45,6.4,10.45,14.29v19.03H101.39V26.44c0-7.88,4.68-14.29,10.45-14.29Z"/></g></g></svg>