<?xml version="1.0" encoding="UTF-8" standalone="no"?><!-- Generator: Gravit.io --><svg id='shoebox-logo' xmlns="http://www.w3.org/2000/svg" xmlns:xlink="http://www.w3.org/1999/xlink" style="isolation:isolate" viewBox="0 0 500 500" width="500pt" height="500pt"><defs><clipPath id="_clipPath_e6Nb9Op9mIo4SRRU9XrPypWqDQSv2iwG"><rect width="500" height="500"/></clipPath></defs><g clip-path="url(#_clipPath_e6Nb9Op9mIo4SRRU9XrPypWqDQSv2iwG)"><path d=" M 80.47 241 L 425.53 241 C 437.38 241 447 250.62 447 262.47 L 447 445.53 C 447 457.38 437.38 467 425.53 467 L 80.47 467 C 68.62 467 59 457.38 59 445.53 L 59 262.47 C 59 250.62 68.62 241 80.47 241 Z  M 213.5 279 L 292.5 279 C 300.779 279 307.5 285.721 307.5 294 L 307.5 294 C 307.5 302.279 300.779 309 292.5 309 L 213.5 309 C 205.221 309 198.5 302.279 198.5 294 L 198.5 294 C 198.5 285.721 205.221 279 213.5 279 Z " fill-rule="evenodd" fill="rgb(255,255,255)"/><path d="M 98 194.67 L 408 194.67 C 416.279 194.67 423 201.391 423 209.67 L 423 233.67 L 83 233.67 L 83 209.67 C 83 201.391 89.721 194.67 98 194.67 Z" style="stroke:none;fill:#FFFFFF;stroke-miterlimit:10;opacity:0.95;"/><path d="M 115.763 156.33 L 390.237 156.33 C 397.281 156.33 403 162.049 403 169.093 L 403 188.33 L 103 188.33 L 103 169.093 C 103 162.049 108.719 156.33 115.763 156.33 Z" style="stroke:none;fill:#FFFFFF;stroke-miterlimit:10;opacity:0.9;"/><path d="M 133.29 127 L 372.71 127 C 378.389 127 383 131.611 383 137.29 L 383 151 L 123 151 L 123 137.29 C 123 131.611 127.611 127 133.29 127 Z" style="stroke:none;fill:#FFFFFF;stroke-miterlimit:10;opacity:0.85;"/></g></svg>