<?xml version="1.0" encoding="UTF-8"?><svg id="Layer_1" xmlns="http://www.w3.org/2000/svg" viewBox="0 0 309.53 100.91"><defs><style>.cls-1{stroke:#000;stroke-miterlimit:10;stroke-width:2.25px;}</style></defs><path d="M3.58,72.25c-.31-.92-.47-1.89-.49-2.86,0-2.65,1.63-4.36,4.12-4.36,2.09,0,3.43,.93,4.33,3.14,1.84,5.51,7.18,8.08,14,8.08,7.47,0,12.82-3.84,12.82-9.1,0-4.57-3.1-7.43-11-9.15l-6.45-1.34c-11.76-2.49-17.1-8-17.1-16.45,0-10.08,8.85-17,21.38-17,10.17,0,18.17,4.77,20.45,12.65,.23,.68,.35,1.4,.33,2.12,.08,2.09-1.54,3.84-3.63,3.92-.12,0-.25,0-.37,0-2.21,0-3.55-1-4.49-3.14-2-5.43-6.49-7.76-12.37-7.76-6.9,0-12,3.35-12,8.74,0,4.28,3.06,7.14,10.7,8.77l6.4,1.35c12.37,2.61,17.43,7.55,17.43,16.12,0,11.11-8.73,18.09-22.49,18.09-11.45-.02-19.28-4.96-21.57-11.82Z"/><path d="M54.77,93.6V43.88c0-2.81,1.75-4.53,4.24-4.53,2.3-.06,4.22,1.75,4.28,4.05,0,.16,0,.32-.01,.48v3.63h.16c2.62-5.1,7.94-8.24,13.67-8.08,10.9,0,18.09,8.57,18.09,22.17s-7.15,22.2-17.92,22.2c-6.17,0-11.07-3-13.51-7.8h-.19v17.6c0,2.9-1.83,4.69-4.41,4.69s-4.4-1.79-4.4-4.69Zm31.38-32c0-9-4.36-14.74-11.34-14.74s-11.27,5.88-11.27,14.74,4.49,14.73,11.27,14.73,11.34-5.71,11.34-14.73Z"/><path d="M101.99,79.19V43.8c-.19-2.26,1.48-4.24,3.73-4.44,.16-.01,.31-.02,.47-.01,2.45,0,4.17,1.76,4.17,4.45v3.67h.2c1.19-4.81,5.15-8,9.43-8,1.25-.09,2.49,.28,3.47,1.06,1.63,1.77,1.58,4.51-.12,6.21-1.15,.84-2.57,1.25-4,1.14-6,0-8.49,4.08-8.49,9.43v21.92c0,2.86-1.8,4.65-4.41,4.65s-4.45-1.83-4.45-4.69Z"/><path d="M125.91,61.6c0-13.8,8.13-22.25,20.37-22.25s20.37,8.45,20.37,22.25-8.08,22.28-20.37,22.28-20.37-8.45-20.37-22.28Zm31.76,0c0-9.51-4.49-15-11.39-15s-11.39,5.47-11.39,15,4.49,15,11.39,15,11.39-5.45,11.39-15Z"/><path d="M173.28,67.92v-23.88c0-2.93,1.8-4.69,4.41-4.69s4.41,1.76,4.41,4.69v22.17c0,6.53,3.1,10,9.18,10s10.21-4.41,10.21-11.1v-21.07c0-2.93,1.83-4.69,4.4-4.69s4.39,1.76,4.39,4.69v35.31c0,2.74-1.67,4.49-4.2,4.49-2.27,.09-4.18-1.68-4.26-3.95,0-.17,0-.33,.01-.5v-3.59h-.2c-2.37,5.14-6.73,8-13.31,8-9.34,.04-15.04-6.05-15.04-15.88Z"/><path d="M221.55,47.11h-3.1c-2.29,0-3.68-1.31-3.68-3.47s1.39-3.51,3.68-3.51h3.1v-6.38c0-2.82,1.75-4.7,4.45-4.7s4.4,1.88,4.4,4.7v6.37h5c1.82-.2,3.46,1.12,3.66,2.94,.02,.19,.02,.38,.01,.57,0,2.16-1.39,3.47-3.67,3.47h-5v23.72c0,3.43,1.19,5,4.37,5.23h.7c2.53,.24,3.79,1.26,3.79,3.34,0,2.66-2,4-6.36,4h-.45c-7.23,0-10.9-3.55-10.9-10.65v-25.63Z"/><path class="cls-1" d="M305.28,7.21c-.08-1.32-1.16-2.37-2.49-2.4-20.34,0-37.41,7-46.84,19.27-7,9-9.52,20.36-7.49,32.92,.16,1.21,1.27,2.06,2.48,1.91,.05,0,.1-.02,.15-.03l.61-.13c1.16-.29,1.9-1.42,1.7-2.59-1.8-11.06,.41-21,6.44-28.79,7.64-9.92,21.12-16,37.48-17.13-3.3,5.83-3.26,12.82-3.22,19.63,.09,14.43,.16,28.07-28.46,34.88,1.22-13.64,6.81-25.91,15.16-31.6,.97-.67,1.29-1.95,.75-3l-.29-.59c-.53-1.07-1.82-1.51-2.89-.98-.1,.05-.2,.11-.29,.17-14.73,9.87-20,33.64-16.81,52.88,.16,1.21,1.27,2.06,2.48,1.91,.05,0,.1-.02,.15-.03l.6-.14c1.16-.29,1.9-1.42,1.7-2.6-.59-3.49-.88-7.02-.86-10.56,33.9-7.61,33.81-25.74,33.72-40.33,0-8.24-.1-15.37,5.19-20.31,.69-.58,1.07-1.46,1.03-2.36Z"/></svg>