<?xml version="1.0" encoding="UTF-8" standalone="no"?><!-- Generator: Gravit.io --><svg xmlns="http://www.w3.org/2000/svg" xmlns:xlink="http://www.w3.org/1999/xlink" style="isolation:isolate" viewBox="0 0 1000 1000" width="1000pt" height="1000pt"><defs><clipPath id="_clipPath_0nQ9FrCTB4zn7tbypoaZBI2waVmKUbeO"><rect width="1000" height="1000"/></clipPath></defs><g clip-path="url(#_clipPath_0nQ9FrCTB4zn7tbypoaZBI2waVmKUbeO)"><path d=" M 714.27 469.41 L 714.27 469.42 L 736.66 460.98 L 714.27 469.41 Z " fill="rgb(0,0,0)"/><clipPath id="_clipPath_lItEKvPiXMiZN8HwmSUuzy8EaA93esX8"><path d=" M 0 0 L 1000 0 L 1000 1000 L 0 1000 L 0 0 Z " fill="rgb(255,255,255)"/></clipPath><g clip-path="url(#_clipPath_lItEKvPiXMiZN8HwmSUuzy8EaA93esX8)"><path d=" M 910.944 415.715 L 892.542 422.651 L 862.984 433.821 L 862.942 433.821 L 832.962 445.106 L 832.948 445.106 L 801.448 456.978 L 784.341 463.422 L 773.395 467.53 L 773.395 467.544 L 772.256 467.967 L 751.054 475.944 L 751.012 475.957 L 654.67 512.283 L 641.629 517.192 L 586.747 537.873 L 514.744 564.997 L 492.909 573.227 L 491.756 573.665 L 470.512 581.668 L 470.47 581.682 L 374.17 617.965 L 372.257 618.684 L 372.257 489.422 L 491.418 444.527 L 910.944 286.453 L 910.944 415.715 Z  M 862.942 480.543 L 862.984 480.543 L 890.643 491.124 L 502.293 637.464 L 361.129 690.644 L 109.315 594.26 L 167.024 572.524 L 219.5 592.614 L 230.009 596.639 C 237.255 630.543 300.943 648.719 361.087 648.719 C 364.787 648.719 368.529 648.636 372.257 648.508 C 428.391 646.412 484.468 628.742 492.037 597.439 L 492.909 597.116 L 532.667 582.118 L 636.676 542.951 C 638.308 542.98 639.954 542.994 641.586 542.994 C 701.223 542.994 764.391 525.098 772.509 491.756 L 780.5 488.745 L 832.849 469.007 L 862.942 480.543 Z  M 910.944 507.344 L 910.944 636.622 L 372.257 839.588 L 372.257 710.312 L 491.418 665.419 L 910.944 507.344 Z  M 109.315 373.369 L 229.32 328.166 L 229.32 369.246 C 229.32 393.965 257.992 411.297 295.625 420.442 C 315.898 425.324 338.746 427.828 361.087 427.828 C 364.787 427.828 368.529 427.744 372.257 427.617 C 432.625 425.366 492.909 405.093 492.909 369.246 L 492.909 297.412 C 492.909 295.035 492.614 292.699 492.093 290.448 C 491.081 285.988 489.083 281.782 486.199 277.871 C 484.75 275.873 483.132 274.002 481.261 272.187 C 471.539 262.536 456.331 254.939 438.281 249.41 L 509.862 222.441 L 509.862 263.521 C 509.862 301.576 577.743 322.088 641.586 322.088 C 705.472 322.088 773.395 301.576 773.395 263.521 L 773.395 225.325 L 890.643 270.232 L 502.293 416.573 L 372.257 465.56 L 361.129 469.753 L 337.325 460.65 L 293.501 443.88 L 262.325 431.95 L 109.315 373.369 Z  M 470.512 330.966 L 470.512 369.246 C 470.512 383.99 427.912 405.487 361.129 405.487 L 361.129 355.994 C 402.42 355.994 445.329 347.37 470.512 330.966 Z  M 252.167 294.57 C 257.106 280.037 298.481 261.129 361.087 261.129 C 415.377 261.129 453.7 275.324 466.193 288.577 C 469.035 291.63 470.512 294.655 470.512 297.412 C 470.512 312.198 427.912 333.653 361.087 333.653 C 294.317 333.653 251.661 312.198 251.661 297.412 C 251.661 296.484 251.83 295.541 252.167 294.57 Z  M 751.054 225.282 L 751.054 263.521 C 751.054 278.293 708.412 299.79 641.629 299.79 L 641.629 250.296 C 682.962 250.296 725.829 241.63 751.054 225.282 Z  M 532.667 188.873 C 537.591 174.312 578.967 155.446 641.629 155.446 C 695.919 155.446 734.228 169.627 746.679 182.851 C 749.521 185.904 751.054 188.915 751.054 191.729 C 751.054 206.501 708.412 227.955 641.629 227.955 C 574.803 227.955 532.161 206.501 532.161 191.729 C 532.161 190.786 532.33 189.815 532.667 188.873 Z  M 932.835 267.291 C 932.736 266.954 932.61 266.658 932.483 266.363 C 932.23 265.687 931.934 265.082 931.554 264.492 C 931.386 264.154 931.175 263.901 930.964 263.605 C 930.541 263.043 930.063 262.536 929.557 262.072 C 929.303 261.861 929.05 261.608 928.797 261.396 C 928.67 261.312 928.586 261.228 928.502 261.129 C 927.686 260.581 926.884 260.158 926.025 259.863 L 773.395 201.408 L 773.395 191.729 C 773.395 189.351 773.1 187.002 772.593 184.751 C 771.58 180.291 769.54 176.084 766.684 172.145 C 765.249 170.19 763.632 168.319 761.76 166.49 C 739.673 144.655 689.546 133.105 641.629 133.105 L 641.586 133.105 C 585.72 133.105 526.716 148.82 512.873 178.251 C 510.875 182.458 509.82 186.917 509.82 191.687 L 509.82 198.608 L 397.327 240.997 C 385.425 239.562 373.2 238.788 361.087 238.788 C 333.132 238.788 304.418 242.742 280.98 250.353 C 257.528 257.95 239.295 269.247 232.373 283.948 C 230.375 288.155 229.32 292.657 229.32 297.412 L 229.32 304.292 L 73.975 362.831 L 73.932 362.831 L 73.932 362.873 C 73.074 363.169 72.272 363.549 71.541 364.069 C 71.414 364.154 71.33 364.28 71.245 364.365 C 70.95 364.533 70.739 364.787 70.486 365.04 C 69.937 365.504 69.473 365.982 69.036 366.531 C 68.825 366.827 68.614 367.08 68.446 367.417 C 68.066 368.008 67.77 368.613 67.517 369.246 C 67.433 369.584 67.264 369.879 67.165 370.175 C 66.87 371.16 66.701 372.13 66.701 373.115 L 66.701 526.421 C 66.701 531.049 69.557 535.214 73.89 536.874 L 74.101 536.958 L 135.609 560.495 L 74.101 583.681 L 73.975 583.722 L 73.932 583.722 L 73.932 583.764 C 73.074 584.074 72.272 584.454 71.541 584.96 C 71.414 585.045 71.33 585.171 71.245 585.256 C 70.95 585.425 70.739 585.679 70.486 585.931 C 69.937 586.409 69.473 586.874 69.036 587.422 C 68.825 587.718 68.614 587.971 68.446 588.323 C 68.066 588.914 67.77 589.504 67.517 590.138 C 67.433 590.489 67.264 590.785 67.165 591.08 C 66.87 592.051 66.701 593.036 66.701 594.006 L 66.701 747.312 C 66.701 751.955 69.557 756.119 73.89 757.765 L 357.091 866.178 C 357.176 866.22 357.316 866.178 357.401 866.22 C 358.582 866.643 359.863 866.895 361.087 866.895 C 362.325 866.895 363.549 866.643 364.744 866.262 C 364.829 866.22 364.913 866.22 365.04 866.178 L 926.025 654.797 C 930.401 653.137 933.299 648.972 933.299 644.344 L 933.299 491.292 L 933.299 491.249 L 933.299 491.124 C 933.257 490.096 933.088 489.125 932.835 488.198 C 932.736 487.846 932.61 487.551 932.483 487.255 C 932.23 486.579 931.934 485.988 931.554 485.384 C 931.386 485.045 931.175 484.793 930.964 484.498 C 930.541 483.948 930.063 483.427 929.557 482.963 C 929.303 482.752 929.05 482.499 928.797 482.288 C 928.67 482.203 928.586 482.119 928.502 482.036 C 927.686 481.472 926.884 481.05 926.025 480.754 L 925.857 480.67 L 894.47 468.655 L 864.363 457.133 L 925.857 433.948 L 926.025 433.906 C 930.401 432.246 933.299 428.081 933.299 423.453 L 933.299 270.4 L 933.299 270.358 L 933.299 270.232 C 933.257 269.205 933.088 268.234 932.835 267.291 Z " fill="rgb(0,0,0)"/></g></g></svg>